<svg xmlns="http://www.w3.org/2000/svg" width="2000.0px" height="2000.0px" viewBox="-400.0 -400.0 2000.0 2000.0">
<g>
<line stroke="#000000" x1="150.0" y1="-85.0" x2="233.97537" y2="-75.611755"/>
<line stroke="#000000" x1="233.97537" y1="-75.611755" x2="264.44327" y2="-24.325668"/>
<line stroke="#000000" x1="264.44327" y1="-24.325668" x2="401.12598" y2="-44.280285"/>
<line stroke="#000000" x1="401.12598" y1="-44.280285" x2="361.40457" y2="142.5942"/>
<line stroke="#000000" x1="361.40457" y1="142.5942" x2="205.94876" y2="43.711964"/>
<line stroke="#000000" x1="205.94876" y1="43.711964" x2="150.0" y2="50.0"/>
<line stroke="#000000" x1="150.0" y1="50.0" x2="316.9799" y2="-199.87816"/>
<line stroke="#000000" x1="316.9799" y1="-199.87816" x2="398.55096" y2="-181.5564"/>
<line stroke="#000000" x1="398.55096" y1="-181.5564" x2="429.71524" y2="-225.15164"/>
<line stroke="#000000" x1="429.71524" y1="-225.15164" x2="493.43164" y2="-177.13788"/>
<line stroke="#000000" x1="493.43164" y1="-177.13788" x2="559.4276" y2="-53.017483"/>
<line stroke="#000000" x1="559.4276" y1="-53.017483" x2="325.75693" y2="-2.7783709"/>
<line stroke="#000000" x1="325.75693" y1="-2.7783709" x2="563.6031" y2="-26.654758"/>
<line stroke="#000000" x1="563.6031" y1="-26.654758" x2="542.9541" y2="103.71784"/>
<line stroke="#000000" x1="542.9541" y1="103.71784" x2="452.59418" y2="211.40459"/>
<line stroke="#000000" x1="452.59418" y1="211.40459" x2="342.32507" y2="51.730934"/>
<line stroke="#000000" x1="342.32507" y1="51.730934" x2="437.5" y2="220.83647"/>
<line stroke="#000000" x1="437.5" y1="220.83647" x2="334.98715" y2="51.231262"/>
<line stroke="#000000" x1="334.98715" y1="51.231262" x2="310.0" y2="53.0"/>
<line stroke="#000000" x1="310.0" y1="53.0" x2="416.8845" y2="-82.74192"/>
<line stroke="#000000" x1="416.8845" y1="-82.74192" x2="415.72287" y2="-38.135727"/>
<line stroke="#000000" x1="415.72287" y1="-38.135727" x2="558.1073" y2="-174.08023"/>
<line stroke="#000000" x1="558.1073" y1="-174.08023" x2="590.94275" y2="-156.99368"/>
<line stroke="#000000" x1="590.94275" y1="-156.99368" x2="446.6312" y2="-41.144966"/>
<line stroke="#000000" x1="446.6312" y1="-41.144966" x2="601.4046" y2="-142.5942"/>
<line stroke="#000000" x1="601.4046" y1="-142.5942" x2="413.74536" y2="-14.837739"/>
<line stroke="#000000" x1="413.74536" y1="-14.837739" x2="615.1516" y2="-119.71525"/>
<line stroke="#000000" x1="615.1516" y1="-119.71525" x2="453.94818" y2="-28.471565"/>
<line stroke="#000000" x1="453.94818" y1="-28.471565" x2="451.11798" y2="29.809238"/>
<line stroke="#000000" x1="451.11798" y1="29.809238" x2="413.8396" y2="12.675733"/>
<line stroke="#000000" x1="413.8396" y1="12.675733" x2="441.423" y2="61.283554"/>
<line stroke="#000000" x1="441.423" y1="61.283554" x2="392.02295" y2="28.929358"/>
<line stroke="#000000" x1="392.02295" y1="28.929358" x2="60.0" y2="377.0"/>
<line stroke="#000000" x1="60.0" y1="377.0" x2="216.99368" y2="189.05725"/>
<line stroke="#000000" x1="216.99368" y1="189.05725" x2="255.34134" y2="226.08916"/>
<line stroke="#000000" x1="255.34134" y1="226.08916" x2="236.5144" y2="252.09183"/>
<line stroke="#000000" x1="236.5144" y1="252.09183" x2="276.25226" y2="254.87059"/>
<line stroke="#000000" x1="276.25226" y1="254.87059" x2="289.19247" y2="278.21536"/>
<line stroke="#000000" x1="289.19247" y1="278.21536" x2="185.15573" y2="334.27707"/>
<line stroke="#000000" x1="185.15573" y1="334.27707" x2="190.98993" y2="422.65945"/>
<line stroke="#000000" x1="190.98993" y1="422.65945" x2="161.76305" y2="423.06482"/>
<line stroke="#000000" x1="161.76305" y1="423.06482" x2="186.8585" y2="436.17273"/>
<line stroke="#000000" x1="186.8585" y1="436.17273" x2="84.665726" y2="400.9819"/>
<line stroke="#000000" x1="84.665726" y1="400.9819" x2="182.236" y2="449.61847"/>
<line stroke="#000000" x1="182.236" y1="449.61847" x2="82.956635" y2="402.20627"/>
<line stroke="#000000" x1="82.956635" y1="402.20627" x2="191.44745" y2="472.13748"/>
<line stroke="#000000" x1="191.44745" y1="472.13748" x2="175.93059" y2="494.38437"/>
<line stroke="#000000" x1="175.93059" y1="494.38437" x2="243.43166" y2="567.1379"/>
<line stroke="#000000" x1="243.43166" y1="567.1379" x2="216.99368" y2="590.94275"/>
<line stroke="#000000" x1="216.99368" y1="590.94275" x2="151.6945" y2="516.20667"/>
<line stroke="#000000" x1="151.6945" y1="516.20667" x2="202.5942" y2="601.4046"/>
<line stroke="#000000" x1="202.5942" y1="601.4046" x2="99.5" y2="458.41602"/>
<line stroke="#000000" x1="99.5" y1="458.41602" x2="60.0" y2="462.0"/>
<line stroke="#000000" x1="60.0" y1="462.0" x2="110.0" y2="135.0"/>
<line stroke="#000000" x1="110.0" y1="135.0" x2="117.742966" y2="279.2704"/>
<line stroke="#000000" x1="117.742966" y1="279.2704" x2="143.37384" y2="287.2859"/>
<line stroke="#000000" x1="143.37384" y1="287.2859" x2="213.71785" y2="157.04591"/>
<line stroke="#000000" x1="213.71785" y1="157.04591" x2="139.80923" y2="328.88202"/>
<line stroke="#000000" x1="139.80923" y1="328.88202" x2="237.5" y2="169.16353"/>
<line stroke="#000000" x1="237.5" y1="169.16353" x2="266.99368" y2="189.05725"/>
<line stroke="#000000" x1="266.99368" y1="189.05725" x2="330.8365" y2="262.5"/>
<line stroke="#000000" x1="330.8365" y1="262.5" x2="197.4118" y2="343.5223"/>
<line stroke="#000000" x1="197.4118" y1="343.5223" x2="339.19247" y2="278.21536"/>
<line stroke="#000000" x1="339.19247" y1="278.21536" x2="190.392" y2="354.20718"/>
<line stroke="#000000" x1="190.392" y1="354.20718" x2="346.4319" y2="294.4753"/>
<line stroke="#000000" x1="346.4319" y1="294.4753" x2="191.79086" y2="363.42453"/>
<line stroke="#000000" x1="191.79086" y1="363.42453" x2="182.635" y2="476.56302"/>
<line stroke="#000000" x1="182.635" y1="476.56302" x2="134.62646" y2="421.52042"/>
<line stroke="#000000" x1="134.62646" y1="421.52042" x2="170.4108" y2="486.6775"/>
<line stroke="#000000" x1="170.4108" y1="486.6775" x2="110.0" y2="461.0"/>
<line stroke="#000000" x1="110.0" y1="461.0" x2="-301.10062" y2="-144.84467"/>
<line stroke="#000000" x1="-301.10062" y1="-144.84467" x2="-190.28474" y2="-115.151634"/>
<line stroke="#000000" x1="-190.28474" y1="-115.151634" x2="-265.0" y2="32.057713"/>
<line stroke="#000000" x1="-265.0" y1="32.057713" x2="-174.87059" y2="-106.252266"/>
<line stroke="#000000" x1="-174.87059" y1="-106.252266" x2="-277.00763" y2="61.086784"/>
<line stroke="#000000" x1="-277.00763" y1="61.086784" x2="-153.00632" y2="-90.94274"/>
<line stroke="#000000" x1="-153.00632" y1="-90.94274" x2="-289.8585" y2="90.54957"/>
<line stroke="#000000" x1="-289.8585" y1="90.54957" x2="-84.848366" y2="-9.715248"/>
<line stroke="#000000" x1="-84.848366" y1="-9.715248" x2="-278.99014" y2="98.71333"/>
<line stroke="#000000" x1="-278.99014" y1="98.71333" x2="-108.13504" y2="52.116154"/>
<line stroke="#000000" x1="-108.13504" y1="52.116154" x2="-219.39769" y2="94.02437"/>
<line stroke="#000000" x1="-219.39769" y1="94.02437" x2="-55.0" y2="110.0"/>
<line stroke="#000000" x1="-55.0" y1="110.0" x2="-125.45065" y2="122.904945"/>
<line stroke="#000000" x1="-125.45065" y1="122.904945" x2="-60.57236" y2="163.01749"/>
<line stroke="#000000" x1="-60.57236" y1="163.01749" x2="-220.73279" y2="132.25682"/>
<line stroke="#000000" x1="-220.73279" y1="132.25682" x2="-67.48059" y2="188.79933"/>
<line stroke="#000000" x1="-67.48059" y1="188.79933" x2="-77.045906" y2="213.71785"/>
<line stroke="#000000" x1="-77.045906" y1="213.71785" x2="-226.41216" y2="150.76852"/>
<line stroke="#000000" x1="-226.41216" y1="150.76852" x2="-89.16352" y2="237.5"/>
<line stroke="#000000" x1="-89.16352" y1="237.5" x2="-174.87059" y2="326.25226"/>
<line stroke="#000000" x1="-174.87059" y1="326.25226" x2="-234.0" y2="241.63586"/>
<line stroke="#000000" x1="-234.0" y1="241.63586" x2="-190.28474" y2="335.15164"/>
<line stroke="#000000" x1="-190.28474" y1="335.15164" x2="-297.7979" y2="137.40636"/>
<line stroke="#000000" x1="-297.7979" y1="137.40636" x2="-279.2182" y2="194.57234"/>
<line stroke="#000000" x1="-279.2182" y1="194.57234" x2="-310.0" y2="197.0"/>
<line stroke="#000000" x1="-310.0" y1="197.0" x2="-94.181755" y2="185.72652"/>
<line stroke="#000000" x1="-94.181755" y1="185.72652" x2="-83.40756" y2="143.64842"/>
<line stroke="#000000" x1="-83.40756" y1="143.64842" x2="-87.38215" y2="225.81573"/>
<line stroke="#000000" x1="-87.38215" y1="225.81573" x2="-35.431133" y2="124.23331"/>
<line stroke="#000000" x1="-35.431133" y1="124.23331" x2="-80.18582" y2="228.66989"/>
<line stroke="#000000" x1="-80.18582" y1="228.66989" x2="101.94779" y2="97.564766"/>
<line stroke="#000000" x1="101.94779" y1="97.564766" x2="-6.557707" y2="196.79724"/>
<line stroke="#000000" x1="-6.557707" y1="196.79724" x2="121.84153" y2="127.05844"/>
<line stroke="#000000" x1="121.84153" y1="127.05844" x2="-60.62604" y2="237.47551"/>
<line stroke="#000000" x1="-60.62604" y1="237.47551" x2="140.62666" y2="167.3433"/>
<line stroke="#000000" x1="140.62666" y1="167.3433" x2="-64.38953" y2="244.6355"/>
<line stroke="#000000" x1="-64.38953" y1="244.6355" x2="150.4327" y2="201.54095"/>
<line stroke="#000000" x1="150.4327" y1="201.54095" x2="-21.184954" y2="249.11743"/>
<line stroke="#000000" x1="-21.184954" y1="249.11743" x2="155.84972" y2="263.45782"/>
<line stroke="#000000" x1="155.84972" y1="263.45782" x2="-1.5318036" y2="264.80222"/>
<line stroke="#000000" x1="-1.5318036" y1="264.80222" x2="153.5234" y2="290.04758"/>
<line stroke="#000000" x1="153.5234" y1="290.04758" x2="-62.12371" y2="263.75146"/>
<line stroke="#000000" x1="-62.12371" y1="263.75146" x2="-19.106201" y2="280.51587"/>
<line stroke="#000000" x1="-19.106201" y1="280.51587" x2="-98.99495" y2="341.55844"/>
<line stroke="#000000" x1="-98.99495" y1="341.55844" x2="-189.19731" y2="87.01401"/>
<line stroke="#000000" x1="-189.19731" y1="87.01401" x2="21.404581" y2="-32.59419"/>
<line stroke="#000000" x1="21.404581" y1="-32.59419" x2="62.518356" y2="145.48914"/>
<line stroke="#000000" x1="62.518356" y1="145.48914" x2="-33.006325" y2="310.94275"/>
<line stroke="#000000" x1="-33.006325" y1="310.94275" x2="-190.0" y2="127.0"/>
<line stroke="#000000" x1="-190.0" y1="127.0" x2="153.19435" y2="-124.211624"/>
<line stroke="#000000" x1="153.19435" y1="-124.211624" x2="198.46118" y2="-106.60219"/>
<line stroke="#000000" x1="198.46118" y1="-106.60219" x2="189.90463" y2="-69.06427"/>
<line stroke="#000000" x1="189.90463" y1="-69.06427" x2="392.7822" y2="-119.062126"/>
<line stroke="#000000" x1="392.7822" y1="-119.062126" x2="405.2628" y2="-40.262794"/>
<line stroke="#000000" x1="405.2628" y1="-40.262794" x2="379.45526" y2="71.52185"/>
<line stroke="#000000" x1="379.45526" y1="71.52185" x2="300.14804" y2="166.03654"/>
<line stroke="#000000" x1="300.14804" y1="166.03654" x2="171.51213" y2="-8.759367"/>
<line stroke="#000000" x1="171.51213" y1="-8.759367" x2="237.76279" y2="111.29165"/>
<line stroke="#000000" x1="237.76279" y1="111.29165" x2="167.86931" y2="3.3148468"/>
<line stroke="#000000" x1="167.86931" y1="3.3148468" x2="237.47794" y2="199.35883"/>
<line stroke="#000000" x1="237.47794" y1="199.35883" x2="168.05069" y2="214.11604"/>
<line stroke="#000000" x1="168.05069" y1="214.11604" x2="150.26279" y2="54.737206"/>
</g>
</svg>
