<svg xmlns="http://www.w3.org/2000/svg" width="2000.0px" height="2000.0px" viewBox="-800.0 -800.0 2000.0 2000.0">
<g>
<line stroke="#000000" x1="300.0" y1="1285.0" x2="383.97537" y2="1275.6118"/>
<line stroke="#000000" x1="383.97537" y1="1275.6118" x2="414.44327" y2="1224.3257"/>
<line stroke="#000000" x1="414.44327" y1="1224.3257" x2="551.126" y2="1244.2803"/>
<line stroke="#000000" x1="551.126" y1="1244.2803" x2="511.40457" y2="1057.4058"/>
<line stroke="#000000" x1="511.40457" y1="1057.4058" x2="355.94876" y2="1156.2881"/>
<line stroke="#000000" x1="355.94876" y1="1156.2881" x2="300.0" y2="1150.0"/>
<line stroke="#000000" x1="300.0" y1="1150.0" x2="626.9799" y2="1399.8782"/>
<line stroke="#000000" x1="626.9799" y1="1399.8782" x2="708.55096" y2="1381.5564"/>
<line stroke="#000000" x1="708.55096" y1="1381.5564" x2="762.5942" y2="1411.4045"/>
<line stroke="#000000" x1="762.5942" y1="1411.4045" x2="869.4276" y2="1253.0175"/>
<line stroke="#000000" x1="869.4276" y1="1253.0175" x2="635.7569" y2="1202.7783"/>
<line stroke="#000000" x1="635.7569" y1="1202.7783" x2="873.6031" y2="1226.6548"/>
<line stroke="#000000" x1="873.6031" y1="1226.6548" x2="874.84467" y2="1191.1006"/>
<line stroke="#000000" x1="874.84467" y1="1191.1006" x2="845.1516" y2="1080.2848"/>
<line stroke="#000000" x1="845.1516" y1="1080.2848" x2="762.5942" y2="988.5954"/>
<line stroke="#000000" x1="762.5942" y1="988.5954" x2="652.3251" y2="1148.269"/>
<line stroke="#000000" x1="652.3251" y1="1148.269" x2="747.5" y2="979.1635"/>
<line stroke="#000000" x1="747.5" y1="979.1635" x2="644.9872" y2="1148.7688"/>
<line stroke="#000000" x1="644.9872" y1="1148.7688" x2="620.0" y2="1147.0"/>
<line stroke="#000000" x1="620.0" y1="1147.0" x2="787.71783" y2="1226.9153"/>
<line stroke="#000000" x1="787.71783" y1="1226.9153" x2="806.88446" y2="1282.742"/>
<line stroke="#000000" x1="806.88446" y1="1282.742" x2="792.73663" y2="1231.5243"/>
<line stroke="#000000" x1="792.73663" y1="1231.5243" x2="827.5083" y2="1252.7633"/>
<line stroke="#000000" x1="827.5083" y1="1252.7633" x2="948.1073" y2="1374.0802"/>
<line stroke="#000000" x1="948.1073" y1="1374.0802" x2="980.94275" y2="1356.9937"/>
<line stroke="#000000" x1="980.94275" y1="1356.9937" x2="836.63116" y2="1241.145"/>
<line stroke="#000000" x1="836.63116" y1="1241.145" x2="991.4046" y2="1342.5942"/>
<line stroke="#000000" x1="991.4046" y1="1342.5942" x2="803.74536" y2="1214.8378"/>
<line stroke="#000000" x1="803.74536" y1="1214.8378" x2="1005.1516" y2="1319.7152"/>
<line stroke="#000000" x1="1005.1516" y1="1319.7152" x2="843.9482" y2="1228.4716"/>
<line stroke="#000000" x1="843.9482" y1="1228.4716" x2="841.118" y2="1170.1908"/>
<line stroke="#000000" x1="841.118" y1="1170.1908" x2="803.8396" y2="1187.3242"/>
<line stroke="#000000" x1="803.8396" y1="1187.3242" x2="838.5153" y2="1163.4355"/>
<line stroke="#000000" x1="838.5153" y1="1163.4355" x2="803.01886" y2="1177.7709"/>
<line stroke="#000000" x1="803.01886" y1="1177.7709" x2="829.2529" y2="1136.9591"/>
<line stroke="#000000" x1="829.2529" y1="1136.9591" x2="788.65247" y2="1173.3704"/>
<line stroke="#000000" x1="788.65247" y1="1173.3704" x2="780.0" y2="1146.0"/>
<line stroke="#000000" x1="780.0" y1="1146.0" x2="330.0" y2="1637.0"/>
<line stroke="#000000" x1="330.0" y1="1637.0" x2="173.00632" y2="1449.0573"/>
<line stroke="#000000" x1="173.00632" y1="1449.0573" x2="134.65866" y2="1486.0891"/>
<line stroke="#000000" x1="134.65866" y1="1486.0891" x2="153.4856" y2="1512.0918"/>
<line stroke="#000000" x1="153.4856" y1="1512.0918" x2="100.80752" y2="1538.2153"/>
<line stroke="#000000" x1="100.80752" y1="1538.2153" x2="202.97581" y2="1598.679"/>
<line stroke="#000000" x1="202.97581" y1="1598.679" x2="200.22968" y2="1687.211"/>
<line stroke="#000000" x1="200.22968" y1="1687.211" x2="228.23695" y2="1683.0648"/>
<line stroke="#000000" x1="228.23695" y1="1683.0648" x2="203.1415" y2="1696.1727"/>
<line stroke="#000000" x1="203.1415" y1="1696.1727" x2="305.33426" y2="1660.9819"/>
<line stroke="#000000" x1="305.33426" y1="1660.9819" x2="207.764" y2="1709.6184"/>
<line stroke="#000000" x1="207.764" y1="1709.6184" x2="307.04337" y2="1662.2063"/>
<line stroke="#000000" x1="307.04337" y1="1662.2063" x2="198.55255" y2="1732.1375"/>
<line stroke="#000000" x1="198.55255" y1="1732.1375" x2="214.06941" y2="1754.3844"/>
<line stroke="#000000" x1="214.06941" y1="1754.3844" x2="146.56834" y2="1827.138"/>
<line stroke="#000000" x1="146.56834" y1="1827.138" x2="173.00632" y2="1850.9427"/>
<line stroke="#000000" x1="173.00632" y1="1850.9427" x2="238.3055" y2="1776.2067"/>
<line stroke="#000000" x1="238.3055" y1="1776.2067" x2="187.4058" y2="1861.4045"/>
<line stroke="#000000" x1="187.4058" y1="1861.4045" x2="290.5" y2="1718.416"/>
<line stroke="#000000" x1="290.5" y1="1718.416" x2="330.0" y2="1722.0"/>
<line stroke="#000000" x1="330.0" y1="1722.0" x2="271.10062" y2="1445.1553"/>
<line stroke="#000000" x1="271.10062" y1="1445.1553" x2="268.60638" y2="1591.5972"/>
<line stroke="#000000" x1="268.60638" y1="1591.5972" x2="246.62616" y2="1597.2859"/>
<line stroke="#000000" x1="246.62616" y1="1597.2859" x2="176.28215" y2="1467.0459"/>
<line stroke="#000000" x1="176.28215" y1="1467.0459" x2="250.19077" y2="1638.8821"/>
<line stroke="#000000" x1="250.19077" y1="1638.8821" x2="152.5" y2="1479.1636"/>
<line stroke="#000000" x1="152.5" y1="1479.1636" x2="59.16352" y2="1572.5"/>
<line stroke="#000000" x1="59.16352" y1="1572.5" x2="192.5882" y2="1653.5223"/>
<line stroke="#000000" x1="192.5882" y1="1653.5223" x2="50.807518" y2="1588.2153"/>
<line stroke="#000000" x1="50.807518" y1="1588.2153" x2="199.608" y2="1664.2072"/>
<line stroke="#000000" x1="199.608" y1="1664.2072" x2="43.568115" y2="1604.4753"/>
<line stroke="#000000" x1="43.568115" y1="1604.4753" x2="198.20914" y2="1673.4246"/>
<line stroke="#000000" x1="198.20914" y1="1673.4246" x2="207.365" y2="1786.563"/>
<line stroke="#000000" x1="207.365" y1="1786.563" x2="255.37354" y2="1731.5205"/>
<line stroke="#000000" x1="255.37354" y1="1731.5205" x2="219.5892" y2="1796.6775"/>
<line stroke="#000000" x1="219.5892" y1="1796.6775" x2="280.0" y2="1771.0"/>
<line stroke="#000000" x1="280.0" y1="1771.0" x2="8.899372" y2="1454.8447"/>
<line stroke="#000000" x1="8.899372" y1="1454.8447" x2="119.71525" y2="1425.1516"/>
<line stroke="#000000" x1="119.71525" y1="1425.1516" x2="45.0" y2="1277.9423"/>
<line stroke="#000000" x1="45.0" y1="1277.9423" x2="135.12941" y2="1416.2522"/>
<line stroke="#000000" x1="135.12941" y1="1416.2522" x2="32.992382" y2="1248.9132"/>
<line stroke="#000000" x1="32.992382" y1="1248.9132" x2="156.99368" y2="1400.9427"/>
<line stroke="#000000" x1="156.99368" y1="1400.9427" x2="20.141514" y2="1219.4504"/>
<line stroke="#000000" x1="20.141514" y1="1219.4504" x2="225.15164" y2="1319.7152"/>
<line stroke="#000000" x1="225.15164" y1="1319.7152" x2="31.009857" y2="1211.2866"/>
<line stroke="#000000" x1="31.009857" y1="1211.2866" x2="201.86496" y2="1257.8838"/>
<line stroke="#000000" x1="201.86496" y1="1257.8838" x2="90.60231" y2="1215.9756"/>
<line stroke="#000000" x1="90.60231" y1="1215.9756" x2="254.37883" y2="1217.7878"/>
<line stroke="#000000" x1="254.37883" y1="1217.7878" x2="60.96284" y2="1197.8711"/>
<line stroke="#000000" x1="60.96284" y1="1197.8711" x2="253.60309" y2="1173.3452"/>
<line stroke="#000000" x1="253.60309" y1="1173.3452" x2="249.42764" y2="1146.9825"/>
<line stroke="#000000" x1="249.42764" y1="1146.9825" x2="89.267204" y2="1177.7432"/>
<line stroke="#000000" x1="89.267204" y1="1177.7432" x2="242.51941" y2="1121.2007"/>
<line stroke="#000000" x1="242.51941" y1="1121.2007" x2="232.95409" y2="1096.2821"/>
<line stroke="#000000" x1="232.95409" y1="1096.2821" x2="83.587845" y2="1159.2314"/>
<line stroke="#000000" x1="83.587845" y1="1159.2314" x2="220.83647" y2="1072.5"/>
<line stroke="#000000" x1="220.83647" y1="1072.5" x2="135.12941" y2="983.74774"/>
<line stroke="#000000" x1="135.12941" y1="983.74774" x2="76.0" y2="1068.3641"/>
<line stroke="#000000" x1="76.0" y1="1068.3641" x2="119.71525" y2="974.8484"/>
<line stroke="#000000" x1="119.71525" y1="974.8484" x2="12.202099" y2="1172.5936"/>
<line stroke="#000000" x1="12.202099" y1="1172.5936" x2="30.781813" y2="1115.4276"/>
<line stroke="#000000" x1="30.781813" y1="1115.4276" x2="0.0" y2="1113.0"/>
<line stroke="#000000" x1="0.0" y1="1113.0" x2="64.273476" y2="1404.1818"/>
<line stroke="#000000" x1="64.273476" y1="1404.1818" x2="106.351585" y2="1393.4076"/>
<line stroke="#000000" x1="106.351585" y1="1393.4076" x2="24.184258" y2="1397.3821"/>
<line stroke="#000000" x1="24.184258" y1="1397.3821" x2="125.76669" y2="1345.4312"/>
<line stroke="#000000" x1="125.76669" y1="1345.4312" x2="21.330103" y2="1390.1858"/>
<line stroke="#000000" x1="21.330103" y1="1390.1858" x2="152.43524" y2="1208.0522"/>
<line stroke="#000000" x1="152.43524" y1="1208.0522" x2="53.20276" y2="1316.5577"/>
<line stroke="#000000" x1="53.20276" y1="1316.5577" x2="122.94156" y2="1188.1584"/>
<line stroke="#000000" x1="122.94156" y1="1188.1584" x2="12.524498" y2="1370.626"/>
<line stroke="#000000" x1="12.524498" y1="1370.626" x2="82.65669" y2="1169.3733"/>
<line stroke="#000000" x1="82.65669" y1="1169.3733" x2="5.3645034" y2="1374.3895"/>
<line stroke="#000000" x1="5.3645034" y1="1374.3895" x2="48.45904" y2="1159.5673"/>
<line stroke="#000000" x1="48.45904" y1="1159.5673" x2="0.8825637" y2="1331.1849"/>
<line stroke="#000000" x1="0.8825637" y1="1331.1849" x2="-22.346342" y2="1154.6161"/>
<line stroke="#000000" x1="-22.346342" y1="1154.6161" x2="-13.751473" y2="1372.1238"/>
<line stroke="#000000" x1="-13.751473" y1="1372.1238" x2="-30.51587" y2="1329.1062"/>
<line stroke="#000000" x1="-30.51587" y1="1329.1062" x2="-91.55844" y2="1408.995"/>
<line stroke="#000000" x1="-91.55844" y1="1408.995" x2="19.917156" y2="1216.7125"/>
<line stroke="#000000" x1="19.917156" y1="1216.7125" x2="211.40459" y2="1342.5942"/>
<line stroke="#000000" x1="211.40459" y1="1342.5942" x2="23.745346" y2="1214.8378"/>
<line stroke="#000000" x1="23.745346" y1="1214.8378" x2="220.83647" y2="1327.5"/>
<line stroke="#000000" x1="220.83647" y1="1327.5" x2="251.12598" y2="1155.7197"/>
<line stroke="#000000" x1="251.12598" y1="1155.7197" x2="156.99368" y2="999.05725"/>
<line stroke="#000000" x1="156.99368" y1="999.05725" x2="2.842171E-14" y2="1183.0"/>
<line stroke="#000000" x1="2.842171E-14" y1="1183.0" x2="79.02676" y2="1504.776"/>
<line stroke="#000000" x1="79.02676" y1="1504.776" x2="116.91039" y2="1535.1736"/>
<line stroke="#000000" x1="116.91039" y1="1535.1736" x2="145.1409" y2="1508.9944"/>
<line stroke="#000000" x1="145.1409" y1="1508.9944" x2="203.28027" y2="1709.6904"/>
<line stroke="#000000" x1="203.28027" y1="1709.6904" x2="339.76474" y2="1630.8911"/>
<line stroke="#000000" x1="339.76474" y1="1630.8911" x2="403.86588" y2="1486.9175"/>
<line stroke="#000000" x1="403.86588" y1="1486.9175" x2="189.23904" y2="1461.6239"/>
<line stroke="#000000" x1="189.23904" y1="1461.6239" x2="401.38876" y2="1415.9825"/>
<line stroke="#000000" x1="401.38876" y1="1415.9825" x2="379.45526" y2="1348.4781"/>
<line stroke="#000000" x1="379.45526" y1="1348.4781" x2="232.5352" y2="1412.7628"/>
</g>
</svg>
