<svg xmlns="http://www.w3.org/2000/svg" width="1000.0px" height="1000.0px" viewBox="0.0 0.0 1000.0 1000.0">
<g>
<line stroke="#000000" x1="150.0" y1="1085.0" x2="201.7251" y2="1071.1935"/>
<line stroke="#000000" x1="201.7251" y1="1071.1935" x2="152.96646" y2="1084.9482"/>
<line stroke="#000000" x1="152.96646" y1="1084.9482" x2="198.64978" y2="1072.1262"/>
<line stroke="#000000" x1="198.64978" y1="1072.1262" x2="155.9293" y2="1084.793"/>
<line stroke="#000000" x1="155.9293" y1="1084.793" x2="196.63289" y2="1074.6282"/>
<line stroke="#000000" x1="196.63289" y1="1074.6282" x2="173.70482" y2="1082.6685"/>
<line stroke="#000000" x1="173.70482" y1="1082.6685" x2="204.1782" y2="1069.345"/>
<line stroke="#000000" x1="204.1782" y1="1069.345" x2="158.98944" y2="1085.5289"/>
<line stroke="#000000" x1="158.98944" y1="1085.5289" x2="185.3861" y2="1079.4785"/>
<line stroke="#000000" x1="185.3861" y1="1079.4785" x2="161.96889" y2="1085.1631"/>
<line stroke="#000000" x1="161.96889" y1="1085.1631" x2="207.2081" y2="1068.178"/>
<line stroke="#000000" x1="207.2081" y1="1068.178" x2="164.93375" y2="1084.6935"/>
<line stroke="#000000" x1="164.93375" y1="1084.6935" x2="182.59077" y2="1080.665"/>
<line stroke="#000000" x1="182.59077" y1="1080.665" x2="209.55263" y2="1066.1399"/>
<line stroke="#000000" x1="209.55263" y1="1066.1399" x2="179.75575" y2="1081.7533"/>
<line stroke="#000000" x1="179.75575" y1="1081.7533" x2="212.51926" y2="1064.7406"/>
<line stroke="#000000" x1="212.51926" y1="1064.7406" x2="167.8804" y2="1084.1207"/>
<line stroke="#000000" x1="167.8804" y1="1084.1207" x2="193.5" y2="1075.3442"/>
<line stroke="#000000" x1="193.5" y1="1075.3442" x2="170.80528" y2="1083.4454"/>
<line stroke="#000000" x1="170.80528" y1="1083.4454" x2="235.79698" y2="1071.9922"/>
<line stroke="#000000" x1="235.79698" y1="1071.9922" x2="176.57545" y2="1081.7909"/>
<line stroke="#000000" x1="176.57545" y1="1081.7909" x2="214.74059" y2="1062.5193"/>
<line stroke="#000000" x1="214.74059" y1="1062.5193" x2="188.13829" y2="1078.1951"/>
<line stroke="#000000" x1="188.13829" y1="1078.1951" x2="233.97537" y2="1075.6118"/>
<line stroke="#000000" x1="233.97537" y1="1075.6118" x2="190.84402" y2="1076.8164"/>
<line stroke="#000000" x1="190.84402" y1="1076.8164" x2="225.44241" y2="1050.8866"/>
<line stroke="#000000" x1="225.44241" y1="1050.8866" x2="238.2572" y2="1068.9541"/>
<line stroke="#000000" x1="238.2572" y1="1068.9541" x2="208.24922" y2="957.67944"/>
<line stroke="#000000" x1="208.24922" y1="957.67944" x2="240.60991" y2="1065.8319"/>
<line stroke="#000000" x1="240.60991" y1="1065.8319" x2="205.94876" y2="956.288"/>
<line stroke="#000000" x1="205.94876" y1="956.288" x2="245.82944" y2="1059.8809"/>
<line stroke="#000000" x1="245.82944" y1="1059.8809" x2="203.62311" y2="955.0049"/>
<line stroke="#000000" x1="203.62311" y1="955.0049" x2="247.86087" y2="1056.5"/>
<line stroke="#000000" x1="247.86087" y1="1056.5" x2="202.02014" y2="953.1609"/>
<line stroke="#000000" x1="202.02014" y1="953.1609" x2="249.77307" y2="1053.0503"/>
<line stroke="#000000" x1="249.77307" y1="1053.0503" x2="199.63445" y2="952.0686"/>
<line stroke="#000000" x1="199.63445" y1="952.0686" x2="251.56372" y2="1049.5359"/>
<line stroke="#000000" x1="251.56372" y1="1049.5359" x2="197.93143" y2="950.36554"/>
<line stroke="#000000" x1="197.93143" y1="950.36554" x2="254.14418" y2="1046.3679"/>
<line stroke="#000000" x1="254.14418" y1="1046.3679" x2="196.83914" y2="947.97986"/>
<line stroke="#000000" x1="196.83914" y1="947.97986" x2="255.69896" y2="1042.7052"/>
<line stroke="#000000" x1="255.69896" y1="1042.7052" x2="194.35234" y2="947.14294"/>
<line stroke="#000000" x1="194.35234" y1="947.14294" x2="257.12497" y2="1038.9902"/>
<line stroke="#000000" x1="257.12497" y1="1038.9902" x2="193.0963" y2="944.83923"/>
<line stroke="#000000" x1="193.0963" y1="944.83923" x2="259.3715" y2="1035.537"/>
<line stroke="#000000" x1="259.3715" y1="1035.537" x2="190.55719" y2="944.17786"/>
<line stroke="#000000" x1="190.55719" y1="944.17786" x2="261.50635" y2="1031.9739"/>
<line stroke="#000000" x1="261.50635" y1="1031.9739" x2="188.5843" y2="942.7964"/>
<line stroke="#000000" x1="188.5843" y1="942.7964" x2="262.5543" y2="1028.063"/>
<line stroke="#000000" x1="262.5543" y1="1028.063" x2="186.56442" y2="941.4847"/>
<line stroke="#000000" x1="186.56442" y1="941.4847" x2="264.44327" y2="1024.3257"/>
<line stroke="#000000" x1="264.44327" y1="1024.3257" x2="184.5" y2="940.24426"/>
<line stroke="#000000" x1="184.5" y1="940.24426" x2="315.37476" y2="1023.2419"/>
<line stroke="#000000" x1="315.37476" y1="1023.2419" x2="182.39354" y2="939.0766"/>
<line stroke="#000000" x1="182.39354" y1="939.0766" x2="379.19247" y2="888.21533"/>
<line stroke="#000000" x1="379.19247" y1="888.21533" x2="168.12708" y2="950.1963"/>
<line stroke="#000000" x1="168.12708" y1="950.1963" x2="382.9541" y2="896.28217"/>
<line stroke="#000000" x1="382.9541" y1="896.28217" x2="166.3779" y2="949.594"/>
<line stroke="#000000" x1="166.3779" y1="949.594" x2="386.4319" y2="904.47534"/>
<line stroke="#000000" x1="386.4319" y1="904.47534" x2="164.33315" y2="950.0144"/>
<line stroke="#000000" x1="164.33315" y1="950.0144" x2="389.6216" y2="912.78485"/>
<line stroke="#000000" x1="389.6216" y1="912.78485" x2="162.57994" y2="949.5446"/>
<line stroke="#000000" x1="162.57994" y1="949.5446" x2="392.5194" y2="921.2007"/>
<line stroke="#000000" x1="392.5194" y1="921.2007" x2="160.8114" y2="949.13635"/>
<line stroke="#000000" x1="160.8114" y1="949.13635" x2="395.12173" y2="929.71246"/>
<line stroke="#000000" x1="395.12173" y1="929.71246" x2="159.02971" y2="948.79"/>
<line stroke="#000000" x1="159.02971" y1="948.79" x2="397.4254" y2="938.30994"/>
<line stroke="#000000" x1="397.4254" y1="938.30994" x2="157.09782" y2="949.49634"/>
<line stroke="#000000" x1="157.09782" y1="949.49634" x2="399.42764" y2="946.98254"/>
<line stroke="#000000" x1="399.42764" y1="946.98254" x2="155.33095" y2="949.27936"/>
<line stroke="#000000" x1="155.33095" y1="949.27936" x2="401.12598" y2="955.7197"/>
<line stroke="#000000" x1="401.12598" y1="955.7197" x2="153.55759" y2="949.1242"/>
<line stroke="#000000" x1="153.55759" y1="949.1242" x2="402.51837" y2="964.51086"/>
<line stroke="#000000" x1="402.51837" y1="964.51086" x2="151.77988" y2="949.03107"/>
<line stroke="#000000" x1="151.77988" y1="949.03107" x2="403.6031" y2="973.3452"/>
<line stroke="#000000" x1="403.6031" y1="973.3452" x2="180.68597" y2="937.0844"/>
<line stroke="#000000" x1="180.68597" y1="937.0844" x2="404.37885" y2="982.2121"/>
<line stroke="#000000" x1="404.37885" y1="982.2121" x2="178.06483" y2="936.96533"/>
<line stroke="#000000" x1="178.06483" y1="936.96533" x2="404.84467" y2="991.10065"/>
<line stroke="#000000" x1="404.84467" y1="991.10065" x2="175.84785" y2="936.0243"/>
<line stroke="#000000" x1="175.84785" y1="936.0243" x2="404.84467" y2="1008.89935"/>
<line stroke="#000000" x1="404.84467" y1="1008.89935" x2="375.15164" y2="880.2847"/>
<line stroke="#000000" x1="375.15164" y1="880.2847" x2="404.37885" y2="1017.7879"/>
<line stroke="#000000" x1="404.37885" y1="1017.7879" x2="370.8365" y2="872.5"/>
<line stroke="#000000" x1="370.8365" y1="872.5" x2="403.6031" y2="1026.6548"/>
<line stroke="#000000" x1="403.6031" y1="1026.6548" x2="366.25226" y2="864.8706"/>
<line stroke="#000000" x1="366.25226" y1="864.8706" x2="401.12598" y2="1044.2803"/>
<line stroke="#000000" x1="401.12598" y1="1044.2803" x2="361.40457" y2="857.4058"/>
<line stroke="#000000" x1="361.40457" y1="857.4058" x2="405.0" y2="1000.0"/>
<line stroke="#000000" x1="405.0" y1="1000.0" x2="150.0" y2="950.0"/>
<line stroke="#000000" x1="310.0" y1="1199.0" x2="385.29593" y2="1186.364"/>
<line stroke="#000000" x1="385.29593" y1="1186.364" x2="316.9799" y2="1199.8782"/>
<line stroke="#000000" x1="316.9799" y1="1199.8782" x2="358.6263" y2="1195.0294"/>
<line stroke="#000000" x1="358.6263" y1="1195.0294" x2="323.9513" y2="1199.5128"/>
<line stroke="#000000" x1="323.9513" y1="1199.5128" x2="392.1608" y2="1184.5361"/>
<line stroke="#000000" x1="392.1608" y1="1184.5361" x2="330.9057" y2="1198.9044"/>
<line stroke="#000000" x1="330.9057" y1="1198.9044" x2="379.43008" y2="1190.7576"/>
<line stroke="#000000" x1="379.43008" y1="1190.7576" x2="337.83463" y2="1198.0536"/>
<line stroke="#000000" x1="337.83463" y1="1198.0536" x2="372.11243" y2="1191.1624"/>
<line stroke="#000000" x1="372.11243" y1="1191.1624" x2="344.72964" y2="1196.9615"/>
<line stroke="#000000" x1="344.72964" y1="1196.9615" x2="365.4031" y2="1193.2136"/>
<line stroke="#000000" x1="365.4031" y1="1193.2136" x2="351.37442" y2="1194.6514"/>
<line stroke="#000000" x1="351.37442" y1="1194.6514" x2="429.71524" y2="1225.1516"/>
<line stroke="#000000" x1="429.71524" y1="1225.1516" x2="398.55096" y2="1181.5564"/>
<line stroke="#000000" x1="398.55096" y1="1181.5564" x2="437.5" y2="1220.8364"/>
<line stroke="#000000" x1="437.5" y1="1220.8364" x2="325.75693" y2="1002.7784"/>
<line stroke="#000000" x1="325.75693" y1="1002.7784" x2="445.12943" y2="1216.2522"/>
<line stroke="#000000" x1="445.12943" y1="1216.2522" x2="458.63705" y2="1010.39374"/>
<line stroke="#000000" x1="458.63705" y1="1010.39374" x2="452.59418" y2="1211.4045"/>
<line stroke="#000000" x1="452.59418" y1="1211.4045" x2="549.62164" y2="912.78485"/>
<line stroke="#000000" x1="549.62164" y1="912.78485" x2="459.88525" y2="1206.2993"/>
<line stroke="#000000" x1="459.88525" y1="1206.2993" x2="546.4319" y2="904.47534"/>
<line stroke="#000000" x1="546.4319" y1="904.47534" x2="466.99368" y2="1200.9427"/>
<line stroke="#000000" x1="466.99368" y1="1200.9427" x2="542.9541" y2="896.28217"/>
<line stroke="#000000" x1="542.9541" y1="896.28217" x2="473.91083" y2="1195.3413"/>
<line stroke="#000000" x1="473.91083" y1="1195.3413" x2="539.1925" y2="888.21533"/>
<line stroke="#000000" x1="539.1925" y1="888.21533" x2="480.6283" y2="1189.502"/>
<line stroke="#000000" x1="480.6283" y1="1189.502" x2="535.1516" y2="880.2847"/>
<line stroke="#000000" x1="535.1516" y1="880.2847" x2="487.13788" y2="1183.4316"/>
<line stroke="#000000" x1="487.13788" y1="1183.4316" x2="552.5194" y2="921.2007"/>
<line stroke="#000000" x1="552.5194" y1="921.2007" x2="342.32507" y2="948.26904"/>
<line stroke="#000000" x1="342.32507" y1="948.26904" x2="555.1217" y2="929.71246"/>
<line stroke="#000000" x1="555.1217" y1="929.71246" x2="337.22934" y2="948.78906"/>
<line stroke="#000000" x1="337.22934" y1="948.78906" x2="557.4254" y2="938.30994"/>
<line stroke="#000000" x1="557.4254" y1="938.30994" x2="334.98715" y2="948.76874"/>
<line stroke="#000000" x1="334.98715" y1="948.76874" x2="559.4276" y2="946.98254"/>
<line stroke="#000000" x1="559.4276" y1="946.98254" x2="332.77725" y2="948.84143"/>
<line stroke="#000000" x1="332.77725" y1="948.84143" x2="561.126" y2="955.7197"/>
<line stroke="#000000" x1="561.126" y1="955.7197" x2="330.60336" y2="949.0049"/>
<line stroke="#000000" x1="330.60336" y1="949.0049" x2="552.5194" y2="1078.7993"/>
<line stroke="#000000" x1="552.5194" y1="1078.7993" x2="328.8111" y2="948.3169"/>
<line stroke="#000000" x1="328.8111" y1="948.3169" x2="562.5184" y2="964.51086"/>
<line stroke="#000000" x1="562.5184" y1="964.51086" x2="326.68692" y2="948.64294"/>
<line stroke="#000000" x1="326.68692" y1="948.64294" x2="557.4254" y2="1061.6901"/>
<line stroke="#000000" x1="557.4254" y1="1061.6901" x2="324.88443" y2="948.09186"/>
<line stroke="#000000" x1="324.88443" y1="948.09186" x2="559.4276" y2="1053.0175"/>
<line stroke="#000000" x1="559.4276" y1="1053.0175" x2="323.06378" y2="947.604"/>
<line stroke="#000000" x1="323.06378" y1="947.604" x2="563.6031" y2="973.3452"/>
<line stroke="#000000" x1="563.6031" y1="973.3452" x2="321.01932" y2="948.1582"/>
<line stroke="#000000" x1="321.01932" y1="948.1582" x2="562.5184" y2="1035.4891"/>
<line stroke="#000000" x1="562.5184" y1="1035.4891" x2="319.20334" y2="947.8052"/>
<line stroke="#000000" x1="319.20334" y1="947.8052" x2="564.37885" y2="982.2121"/>
<line stroke="#000000" x1="564.37885" y1="982.2121" x2="317.37616" y2="947.5158"/>
<line stroke="#000000" x1="317.37616" y1="947.5158" x2="563.6031" y2="1026.6548"/>
<line stroke="#000000" x1="563.6031" y1="1026.6548" x2="315.4355" y2="948.28485"/>
<line stroke="#000000" x1="315.4355" y1="948.28485" x2="564.84467" y2="991.10065"/>
<line stroke="#000000" x1="564.84467" y1="991.10065" x2="313.69708" y2="947.1291"/>
<line stroke="#000000" x1="313.69708" y1="947.1291" x2="564.84467" y2="1008.89935"/>
<line stroke="#000000" x1="564.84467" y1="1008.89935" x2="311.84967" y2="947.0323"/>
<line stroke="#000000" x1="311.84967" y1="947.0323" x2="530.8365" y2="872.5"/>
<line stroke="#000000" x1="530.8365" y1="872.5" x2="493.43164" y2="1177.138"/>
<line stroke="#000000" x1="493.43164" y1="1177.138" x2="526.25226" y2="864.8706"/>
<line stroke="#000000" x1="526.25226" y1="864.8706" x2="499.50192" y2="1170.6283"/>
<line stroke="#000000" x1="499.50192" y1="1170.6283" x2="521.4046" y2="857.4058"/>
<line stroke="#000000" x1="521.4046" y1="857.4058" x2="505.34134" y2="1163.9109"/>
<line stroke="#000000" x1="505.34134" y1="1163.9109" x2="516.2993" y2="850.11475"/>
<line stroke="#000000" x1="516.2993" y1="850.11475" x2="510.94275" y2="1156.9937"/>
<line stroke="#000000" x1="510.94275" y1="1156.9937" x2="510.94275" y2="843.00635"/>
<line stroke="#000000" x1="510.94275" y1="843.00635" x2="516.2993" y2="1149.8853"/>
<line stroke="#000000" x1="516.2993" y1="1149.8853" x2="505.34134" y2="836.0892"/>
<line stroke="#000000" x1="505.34134" y1="836.0892" x2="521.4046" y2="1142.5942"/>
<line stroke="#000000" x1="521.4046" y1="1142.5942" x2="499.50192" y2="829.3717"/>
<line stroke="#000000" x1="499.50192" y1="829.3717" x2="526.25226" y2="1135.1294"/>
<line stroke="#000000" x1="526.25226" y1="1135.1294" x2="493.43164" y2="822.8621"/>
<line stroke="#000000" x1="493.43164" y1="822.8621" x2="530.8365" y2="1127.5"/>
<line stroke="#000000" x1="530.8365" y1="1127.5" x2="487.13788" y2="816.56836"/>
<line stroke="#000000" x1="487.13788" y1="816.56836" x2="535.1516" y2="1119.7152"/>
<line stroke="#000000" x1="535.1516" y1="1119.7152" x2="480.6283" y2="810.49805"/>
<line stroke="#000000" x1="480.6283" y1="810.49805" x2="539.1925" y2="1111.7847"/>
<line stroke="#000000" x1="539.1925" y1="1111.7847" x2="473.91083" y2="804.6587"/>
<line stroke="#000000" x1="473.91083" y1="804.6587" x2="542.9541" y2="1103.7179"/>
<line stroke="#000000" x1="542.9541" y1="1103.7179" x2="466.99368" y2="799.05725"/>
<line stroke="#000000" x1="466.99368" y1="799.05725" x2="546.4319" y2="1095.5247"/>
<line stroke="#000000" x1="546.4319" y1="1095.5247" x2="459.88525" y2="793.7007"/>
<line stroke="#000000" x1="459.88525" y1="793.7007" x2="549.62164" y2="1087.2151"/>
<line stroke="#000000" x1="549.62164" y1="1087.2151" x2="452.59418" y2="788.5954"/>
<line stroke="#000000" x1="452.59418" y1="788.5954" x2="555.1217" y2="1070.2875"/>
<line stroke="#000000" x1="555.1217" y1="1070.2875" x2="437.5" y2="779.1635"/>
<line stroke="#000000" x1="437.5" y1="779.1635" x2="565.0" y2="1000.0"/>
<line stroke="#000000" x1="565.0" y1="1000.0" x2="310.0" y2="947.0"/>
<line stroke="#000000" x1="390.0" y1="1029.0" x2="402.73663" y2="1031.5243"/>
<line stroke="#000000" x1="402.73663" y1="1031.5243" x2="391.0121" y2="1028.9823"/>
<line stroke="#000000" x1="391.0121" y1="1028.9823" x2="400.60263" y2="1029.1305"/>
<line stroke="#000000" x1="400.60263" y1="1029.1305" x2="391.9532" y2="1027.9318"/>
<line stroke="#000000" x1="391.9532" y1="1027.9318" x2="413.74536" y2="1014.83777"/>
<line stroke="#000000" x1="413.74536" y1="1014.83777" x2="392.9268" y2="1027.8466"/>
<line stroke="#000000" x1="392.9268" y1="1027.8466" x2="412.5" y2="1038.9712"/>
<line stroke="#000000" x1="412.5" y1="1038.9712" x2="393.89685" y2="1027.7275"/>
<line stroke="#000000" x1="393.89685" y1="1027.7275" x2="432.89526" y2="997.0005"/>
<line stroke="#000000" x1="432.89526" y1="997.0005" x2="394.86215" y2="1027.5746"/>
<line stroke="#000000" x1="394.86215" y1="1027.5746" x2="415.72287" y2="1038.1357"/>
<line stroke="#000000" x1="415.72287" y1="1038.1357" x2="396.7738" y2="1027.1683"/>
<line stroke="#000000" x1="396.7738" y1="1027.1683" x2="456.51404" y2="985.862"/>
<line stroke="#000000" x1="456.51404" y1="985.862" x2="396.02945" y2="1028.3663"/>
<line stroke="#000000" x1="396.02945" y1="1028.3663" x2="413.8396" y2="987.3243"/>
<line stroke="#000000" x1="413.8396" y1="987.3243" x2="397.71783" y2="1026.9153"/>
<line stroke="#000000" x1="397.71783" y1="1026.9153" x2="456.96692" y2="988.1919"/>
<line stroke="#000000" x1="456.96692" y1="988.1919" x2="419.7258" y2="973.2348"/>
<line stroke="#000000" x1="419.7258" y1="973.2348" x2="457.33823" y2="990.53625"/>
<line stroke="#000000" x1="457.33823" y1="990.53625" x2="413.01886" y2="977.77094"/>
<line stroke="#000000" x1="413.01886" y1="977.77094" x2="455.9801" y2="983.5493"/>
<line stroke="#000000" x1="455.9801" y1="983.5493" x2="422.32507" y2="1051.731"/>
<line stroke="#000000" x1="422.32507" y1="1051.731" x2="455.36578" y2="981.25665"/>
<line stroke="#000000" x1="455.36578" y1="981.25665" x2="420.51566" y2="1057.3916"/>
<line stroke="#000000" x1="420.51566" y1="1057.3916" x2="454.67184" y2="978.9868"/>
<line stroke="#000000" x1="454.67184" y1="978.9868" x2="418.9325" y2="1059.3204"/>
<line stroke="#000000" x1="418.9325" y1="1059.3204" x2="453.8991" y2="976.7426"/>
<line stroke="#000000" x1="453.8991" y1="976.7426" x2="417.25134" y2="1061.2075"/>
<line stroke="#000000" x1="417.25134" y1="1061.2075" x2="457.6275" y2="992.8921"/>
<line stroke="#000000" x1="457.6275" y1="992.8921" x2="416.76523" y2="970.27423"/>
<line stroke="#000000" x1="416.76523" y1="970.27423" x2="457.9586" y2="997.62683"/>
<line stroke="#000000" x1="457.9586" y1="997.62683" x2="398.65247" y2="973.3704"/>
<line stroke="#000000" x1="398.65247" y1="973.3704" x2="458.0" y2="1000.0"/>
<line stroke="#000000" x1="458.0" y1="1000.0" x2="392.02295" y2="971.0706"/>
<line stroke="#000000" x1="392.02295" y1="971.0706" x2="453.0485" y2="974.52673"/>
<line stroke="#000000" x1="453.0485" y1="974.52673" x2="437.50827" y2="1052.7633"/>
<line stroke="#000000" x1="437.50827" y1="1052.7633" x2="452.1211" y2="972.3419"/>
<line stroke="#000000" x1="452.1211" y1="972.3419" x2="436.2807" y2="1055.1552"/>
<line stroke="#000000" x1="436.2807" y1="1055.1552" x2="451.11798" y2="970.19073"/>
<line stroke="#000000" x1="451.11798" y1="970.19073" x2="446.6312" y2="1041.145"/>
<line stroke="#000000" x1="446.6312" y1="1041.145" x2="420.73532" y2="950.81323"/>
<line stroke="#000000" x1="420.73532" y1="950.81323" x2="456.51404" y2="1014.138"/>
<line stroke="#000000" x1="456.51404" y1="1014.138" x2="416.2904" y2="950.55493"/>
<line stroke="#000000" x1="416.2904" y1="950.55493" x2="455.9801" y2="1016.4507"/>
<line stroke="#000000" x1="455.9801" y1="1016.4507" x2="419.0" y2="949.7705"/>
<line stroke="#000000" x1="419.0" y1="949.7705" x2="455.36578" y2="1018.74335"/>
<line stroke="#000000" x1="455.36578" y1="1018.74335" x2="414.98715" y2="948.76874"/>
<line stroke="#000000" x1="414.98715" y1="948.76874" x2="453.97568" y2="1025.8479"/>
<line stroke="#000000" x1="453.97568" y1="1025.8479" x2="412.77725" y2="948.84143"/>
<line stroke="#000000" x1="412.77725" y1="948.84143" x2="454.83878" y2="1023.59937"/>
<line stroke="#000000" x1="454.83878" y1="1023.59937" x2="410.97797" y2="948.0777"/>
<line stroke="#000000" x1="410.97797" y1="948.0777" x2="453.94818" y2="1028.4716"/>
<line stroke="#000000" x1="453.94818" y1="1028.4716" x2="409.15314" y2="947.3772"/>
<line stroke="#000000" x1="409.15314" y1="947.3772" x2="453.8144" y2="1031.1244"/>
<line stroke="#000000" x1="453.8144" y1="1031.1244" x2="405.16006" y2="947.1306"/>
<line stroke="#000000" x1="405.16006" y1="947.1306" x2="455.6229" y2="1021.32214"/>
<line stroke="#000000" x1="455.6229" y1="1021.32214" x2="403.3057" y2="946.6337"/>
<line stroke="#000000" x1="403.3057" y1="946.6337" x2="456.96692" y2="1011.8081"/>
<line stroke="#000000" x1="456.96692" y1="1011.8081" x2="401.43515" y2="946.2019"/>
<line stroke="#000000" x1="401.43515" y1="946.2019" x2="457.33823" y2="1009.46375"/>
<line stroke="#000000" x1="457.33823" y1="1009.46375" x2="399.55066" y2="945.8356"/>
<line stroke="#000000" x1="399.55066" y1="945.8356" x2="457.6275" y2="1007.1079"/>
<line stroke="#000000" x1="457.6275" y1="1007.1079" x2="397.51535" y2="946.5255"/>
<line stroke="#000000" x1="397.51535" y1="946.5255" x2="457.83435" y2="1004.74347"/>
<line stroke="#000000" x1="457.83435" y1="1004.74347" x2="395.74905" y2="945.3013"/>
<line stroke="#000000" x1="395.74905" y1="945.3013" x2="457.9586" y2="1002.37317"/>
<line stroke="#000000" x1="457.9586" y1="1002.37317" x2="391.88458" y2="946.0329"/>
<line stroke="#000000" x1="391.88458" y1="946.0329" x2="449.75577" y2="965.5"/>
<line stroke="#000000" x1="449.75577" y1="965.5" x2="416.8845" y2="1082.742"/>
<line stroke="#000000" x1="416.8845" y1="1082.742" x2="448.51532" y2="963.43555"/>
<line stroke="#000000" x1="448.51532" y1="963.43555" x2="452.7975" y2="1080.3771"/>
<line stroke="#000000" x1="452.7975" y1="1080.3771" x2="446.6312" y2="958.85504"/>
<line stroke="#000000" x1="446.6312" y1="958.85504" x2="450.54187" y2="1083.3287"/>
<line stroke="#000000" x1="450.54187" y1="1083.3287" x2="448.86166" y2="960.2973"/>
<line stroke="#000000" x1="448.86166" y1="960.2973" x2="558.1073" y2="1174.0802"/>
<line stroke="#000000" x1="558.1073" y1="1174.0802" x2="443.6231" y2="955.0049"/>
<line stroke="#000000" x1="443.6231" y1="955.0049" x2="573.43164" y2="1177.138"/>
<line stroke="#000000" x1="573.43164" y1="1177.138" x2="447.52478" y2="955.0567"/>
<line stroke="#000000" x1="447.52478" y1="955.0567" x2="579.50195" y2="1170.6283"/>
<line stroke="#000000" x1="579.50195" y1="1170.6283" x2="431.73276" y2="942.5598"/>
<line stroke="#000000" x1="431.73276" y1="942.5598" x2="585.3413" y2="1163.9109"/>
<line stroke="#000000" x1="585.3413" y1="1163.9109" x2="431.38028" y2="938.65125"/>
<line stroke="#000000" x1="431.38028" y1="938.65125" x2="590.94275" y2="1156.9937"/>
<line stroke="#000000" x1="590.94275" y1="1156.9937" x2="443.4887" y2="944.61084"/>
<line stroke="#000000" x1="443.4887" y1="944.61084" x2="601.4046" y2="1142.5942"/>
<line stroke="#000000" x1="601.4046" y1="1142.5942" x2="441.423" y2="938.71643"/>
<line stroke="#000000" x1="441.423" y1="938.71643" x2="610.8365" y2="1127.5"/>
<line stroke="#000000" x1="610.8365" y1="1127.5" x2="439.25293" y2="936.95917"/>
<line stroke="#000000" x1="439.25293" y1="936.95917" x2="615.1516" y2="1119.7152"/>
<line stroke="#000000" x1="615.1516" y1="1119.7152" x2="390.0" y2="946.0"/>
<line stroke="#000000" x1="60.0" y1="623.0" x2="73.42063" y2="629.8969"/>
<line stroke="#000000" x1="73.42063" y1="629.8969" x2="60.453693" y2="622.99207"/>
<line stroke="#000000" x1="60.453693" y1="622.99207" x2="72.71806" y2="630.35315"/>
<line stroke="#000000" x1="72.71806" y1="630.35315" x2="60.906834" y2="622.9683"/>
<line stroke="#000000" x1="60.906834" y1="622.9683" x2="72.0" y2="630.7846"/>
<line stroke="#000000" x1="72.0" y1="630.7846" x2="61.35887" y2="622.9288"/>
<line stroke="#000000" x1="61.35887" y1="622.9288" x2="67.042076" y2="623.2442"/>
<line stroke="#000000" x1="67.042076" y1="623.2442" x2="61.80925" y2="622.8735"/>
<line stroke="#000000" x1="61.80925" y1="622.8735" x2="84.665726" y2="599.01807"/>
<line stroke="#000000" x1="84.665726" y1="599.01807" x2="62.257427" y2="622.8025"/>
<line stroke="#000000" x1="62.257427" y1="622.8025" x2="74.10685" y2="629.4164"/>
<line stroke="#000000" x1="74.10685" y1="629.4164" x2="62.910763" y2="623.6941"/>
<line stroke="#000000" x1="62.910763" y1="623.6941" x2="82.956635" y2="597.7937"/>
<line stroke="#000000" x1="82.956635" y1="597.7937" x2="64.13456" y2="624.41895"/>
<line stroke="#000000" x1="64.13456" y1="624.41895" x2="161.76305" y2="576.9352"/>
<line stroke="#000000" x1="161.76305" y1="576.9352" x2="64.635254" y2="624.26587"/>
<line stroke="#000000" x1="64.635254" y1="624.26587" x2="83.38268" y2="596.5"/>
<line stroke="#000000" x1="83.38268" y1="596.5" x2="65.1303" y2="624.0954"/>
<line stroke="#000000" x1="65.1303" y1="624.0954" x2="189.77032" y2="572.78894"/>
<line stroke="#000000" x1="189.77032" y1="572.78894" x2="63.386906" y2="623.5841"/>
<line stroke="#000000" x1="63.386906" y1="623.5841" x2="78.64084" y2="632.21533"/>
<line stroke="#000000" x1="78.64084" y1="632.21533" x2="65.6191" y2="623.9077"/>
<line stroke="#000000" x1="65.6191" y1="623.9077" x2="166.62614" y2="566.9202"/>
<line stroke="#000000" x1="166.62614" y1="566.9202" x2="66.10105" y2="623.7032"/>
<line stroke="#000000" x1="66.10105" y1="623.7032" x2="168.92949" y2="625.3091"/>
<line stroke="#000000" x1="168.92949" y1="625.3091" x2="66.57557" y2="623.48193"/>
<line stroke="#000000" x1="66.57557" y1="623.48193" x2="190.98993" y2="577.3406"/>
<line stroke="#000000" x1="190.98993" y1="577.3406" x2="95.210365" y2="543.77893"/>
<line stroke="#000000" x1="95.210365" y1="543.77893" x2="192.04993" y2="581.9319"/>
<line stroke="#000000" x1="192.04993" y1="581.9319" x2="92.87784" y2="542.59045"/>
<line stroke="#000000" x1="92.87784" y1="542.59045" x2="191.96423" y2="586.73114"/>
<line stroke="#000000" x1="191.96423" y1="586.73114" x2="90.50525" y2="541.48413"/>
<line stroke="#000000" x1="90.50525" y1="541.48413" x2="192.69592" y2="591.3508"/>
<line stroke="#000000" x1="192.69592" y1="591.3508" x2="87.72089" y2="541.3884"/>
<line stroke="#000000" x1="87.72089" y1="541.3884" x2="194.26045" y2="595.8887"/>
<line stroke="#000000" x1="194.26045" y1="595.8887" x2="82.55824" y2="540.5729"/>
<line stroke="#000000" x1="82.55824" y1="540.5729" x2="193.67358" y2="600.6526"/>
<line stroke="#000000" x1="193.67358" y1="600.6526" x2="80.12153" y2="539.8279"/>
<line stroke="#000000" x1="80.12153" y1="539.8279" x2="193.91837" y2="605.3235"/>
<line stroke="#000000" x1="193.91837" y1="605.3235" x2="77.6603" y2="539.16846"/>
<line stroke="#000000" x1="77.6603" y1="539.16846" x2="193.67358" y2="619.3474"/>
<line stroke="#000000" x1="193.67358" y1="619.3474" x2="70.02046" y2="538.7007"/>
<line stroke="#000000" x1="70.02046" y1="538.7007" x2="193.26593" y2="624.00684"/>
<line stroke="#000000" x1="193.26593" y1="624.00684" x2="75.17755" y2="538.5952"/>
<line stroke="#000000" x1="75.17755" y1="538.5952" x2="192.04993" y2="638.0681"/>
<line stroke="#000000" x1="192.04993" y1="638.0681" x2="67.52605" y2="538.3944"/>
<line stroke="#000000" x1="67.52605" y1="538.3944" x2="194.0" y2="610.0"/>
<line stroke="#000000" x1="194.0" y1="610.0" x2="62.512764" y2="538.0438"/>
<line stroke="#000000" x1="62.512764" y1="538.0438" x2="194.91776" y2="614.7114"/>
<line stroke="#000000" x1="194.91776" y1="614.7114" x2="65.092224" y2="537.17786"/>
<line stroke="#000000" x1="65.092224" y1="537.17786" x2="192.94905" y2="633.4425"/>
<line stroke="#000000" x1="192.94905" y1="633.4425" x2="72.676315" y2="538.109"/>
<line stroke="#000000" x1="72.676315" y1="538.109" x2="190.98993" y2="642.6594"/>
<line stroke="#000000" x1="190.98993" y1="642.6594" x2="85.309494" y2="540.46277"/>
<line stroke="#000000" x1="85.309494" y1="540.46277" x2="189.77032" y2="647.21106"/>
<line stroke="#000000" x1="189.77032" y1="647.21106" x2="99.5" y2="541.584"/>
<line stroke="#000000" x1="99.5" y1="541.584" x2="189.34369" y2="652.0263"/>
<line stroke="#000000" x1="189.34369" y1="652.0263" x2="186.8585" y2="563.8273"/>
<line stroke="#000000" x1="186.8585" y1="563.8273" x2="187.7982" y2="656.5148"/>
<line stroke="#000000" x1="187.7982" y1="656.5148" x2="182.236" y2="550.38153"/>
<line stroke="#000000" x1="182.236" y1="550.38153" x2="187.02419" y2="661.3211"/>
<line stroke="#000000" x1="187.02419" y1="661.3211" x2="112.99193" y2="525.1952"/>
<line stroke="#000000" x1="112.99193" y1="525.1952" x2="185.15573" y2="665.7229"/>
<line stroke="#000000" x1="185.15573" y1="665.7229" x2="191.44745" y2="527.86255"/>
<line stroke="#000000" x1="191.44745" y1="527.86255" x2="236.5144" y2="747.9082"/>
<line stroke="#000000" x1="236.5144" y1="747.9082" x2="188.50082" y2="523.3251"/>
<line stroke="#000000" x1="188.50082" y1="523.3251" x2="285.15164" y2="729.7152"/>
<line stroke="#000000" x1="285.15164" y1="729.7152" x2="185.39763" y2="518.8933"/>
<line stroke="#000000" x1="185.39763" y1="518.8933" x2="280.8365" y2="737.5"/>
<line stroke="#000000" x1="280.8365" y1="737.5" x2="151.6945" y2="483.79333"/>
<line stroke="#000000" x1="151.6945" y1="483.79333" x2="271.40457" y2="752.5942"/>
<line stroke="#000000" x1="271.40457" y1="752.5942" x2="182.14166" y2="514.5725"/>
<line stroke="#000000" x1="182.14166" y1="514.5725" x2="216.99368" y2="810.94275"/>
<line stroke="#000000" x1="216.99368" y1="810.94275" x2="178.7369" y2="510.36792"/>
<line stroke="#000000" x1="178.7369" y1="510.36792" x2="230.62831" y2="799.50195"/>
<line stroke="#000000" x1="230.62831" y1="799.50195" x2="175.93059" y2="505.61563"/>
<line stroke="#000000" x1="175.93059" y1="505.61563" x2="237.13788" y2="793.43164"/>
<line stroke="#000000" x1="237.13788" y1="793.43164" x2="169.06137" y2="497.06366"/>
<line stroke="#000000" x1="169.06137" y1="497.06366" x2="243.43166" y2="787.1379"/>
<line stroke="#000000" x1="243.43166" y1="787.1379" x2="243.43166" y2="432.86212"/>
<line stroke="#000000" x1="243.43166" y1="432.86212" x2="249.50194" y2="780.6283"/>
<line stroke="#000000" x1="249.50194" y1="780.6283" x2="230.62831" y2="420.49805"/>
<line stroke="#000000" x1="230.62831" y1="420.49805" x2="255.34134" y2="773.9108"/>
<line stroke="#000000" x1="255.34134" y1="773.9108" x2="223.91084" y2="414.6587"/>
<line stroke="#000000" x1="223.91084" y1="414.6587" x2="266.29935" y2="759.88525"/>
<line stroke="#000000" x1="266.29935" y1="759.88525" x2="216.99368" y2="409.05725"/>
<line stroke="#000000" x1="216.99368" y1="409.05725" x2="276.25226" y2="745.1294"/>
<line stroke="#000000" x1="276.25226" y1="745.1294" x2="202.5942" y2="398.5954"/>
<line stroke="#000000" x1="202.5942" y1="398.5954" x2="289.19247" y2="721.78467"/>
<line stroke="#000000" x1="289.19247" y1="721.78467" x2="60.0" y2="538.0"/>
<line stroke="#000000" x1="110.0" y1="865.0" x2="191.70724" y2="586.5708"/>
<line stroke="#000000" x1="191.70724" y1="586.5708" x2="147.62222" y2="713.3662"/>
<line stroke="#000000" x1="147.62222" y1="713.3662" x2="189.87387" y2="580.9283"/>
<line stroke="#000000" x1="189.87387" y1="580.9283" x2="151.20673" y2="711.99023"/>
<line stroke="#000000" x1="151.20673" y1="711.99023" x2="192.47514" y2="589.43665"/>
<line stroke="#000000" x1="192.47514" y1="589.43665" x2="189.73781" y2="577.7838"/>
<line stroke="#000000" x1="189.73781" y1="577.7838" x2="118.89937" y2="864.84467"/>
<line stroke="#000000" x1="118.89937" y1="864.84467" x2="190.8398" y2="583.7335"/>
<line stroke="#000000" x1="190.8398" y1="583.7335" x2="193.14255" y2="592.3275"/>
<line stroke="#000000" x1="193.14255" y1="592.3275" x2="188.56491" y2="575.0206"/>
<line stroke="#000000" x1="188.56491" y1="575.0206" x2="162.58081" y2="708.89014"/>
<line stroke="#000000" x1="162.58081" y1="708.89014" x2="199.04521" y2="540.4303"/>
<line stroke="#000000" x1="199.04521" y1="540.4303" x2="193.70866" y2="595.23987"/>
<line stroke="#000000" x1="193.70866" y1="595.23987" x2="143.37384" y2="712.7141"/>
<line stroke="#000000" x1="143.37384" y1="712.7141" x2="194.17279" y2="598.1703"/>
<line stroke="#000000" x1="194.17279" y1="598.1703" x2="187.2963" y2="572.30005"/>
<line stroke="#000000" x1="187.2963" y1="572.30005" x2="194.53436" y2="601.1151"/>
<line stroke="#000000" x1="194.53436" y1="601.1151" x2="140.04448" y2="714.7775"/>
<line stroke="#000000" x1="140.04448" y1="714.7775" x2="194.79294" y2="604.0707"/>
<line stroke="#000000" x1="194.79294" y1="604.0707" x2="186.81644" y2="569.156"/>
<line stroke="#000000" x1="186.81644" y1="569.156" x2="194.94823" y2="607.03357"/>
<line stroke="#000000" x1="194.94823" y1="607.03357" x2="136.36949" y2="715.7622"/>
<line stroke="#000000" x1="136.36949" y1="715.7622" x2="195.0" y2="610.0"/>
<line stroke="#000000" x1="195.0" y1="610.0" x2="196.56302" y2="537.365"/>
<line stroke="#000000" x1="196.56302" y1="537.365" x2="193.14255" y2="627.6725"/>
<line stroke="#000000" x1="193.14255" y1="627.6725" x2="185.34421" y2="566.5"/>
<line stroke="#000000" x1="185.34421" y1="566.5" x2="193.70866" y2="624.76013"/>
<line stroke="#000000" x1="193.70866" y1="624.76013" x2="132.45447" y2="715.63995"/>
<line stroke="#000000" x1="132.45447" y1="715.63995" x2="192.47514" y2="630.56335"/>
<line stroke="#000000" x1="192.47514" y1="630.56335" x2="184.62823" y2="563.36707"/>
<line stroke="#000000" x1="184.62823" y1="563.36707" x2="191.79086" y2="636.57544"/>
<line stroke="#000000" x1="191.79086" y1="636.57544" x2="193.97537" y2="534.38824"/>
<line stroke="#000000" x1="193.97537" y1="534.38824" x2="192.6685" y2="633.70483"/>
<line stroke="#000000" x1="192.6685" y1="633.70483" x2="128.92766" y2="717.34406"/>
<line stroke="#000000" x1="128.92766" y1="717.34406" x2="194.17279" y2="621.8297"/>
<line stroke="#000000" x1="194.17279" y1="621.8297" x2="125.16987" y2="717.9392"/>
<line stroke="#000000" x1="125.16987" y1="717.9392" x2="190.392" y2="645.79285"/>
<line stroke="#000000" x1="190.392" y1="645.79285" x2="191.2854" y2="531.5036"/>
<line stroke="#000000" x1="191.2854" y1="531.5036" x2="191.75327" y2="639.75574"/>
<line stroke="#000000" x1="191.75327" y1="639.75574" x2="139.80923" y2="671.118"/>
<line stroke="#000000" x1="139.80923" y1="671.118" x2="194.94823" y2="612.96643"/>
<line stroke="#000000" x1="194.94823" y1="612.96643" x2="121.3936" y2="718.4029"/>
<line stroke="#000000" x1="121.3936" y1="718.4029" x2="200.60991" y2="544.1681"/>
<line stroke="#000000" x1="200.60991" y1="544.1681" x2="117.742966" y2="720.7296"/>
<line stroke="#000000" x1="117.742966" y1="720.7296" x2="194.79294" y2="615.9293"/>
<line stroke="#000000" x1="194.79294" y1="615.9293" x2="134.62646" y2="578.4796"/>
<line stroke="#000000" x1="134.62646" y1="578.4796" x2="194.53436" y2="618.8849"/>
<line stroke="#000000" x1="194.53436" y1="618.8849" x2="140.09851" y2="542.39764"/>
<line stroke="#000000" x1="140.09851" y1="542.39764" x2="203.68124" y2="546.81116"/>
<line stroke="#000000" x1="203.68124" y1="546.81116" x2="137.34628" y2="542.31555"/>
<line stroke="#000000" x1="137.34628" y1="542.31555" x2="197.4118" y2="656.47766"/>
<line stroke="#000000" x1="197.4118" y1="656.47766" x2="134.96747" y2="541.40247"/>
<line stroke="#000000" x1="134.96747" y1="541.40247" x2="218.63345" y2="783.84985"/>
<line stroke="#000000" x1="218.63345" y1="783.84985" x2="188.4964" y2="528.7146"/>
<line stroke="#000000" x1="188.4964" y1="528.7146" x2="213.71785" y2="842.9541"/>
<line stroke="#000000" x1="213.71785" y1="842.9541" x2="185.61176" y2="526.02466"/>
<line stroke="#000000" x1="185.61176" y1="526.02466" x2="237.5" y2="830.8365"/>
<line stroke="#000000" x1="237.5" y1="830.8365" x2="132.24922" y2="541.5239"/>
<line stroke="#000000" x1="132.24922" y1="541.5239" x2="252.5942" y2="821.4046"/>
<line stroke="#000000" x1="252.5942" y1="821.4046" x2="182.635" y2="523.437"/>
<line stroke="#000000" x1="182.635" y1="523.437" x2="259.88525" y2="816.2993"/>
<line stroke="#000000" x1="259.88525" y1="816.2993" x2="129.84589" y2="540.7892"/>
<line stroke="#000000" x1="129.84589" y1="540.7892" x2="266.99368" y2="810.94275"/>
<line stroke="#000000" x1="266.99368" y1="810.94275" x2="127.41837" y2="540.1387"/>
<line stroke="#000000" x1="127.41837" y1="540.1387" x2="273.91083" y2="805.3413"/>
<line stroke="#000000" x1="273.91083" y1="805.3413" x2="124.96964" y2="539.57336"/>
<line stroke="#000000" x1="124.96964" y1="539.57336" x2="280.6283" y2="799.50195"/>
<line stroke="#000000" x1="280.6283" y1="799.50195" x2="176.41974" y2="518.58105"/>
<line stroke="#000000" x1="176.41974" y1="518.58105" x2="287.13788" y2="793.43164"/>
<line stroke="#000000" x1="287.13788" y1="793.43164" x2="122.32902" y2="540.0786"/>
<line stroke="#000000" x1="122.32902" y1="540.0786" x2="293.43164" y2="787.1379"/>
<line stroke="#000000" x1="293.43164" y1="787.1379" x2="173.1888" y2="516.3187"/>
<line stroke="#000000" x1="173.1888" y1="516.3187" x2="299.50192" y2="780.6283"/>
<line stroke="#000000" x1="299.50192" y1="780.6283" x2="119.88129" y2="539.691"/>
<line stroke="#000000" x1="119.88129" y1="539.691" x2="305.34134" y2="773.9108"/>
<line stroke="#000000" x1="305.34134" y1="773.9108" x2="152.08363" y2="523.71576"/>
<line stroke="#000000" x1="152.08363" y1="523.71576" x2="310.94275" y2="766.99365"/>
<line stroke="#000000" x1="310.94275" y1="766.99365" x2="170.4108" y2="513.3225"/>
<line stroke="#000000" x1="170.4108" y1="513.3225" x2="316.29935" y2="759.88525"/>
<line stroke="#000000" x1="316.29935" y1="759.88525" x2="117.421524" y2="539.3889"/>
<line stroke="#000000" x1="117.421524" y1="539.3889" x2="321.40457" y2="752.5942"/>
<line stroke="#000000" x1="321.40457" y1="752.5942" x2="167.0" y2="511.2731"/>
<line stroke="#000000" x1="167.0" y1="511.2731" x2="326.25226" y2="745.1294"/>
<line stroke="#000000" x1="326.25226" y1="745.1294" x2="162.58081" y2="511.10986"/>
<line stroke="#000000" x1="162.58081" y1="511.10986" x2="330.8365" y2="737.5"/>
<line stroke="#000000" x1="330.8365" y1="737.5" x2="114.95271" y2="539.173"/>
<line stroke="#000000" x1="114.95271" y1="539.173" x2="339.19247" y2="721.78467"/>
<line stroke="#000000" x1="339.19247" y1="721.78467" x2="112.47787" y2="539.0432"/>
<line stroke="#000000" x1="112.47787" y1="539.0432" x2="346.4319" y2="705.52466"/>
<line stroke="#000000" x1="346.4319" y1="705.52466" x2="110.0" y2="539.0"/>
<line stroke="#000000" x1="-310.0" y1="1046.0" x2="-284.01923" y2="905.0"/>
<line stroke="#000000" x1="-284.01923" y1="905.0" x2="-278.93945" y2="903.82904"/>
<line stroke="#000000" x1="-278.93945" y1="903.82904" x2="-287.01868" y2="909.2836"/>
<line stroke="#000000" x1="-287.01868" y1="909.2836" x2="-277.00763" y2="938.9132"/>
<line stroke="#000000" x1="-277.00763" y1="938.9132" x2="-288.4488" y2="909.4048"/>
<line stroke="#000000" x1="-288.4488" y1="909.4048" x2="-265.0" y2="967.94226"/>
<line stroke="#000000" x1="-265.0" y1="967.94226" x2="-289.85492" y2="910.86084"/>
<line stroke="#000000" x1="-289.85492" y1="910.86084" x2="-255.62726" y2="932.48065"/>
<line stroke="#000000" x1="-255.62726" y1="932.48065" x2="-289.8585" y2="909.45044"/>
<line stroke="#000000" x1="-289.8585" y1="909.45044" x2="-247.77086" y2="959.1125"/>
<line stroke="#000000" x1="-247.77086" y1="959.1125" x2="-301.10062" y2="1144.8447"/>
<line stroke="#000000" x1="-301.10062" y1="1144.8447" x2="-249.03716" y2="887.87115"/>
<line stroke="#000000" x1="-249.03716" y1="887.87115" x2="-292.2121" y2="1144.3788"/>
<line stroke="#000000" x1="-292.2121" y1="1144.3788" x2="-225.05322" y2="951.71747"/>
<line stroke="#000000" x1="-225.05322" y1="951.71747" x2="-283.34525" y2="1143.603"/>
<line stroke="#000000" x1="-283.34525" y1="1143.603" x2="-219.39769" y2="905.97565"/>
<line stroke="#000000" x1="-219.39769" y1="905.97565" x2="-274.51086" y2="1142.5183"/>
<line stroke="#000000" x1="-274.51086" y1="1142.5183" x2="-211.20709" y2="910.9991"/>
<line stroke="#000000" x1="-211.20709" y1="910.9991" x2="-278.99014" y2="901.2867"/>
<line stroke="#000000" x1="-278.99014" y1="901.2867" x2="-190.42522" y2="964.7186"/>
<line stroke="#000000" x1="-190.42522" y1="964.7186" x2="-283.0362" y2="903.1511"/>
<line stroke="#000000" x1="-283.0362" y1="903.1511" x2="-181.49918" y2="976.6749"/>
<line stroke="#000000" x1="-181.49918" y1="976.6749" x2="-220.73279" y2="867.74316"/>
<line stroke="#000000" x1="-220.73279" y1="867.74316" x2="-265.71973" y2="1141.126"/>
<line stroke="#000000" x1="-265.71973" y1="1141.126" x2="-187.20676" y2="907.25745"/>
<line stroke="#000000" x1="-187.20676" y1="907.25745" x2="-256.9825" y2="1139.4276"/>
<line stroke="#000000" x1="-256.9825" y1="1139.4276" x2="-154.75269" y2="928.7075"/>
<line stroke="#000000" x1="-154.75269" y1="928.7075" x2="-226.41216" y2="849.23145"/>
<line stroke="#000000" x1="-226.41216" y1="849.23145" x2="-146.41827" y2="943.15094"/>
<line stroke="#000000" x1="-146.41827" y1="943.15094" x2="-297.28723" y2="863.93494"/>
<line stroke="#000000" x1="-297.28723" y1="863.93494" x2="-123.63605" y2="965.2959"/>
<line stroke="#000000" x1="-123.63605" y1="965.2959" x2="-297.7979" y2="862.5936"/>
<line stroke="#000000" x1="-297.7979" y1="862.5936" x2="-125.45065" y2="877.09503"/>
<line stroke="#000000" x1="-125.45065" y1="877.09503" x2="-248.30992" y2="1137.4254"/>
<line stroke="#000000" x1="-248.30992" y1="1137.4254" x2="-89.16352" y2="762.5"/>
<line stroke="#000000" x1="-89.16352" y1="762.5" x2="-239.71248" y2="1135.1217"/>
<line stroke="#000000" x1="-239.71248" y1="1135.1217" x2="-93.747734" y2="754.8706"/>
<line stroke="#000000" x1="-93.747734" y1="754.8706" x2="-231.20067" y2="1132.5194"/>
<line stroke="#000000" x1="-231.20067" y1="1132.5194" x2="-98.59542" y2="747.4058"/>
<line stroke="#000000" x1="-98.59542" y1="747.4058" x2="-222.78487" y2="1129.6216"/>
<line stroke="#000000" x1="-222.78487" y1="1129.6216" x2="-103.70067" y2="740.11475"/>
<line stroke="#000000" x1="-103.70067" y1="740.11475" x2="-214.47531" y2="1126.4319"/>
<line stroke="#000000" x1="-214.47531" y1="1126.4319" x2="-84.848366" y2="770.2847"/>
<line stroke="#000000" x1="-84.848366" y1="770.2847" x2="-285.58765" y2="814.8665"/>
<line stroke="#000000" x1="-285.58765" y1="814.8665" x2="-77.045906" y2="786.28217"/>
<line stroke="#000000" x1="-77.045906" y1="786.28217" x2="-275.9108" y2="805.6263"/>
<line stroke="#000000" x1="-275.9108" y1="805.6263" x2="-108.13504" y2="947.88385"/>
<line stroke="#000000" x1="-108.13504" y1="947.88385" x2="-234.0" y2="758.36414"/>
<line stroke="#000000" x1="-234.0" y1="758.36414" x2="-91.205185" y2="912.9963"/>
<line stroke="#000000" x1="-91.205185" y1="912.9963" x2="-279.2182" y2="805.4277"/>
<line stroke="#000000" x1="-279.2182" y1="805.4277" x2="-73.568115" y2="794.47534"/>
<line stroke="#000000" x1="-73.568115" y1="794.47534" x2="-285.46826" y2="804.4477"/>
<line stroke="#000000" x1="-285.46826" y1="804.4477" x2="-70.37838" y2="802.78485"/>
<line stroke="#000000" x1="-70.37838" y1="802.78485" x2="-288.46896" y2="803.6437"/>
<line stroke="#000000" x1="-288.46896" y1="803.6437" x2="-67.48059" y2="811.2007"/>
<line stroke="#000000" x1="-67.48059" y1="811.2007" x2="-291.49585" y2="802.9449"/>
<line stroke="#000000" x1="-291.49585" y1="802.9449" x2="-64.878265" y2="819.71246"/>
<line stroke="#000000" x1="-64.878265" y1="819.71246" x2="-294.71896" y2="803.3369"/>
<line stroke="#000000" x1="-294.71896" y1="803.3369" x2="-60.57236" y2="836.98254"/>
<line stroke="#000000" x1="-60.57236" y1="836.98254" x2="-297.75278" y2="802.85645"/>
<line stroke="#000000" x1="-297.75278" y1="802.85645" x2="-58.874023" y2="845.7197"/>
<line stroke="#000000" x1="-58.874023" y1="845.7197" x2="-300.80148" y2="802.48206"/>
<line stroke="#000000" x1="-300.80148" y1="802.48206" x2="-57.481644" y2="854.51086"/>
<line stroke="#000000" x1="-57.481644" y1="854.51086" x2="-303.86142" y2="802.21436"/>
<line stroke="#000000" x1="-303.86142" y1="802.21436" x2="-109.05726" y2="733.00635"/>
<line stroke="#000000" x1="-109.05726" y1="733.00635" x2="-206.28215" y2="1122.9541"/>
<line stroke="#000000" x1="-206.28215" y1="1122.9541" x2="-114.65867" y2="726.0892"/>
<line stroke="#000000" x1="-114.65867" y1="726.0892" x2="-198.21536" y2="1119.1925"/>
<line stroke="#000000" x1="-198.21536" y1="1119.1925" x2="-120.49807" y2="719.3717"/>
<line stroke="#000000" x1="-120.49807" y1="719.3717" x2="-190.28474" y2="1115.1516"/>
<line stroke="#000000" x1="-190.28474" y1="1115.1516" x2="-126.56835" y2="712.8621"/>
<line stroke="#000000" x1="-126.56835" y1="712.8621" x2="-174.87059" y2="1106.2523"/>
<line stroke="#000000" x1="-174.87059" y1="1106.2523" x2="-132.86212" y2="706.56836"/>
<line stroke="#000000" x1="-132.86212" y1="706.56836" x2="-154.4454" y2="1075.3828"/>
<line stroke="#000000" x1="-154.4454" y1="1075.3828" x2="-139.37169" y2="700.49805"/>
<line stroke="#000000" x1="-139.37169" y1="700.49805" x2="-160.11476" y2="1096.2993"/>
<line stroke="#000000" x1="-160.11476" y1="1096.2993" x2="-146.08916" y2="694.6587"/>
<line stroke="#000000" x1="-146.08916" y1="694.6587" x2="-153.00632" y2="1090.9427"/>
<line stroke="#000000" x1="-153.00632" y1="1090.9427" x2="-153.00632" y2="689.05725"/>
<line stroke="#000000" x1="-153.00632" y1="689.05725" x2="-56.396915" y2="863.3452"/>
<line stroke="#000000" x1="-56.396915" y1="863.3452" x2="-160.11476" y2="683.7007"/>
<line stroke="#000000" x1="-160.11476" y1="683.7007" x2="-55.15534" y2="898.89935"/>
<line stroke="#000000" x1="-55.15534" y1="898.89935" x2="-167.4058" y2="678.59546"/>
<line stroke="#000000" x1="-167.4058" y1="678.59546" x2="-55.621166" y2="907.7879"/>
<line stroke="#000000" x1="-55.621166" y1="907.7879" x2="-174.87059" y2="673.74774"/>
<line stroke="#000000" x1="-174.87059" y1="673.74774" x2="-84.848366" y2="1009.7153"/>
<line stroke="#000000" x1="-84.848366" y1="1009.7153" x2="-190.28474" y2="664.8484"/>
<line stroke="#000000" x1="-190.28474" y1="664.8484" x2="-55.0" y2="890.0"/>
<line stroke="#000000" x1="-55.0" y1="890.0" x2="-306.92883" y2="802.0536"/>
<line stroke="#000000" x1="-306.92883" y1="802.0536" x2="-310.0" y2="803.0"/>
<line stroke="#000000" x1="-98.99495" y1="774.4415" x2="-80.18582" y2="771.3301"/>
<line stroke="#000000" x1="-80.18582" y1="771.3301" x2="-64.38953" y2="755.3645"/>
<line stroke="#000000" x1="-64.38953" y1="755.3645" x2="-87.38215" y2="774.18427"/>
<line stroke="#000000" x1="-87.38215" y1="774.18427" x2="-80.54158" y2="772.7998"/>
<line stroke="#000000" x1="-80.54158" y1="772.7998" x2="-62.12371" y2="736.24854"/>
<line stroke="#000000" x1="-62.12371" y1="736.24854" x2="-83.99495" y2="771.4223"/>
<line stroke="#000000" x1="-83.99495" y1="771.4223" x2="-68.78268" y2="774.6172"/>
<line stroke="#000000" x1="-68.78268" y1="774.6172" x2="-82.56745" y2="771.7311"/>
<line stroke="#000000" x1="-82.56745" y1="771.7311" x2="-46.37216" y2="726.28845"/>
<line stroke="#000000" x1="-46.37216" y1="726.28845" x2="-79.47159" y2="789.29175"/>
<line stroke="#000000" x1="-79.47159" y1="789.29175" x2="-36.94535" y2="693.37573"/>
<line stroke="#000000" x1="-36.94535" y1="693.37573" x2="-70.222336" y2="777.3968"/>
<line stroke="#000000" x1="-70.222336" y1="777.3968" x2="-38.800217" y2="691.24194"/>
<line stroke="#000000" x1="-38.800217" y1="691.24194" x2="-69.12464" y2="776.37317"/>
<line stroke="#000000" x1="-69.12464" y1="776.37317" x2="-40.728424" y2="689.1742"/>
<line stroke="#000000" x1="-40.728424" y1="689.1742" x2="-70.712296" y2="779.1475"/>
<line stroke="#000000" x1="-70.712296" y1="779.1475" x2="-42.727623" y2="687.17505"/>
<line stroke="#000000" x1="-42.727623" y1="687.17505" x2="-60.62604" y2="762.5245"/>
<line stroke="#000000" x1="-60.62604" y1="762.5245" x2="-46.929153" y2="683.39197"/>
<line stroke="#000000" x1="-46.929153" y1="683.39197" x2="-61.245598" y2="763.85315"/>
<line stroke="#000000" x1="-61.245598" y1="763.85315" x2="-49.12637" y2="681.6127"/>
<line stroke="#000000" x1="-49.12637" y1="681.6127" x2="-71.290184" y2="780.90204"/>
<line stroke="#000000" x1="-71.290184" y1="780.90204" x2="-35.166077" y2="695.573"/>
<line stroke="#000000" x1="-35.166077" y1="695.573" x2="-94.181755" y2="814.2735"/>
<line stroke="#000000" x1="-94.181755" y1="814.2735" x2="-33.464573" y2="697.83093"/>
<line stroke="#000000" x1="-33.464573" y1="697.83093" x2="-86.83958" y2="814.3781"/>
<line stroke="#000000" x1="-86.83958" y1="814.3781" x2="-37.800816" y2="720.7175"/>
<line stroke="#000000" x1="-37.800816" y1="720.7175" x2="-51.384342" y2="679.9112"/>
<line stroke="#000000" x1="-51.384342" y1="679.9112" x2="-49.540012" y2="761.51044"/>
<line stroke="#000000" x1="-49.540012" y1="761.51044" x2="-44.795372" y2="685.2468"/>
<line stroke="#000000" x1="-44.795372" y1="685.2468" x2="-69.88771" y2="800.1843"/>
<line stroke="#000000" x1="-69.88771" y1="800.1843" x2="-29.455006" y2="701.98816"/>
<line stroke="#000000" x1="-29.455006" y1="701.98816" x2="-84.44113" y2="813.91187"/>
<line stroke="#000000" x1="-84.44113" y1="813.91187" x2="-26.593246" y2="706.9449"/>
<line stroke="#000000" x1="-26.593246" y1="706.9449" x2="-79.975975" y2="811.7686"/>
<line stroke="#000000" x1="-79.975975" y1="811.7686" x2="-31.013868" y2="699.58777"/>
<line stroke="#000000" x1="-31.013868" y1="699.58777" x2="-75.39556" y2="810.28033"/>
<line stroke="#000000" x1="-75.39556" y1="810.28033" x2="-27.980865" y2="704.4415"/>
<line stroke="#000000" x1="-27.980865" y1="704.4415" x2="-77.36376" y2="812.0155"/>
<line stroke="#000000" x1="-77.36376" y1="812.0155" x2="-24.395044" y2="709.05676"/>
<line stroke="#000000" x1="-24.395044" y1="709.05676" x2="-90.0055" y2="830.97046"/>
<line stroke="#000000" x1="-90.0055" y1="830.97046" x2="-23.170677" y2="711.6824"/>
<line stroke="#000000" x1="-23.170677" y1="711.6824" x2="-53.700325" y2="678.28955"/>
<line stroke="#000000" x1="-53.700325" y1="678.28955" x2="-19.106201" y2="719.48413"/>
<line stroke="#000000" x1="-19.106201" y1="719.48413" x2="-78.18967" y2="828.88696"/>
<line stroke="#000000" x1="-78.18967" y1="828.88696" x2="-18.248966" y2="722.288"/>
<line stroke="#000000" x1="-18.248966" y1="722.288" x2="-56.071487" y2="676.74963"/>
<line stroke="#000000" x1="-56.071487" y1="676.74963" x2="-38.071564" y2="777.8351"/>
<line stroke="#000000" x1="-38.071564" y1="777.8351" x2="-60.967754" y2="673.9228"/>
<line stroke="#000000" x1="-60.967754" y1="673.9228" x2="-21.184954" y2="750.88257"/>
<line stroke="#000000" x1="-21.184954" y1="750.88257" x2="-63.486885" y2="672.6393"/>
<line stroke="#000000" x1="-63.486885" y1="672.6393" x2="-6.4230204" y2="729.11865"/>
<line stroke="#000000" x1="-6.4230204" y1="729.11865" x2="-83.40756" y2="856.35156"/>
<line stroke="#000000" x1="-83.40756" y1="856.35156" x2="-1.5318036" y2="735.19775"/>
<line stroke="#000000" x1="-1.5318036" y1="735.19775" x2="-66.04928" y2="671.44434"/>
<line stroke="#000000" x1="-66.04928" y1="671.44434" x2="-4.5153694" y2="755.37177"/>
<line stroke="#000000" x1="-4.5153694" y1="755.37177" x2="-73.655556" y2="667.45496"/>
<line stroke="#000000" x1="-73.655556" y1="667.45496" x2="3.9929297" y2="759.9155"/>
<line stroke="#000000" x1="3.9929297" y1="759.9155" x2="-76.392685" y2="666.6181"/>
<line stroke="#000000" x1="-76.392685" y1="666.6181" x2="12.936823" y2="749.3503"/>
<line stroke="#000000" x1="12.936823" y1="749.3503" x2="-84.58215" y2="663.7025"/>
<line stroke="#000000" x1="-84.58215" y1="663.7025" x2="-6.557707" y2="803.20276"/>
<line stroke="#000000" x1="-6.557707" y1="803.20276" x2="-58.49495" y2="675.29346"/>
<line stroke="#000000" x1="-58.49495" y1="675.29346" x2="6.719184" y2="834.14624"/>
<line stroke="#000000" x1="6.719184" y1="834.14624" x2="-90.319084" y2="662.89624"/>
<line stroke="#000000" x1="-90.319084" y1="662.89624" x2="11.005051" y2="745.4415"/>
<line stroke="#000000" x1="11.005051" y1="745.4415" x2="-35.431133" y2="875.7667"/>
<line stroke="#000000" x1="-35.431133" y1="875.7667" x2="23.2735" y2="719.45264"/>
<line stroke="#000000" x1="23.2735" y1="719.45264" x2="11.733629" y2="845.142"/>
<line stroke="#000000" x1="11.733629" y1="845.142" x2="-70.949295" y2="668.3867"/>
<line stroke="#000000" x1="-70.949295" y1="668.3867" x2="121.84153" y2="872.9415"/>
<line stroke="#000000" x1="121.84153" y1="872.9415" x2="-81.73828" y2="664.2553"/>
<line stroke="#000000" x1="-81.73828" y1="664.2553" x2="137.43694" y2="840.96625"/>
<line stroke="#000000" x1="137.43694" y1="840.96625" x2="-78.915436" y2="664.907"/>
<line stroke="#000000" x1="-78.915436" y1="664.907" x2="140.62666" y2="832.6567"/>
<line stroke="#000000" x1="140.62666" y1="832.6567" x2="-87.304405" y2="662.25903"/>
<line stroke="#000000" x1="-87.304405" y1="662.25903" x2="150.4327" y2="798.45905"/>
<line stroke="#000000" x1="150.4327" y1="798.45905" x2="-93.06565" y2="660.6486"/>
<line stroke="#000000" x1="-93.06565" y1="660.6486" x2="152.13103" y2="789.72186"/>
<line stroke="#000000" x1="152.13103" y1="789.72186" x2="-95.99359" y2="659.49396"/>
<line stroke="#000000" x1="-95.99359" y1="659.49396" x2="148.43047" y2="807.13165"/>
<line stroke="#000000" x1="148.43047" y1="807.13165" x2="-68.27721" y2="669.4125"/>
<line stroke="#000000" x1="-68.27721" y1="669.4125" x2="112.40963" y2="888.03577"/>
<line stroke="#000000" x1="112.40963" y1="888.03577" x2="155.84972" y2="736.5422"/>
<line stroke="#000000" x1="155.84972" y1="736.5422" x2="107.30438" y2="895.3268"/>
<line stroke="#000000" x1="107.30438" y1="895.3268" x2="153.5234" y2="709.9524"/>
<line stroke="#000000" x1="153.5234" y1="709.9524" x2="101.94779" y2="902.43524"/>
<line stroke="#000000" x1="101.94779" y1="902.43524" x2="155.38388" y2="727.6537"/>
<line stroke="#000000" x1="155.38388" y1="727.6537" x2="-95.99359" y2="831.38916"/>
<line stroke="#000000" x1="-95.99359" y1="831.38916" x2="-98.99495" y2="658.4415"/>
<line stroke="#000000" x1="-190.0" y1="913.0" x2="-176.02017" y2="910.72595"/>
<line stroke="#000000" x1="-176.02017" y1="910.72595" x2="-189.19731" y2="912.98596"/>
<line stroke="#000000" x1="-189.19731" y1="912.98596" x2="-176.75201" y2="911.2012"/>
<line stroke="#000000" x1="-176.75201" y1="911.2012" x2="-188.32585" y2="913.9415"/>
<line stroke="#000000" x1="-188.32585" y1="913.9415" x2="-178.0" y2="910.7846"/>
<line stroke="#000000" x1="-178.0" y1="910.7846" x2="-187.59584" y2="912.874"/>
<line stroke="#000000" x1="-187.59584" y1="912.874" x2="-178.73268" y2="911.19073"/>
<line stroke="#000000" x1="-178.73268" y1="911.19073" x2="-186.79901" y2="912.7762"/>
<line stroke="#000000" x1="-186.79901" y1="912.7762" x2="-179.4791" y2="911.57104"/>
<line stroke="#000000" x1="-179.4791" y1="911.57104" x2="-186.00609" y2="912.6506"/>
<line stroke="#000000" x1="-186.00609" y1="912.6506" x2="-180.23833" y2="911.9251"/>
<line stroke="#000000" x1="-180.23833" y1="911.9251" x2="-185.21803" y2="912.4974"/>
<line stroke="#000000" x1="-185.21803" y1="912.4974" x2="-181.00945" y2="912.25244"/>
<line stroke="#000000" x1="-181.00945" y1="912.25244" x2="-188.81413" y2="873.0414"/>
<line stroke="#000000" x1="-188.81413" y1="873.0414" x2="-184.43579" y2="912.3168"/>
<line stroke="#000000" x1="-184.43579" y1="912.3168" x2="-175.89316" y2="909.4164"/>
<line stroke="#000000" x1="-175.89316" y1="909.4164" x2="-183.3847" y2="913.0703"/>
<line stroke="#000000" x1="-183.3847" y1="913.0703" x2="-189.40671" y2="873.0104"/>
<line stroke="#000000" x1="-189.40671" y1="873.0104" x2="-182.58359" y2="912.8254"/>
<line stroke="#000000" x1="-182.58359" y1="912.8254" x2="-175.22412" y2="908.91223"/>
<line stroke="#000000" x1="-175.22412" y1="908.91223" x2="-181.79152" y2="912.5526"/>
<line stroke="#000000" x1="-181.79152" y1="912.5526" x2="-188.11848" y2="872.09863"/>
<line stroke="#000000" x1="-188.11848" y1="872.09863" x2="-173.93031" y2="909.1511"/>
<line stroke="#000000" x1="-173.93031" y1="909.1511" x2="-178.0" y2="869.2154"/>
<line stroke="#000000" x1="-178.0" y1="869.2154" x2="-173.27173" y2="908.5786"/>
<line stroke="#000000" x1="-173.27173" y1="908.5786" x2="-176.75201" y2="868.7988"/>
<line stroke="#000000" x1="-176.75201" y1="868.7988" x2="-171.93889" y2="908.7028"/>
<line stroke="#000000" x1="-171.93889" y1="908.7028" x2="-178.73268" y2="868.80927"/>
<line stroke="#000000" x1="-178.73268" y1="868.80927" x2="-171.29716" y2="908.0611"/>
<line stroke="#000000" x1="-171.29716" y1="908.0611" x2="-179.4791" y2="868.42896"/>
<line stroke="#000000" x1="-179.4791" y1="868.42896" x2="-170.08284" y2="906.71246"/>
<line stroke="#000000" x1="-170.08284" y1="906.71246" x2="-180.23833" y2="868.0749"/>
<line stroke="#000000" x1="-180.23833" y1="868.0749" x2="-169.93509" y2="908.0665"/>
<line stroke="#000000" x1="-169.93509" y1="908.0665" x2="-181.00945" y2="867.74756"/>
<line stroke="#000000" x1="-181.00945" y1="867.74756" x2="-167.9357" y2="907.2385"/>
<line stroke="#000000" x1="-167.9357" y1="907.2385" x2="-181.79152" y2="867.4474"/>
<line stroke="#000000" x1="-181.79152" y1="867.4474" x2="-167.34752" y2="906.458"/>
<line stroke="#000000" x1="-167.34752" y1="906.458" x2="-183.66034" y2="867.891"/>
<line stroke="#000000" x1="-183.66034" y1="867.891" x2="-166.25465" y2="904.83777"/>
<line stroke="#000000" x1="-166.25465" y1="904.83777" x2="-182.58359" y2="867.1746"/>
<line stroke="#000000" x1="-182.58359" y1="867.1746" x2="55.12173" y2="819.71246"/>
<line stroke="#000000" x1="55.12173" y1="819.71246" x2="-184.43579" y2="867.6832"/>
<line stroke="#000000" x1="-184.43579" y1="867.6832" x2="57.42541" y2="828.30994"/>
<line stroke="#000000" x1="57.42541" y1="828.30994" x2="-186.93819" y2="868.2141"/>
<line stroke="#000000" x1="-186.93819" y1="868.2141" x2="59.42764" y2="836.98254"/>
<line stroke="#000000" x1="59.42764" y1="836.98254" x2="-185.21803" y2="867.5026"/>
<line stroke="#000000" x1="-185.21803" y1="867.5026" x2="61.125977" y2="845.7197"/>
<line stroke="#000000" x1="61.125977" y1="845.7197" x2="-186.00609" y2="867.3494"/>
<line stroke="#000000" x1="-186.00609" y1="867.3494" x2="62.518356" y2="854.51086"/>
<line stroke="#000000" x1="62.518356" y1="854.51086" x2="-170.98744" y2="861.81274"/>
<line stroke="#000000" x1="-170.98744" y1="861.81274" x2="63.603085" y2="863.3452"/>
<line stroke="#000000" x1="63.603085" y1="863.3452" x2="52.519413" y2="811.2007"/>
<line stroke="#000000" x1="52.519413" y1="811.2007" x2="64.37883" y2="872.2121"/>
<line stroke="#000000" x1="64.37883" y1="872.2121" x2="49.62162" y2="802.78485"/>
<line stroke="#000000" x1="49.62162" y1="802.78485" x2="64.84466" y2="881.10065"/>
<line stroke="#000000" x1="64.84466" y1="881.10065" x2="46.431885" y2="794.47534"/>
<line stroke="#000000" x1="46.431885" y1="794.47534" x2="64.84466" y2="898.89935"/>
<line stroke="#000000" x1="64.84466" y1="898.89935" x2="42.95409" y2="786.28217"/>
<line stroke="#000000" x1="42.95409" y1="786.28217" x2="64.37883" y2="907.7879"/>
<line stroke="#000000" x1="64.37883" y1="907.7879" x2="39.192482" y2="778.21533"/>
<line stroke="#000000" x1="39.192482" y1="778.21533" x2="63.603085" y2="916.6548"/>
<line stroke="#000000" x1="63.603085" y1="916.6548" x2="-103.595566" y2="771.0745"/>
<line stroke="#000000" x1="-103.595566" y1="771.0745" x2="62.518356" y2="925.48914"/>
<line stroke="#000000" x1="62.518356" y1="925.48914" x2="35.151638" y2="770.2847"/>
<line stroke="#000000" x1="35.151638" y1="770.2847" x2="61.125977" y2="934.2803"/>
<line stroke="#000000" x1="61.125977" y1="934.2803" x2="30.836477" y2="762.5"/>
<line stroke="#000000" x1="30.836477" y1="762.5" x2="59.42764" y2="943.01746"/>
<line stroke="#000000" x1="59.42764" y1="943.01746" x2="26.252264" y2="754.8706"/>
<line stroke="#000000" x1="26.252264" y1="754.8706" x2="57.42541" y2="951.69006"/>
<line stroke="#000000" x1="57.42541" y1="951.69006" x2="21.404581" y2="747.4058"/>
<line stroke="#000000" x1="21.404581" y1="747.4058" x2="55.12173" y2="960.28754"/>
<line stroke="#000000" x1="55.12173" y1="960.28754" x2="16.299334" y2="740.11475"/>
<line stroke="#000000" x1="16.299334" y1="740.11475" x2="52.519413" y2="968.7993"/>
<line stroke="#000000" x1="52.519413" y1="968.7993" x2="10.942742" y2="733.00635"/>
<line stroke="#000000" x1="10.942742" y1="733.00635" x2="49.62162" y2="977.21515"/>
<line stroke="#000000" x1="49.62162" y1="977.21515" x2="5.341333" y2="726.0892"/>
<line stroke="#000000" x1="5.341333" y1="726.0892" x2="46.431885" y2="985.52466"/>
<line stroke="#000000" x1="46.431885" y1="985.52466" x2="-0.4980695" y2="719.3717"/>
<line stroke="#000000" x1="-0.4980695" y1="719.3717" x2="42.95409" y2="993.71783"/>
<line stroke="#000000" x1="42.95409" y1="993.71783" x2="-6.568351" y2="712.8621"/>
<line stroke="#000000" x1="-6.568351" y1="712.8621" x2="39.192482" y2="1001.78467"/>
<line stroke="#000000" x1="39.192482" y1="1001.78467" x2="-12.862116" y2="706.56836"/>
<line stroke="#000000" x1="-12.862116" y1="706.56836" x2="35.151638" y2="1009.7153"/>
<line stroke="#000000" x1="35.151638" y1="1009.7153" x2="-19.371695" y2="700.49805"/>
<line stroke="#000000" x1="-19.371695" y1="700.49805" x2="30.836477" y2="1017.5"/>
<line stroke="#000000" x1="30.836477" y1="1017.5" x2="-26.089159" y2="694.6587"/>
<line stroke="#000000" x1="-26.089159" y1="694.6587" x2="21.404581" y2="1032.5942"/>
<line stroke="#000000" x1="21.404581" y1="1032.5942" x2="-33.006325" y2="689.05725"/>
<line stroke="#000000" x1="-33.006325" y1="689.05725" x2="65.0" y2="890.0"/>
<line stroke="#000000" x1="65.0" y1="890.0" x2="-190.0" y2="873.0"/>
<line stroke="#000000" x1="150.26279" y1="1089.2628" x2="195.55742" y2="1107.4148"/>
<line stroke="#000000" x1="195.55742" y1="1107.4148" x2="181.04587" y2="1079.6633"/>
<line stroke="#000000" x1="181.04587" y1="1079.6633" x2="167.10364" y2="1119.4928"/>
<line stroke="#000000" x1="167.10364" y1="1119.4928" x2="181.75938" y2="1077.799"/>
<line stroke="#000000" x1="181.75938" y1="1077.799" x2="193.18625" y2="1108.9547"/>
<line stroke="#000000" x1="193.18625" y1="1108.9547" x2="182.38106" y2="1075.9337"/>
<line stroke="#000000" x1="182.38106" y1="1075.9337" x2="190.76279" y2="1110.4109"/>
<line stroke="#000000" x1="190.76279" y1="1110.4109" x2="183.6064" y2="1074.7911"/>
<line stroke="#000000" x1="183.6064" y1="1074.7911" x2="180.98053" y2="1116.2919"/>
<line stroke="#000000" x1="180.98053" y1="1116.2919" x2="184.7911" y2="1073.6064"/>
<line stroke="#000000" x1="184.7911" y1="1073.6064" x2="183.6152" y2="1115.1736"/>
<line stroke="#000000" x1="183.6152" y1="1115.1736" x2="186.6769" y2="1073.0502"/>
<line stroke="#000000" x1="186.6769" y1="1073.0502" x2="188.75946" y2="1112.6646"/>
<line stroke="#000000" x1="188.75946" y1="1112.6646" x2="187.03293" y2="1071.1166"/>
<line stroke="#000000" x1="187.03293" y1="1071.1166" x2="178.30844" y2="1117.3176"/>
<line stroke="#000000" x1="178.30844" y1="1117.3176" x2="193.60338" y2="1074.1241"/>
<line stroke="#000000" x1="193.60338" y1="1074.1241" x2="186.20923" y2="1113.9639"/>
<line stroke="#000000" x1="186.20923" y1="1113.9639" x2="189.90463" y2="1069.0642"/>
<line stroke="#000000" x1="189.90463" y1="1069.0642" x2="175.60219" y2="1118.2494"/>
<line stroke="#000000" x1="175.60219" y1="1118.2494" x2="204.97928" y2="1077.1696"/>
<line stroke="#000000" x1="204.97928" y1="1077.1696" x2="172.86505" y2="1119.0863"/>
<line stroke="#000000" x1="172.86505" y1="1119.0863" x2="222.1429" y2="1081.7628"/>
<line stroke="#000000" x1="222.1429" y1="1081.7628" x2="170.10039" y2="1119.827"/>
<line stroke="#000000" x1="170.10039" y1="1119.827" x2="223.54744" y2="1079.2289"/>
<line stroke="#000000" x1="223.54744" y1="1079.2289" x2="161.81416" y2="1122.4551"/>
<line stroke="#000000" x1="161.81416" y1="1122.4551" x2="225.76149" y2="1077.0859"/>
<line stroke="#000000" x1="225.76149" y1="1077.0859" x2="153.19435" y2="1124.2117"/>
<line stroke="#000000" x1="153.19435" y1="1124.2117" x2="227.00061" y2="1074.4287"/>
<line stroke="#000000" x1="227.00061" y1="1074.4287" x2="164.6756" y2="1122.0018"/>
<line stroke="#000000" x1="164.6756" y1="1122.0018" x2="230.9278" y2="1072.8535"/>
<line stroke="#000000" x1="230.9278" y1="1072.8535" x2="159.04318" y2="1123.8026"/>
<line stroke="#000000" x1="159.04318" y1="1123.8026" x2="232.95575" y2="1070.3606"/>
<line stroke="#000000" x1="232.95575" y1="1070.3606" x2="156.12234" y2="1124.0582"/>
<line stroke="#000000" x1="156.12234" y1="1124.0582" x2="220.65079" y2="1084.2461"/>
<line stroke="#000000" x1="220.65079" y1="1084.2461" x2="356.56213" y2="890.37756"/>
<line stroke="#000000" x1="356.56213" y1="890.37756" x2="198.46118" y2="1106.6022"/>
<line stroke="#000000" x1="198.46118" y1="1106.6022" x2="361.6674" y2="897.6686"/>
<line stroke="#000000" x1="361.6674" y1="897.6686" x2="171.51213" y2="1008.75934"/>
<line stroke="#000000" x1="171.51213" y1="1008.75934" x2="366.51505" y2="905.13336"/>
<line stroke="#000000" x1="366.51505" y1="905.13336" x2="170.92964" y2="1007.1889"/>
<line stroke="#000000" x1="170.92964" y1="1007.1889" x2="371.09927" y2="912.7628"/>
<line stroke="#000000" x1="371.09927" y1="912.7628" x2="169.51112" y2="1004.06195"/>
<line stroke="#000000" x1="169.51112" y1="1004.06195" x2="375.41443" y2="920.54755"/>
<line stroke="#000000" x1="375.41443" y1="920.54755" x2="168.67438" y2="1002.5134"/>
<line stroke="#000000" x1="168.67438" y1="1002.5134" x2="379.45526" y2="928.47815"/>
<line stroke="#000000" x1="379.45526" y1="928.47815" x2="167.86931" y2="996.6852"/>
<line stroke="#000000" x1="167.86931" y1="996.6852" x2="383.2169" y2="936.5449"/>
<line stroke="#000000" x1="383.2169" y1="936.5449" x2="351.20554" y2="883.2691"/>
<line stroke="#000000" x1="351.20554" y1="883.2691" x2="386.69467" y2="944.7381"/>
<line stroke="#000000" x1="386.69467" y1="944.7381" x2="345.60413" y2="876.3519"/>
<line stroke="#000000" x1="345.60413" y1="876.3519" x2="389.8844" y2="953.04767"/>
<line stroke="#000000" x1="389.8844" y1="953.04767" x2="339.76474" y2="869.6345"/>
<line stroke="#000000" x1="339.76474" y1="869.6345" x2="392.7822" y2="961.46344"/>
<line stroke="#000000" x1="392.7822" y1="961.46344" x2="333.69446" y2="863.1249"/>
<line stroke="#000000" x1="333.69446" y1="863.1249" x2="395.38452" y2="969.9753"/>
<line stroke="#000000" x1="395.38452" y1="969.9753" x2="154.10175" y2="930.32983"/>
<line stroke="#000000" x1="154.10175" y1="930.32983" x2="397.6882" y2="978.5727"/>
<line stroke="#000000" x1="397.6882" y1="978.5727" x2="327.40067" y2="856.8312"/>
<line stroke="#000000" x1="327.40067" y1="856.8312" x2="399.69043" y2="987.2453"/>
<line stroke="#000000" x1="399.69043" y1="987.2453" x2="237.76279" y2="888.7084"/>
<line stroke="#000000" x1="237.76279" y1="888.7084" x2="401.38876" y2="995.9825"/>
<line stroke="#000000" x1="401.38876" y1="995.9825" x2="219.40802" y2="884.9601"/>
<line stroke="#000000" x1="219.40802" y1="884.9601" x2="402.78116" y2="1004.7737"/>
<line stroke="#000000" x1="402.78116" y1="1004.7737" x2="320.8911" y2="850.76086"/>
<line stroke="#000000" x1="320.8911" y1="850.76086" x2="403.86588" y2="1013.60803"/>
<line stroke="#000000" x1="403.86588" y1="1013.60803" x2="314.17365" y2="844.92145"/>
<line stroke="#000000" x1="314.17365" y1="844.92145" x2="404.64163" y2="1022.4749"/>
<line stroke="#000000" x1="404.64163" y1="1022.4749" x2="307.25647" y2="839.32007"/>
<line stroke="#000000" x1="307.25647" y1="839.32007" x2="405.10745" y2="1031.3634"/>
<line stroke="#000000" x1="405.10745" y1="1031.3634" x2="300.14804" y2="833.96344"/>
<line stroke="#000000" x1="300.14804" y1="833.96344" x2="405.10745" y2="1049.1621"/>
<line stroke="#000000" x1="405.10745" y1="1049.1621" x2="237.47794" y2="800.6412"/>
<line stroke="#000000" x1="237.47794" y1="800.6412" x2="392.7822" y2="1119.0621"/>
<line stroke="#000000" x1="392.7822" y1="1119.0621" x2="229.06213" y2="797.7434"/>
<line stroke="#000000" x1="229.06213" y1="797.7434" x2="395.38452" y2="1110.5503"/>
<line stroke="#000000" x1="395.38452" y1="1110.5503" x2="220.55032" y2="795.14105"/>
<line stroke="#000000" x1="220.55032" y1="795.14105" x2="397.6882" y2="1101.9529"/>
<line stroke="#000000" x1="397.6882" y1="1101.9529" x2="211.95288" y2="792.8374"/>
<line stroke="#000000" x1="211.95288" y1="792.8374" x2="399.69043" y2="1093.2803"/>
<line stroke="#000000" x1="399.69043" y1="1093.2803" x2="203.28027" y2="790.83514"/>
<line stroke="#000000" x1="203.28027" y1="790.83514" x2="401.38876" y2="1084.5431"/>
<line stroke="#000000" x1="401.38876" y1="1084.5431" x2="194.54308" y2="789.13684"/>
<line stroke="#000000" x1="194.54308" y1="789.13684" x2="402.78116" y2="1075.752"/>
<line stroke="#000000" x1="402.78116" y1="1075.752" x2="185.75194" y2="787.74445"/>
<line stroke="#000000" x1="185.75194" y1="787.74445" x2="403.86588" y2="1066.9176"/>
<line stroke="#000000" x1="403.86588" y1="1066.9176" x2="176.91756" y2="786.6597"/>
<line stroke="#000000" x1="176.91756" y1="786.6597" x2="404.64163" y2="1058.0507"/>
<line stroke="#000000" x1="404.64163" y1="1058.0507" x2="168.05069" y2="785.884"/>
<line stroke="#000000" x1="168.05069" y1="785.884" x2="405.2628" y2="1040.2628"/>
<line stroke="#000000" x1="405.2628" y1="1040.2628" x2="150.26279" y2="945.2628"/>
</g>
</svg>
