<svg xmlns="http://www.w3.org/2000/svg" width="2000.0px" height="2000.0px" viewBox="-800.0 -800.0 2000.0 2000.0">
<g>
<line stroke="#000000" x1="300.0" y1="-85.0" x2="551.126" y2="-44.280285"/>
<line stroke="#000000" x1="551.126" y1="-44.280285" x2="511.40457" y2="142.5942"/>
<line stroke="#000000" x1="511.40457" y1="142.5942" x2="300.0" y2="50.0"/>
<line stroke="#000000" x1="300.0" y1="50.0" x2="626.9799" y2="-199.87816"/>
<line stroke="#000000" x1="626.9799" y1="-199.87816" x2="762.5942" y2="-211.40459"/>
<line stroke="#000000" x1="762.5942" y1="-211.40459" x2="869.4276" y2="-53.017483"/>
<line stroke="#000000" x1="869.4276" y1="-53.017483" x2="635.7569" y2="-2.7783709"/>
<line stroke="#000000" x1="635.7569" y1="-2.7783709" x2="874.84467" y2="8.899372"/>
<line stroke="#000000" x1="874.84467" y1="8.899372" x2="762.5942" y2="211.40459"/>
<line stroke="#000000" x1="762.5942" y1="211.40459" x2="652.3251" y2="51.730934"/>
<line stroke="#000000" x1="652.3251" y1="51.730934" x2="747.5" y2="220.83647"/>
<line stroke="#000000" x1="747.5" y1="220.83647" x2="620.0" y2="53.0"/>
<line stroke="#000000" x1="620.0" y1="53.0" x2="948.1073" y2="-174.08023"/>
<line stroke="#000000" x1="948.1073" y1="-174.08023" x2="836.63116" y2="-41.144966"/>
<line stroke="#000000" x1="836.63116" y1="-41.144966" x2="991.4046" y2="-142.5942"/>
<line stroke="#000000" x1="991.4046" y1="-142.5942" x2="803.74536" y2="-14.837739"/>
<line stroke="#000000" x1="803.74536" y1="-14.837739" x2="1005.1516" y2="-119.71525"/>
<line stroke="#000000" x1="1005.1516" y1="-119.71525" x2="780.0" y2="54.0"/>
<line stroke="#000000" x1="780.0" y1="54.0" x2="330.0" y2="-437.0"/>
<line stroke="#000000" x1="330.0" y1="-437.0" x2="173.00632" y2="-249.05725"/>
<line stroke="#000000" x1="173.00632" y1="-249.05725" x2="100.80752" y2="-338.21536"/>
<line stroke="#000000" x1="100.80752" y1="-338.21536" x2="202.97581" y2="-398.6789"/>
<line stroke="#000000" x1="202.97581" y1="-398.6789" x2="203.1415" y2="-496.17273"/>
<line stroke="#000000" x1="203.1415" y1="-496.17273" x2="305.33426" y2="-460.9819"/>
<line stroke="#000000" x1="305.33426" y1="-460.9819" x2="207.764" y2="-509.61847"/>
<line stroke="#000000" x1="207.764" y1="-509.61847" x2="307.04337" y2="-462.20627"/>
<line stroke="#000000" x1="307.04337" y1="-462.20627" x2="198.55255" y2="-532.1375"/>
<line stroke="#000000" x1="198.55255" y1="-532.1375" x2="187.4058" y2="-661.4046"/>
<line stroke="#000000" x1="187.4058" y1="-661.4046" x2="330.0" y2="-522.0"/>
<line stroke="#000000" x1="330.0" y1="-522.0" x2="271.10062" y2="-245.15533"/>
<line stroke="#000000" x1="271.10062" y1="-245.15533" x2="246.62616" y2="-397.2859"/>
<line stroke="#000000" x1="246.62616" y1="-397.2859" x2="176.28215" y2="-267.0459"/>
<line stroke="#000000" x1="176.28215" y1="-267.0459" x2="250.19077" y2="-438.88202"/>
<line stroke="#000000" x1="250.19077" y1="-438.88202" x2="152.5" y2="-279.1635"/>
<line stroke="#000000" x1="152.5" y1="-279.1635" x2="59.16352" y2="-372.5"/>
<line stroke="#000000" x1="59.16352" y1="-372.5" x2="192.5882" y2="-453.5223"/>
<line stroke="#000000" x1="192.5882" y1="-453.5223" x2="50.807518" y2="-388.21536"/>
<line stroke="#000000" x1="50.807518" y1="-388.21536" x2="199.608" y2="-464.20718"/>
<line stroke="#000000" x1="199.608" y1="-464.20718" x2="43.568115" y2="-404.4753"/>
<line stroke="#000000" x1="43.568115" y1="-404.4753" x2="198.20914" y2="-473.42453"/>
<line stroke="#000000" x1="198.20914" y1="-473.42453" x2="207.365" y2="-586.56305"/>
<line stroke="#000000" x1="207.365" y1="-586.56305" x2="255.37354" y2="-531.52045"/>
<line stroke="#000000" x1="255.37354" y1="-531.52045" x2="219.5892" y2="-596.6775"/>
<line stroke="#000000" x1="219.5892" y1="-596.6775" x2="280.0" y2="-571.0"/>
<line stroke="#000000" x1="280.0" y1="-571.0" x2="8.899372" y2="-254.84467"/>
<line stroke="#000000" x1="8.899372" y1="-254.84467" x2="119.71525" y2="-225.15164"/>
<line stroke="#000000" x1="119.71525" y1="-225.15164" x2="45.0" y2="-77.94228"/>
<line stroke="#000000" x1="45.0" y1="-77.94228" x2="135.12941" y2="-216.25226"/>
<line stroke="#000000" x1="135.12941" y1="-216.25226" x2="32.992382" y2="-48.913216"/>
<line stroke="#000000" x1="32.992382" y1="-48.913216" x2="156.99368" y2="-200.94275"/>
<line stroke="#000000" x1="156.99368" y1="-200.94275" x2="20.141514" y2="-19.450434"/>
<line stroke="#000000" x1="20.141514" y1="-19.450434" x2="225.15164" y2="-119.71525"/>
<line stroke="#000000" x1="225.15164" y1="-119.71525" x2="31.009857" y2="-11.286665"/>
<line stroke="#000000" x1="31.009857" y1="-11.286665" x2="254.37883" y2="-17.7879"/>
<line stroke="#000000" x1="254.37883" y1="-17.7879" x2="60.96284" y2="2.1288693"/>
<line stroke="#000000" x1="60.96284" y1="2.1288693" x2="253.60309" y2="26.654758"/>
<line stroke="#000000" x1="253.60309" y1="26.654758" x2="89.267204" y2="22.256815"/>
<line stroke="#000000" x1="89.267204" y1="22.256815" x2="242.51941" y2="78.79933"/>
<line stroke="#000000" x1="242.51941" y1="78.79933" x2="83.587845" y2="40.768517"/>
<line stroke="#000000" x1="83.587845" y1="40.768517" x2="220.83647" y2="127.5"/>
<line stroke="#000000" x1="220.83647" y1="127.5" x2="135.12941" y2="216.25226"/>
<line stroke="#000000" x1="135.12941" y1="216.25226" x2="76.0" y2="131.63586"/>
<line stroke="#000000" x1="76.0" y1="131.63586" x2="119.71525" y2="225.15164"/>
<line stroke="#000000" x1="119.71525" y1="225.15164" x2="0.0" y2="87.0"/>
<line stroke="#000000" x1="0.0" y1="87.0" x2="106.351585" y2="-193.40756"/>
<line stroke="#000000" x1="106.351585" y1="-193.40756" x2="21.330103" y2="-190.18582"/>
<line stroke="#000000" x1="21.330103" y1="-190.18582" x2="152.43524" y2="-8.052207"/>
<line stroke="#000000" x1="152.43524" y1="-8.052207" x2="12.524498" y2="-170.62604"/>
<line stroke="#000000" x1="12.524498" y1="-170.62604" x2="82.65669" y2="30.626669"/>
<line stroke="#000000" x1="82.65669" y1="30.626669" x2="5.3645034" y2="-174.38953"/>
<line stroke="#000000" x1="5.3645034" y1="-174.38953" x2="48.45904" y2="40.43269"/>
<line stroke="#000000" x1="48.45904" y1="40.43269" x2="0.8825637" y2="-131.18495"/>
<line stroke="#000000" x1="0.8825637" y1="-131.18495" x2="-22.346342" y2="45.383884"/>
<line stroke="#000000" x1="-22.346342" y1="45.383884" x2="-13.751473" y2="-172.12372"/>
<line stroke="#000000" x1="-13.751473" y1="-172.12372" x2="-91.55844" y2="-208.99495"/>
<line stroke="#000000" x1="-91.55844" y1="-208.99495" x2="19.917156" y2="-16.712479"/>
<line stroke="#000000" x1="19.917156" y1="-16.712479" x2="211.40459" y2="-142.5942"/>
<line stroke="#000000" x1="211.40459" y1="-142.5942" x2="23.745346" y2="-14.837739"/>
<line stroke="#000000" x1="23.745346" y1="-14.837739" x2="220.83647" y2="-127.5"/>
<line stroke="#000000" x1="220.83647" y1="-127.5" x2="251.12598" y2="44.280285"/>
<line stroke="#000000" x1="251.12598" y1="44.280285" x2="156.99368" y2="200.94275"/>
<line stroke="#000000" x1="156.99368" y1="200.94275" x2="2.842171E-14" y2="17.0"/>
<line stroke="#000000" x1="2.842171E-14" y1="17.0" x2="203.28027" y2="-509.69043"/>
<line stroke="#000000" x1="203.28027" y1="-509.69043" x2="403.86588" y2="-286.91754"/>
<line stroke="#000000" x1="403.86588" y1="-286.91754" x2="189.23904" y2="-261.62387"/>
<line stroke="#000000" x1="189.23904" y1="-261.62387" x2="401.38876" y2="-215.98251"/>
<line stroke="#000000" x1="401.38876" y1="-215.98251" x2="379.45526" y2="-148.47815"/>
<line stroke="#000000" x1="379.45526" y1="-148.47815" x2="232.5352" y2="-212.76279"/>
</g>
</svg>
