<svg xmlns="http://www.w3.org/2000/svg" width="2000.0px" height="2000.0px" viewBox="-400.0 -400.0 2000.0 2000.0">
<g>
<line stroke="#000000" x1="150.0" y1="1685.0" x2="233.97537" y2="1675.6118"/>
<line stroke="#000000" x1="233.97537" y1="1675.6118" x2="264.44327" y2="1624.3257"/>
<line stroke="#000000" x1="264.44327" y1="1624.3257" x2="401.12598" y2="1644.2803"/>
<line stroke="#000000" x1="401.12598" y1="1644.2803" x2="361.40457" y2="1457.4058"/>
<line stroke="#000000" x1="361.40457" y1="1457.4058" x2="205.94876" y2="1556.2881"/>
<line stroke="#000000" x1="205.94876" y1="1556.2881" x2="150.0" y2="1550.0"/>
<line stroke="#000000" x1="150.0" y1="1550.0" x2="316.9799" y2="1799.8782"/>
<line stroke="#000000" x1="316.9799" y1="1799.8782" x2="398.55096" y2="1781.5564"/>
<line stroke="#000000" x1="398.55096" y1="1781.5564" x2="429.71524" y2="1825.1516"/>
<line stroke="#000000" x1="429.71524" y1="1825.1516" x2="493.43164" y2="1777.138"/>
<line stroke="#000000" x1="493.43164" y1="1777.138" x2="559.4276" y2="1653.0175"/>
<line stroke="#000000" x1="559.4276" y1="1653.0175" x2="325.75693" y2="1602.7783"/>
<line stroke="#000000" x1="325.75693" y1="1602.7783" x2="563.6031" y2="1626.6548"/>
<line stroke="#000000" x1="563.6031" y1="1626.6548" x2="542.9541" y2="1496.2821"/>
<line stroke="#000000" x1="542.9541" y1="1496.2821" x2="452.59418" y2="1388.5955"/>
<line stroke="#000000" x1="452.59418" y1="1388.5955" x2="342.32507" y2="1548.269"/>
<line stroke="#000000" x1="342.32507" y1="1548.269" x2="437.5" y2="1379.1636"/>
<line stroke="#000000" x1="437.5" y1="1379.1636" x2="334.98715" y2="1548.7688"/>
<line stroke="#000000" x1="334.98715" y1="1548.7688" x2="310.0" y2="1547.0"/>
<line stroke="#000000" x1="310.0" y1="1547.0" x2="416.8845" y2="1682.742"/>
<line stroke="#000000" x1="416.8845" y1="1682.742" x2="415.72287" y2="1638.1357"/>
<line stroke="#000000" x1="415.72287" y1="1638.1357" x2="558.1073" y2="1774.0802"/>
<line stroke="#000000" x1="558.1073" y1="1774.0802" x2="590.94275" y2="1756.9937"/>
<line stroke="#000000" x1="590.94275" y1="1756.9937" x2="446.6312" y2="1641.145"/>
<line stroke="#000000" x1="446.6312" y1="1641.145" x2="601.4046" y2="1742.5942"/>
<line stroke="#000000" x1="601.4046" y1="1742.5942" x2="413.74536" y2="1614.8378"/>
<line stroke="#000000" x1="413.74536" y1="1614.8378" x2="615.1516" y2="1719.7152"/>
<line stroke="#000000" x1="615.1516" y1="1719.7152" x2="453.94818" y2="1628.4716"/>
<line stroke="#000000" x1="453.94818" y1="1628.4716" x2="451.11798" y2="1570.1908"/>
<line stroke="#000000" x1="451.11798" y1="1570.1908" x2="413.8396" y2="1587.3242"/>
<line stroke="#000000" x1="413.8396" y1="1587.3242" x2="441.423" y2="1538.7164"/>
<line stroke="#000000" x1="441.423" y1="1538.7164" x2="392.02295" y2="1571.0707"/>
<line stroke="#000000" x1="392.02295" y1="1571.0707" x2="60.0" y2="1223.0"/>
<line stroke="#000000" x1="60.0" y1="1223.0" x2="216.99368" y2="1410.9427"/>
<line stroke="#000000" x1="216.99368" y1="1410.9427" x2="255.34134" y2="1373.9109"/>
<line stroke="#000000" x1="255.34134" y1="1373.9109" x2="236.5144" y2="1347.9082"/>
<line stroke="#000000" x1="236.5144" y1="1347.9082" x2="276.25226" y2="1345.1294"/>
<line stroke="#000000" x1="276.25226" y1="1345.1294" x2="289.19247" y2="1321.7847"/>
<line stroke="#000000" x1="289.19247" y1="1321.7847" x2="185.15573" y2="1265.7229"/>
<line stroke="#000000" x1="185.15573" y1="1265.7229" x2="190.98993" y2="1177.3406"/>
<line stroke="#000000" x1="190.98993" y1="1177.3406" x2="161.76305" y2="1176.9352"/>
<line stroke="#000000" x1="161.76305" y1="1176.9352" x2="186.8585" y2="1163.8273"/>
<line stroke="#000000" x1="186.8585" y1="1163.8273" x2="84.665726" y2="1199.0181"/>
<line stroke="#000000" x1="84.665726" y1="1199.0181" x2="182.236" y2="1150.3816"/>
<line stroke="#000000" x1="182.236" y1="1150.3816" x2="82.956635" y2="1197.7937"/>
<line stroke="#000000" x1="82.956635" y1="1197.7937" x2="191.44745" y2="1127.8625"/>
<line stroke="#000000" x1="191.44745" y1="1127.8625" x2="175.93059" y2="1105.6156"/>
<line stroke="#000000" x1="175.93059" y1="1105.6156" x2="243.43166" y2="1032.862"/>
<line stroke="#000000" x1="243.43166" y1="1032.862" x2="216.99368" y2="1009.05725"/>
<line stroke="#000000" x1="216.99368" y1="1009.05725" x2="151.6945" y2="1083.7933"/>
<line stroke="#000000" x1="151.6945" y1="1083.7933" x2="202.5942" y2="998.5954"/>
<line stroke="#000000" x1="202.5942" y1="998.5954" x2="99.5" y2="1141.584"/>
<line stroke="#000000" x1="99.5" y1="1141.584" x2="60.0" y2="1138.0"/>
<line stroke="#000000" x1="60.0" y1="1138.0" x2="110.0" y2="1465.0"/>
<line stroke="#000000" x1="110.0" y1="1465.0" x2="117.742966" y2="1320.7296"/>
<line stroke="#000000" x1="117.742966" y1="1320.7296" x2="143.37384" y2="1312.7141"/>
<line stroke="#000000" x1="143.37384" y1="1312.7141" x2="213.71785" y2="1442.9541"/>
<line stroke="#000000" x1="213.71785" y1="1442.9541" x2="139.80923" y2="1271.1179"/>
<line stroke="#000000" x1="139.80923" y1="1271.1179" x2="237.5" y2="1430.8364"/>
<line stroke="#000000" x1="237.5" y1="1430.8364" x2="266.99368" y2="1410.9427"/>
<line stroke="#000000" x1="266.99368" y1="1410.9427" x2="330.8365" y2="1337.5"/>
<line stroke="#000000" x1="330.8365" y1="1337.5" x2="197.4118" y2="1256.4777"/>
<line stroke="#000000" x1="197.4118" y1="1256.4777" x2="339.19247" y2="1321.7847"/>
<line stroke="#000000" x1="339.19247" y1="1321.7847" x2="190.392" y2="1245.7928"/>
<line stroke="#000000" x1="190.392" y1="1245.7928" x2="346.4319" y2="1305.5247"/>
<line stroke="#000000" x1="346.4319" y1="1305.5247" x2="191.79086" y2="1236.5754"/>
<line stroke="#000000" x1="191.79086" y1="1236.5754" x2="182.635" y2="1123.437"/>
<line stroke="#000000" x1="182.635" y1="1123.437" x2="134.62646" y2="1178.4796"/>
<line stroke="#000000" x1="134.62646" y1="1178.4796" x2="170.4108" y2="1113.3225"/>
<line stroke="#000000" x1="170.4108" y1="1113.3225" x2="110.0" y2="1139.0"/>
<line stroke="#000000" x1="110.0" y1="1139.0" x2="-301.10062" y2="1744.8447"/>
<line stroke="#000000" x1="-301.10062" y1="1744.8447" x2="-190.28474" y2="1715.1516"/>
<line stroke="#000000" x1="-190.28474" y1="1715.1516" x2="-265.0" y2="1567.9423"/>
<line stroke="#000000" x1="-265.0" y1="1567.9423" x2="-174.87059" y2="1706.2523"/>
<line stroke="#000000" x1="-174.87059" y1="1706.2523" x2="-277.00763" y2="1538.9132"/>
<line stroke="#000000" x1="-277.00763" y1="1538.9132" x2="-153.00632" y2="1690.9427"/>
<line stroke="#000000" x1="-153.00632" y1="1690.9427" x2="-289.8585" y2="1509.4504"/>
<line stroke="#000000" x1="-289.8585" y1="1509.4504" x2="-84.848366" y2="1609.7152"/>
<line stroke="#000000" x1="-84.848366" y1="1609.7152" x2="-278.99014" y2="1501.2866"/>
<line stroke="#000000" x1="-278.99014" y1="1501.2866" x2="-108.13504" y2="1547.8838"/>
<line stroke="#000000" x1="-108.13504" y1="1547.8838" x2="-219.39769" y2="1505.9756"/>
<line stroke="#000000" x1="-219.39769" y1="1505.9756" x2="-55.0" y2="1490.0"/>
<line stroke="#000000" x1="-55.0" y1="1490.0" x2="-125.45065" y2="1477.0951"/>
<line stroke="#000000" x1="-125.45065" y1="1477.0951" x2="-60.57236" y2="1436.9825"/>
<line stroke="#000000" x1="-60.57236" y1="1436.9825" x2="-220.73279" y2="1467.7432"/>
<line stroke="#000000" x1="-220.73279" y1="1467.7432" x2="-67.48059" y2="1411.2007"/>
<line stroke="#000000" x1="-67.48059" y1="1411.2007" x2="-77.045906" y2="1386.2821"/>
<line stroke="#000000" x1="-77.045906" y1="1386.2821" x2="-226.41216" y2="1449.2314"/>
<line stroke="#000000" x1="-226.41216" y1="1449.2314" x2="-89.16352" y2="1362.5"/>
<line stroke="#000000" x1="-89.16352" y1="1362.5" x2="-174.87059" y2="1273.7478"/>
<line stroke="#000000" x1="-174.87059" y1="1273.7478" x2="-234.0" y2="1358.3641"/>
<line stroke="#000000" x1="-234.0" y1="1358.3641" x2="-190.28474" y2="1264.8484"/>
<line stroke="#000000" x1="-190.28474" y1="1264.8484" x2="-297.7979" y2="1462.5936"/>
<line stroke="#000000" x1="-297.7979" y1="1462.5936" x2="-279.2182" y2="1405.4276"/>
<line stroke="#000000" x1="-279.2182" y1="1405.4276" x2="-310.0" y2="1403.0"/>
<line stroke="#000000" x1="-310.0" y1="1403.0" x2="-94.181755" y2="1414.2734"/>
<line stroke="#000000" x1="-94.181755" y1="1414.2734" x2="-83.40756" y2="1456.3516"/>
<line stroke="#000000" x1="-83.40756" y1="1456.3516" x2="-87.38215" y2="1374.1843"/>
<line stroke="#000000" x1="-87.38215" y1="1374.1843" x2="-35.431133" y2="1475.7667"/>
<line stroke="#000000" x1="-35.431133" y1="1475.7667" x2="-80.18582" y2="1371.3301"/>
<line stroke="#000000" x1="-80.18582" y1="1371.3301" x2="101.94779" y2="1502.4352"/>
<line stroke="#000000" x1="101.94779" y1="1502.4352" x2="-6.557707" y2="1403.2028"/>
<line stroke="#000000" x1="-6.557707" y1="1403.2028" x2="121.84153" y2="1472.9415"/>
<line stroke="#000000" x1="121.84153" y1="1472.9415" x2="-60.62604" y2="1362.5245"/>
<line stroke="#000000" x1="-60.62604" y1="1362.5245" x2="140.62666" y2="1432.6567"/>
<line stroke="#000000" x1="140.62666" y1="1432.6567" x2="-64.38953" y2="1355.3645"/>
<line stroke="#000000" x1="-64.38953" y1="1355.3645" x2="150.4327" y2="1398.459"/>
<line stroke="#000000" x1="150.4327" y1="1398.459" x2="-21.184954" y2="1350.8826"/>
<line stroke="#000000" x1="-21.184954" y1="1350.8826" x2="155.84972" y2="1336.5422"/>
<line stroke="#000000" x1="155.84972" y1="1336.5422" x2="-1.5318036" y2="1335.1978"/>
<line stroke="#000000" x1="-1.5318036" y1="1335.1978" x2="153.5234" y2="1309.9524"/>
<line stroke="#000000" x1="153.5234" y1="1309.9524" x2="-62.12371" y2="1336.2485"/>
<line stroke="#000000" x1="-62.12371" y1="1336.2485" x2="-19.106201" y2="1319.4841"/>
<line stroke="#000000" x1="-19.106201" y1="1319.4841" x2="-98.99495" y2="1258.4415"/>
<line stroke="#000000" x1="-98.99495" y1="1258.4415" x2="-189.19731" y2="1512.986"/>
<line stroke="#000000" x1="-189.19731" y1="1512.986" x2="21.404581" y2="1632.5942"/>
<line stroke="#000000" x1="21.404581" y1="1632.5942" x2="62.518356" y2="1454.5109"/>
<line stroke="#000000" x1="62.518356" y1="1454.5109" x2="-33.006325" y2="1289.0573"/>
<line stroke="#000000" x1="-33.006325" y1="1289.0573" x2="-190.0" y2="1473.0"/>
<line stroke="#000000" x1="-190.0" y1="1473.0" x2="153.19435" y2="1724.2117"/>
<line stroke="#000000" x1="153.19435" y1="1724.2117" x2="198.46118" y2="1706.6022"/>
<line stroke="#000000" x1="198.46118" y1="1706.6022" x2="189.90463" y2="1669.0642"/>
<line stroke="#000000" x1="189.90463" y1="1669.0642" x2="392.7822" y2="1719.0621"/>
<line stroke="#000000" x1="392.7822" y1="1719.0621" x2="405.2628" y2="1640.2628"/>
<line stroke="#000000" x1="405.2628" y1="1640.2628" x2="379.45526" y2="1528.4781"/>
<line stroke="#000000" x1="379.45526" y1="1528.4781" x2="300.14804" y2="1433.9635"/>
<line stroke="#000000" x1="300.14804" y1="1433.9635" x2="171.51213" y2="1608.7594"/>
<line stroke="#000000" x1="171.51213" y1="1608.7594" x2="237.76279" y2="1488.7084"/>
<line stroke="#000000" x1="237.76279" y1="1488.7084" x2="167.86931" y2="1596.6852"/>
<line stroke="#000000" x1="167.86931" y1="1596.6852" x2="237.47794" y2="1400.6411"/>
<line stroke="#000000" x1="237.47794" y1="1400.6411" x2="168.05069" y2="1385.8839"/>
<line stroke="#000000" x1="168.05069" y1="1385.8839" x2="150.26279" y2="1545.2628"/>
</g>
</svg>
