<svg xmlns="http://www.w3.org/2000/svg" width="2000.0px" height="2000.0px" viewBox="-800.0 -800.0 2000.0 2000.0">
<g>
<line stroke="#000000" x1="300.0" y1="-85.0" x2="305.9293" y2="-84.792946"/>
<line stroke="#000000" x1="305.9293" y1="-84.792946" x2="308.98944" y2="-85.528885"/>
<line stroke="#000000" x1="308.98944" y1="-85.528885" x2="326.57547" y2="-81.79086"/>
<line stroke="#000000" x1="326.57547" y1="-81.79086" x2="329.75574" y2="-81.75326"/>
<line stroke="#000000" x1="329.75574" y1="-81.75326" x2="343.5" y2="-75.34421"/>
<line stroke="#000000" x1="343.5" y1="-75.34421" x2="346.6329" y2="-74.628235"/>
<line stroke="#000000" x1="346.6329" y1="-74.628235" x2="362.51926" y2="-64.740585"/>
<line stroke="#000000" x1="362.51926" y1="-64.740585" x2="364.74057" y2="-62.519253"/>
<line stroke="#000000" x1="364.74057" y1="-62.519253" x2="383.97537" y2="-75.611755"/>
<line stroke="#000000" x1="383.97537" y1="-75.611755" x2="390.6099" y2="-65.83195"/>
<line stroke="#000000" x1="390.6099" y1="-65.83195" x2="375.4424" y2="-50.886555"/>
<line stroke="#000000" x1="375.4424" y1="-50.886555" x2="397.86087" y2="-56.5"/>
<line stroke="#000000" x1="397.86087" y1="-56.5" x2="401.56372" y2="-49.53594"/>
<line stroke="#000000" x1="401.56372" y1="-49.53594" x2="404.1442" y2="-46.367977"/>
<line stroke="#000000" x1="404.1442" y1="-46.367977" x2="407.12497" y2="-38.990295"/>
<line stroke="#000000" x1="407.12497" y1="-38.990295" x2="411.50635" y2="-31.973934"/>
<line stroke="#000000" x1="411.50635" y1="-31.973934" x2="414.44327" y2="-24.325668"/>
<line stroke="#000000" x1="414.44327" y1="-24.325668" x2="551.126" y2="-44.280285"/>
<line stroke="#000000" x1="551.126" y1="-44.280285" x2="554.37885" y2="-17.7879"/>
<line stroke="#000000" x1="554.37885" y1="-17.7879" x2="555.0" y2="0.0"/>
<line stroke="#000000" x1="555.0" y1="0.0" x2="553.6031" y2="26.654758"/>
<line stroke="#000000" x1="553.6031" y1="26.654758" x2="549.4276" y2="53.017483"/>
<line stroke="#000000" x1="549.4276" y1="53.017483" x2="545.1217" y2="70.28753"/>
<line stroke="#000000" x1="545.1217" y1="70.28753" x2="536.4319" y2="95.52468"/>
<line stroke="#000000" x1="536.4319" y1="95.52468" x2="525.1516" y2="119.71525"/>
<line stroke="#000000" x1="525.1516" y1="119.71525" x2="511.40457" y2="142.5942"/>
<line stroke="#000000" x1="511.40457" y1="142.5942" x2="355.94876" y2="43.711964"/>
<line stroke="#000000" x1="355.94876" y1="43.711964" x2="349.63446" y2="47.931427"/>
<line stroke="#000000" x1="349.63446" y1="47.931427" x2="346.83914" y2="52.020138"/>
<line stroke="#000000" x1="346.83914" y1="52.020138" x2="343.0963" y2="55.16075"/>
<line stroke="#000000" x1="343.0963" y1="55.16075" x2="332.39352" y2="60.923386"/>
<line stroke="#000000" x1="332.39352" y1="60.923386" x2="330.68597" y2="62.915585"/>
<line stroke="#000000" x1="330.68597" y1="62.915585" x2="325.84787" y2="63.975685"/>
<line stroke="#000000" x1="325.84787" y1="63.975685" x2="316.3779" y2="50.405994"/>
<line stroke="#000000" x1="316.3779" y1="50.405994" x2="309.0297" y2="51.210003"/>
<line stroke="#000000" x1="309.0297" y1="51.210003" x2="301.77988" y2="50.968933"/>
<line stroke="#000000" x1="301.77988" y1="50.968933" x2="300.0" y2="50.0"/>
<line stroke="#000000" x1="300.0" y1="50.0" x2="626.9799" y2="-199.87816"/>
<line stroke="#000000" x1="626.9799" y1="-199.87816" x2="647.8346" y2="-198.05362"/>
<line stroke="#000000" x1="647.8346" y1="-198.05362" x2="661.37445" y2="-194.65137"/>
<line stroke="#000000" x1="661.37445" y1="-194.65137" x2="668.6263" y2="-195.02943"/>
<line stroke="#000000" x1="668.6263" y1="-195.02943" x2="682.1124" y2="-191.16235"/>
<line stroke="#000000" x1="682.1124" y1="-191.16235" x2="689.4301" y2="-190.7576"/>
<line stroke="#000000" x1="689.4301" y1="-190.7576" x2="708.55096" y2="-181.5564"/>
<line stroke="#000000" x1="708.55096" y1="-181.5564" x2="747.5" y2="-220.83647"/>
<line stroke="#000000" x1="747.5" y1="-220.83647" x2="762.5942" y2="-211.40459"/>
<line stroke="#000000" x1="762.5942" y1="-211.40459" x2="776.99365" y2="-200.94275"/>
<line stroke="#000000" x1="776.99365" y1="-200.94275" x2="797.1379" y2="-183.43166"/>
<line stroke="#000000" x1="797.1379" y1="-183.43166" x2="815.3413" y2="-163.91084"/>
<line stroke="#000000" x1="815.3413" y1="-163.91084" x2="831.4046" y2="-142.5942"/>
<line stroke="#000000" x1="831.4046" y1="-142.5942" x2="840.8365" y2="-127.5"/>
<line stroke="#000000" x1="840.8365" y1="-127.5" x2="852.9541" y2="-103.71784"/>
<line stroke="#000000" x1="852.9541" y1="-103.71784" x2="862.5194" y2="-78.79933"/>
<line stroke="#000000" x1="862.5194" y1="-78.79933" x2="869.4276" y2="-53.017483"/>
<line stroke="#000000" x1="869.4276" y1="-53.017483" x2="635.7569" y2="-2.7783709"/>
<line stroke="#000000" x1="635.7569" y1="-2.7783709" x2="873.6031" y2="-26.654758"/>
<line stroke="#000000" x1="873.6031" y1="-26.654758" x2="874.84467" y2="-8.899372"/>
<line stroke="#000000" x1="874.84467" y1="-8.899372" x2="874.84467" y2="8.899372"/>
<line stroke="#000000" x1="874.84467" y1="8.899372" x2="872.5184" y2="35.48914"/>
<line stroke="#000000" x1="872.5184" y1="35.48914" x2="867.4254" y2="61.690083"/>
<line stroke="#000000" x1="867.4254" y1="61.690083" x2="859.62164" y2="87.21513"/>
<line stroke="#000000" x1="859.62164" y1="87.21513" x2="852.9541" y2="103.71784"/>
<line stroke="#000000" x1="852.9541" y1="103.71784" x2="845.1516" y2="119.71525"/>
<line stroke="#000000" x1="845.1516" y1="119.71525" x2="831.4046" y2="142.5942"/>
<line stroke="#000000" x1="831.4046" y1="142.5942" x2="820.94275" y2="156.99368"/>
<line stroke="#000000" x1="820.94275" y1="156.99368" x2="809.50195" y2="170.62831"/>
<line stroke="#000000" x1="809.50195" y1="170.62831" x2="790.6283" y2="189.50194"/>
<line stroke="#000000" x1="790.6283" y1="189.50194" x2="776.99365" y2="200.94275"/>
<line stroke="#000000" x1="776.99365" y1="200.94275" x2="762.5942" y2="211.40459"/>
<line stroke="#000000" x1="762.5942" y1="211.40459" x2="652.3251" y2="51.730934"/>
<line stroke="#000000" x1="652.3251" y1="51.730934" x2="747.5" y2="220.83647"/>
<line stroke="#000000" x1="747.5" y1="220.83647" x2="644.9872" y2="51.231262"/>
<line stroke="#000000" x1="644.9872" y1="51.231262" x2="636.6869" y2="51.35705"/>
<line stroke="#000000" x1="636.6869" y1="51.35705" x2="633.0638" y2="52.39597"/>
<line stroke="#000000" x1="633.0638" y1="52.39597" x2="627.37616" y2="52.484207"/>
<line stroke="#000000" x1="627.37616" y1="52.484207" x2="625.4355" y2="51.715137"/>
<line stroke="#000000" x1="625.4355" y1="51.715137" x2="620.0" y2="53.0"/>
<line stroke="#000000" x1="620.0" y1="53.0" x2="781.0121" y2="-28.982334"/>
<line stroke="#000000" x1="781.0121" y1="-28.982334" x2="784.8621" y2="-27.574617"/>
<line stroke="#000000" x1="784.8621" y1="-27.574617" x2="786.0294" y2="-28.36628"/>
<line stroke="#000000" x1="786.0294" y1="-28.36628" x2="787.71783" y2="-26.915327"/>
<line stroke="#000000" x1="787.71783" y1="-26.915327" x2="806.88446" y2="-82.74192"/>
<line stroke="#000000" x1="806.88446" y1="-82.74192" x2="792.73663" y2="-31.524252"/>
<line stroke="#000000" x1="792.73663" y1="-31.524252" x2="808.9325" y2="-59.320408"/>
<line stroke="#000000" x1="808.9325" y1="-59.320408" x2="802.5" y2="-38.97114"/>
<line stroke="#000000" x1="802.5" y1="-38.97114" x2="812.3251" y2="-51.730934"/>
<line stroke="#000000" x1="812.3251" y1="-51.730934" x2="805.7229" y2="-38.135727"/>
<line stroke="#000000" x1="805.7229" y1="-38.135727" x2="840.5419" y2="-83.32875"/>
<line stroke="#000000" x1="840.5419" y1="-83.32875" x2="826.2807" y2="-55.1552"/>
<line stroke="#000000" x1="826.2807" y1="-55.1552" x2="827.5083" y2="-52.763283"/>
<line stroke="#000000" x1="827.5083" y1="-52.763283" x2="948.1073" y2="-174.08023"/>
<line stroke="#000000" x1="948.1073" y1="-174.08023" x2="969.50195" y2="-170.62831"/>
<line stroke="#000000" x1="969.50195" y1="-170.62831" x2="980.94275" y2="-156.99368"/>
<line stroke="#000000" x1="980.94275" y1="-156.99368" x2="836.63116" y2="-41.144966"/>
<line stroke="#000000" x1="836.63116" y1="-41.144966" x2="991.4046" y2="-142.5942"/>
<line stroke="#000000" x1="991.4046" y1="-142.5942" x2="803.74536" y2="-14.837739"/>
<line stroke="#000000" x1="803.74536" y1="-14.837739" x2="1005.1516" y2="-119.71525"/>
<line stroke="#000000" x1="1005.1516" y1="-119.71525" x2="843.9482" y2="-28.471565"/>
<line stroke="#000000" x1="843.9482" y1="-28.471565" x2="847.33826" y2="-9.463771"/>
<line stroke="#000000" x1="847.33826" y1="-9.463771" x2="847.95856" y2="2.3731658"/>
<line stroke="#000000" x1="847.95856" y1="2.3731658" x2="822.89526" y2="2.9995284"/>
<line stroke="#000000" x1="822.89526" y1="2.9995284" x2="847.33826" y2="9.463771"/>
<line stroke="#000000" x1="847.33826" y1="9.463771" x2="845.3658" y2="18.74334"/>
<line stroke="#000000" x1="845.3658" y1="18.74334" x2="841.118" y2="29.809238"/>
<line stroke="#000000" x1="841.118" y1="29.809238" x2="803.8396" y2="12.675733"/>
<line stroke="#000000" x1="803.8396" y1="12.675733" x2="838.5153" y2="36.56443"/>
<line stroke="#000000" x1="838.5153" y1="36.56443" x2="836.63116" y2="41.144966"/>
<line stroke="#000000" x1="836.63116" y1="41.144966" x2="837.5248" y2="44.943287"/>
<line stroke="#000000" x1="837.5248" y1="44.943287" x2="833.6231" y2="44.995132"/>
<line stroke="#000000" x1="833.6231" y1="44.995132" x2="803.01886" y2="22.229069"/>
<line stroke="#000000" x1="803.01886" y1="22.229069" x2="806.7652" y2="29.725794"/>
<line stroke="#000000" x1="806.7652" y1="29.725794" x2="831.42303" y2="61.283554"/>
<line stroke="#000000" x1="831.42303" y1="61.283554" x2="829.2529" y2="63.04086"/>
<line stroke="#000000" x1="829.2529" y1="63.04086" x2="821.38025" y2="61.34878"/>
<line stroke="#000000" x1="821.38025" y1="61.34878" x2="810.7353" y2="49.18679"/>
<line stroke="#000000" x1="810.7353" y1="49.18679" x2="806.2904" y2="49.445065"/>
<line stroke="#000000" x1="806.2904" y1="49.445065" x2="799.15314" y2="52.622787"/>
<line stroke="#000000" x1="799.15314" y1="52.622787" x2="788.65247" y2="26.629583"/>
<line stroke="#000000" x1="788.65247" y1="26.629583" x2="793.3057" y2="53.366264"/>
<line stroke="#000000" x1="793.3057" y1="53.366264" x2="789.55066" y2="54.164425"/>
<line stroke="#000000" x1="789.55066" y1="54.164425" x2="787.5153" y2="53.474476"/>
<line stroke="#000000" x1="787.5153" y1="53.474476" x2="785.7491" y2="54.698704"/>
<line stroke="#000000" x1="785.7491" y1="54.698704" x2="782.02295" y2="28.929358"/>
<line stroke="#000000" x1="782.02295" y1="28.929358" x2="780.0" y2="54.0"/>
<line stroke="#000000" x1="780.0" y1="54.0" x2="330.0" y2="-437.0"/>
<line stroke="#000000" x1="330.0" y1="-437.0" x2="327.74258" y2="-437.1975"/>
<line stroke="#000000" x1="327.74258" y1="-437.1975" x2="325.86545" y2="-435.5811"/>
<line stroke="#000000" x1="325.86545" y1="-435.5811" x2="322.95792" y2="-436.7558"/>
<line stroke="#000000" x1="322.95792" y1="-436.7558" x2="317.28195" y2="-429.64685"/>
<line stroke="#000000" x1="317.28195" y1="-429.64685" x2="315.89316" y2="-430.5836"/>
<line stroke="#000000" x1="315.89316" y1="-430.5836" x2="173.00632" y2="-249.05725"/>
<line stroke="#000000" x1="173.00632" y1="-249.05725" x2="152.86212" y2="-266.56836"/>
<line stroke="#000000" x1="152.86212" y1="-266.56836" x2="134.65866" y2="-286.08917"/>
<line stroke="#000000" x1="134.65866" y1="-286.08917" x2="153.4856" y2="-312.09183"/>
<line stroke="#000000" x1="153.4856" y1="-312.09183" x2="118.59542" y2="-307.40582"/>
<line stroke="#000000" x1="118.59542" y1="-307.40582" x2="109.16352" y2="-322.5"/>
<line stroke="#000000" x1="109.16352" y1="-322.5" x2="100.80752" y2="-338.21536"/>
<line stroke="#000000" x1="100.80752" y1="-338.21536" x2="202.97581" y2="-398.6789"/>
<line stroke="#000000" x1="202.97581" y1="-398.6789" x2="197.05095" y2="-426.5575"/>
<line stroke="#000000" x1="197.05095" y1="-426.5575" x2="221.07051" y2="-434.69095"/>
<line stroke="#000000" x1="221.07051" y1="-434.69095" x2="196.32642" y2="-440.65262"/>
<line stroke="#000000" x1="196.32642" y1="-440.65262" x2="195.73955" y2="-464.11133"/>
<line stroke="#000000" x1="195.73955" y1="-464.11133" x2="198.03577" y2="-473.26886"/>
<line stroke="#000000" x1="198.03577" y1="-473.26886" x2="200.22968" y2="-487.21103"/>
<line stroke="#000000" x1="200.22968" y1="-487.21103" x2="228.23695" y2="-483.06482"/>
<line stroke="#000000" x1="228.23695" y1="-483.06482" x2="203.1415" y2="-496.17273"/>
<line stroke="#000000" x1="203.1415" y1="-496.17273" x2="305.33426" y2="-460.9819"/>
<line stroke="#000000" x1="305.33426" y1="-460.9819" x2="207.764" y2="-509.61847"/>
<line stroke="#000000" x1="207.764" y1="-509.61847" x2="307.04337" y2="-462.20627"/>
<line stroke="#000000" x1="307.04337" y1="-462.20627" x2="198.55255" y2="-532.1375"/>
<line stroke="#000000" x1="198.55255" y1="-532.1375" x2="214.06941" y2="-554.3844"/>
<line stroke="#000000" x1="214.06941" y1="-554.3844" x2="146.56834" y2="-627.1379"/>
<line stroke="#000000" x1="146.56834" y1="-627.1379" x2="159.37169" y2="-639.50195"/>
<line stroke="#000000" x1="159.37169" y1="-639.50195" x2="173.00632" y2="-650.94275"/>
<line stroke="#000000" x1="173.00632" y1="-650.94275" x2="238.3055" y2="-576.20667"/>
<line stroke="#000000" x1="238.3055" y1="-576.20667" x2="187.4058" y2="-661.4046"/>
<line stroke="#000000" x1="187.4058" y1="-661.4046" x2="290.5" y2="-518.416"/>
<line stroke="#000000" x1="290.5" y1="-518.416" x2="297.12216" y2="-517.40955"/>
<line stroke="#000000" x1="297.12216" y1="-517.40955" x2="317.32367" y2="-521.891"/>
<line stroke="#000000" x1="317.32367" y1="-521.891" x2="322.47394" y2="-521.6056"/>
<line stroke="#000000" x1="322.47394" y1="-521.6056" x2="324.90778" y2="-522.8222"/>
<line stroke="#000000" x1="324.90778" y1="-522.8222" x2="330.0" y2="-522.0"/>
<line stroke="#000000" x1="330.0" y1="-522.0" x2="271.10062" y2="-245.15533"/>
<line stroke="#000000" x1="271.10062" y1="-245.15533" x2="268.60638" y2="-391.5971"/>
<line stroke="#000000" x1="268.60638" y1="-391.5971" x2="261.07236" y2="-392.65594"/>
<line stroke="#000000" x1="261.07236" y1="-392.65594" x2="257.54553" y2="-394.36005"/>
<line stroke="#000000" x1="257.54553" y1="-394.36005" x2="253.63051" y2="-394.23776"/>
<line stroke="#000000" x1="253.63051" y1="-394.23776" x2="246.62616" y2="-397.2859"/>
<line stroke="#000000" x1="246.62616" y1="-397.2859" x2="238.79327" y2="-398.00977"/>
<line stroke="#000000" x1="238.79327" y1="-398.00977" x2="176.28215" y2="-267.0459"/>
<line stroke="#000000" x1="176.28215" y1="-267.0459" x2="250.19077" y2="-438.88202"/>
<line stroke="#000000" x1="250.19077" y1="-438.88202" x2="152.5" y2="-279.1635"/>
<line stroke="#000000" x1="152.5" y1="-279.1635" x2="130.11476" y2="-293.70065"/>
<line stroke="#000000" x1="130.11476" y1="-293.70065" x2="116.08916" y2="-304.65866"/>
<line stroke="#000000" x1="116.08916" y1="-304.65866" x2="102.862114" y2="-316.56836"/>
<line stroke="#000000" x1="102.862114" y1="-316.56836" x2="90.49807" y2="-329.3717"/>
<line stroke="#000000" x1="90.49807" y1="-329.3717" x2="79.05726" y2="-343.00632"/>
<line stroke="#000000" x1="79.05726" y1="-343.00632" x2="68.59542" y2="-357.40582"/>
<line stroke="#000000" x1="68.59542" y1="-357.40582" x2="59.16352" y2="-372.5"/>
<line stroke="#000000" x1="59.16352" y1="-372.5" x2="192.5882" y2="-453.5223"/>
<line stroke="#000000" x1="192.5882" y1="-453.5223" x2="50.807518" y2="-388.21536"/>
<line stroke="#000000" x1="50.807518" y1="-388.21536" x2="199.608" y2="-464.20718"/>
<line stroke="#000000" x1="199.608" y1="-464.20718" x2="43.568115" y2="-404.4753"/>
<line stroke="#000000" x1="43.568115" y1="-404.4753" x2="198.20914" y2="-473.42453"/>
<line stroke="#000000" x1="198.20914" y1="-473.42453" x2="195.20706" y2="-494.0707"/>
<line stroke="#000000" x1="195.20706" y1="-494.0707" x2="195.46564" y2="-508.88492"/>
<line stroke="#000000" x1="195.46564" y1="-508.88492" x2="200.26219" y2="-532.2162"/>
<line stroke="#000000" x1="200.26219" y1="-532.2162" x2="205.37177" y2="-546.6329"/>
<line stroke="#000000" x1="205.37177" y1="-546.6329" x2="186.31876" y2="-563.1888"/>
<line stroke="#000000" x1="186.31876" y1="-563.1888" x2="196.02463" y2="-575.61176"/>
<line stroke="#000000" x1="196.02463" y1="-575.61176" x2="207.365" y2="-586.56305"/>
<line stroke="#000000" x1="207.365" y1="-586.56305" x2="255.37354" y2="-531.52045"/>
<line stroke="#000000" x1="255.37354" y1="-531.52045" x2="216.8112" y2="-593.6813"/>
<line stroke="#000000" x1="216.8112" y1="-593.6813" x2="219.5892" y2="-596.6775"/>
<line stroke="#000000" x1="219.5892" y1="-596.6775" x2="227.41919" y2="-598.89014"/>
<line stroke="#000000" x1="227.41919" y1="-598.89014" x2="249.90149" y2="-567.60236"/>
<line stroke="#000000" x1="249.90149" y1="-567.60236" x2="257.75076" y2="-568.4761"/>
<line stroke="#000000" x1="257.75076" y1="-568.4761" x2="265.03036" y2="-570.42664"/>
<line stroke="#000000" x1="265.03036" y1="-570.42664" x2="280.0" y2="-571.0"/>
<line stroke="#000000" x1="280.0" y1="-571.0" x2="8.899372" y2="-254.84467"/>
<line stroke="#000000" x1="8.899372" y1="-254.84467" x2="35.48914" y2="-252.51836"/>
<line stroke="#000000" x1="35.48914" y1="-252.51836" x2="61.690083" y2="-247.42542"/>
<line stroke="#000000" x1="61.690083" y1="-247.42542" x2="78.79933" y2="-242.51941"/>
<line stroke="#000000" x1="78.79933" y1="-242.51941" x2="95.52468" y2="-236.43188"/>
<line stroke="#000000" x1="95.52468" y1="-236.43188" x2="119.71525" y2="-225.15164"/>
<line stroke="#000000" x1="119.71525" y1="-225.15164" x2="45.0" y2="-77.94228"/>
<line stroke="#000000" x1="45.0" y1="-77.94228" x2="135.12941" y2="-216.25226"/>
<line stroke="#000000" x1="135.12941" y1="-216.25226" x2="32.992382" y2="-48.913216"/>
<line stroke="#000000" x1="32.992382" y1="-48.913216" x2="156.99368" y2="-200.94275"/>
<line stroke="#000000" x1="156.99368" y1="-200.94275" x2="62.229145" y2="-69.11247"/>
<line stroke="#000000" x1="62.229145" y1="-69.11247" x2="20.141514" y2="-19.450434"/>
<line stroke="#000000" x1="20.141514" y1="-19.450434" x2="22.981333" y2="-19.283628"/>
<line stroke="#000000" x1="22.981333" y1="-19.283628" x2="84.946785" y2="-61.717453"/>
<line stroke="#000000" x1="84.946785" y1="-61.717453" x2="128.50082" y2="-86.6749"/>
<line stroke="#000000" x1="128.50082" y1="-86.6749" x2="25.980762" y2="-15.0"/>
<line stroke="#000000" x1="25.980762" y1="-15.0" x2="225.15164" y2="-119.71525"/>
<line stroke="#000000" x1="225.15164" y1="-119.71525" x2="31.060545" y2="-13.829046"/>
<line stroke="#000000" x1="31.060545" y1="-13.829046" x2="186.36395" y2="-75.29593"/>
<line stroke="#000000" x1="186.36395" y1="-75.29593" x2="31.009857" y2="-11.286665"/>
<line stroke="#000000" x1="31.009857" y1="-11.286665" x2="201.86496" y2="-57.883846"/>
<line stroke="#000000" x1="201.86496" y1="-57.883846" x2="98.79291" y2="-20.99908"/>
<line stroke="#000000" x1="98.79291" y1="-20.99908" x2="90.60231" y2="-15.975633"/>
<line stroke="#000000" x1="90.60231" y1="-15.975633" x2="218.79482" y2="-22.996262"/>
<line stroke="#000000" x1="218.79482" y1="-22.996262" x2="254.37883" y2="-17.7879"/>
<line stroke="#000000" x1="254.37883" y1="-17.7879" x2="255.0" y2="-2.842171E-14"/>
<line stroke="#000000" x1="255.0" y1="-2.842171E-14" x2="60.96284" y2="2.1288693"/>
<line stroke="#000000" x1="60.96284" y1="2.1288693" x2="253.60309" y2="26.654758"/>
<line stroke="#000000" x1="253.60309" y1="26.654758" x2="249.42764" y2="53.017483"/>
<line stroke="#000000" x1="249.42764" y1="53.017483" x2="89.267204" y2="22.256815"/>
<line stroke="#000000" x1="89.267204" y1="22.256815" x2="242.51941" y2="78.79933"/>
<line stroke="#000000" x1="242.51941" y1="78.79933" x2="232.95409" y2="103.71784"/>
<line stroke="#000000" x1="232.95409" y1="103.71784" x2="83.587845" y2="40.768517"/>
<line stroke="#000000" x1="83.587845" y1="40.768517" x2="220.83647" y2="127.5"/>
<line stroke="#000000" x1="220.83647" y1="127.5" x2="206.29933" y2="149.88524"/>
<line stroke="#000000" x1="206.29933" y1="149.88524" x2="195.34134" y2="163.91084"/>
<line stroke="#000000" x1="195.34134" y1="163.91084" x2="183.43166" y2="177.13788"/>
<line stroke="#000000" x1="183.43166" y1="177.13788" x2="170.62831" y2="189.50194"/>
<line stroke="#000000" x1="170.62831" y1="189.50194" x2="156.99368" y2="200.94275"/>
<line stroke="#000000" x1="156.99368" y1="200.94275" x2="135.12941" y2="216.25226"/>
<line stroke="#000000" x1="135.12941" y1="216.25226" x2="76.0" y2="131.63586"/>
<line stroke="#000000" x1="76.0" y1="131.63586" x2="119.71525" y2="225.15164"/>
<line stroke="#000000" x1="119.71525" y1="225.15164" x2="12.202099" y2="27.406364"/>
<line stroke="#000000" x1="12.202099" y1="27.406364" x2="30.781813" y2="84.572334"/>
<line stroke="#000000" x1="30.781813" y1="84.572334" x2="18.50414" y2="87.05514"/>
<line stroke="#000000" x1="18.50414" y1="87.05514" x2="3.0711558" y2="87.946396"/>
<line stroke="#000000" x1="3.0711558" y1="87.946396" x2="0.0" y2="87.0"/>
<line stroke="#000000" x1="0.0" y1="87.0" x2="81.38917" y2="-205.99359"/>
<line stroke="#000000" x1="81.38917" y1="-205.99359" x2="64.273476" y2="-204.18175"/>
<line stroke="#000000" x1="64.273476" y1="-204.18175" x2="106.351585" y2="-193.40756"/>
<line stroke="#000000" x1="106.351585" y1="-193.40756" x2="63.911892" y2="-194.44113"/>
<line stroke="#000000" x1="63.911892" y1="-194.44113" x2="61.768616" y2="-189.97597"/>
<line stroke="#000000" x1="61.768616" y1="-189.97597" x2="62.015514" y2="-187.36375"/>
<line stroke="#000000" x1="62.015514" y1="-187.36375" x2="60.28035" y2="-185.39555"/>
<line stroke="#000000" x1="60.28035" y1="-185.39555" x2="24.184258" y2="-197.38214"/>
<line stroke="#000000" x1="24.184258" y1="-197.38214" x2="125.76669" y2="-145.43114"/>
<line stroke="#000000" x1="125.76669" y1="-145.43114" x2="21.422321" y2="-193.99495"/>
<line stroke="#000000" x1="21.422321" y1="-193.99495" x2="22.799799" y2="-190.54158"/>
<line stroke="#000000" x1="22.799799" y1="-190.54158" x2="21.330103" y2="-190.18582"/>
<line stroke="#000000" x1="21.330103" y1="-190.18582" x2="29.147514" y2="-180.7123"/>
<line stroke="#000000" x1="29.147514" y1="-180.7123" x2="24.61721" y2="-178.78268"/>
<line stroke="#000000" x1="24.61721" y1="-178.78268" x2="95.14202" y2="-98.26637"/>
<line stroke="#000000" x1="95.14202" y1="-98.26637" x2="152.43524" y2="-8.052207"/>
<line stroke="#000000" x1="152.43524" y1="-8.052207" x2="138.03575" y2="2.4096317"/>
<line stroke="#000000" x1="138.03575" y1="2.4096317" x2="53.20276" y2="-116.55771"/>
<line stroke="#000000" x1="53.20276" y1="-116.55771" x2="122.94156" y2="11.841529"/>
<line stroke="#000000" x1="122.94156" y1="11.841529" x2="13.853147" y2="-171.2456"/>
<line stroke="#000000" x1="13.853147" y1="-171.2456" x2="12.524498" y2="-170.62604"/>
<line stroke="#000000" x1="12.524498" y1="-170.62604" x2="82.65669" y2="30.626669"/>
<line stroke="#000000" x1="82.65669" y1="30.626669" x2="5.3645034" y2="-174.38953"/>
<line stroke="#000000" x1="5.3645034" y1="-174.38953" x2="48.45904" y2="40.43269"/>
<line stroke="#000000" x1="48.45904" y1="40.43269" x2="9.915562" y2="-106.00707"/>
<line stroke="#000000" x1="9.915562" y1="-106.00707" x2="0.8825637" y2="-131.18495"/>
<line stroke="#000000" x1="0.8825637" y1="-131.18495" x2="-4.558441" y2="-98.99495"/>
<line stroke="#000000" x1="-4.558441" y1="-98.99495" x2="-13.457813" y2="45.849712"/>
<line stroke="#000000" x1="-13.457813" y1="45.849712" x2="-22.346342" y2="45.383884"/>
<line stroke="#000000" x1="-22.346342" y1="45.383884" x2="-40.04758" y2="43.523407"/>
<line stroke="#000000" x1="-40.04758" y1="43.523407" x2="-30.547403" y2="-86.7265"/>
<line stroke="#000000" x1="-30.547403" y1="-86.7265" x2="-13.751473" y2="-172.12372"/>
<line stroke="#000000" x1="-13.751473" y1="-172.12372" x2="-30.51587" y2="-129.1062"/>
<line stroke="#000000" x1="-30.51587" y1="-129.1062" x2="-29.282476" y2="-147.80081"/>
<line stroke="#000000" x1="-29.282476" y1="-147.80081" x2="-40.943245" y2="-134.39505"/>
<line stroke="#000000" x1="-40.943245" y1="-134.39505" x2="-50.41226" y2="-141.01387"/>
<line stroke="#000000" x1="-50.41226" y1="-141.01387" x2="-60.825768" y2="-150.72842"/>
<line stroke="#000000" x1="-60.825768" y1="-150.72842" x2="-70.08882" y2="-161.38434"/>
<line stroke="#000000" x1="-70.08882" y1="-161.38434" x2="-78.555626" y2="-176.04929"/>
<line stroke="#000000" x1="-78.555626" y1="-176.04929" x2="-80.58752" y2="-178.2772"/>
<line stroke="#000000" x1="-80.58752" y1="-178.2772" x2="-87.74096" y2="-197.30441"/>
<line stroke="#000000" x1="-87.74096" y1="-197.30441" x2="-87.10376" y2="-200.31909"/>
<line stroke="#000000" x1="-87.10376" y1="-200.31909" x2="-91.55844" y2="-208.99495"/>
<line stroke="#000000" x1="-91.55844" y1="-208.99495" x2="0.8026884" y2="-22.985989"/>
<line stroke="#000000" x1="0.8026884" y1="-22.985989" x2="5.5642037" y2="-22.316801"/>
<line stroke="#000000" x1="5.5642037" y1="-22.316801" x2="6.6152964" y2="-23.07028"/>
<line stroke="#000000" x1="6.6152964" y1="-23.07028" x2="12.0" y2="-20.784609"/>
<line stroke="#000000" x1="12.0" y1="-20.784609" x2="13.247982" y2="-21.201202"/>
<line stroke="#000000" x1="13.247982" y1="-21.201202" x2="14.775875" y2="-18.912258"/>
<line stroke="#000000" x1="14.775875" y1="-18.912258" x2="20.06491" y2="-18.066526"/>
<line stroke="#000000" x1="20.06491" y1="-18.066526" x2="19.917156" y2="-16.712479"/>
<line stroke="#000000" x1="19.917156" y1="-16.712479" x2="22.652475" y2="-16.457987"/>
<line stroke="#000000" x1="22.652475" y1="-16.457987" x2="211.40459" y2="-142.5942"/>
<line stroke="#000000" x1="211.40459" y1="-142.5942" x2="23.745346" y2="-14.837739"/>
<line stroke="#000000" x1="23.745346" y1="-14.837739" x2="220.83647" y2="-127.5"/>
<line stroke="#000000" x1="220.83647" y1="-127.5" x2="229.19247" y2="-111.784645"/>
<line stroke="#000000" x1="229.19247" y1="-111.784645" x2="239.62161" y2="-87.21513"/>
<line stroke="#000000" x1="239.62161" y1="-87.21513" x2="245.12173" y2="-70.28753"/>
<line stroke="#000000" x1="245.12173" y1="-70.28753" x2="251.12598" y2="-44.280285"/>
<line stroke="#000000" x1="251.12598" y1="-44.280285" x2="253.60309" y2="-26.654758"/>
<line stroke="#000000" x1="253.60309" y1="-26.654758" x2="255.0" y2="-4.2632564E-14"/>
<line stroke="#000000" x1="255.0" y1="-4.2632564E-14" x2="254.37883" y2="17.7879"/>
<line stroke="#000000" x1="254.37883" y1="17.7879" x2="251.12598" y2="44.280285"/>
<line stroke="#000000" x1="251.12598" y1="44.280285" x2="247.42542" y2="61.690083"/>
<line stroke="#000000" x1="247.42542" y1="61.690083" x2="239.62161" y2="87.21513"/>
<line stroke="#000000" x1="239.62161" y1="87.21513" x2="229.19247" y2="111.784645"/>
<line stroke="#000000" x1="229.19247" y1="111.784645" x2="216.25226" y2="135.12941"/>
<line stroke="#000000" x1="216.25226" y1="135.12941" x2="206.29933" y2="149.88524"/>
<line stroke="#000000" x1="206.29933" y1="149.88524" x2="189.50194" y2="170.62831"/>
<line stroke="#000000" x1="189.50194" y1="170.62831" x2="177.13788" y2="183.43166"/>
<line stroke="#000000" x1="177.13788" y1="183.43166" x2="156.99368" y2="200.94275"/>
<line stroke="#000000" x1="156.99368" y1="200.94275" x2="13.247982" y2="21.201202"/>
<line stroke="#000000" x1="13.247982" y1="21.201202" x2="11.267318" y2="21.190742"/>
<line stroke="#000000" x1="11.267318" y1="21.190742" x2="7.416408" y2="22.825356"/>
<line stroke="#000000" x1="7.416408" y1="22.825356" x2="3.9939082" y2="22.650578"/>
<line stroke="#000000" x1="3.9939082" y1="22.650578" x2="1.8815123" y2="17.901394"/>
<line stroke="#000000" x1="1.8815123" y1="17.901394" x2="2.842171E-14" y2="17.0"/>
<line stroke="#000000" x1="2.842171E-14" y1="17.0" x2="79.02676" y2="-304.776"/>
<line stroke="#000000" x1="79.02676" y1="-304.776" x2="82.30537" y2="-309.63675"/>
<line stroke="#000000" x1="82.30537" y1="-309.63675" x2="86.68111" y2="-313.61417"/>
<line stroke="#000000" x1="86.68111" y1="-313.61417" x2="90.06806" y2="-314.46237"/>
<line stroke="#000000" x1="90.06806" y1="-314.46237" x2="93.30081" y2="-319.24866"/>
<line stroke="#000000" x1="93.30081" y1="-319.24866" x2="99.77856" y2="-324.87967"/>
<line stroke="#000000" x1="99.77856" y1="-324.87967" x2="106.80942" y2="-329.80273"/>
<line stroke="#000000" x1="106.80942" y1="-329.80273" x2="114.75473" y2="-333.06512"/>
<line stroke="#000000" x1="114.75473" y1="-333.06512" x2="116.91039" y2="-335.17352"/>
<line stroke="#000000" x1="116.91039" y1="-335.17352" x2="133.50381" y2="-306.30774"/>
<line stroke="#000000" x1="133.50381" y1="-306.30774" x2="138.65054" y2="-306.83698"/>
<line stroke="#000000" x1="138.65054" y1="-306.83698" x2="140.07512" y2="-308.19202"/>
<line stroke="#000000" x1="140.07512" y1="-308.19202" x2="141.92769" y2="-307.53357"/>
<line stroke="#000000" x1="141.92769" y1="-307.53357" x2="142.60828" y2="-314.72754"/>
<line stroke="#000000" x1="142.60828" y1="-314.72754" x2="145.1409" y2="-308.99435"/>
<line stroke="#000000" x1="145.1409" y1="-308.99435" x2="147.36613" y2="-343.21222"/>
<line stroke="#000000" x1="147.36613" y1="-343.21222" x2="159.04318" y2="-343.80264"/>
<line stroke="#000000" x1="159.04318" y1="-343.80264" x2="165.54384" y2="-346.92587"/>
<line stroke="#000000" x1="165.54384" y1="-346.92587" x2="203.28027" y2="-509.69043"/>
<line stroke="#000000" x1="203.28027" y1="-509.69043" x2="220.55032" y2="-505.38452"/>
<line stroke="#000000" x1="220.55032" y1="-505.38452" x2="237.47794" y2="-499.8844"/>
<line stroke="#000000" x1="237.47794" y1="-499.8844" x2="253.98064" y2="-493.2169"/>
<line stroke="#000000" x1="253.98064" y1="-493.2169" x2="277.7628" y2="-481.09927"/>
<line stroke="#000000" x1="277.7628" y1="-481.09927" x2="292.857" y2="-471.6674"/>
<line stroke="#000000" x1="292.857" y1="-471.6674" x2="307.25647" y2="-461.20554"/>
<line stroke="#000000" x1="307.25647" y1="-461.20554" x2="320.8911" y2="-449.76474"/>
<line stroke="#000000" x1="320.8911" y1="-449.76474" x2="339.76474" y2="-430.8911"/>
<line stroke="#000000" x1="339.76474" y1="-430.8911" x2="351.20554" y2="-417.25647"/>
<line stroke="#000000" x1="351.20554" y1="-417.25647" x2="361.6674" y2="-402.857"/>
<line stroke="#000000" x1="361.6674" y1="-402.857" x2="371.09927" y2="-387.7628"/>
<line stroke="#000000" x1="371.09927" y1="-387.7628" x2="383.2169" y2="-363.98065"/>
<line stroke="#000000" x1="383.2169" y1="-363.98065" x2="389.8844" y2="-347.47794"/>
<line stroke="#000000" x1="389.8844" y1="-347.47794" x2="395.38452" y2="-330.55032"/>
<line stroke="#000000" x1="395.38452" y1="-330.55032" x2="399.69043" y2="-313.28027"/>
<line stroke="#000000" x1="399.69043" y1="-313.28027" x2="403.86588" y2="-286.91754"/>
<line stroke="#000000" x1="403.86588" y1="-286.91754" x2="189.23904" y2="-261.62387"/>
<line stroke="#000000" x1="189.23904" y1="-261.62387" x2="192.16049" y2="-257.333"/>
<line stroke="#000000" x1="192.16049" y1="-257.333" x2="319.3315" y2="-242.49295"/>
<line stroke="#000000" x1="319.3315" y1="-242.49295" x2="401.38876" y2="-215.98251"/>
<line stroke="#000000" x1="401.38876" y1="-215.98251" x2="397.6882" y2="-198.57271"/>
<line stroke="#000000" x1="397.6882" y1="-198.57271" x2="392.7822" y2="-181.46346"/>
<line stroke="#000000" x1="392.7822" y1="-181.46346" x2="386.69467" y2="-164.73811"/>
<line stroke="#000000" x1="386.69467" y1="-164.73811" x2="379.45526" y2="-148.47815"/>
<line stroke="#000000" x1="379.45526" y1="-148.47815" x2="232.5352" y2="-212.76279"/>
</g>
</svg>
