<svg xmlns="http://www.w3.org/2000/svg" width="1000.0px" height="1000.0px" viewBox="0.0 0.0 1000.0 1000.0">
<g>
<line stroke="#000000" x1="150.0" y1="-85.0" x2="201.7251" y2="-71.1935"/>
<line stroke="#000000" x1="201.7251" y1="-71.1935" x2="152.96646" y2="-84.94822"/>
<line stroke="#000000" x1="152.96646" y1="-84.94822" x2="198.64978" y2="-72.12627"/>
<line stroke="#000000" x1="198.64978" y1="-72.12627" x2="155.9293" y2="-84.792946"/>
<line stroke="#000000" x1="155.9293" y1="-84.792946" x2="196.63289" y2="-74.628235"/>
<line stroke="#000000" x1="196.63289" y1="-74.628235" x2="173.70482" y2="-82.6685"/>
<line stroke="#000000" x1="173.70482" y1="-82.6685" x2="204.1782" y2="-69.34495"/>
<line stroke="#000000" x1="204.1782" y1="-69.34495" x2="158.98944" y2="-85.528885"/>
<line stroke="#000000" x1="158.98944" y1="-85.528885" x2="185.3861" y2="-79.478455"/>
<line stroke="#000000" x1="185.3861" y1="-79.478455" x2="161.96889" y2="-85.163055"/>
<line stroke="#000000" x1="161.96889" y1="-85.163055" x2="207.2081" y2="-68.177956"/>
<line stroke="#000000" x1="207.2081" y1="-68.177956" x2="164.93375" y2="-84.69347"/>
<line stroke="#000000" x1="164.93375" y1="-84.69347" x2="182.59077" y2="-80.66499"/>
<line stroke="#000000" x1="182.59077" y1="-80.66499" x2="209.55263" y2="-66.13989"/>
<line stroke="#000000" x1="209.55263" y1="-66.13989" x2="179.75575" y2="-81.75326"/>
<line stroke="#000000" x1="179.75575" y1="-81.75326" x2="212.51926" y2="-64.740585"/>
<line stroke="#000000" x1="212.51926" y1="-64.740585" x2="167.8804" y2="-84.1207"/>
<line stroke="#000000" x1="167.8804" y1="-84.1207" x2="193.5" y2="-75.34421"/>
<line stroke="#000000" x1="193.5" y1="-75.34421" x2="170.80528" y2="-83.445435"/>
<line stroke="#000000" x1="170.80528" y1="-83.445435" x2="235.79698" y2="-71.99221"/>
<line stroke="#000000" x1="235.79698" y1="-71.99221" x2="176.57545" y2="-81.79086"/>
<line stroke="#000000" x1="176.57545" y1="-81.79086" x2="214.74059" y2="-62.519253"/>
<line stroke="#000000" x1="214.74059" y1="-62.519253" x2="188.13829" y2="-78.19508"/>
<line stroke="#000000" x1="188.13829" y1="-78.19508" x2="233.97537" y2="-75.611755"/>
<line stroke="#000000" x1="233.97537" y1="-75.611755" x2="190.84402" y2="-76.81644"/>
<line stroke="#000000" x1="190.84402" y1="-76.81644" x2="225.44241" y2="-50.886555"/>
<line stroke="#000000" x1="225.44241" y1="-50.886555" x2="238.2572" y2="-68.95409"/>
<line stroke="#000000" x1="238.2572" y1="-68.95409" x2="208.24922" y2="42.320538"/>
<line stroke="#000000" x1="208.24922" y1="42.320538" x2="240.60991" y2="-65.83195"/>
<line stroke="#000000" x1="240.60991" y1="-65.83195" x2="205.94876" y2="43.711964"/>
<line stroke="#000000" x1="205.94876" y1="43.711964" x2="245.82944" y2="-59.88088"/>
<line stroke="#000000" x1="245.82944" y1="-59.88088" x2="203.62311" y2="44.995132"/>
<line stroke="#000000" x1="203.62311" y1="44.995132" x2="247.86087" y2="-56.5"/>
<line stroke="#000000" x1="247.86087" y1="-56.5" x2="202.02014" y2="46.83914"/>
<line stroke="#000000" x1="202.02014" y1="46.83914" x2="249.77307" y2="-53.050285"/>
<line stroke="#000000" x1="249.77307" y1="-53.050285" x2="199.63445" y2="47.931427"/>
<line stroke="#000000" x1="199.63445" y1="47.931427" x2="251.56372" y2="-49.53594"/>
<line stroke="#000000" x1="251.56372" y1="-49.53594" x2="197.93143" y2="49.634445"/>
<line stroke="#000000" x1="197.93143" y1="49.634445" x2="254.14418" y2="-46.367977"/>
<line stroke="#000000" x1="254.14418" y1="-46.367977" x2="196.83914" y2="52.020138"/>
<line stroke="#000000" x1="196.83914" y1="52.020138" x2="255.69896" y2="-42.70515"/>
<line stroke="#000000" x1="255.69896" y1="-42.70515" x2="194.35234" y2="52.857067"/>
<line stroke="#000000" x1="194.35234" y1="52.857067" x2="257.12497" y2="-38.990295"/>
<line stroke="#000000" x1="257.12497" y1="-38.990295" x2="193.0963" y2="55.16075"/>
<line stroke="#000000" x1="193.0963" y1="55.16075" x2="259.3715" y2="-35.536953"/>
<line stroke="#000000" x1="259.3715" y1="-35.536953" x2="190.55719" y2="55.822174"/>
<line stroke="#000000" x1="190.55719" y1="55.822174" x2="261.50635" y2="-31.973934"/>
<line stroke="#000000" x1="261.50635" y1="-31.973934" x2="188.5843" y2="57.203594"/>
<line stroke="#000000" x1="188.5843" y1="57.203594" x2="262.5543" y2="-28.06294"/>
<line stroke="#000000" x1="262.5543" y1="-28.06294" x2="186.56442" y2="58.51532"/>
<line stroke="#000000" x1="186.56442" y1="58.51532" x2="264.44327" y2="-24.325668"/>
<line stroke="#000000" x1="264.44327" y1="-24.325668" x2="184.5" y2="59.755753"/>
<line stroke="#000000" x1="184.5" y1="59.755753" x2="315.37476" y2="-23.241907"/>
<line stroke="#000000" x1="315.37476" y1="-23.241907" x2="182.39354" y2="60.923386"/>
<line stroke="#000000" x1="182.39354" y1="60.923386" x2="379.19247" y2="111.784645"/>
<line stroke="#000000" x1="379.19247" y1="111.784645" x2="168.12708" y2="49.803707"/>
<line stroke="#000000" x1="168.12708" y1="49.803707" x2="382.9541" y2="103.71784"/>
<line stroke="#000000" x1="382.9541" y1="103.71784" x2="166.3779" y2="50.405994"/>
<line stroke="#000000" x1="166.3779" y1="50.405994" x2="386.4319" y2="95.52468"/>
<line stroke="#000000" x1="386.4319" y1="95.52468" x2="164.33315" y2="49.985607"/>
<line stroke="#000000" x1="164.33315" y1="49.985607" x2="389.6216" y2="87.21513"/>
<line stroke="#000000" x1="389.6216" y1="87.21513" x2="162.57994" y2="50.45538"/>
<line stroke="#000000" x1="162.57994" y1="50.45538" x2="392.5194" y2="78.79933"/>
<line stroke="#000000" x1="392.5194" y1="78.79933" x2="160.8114" y2="50.863674"/>
<line stroke="#000000" x1="160.8114" y1="50.863674" x2="395.12173" y2="70.28753"/>
<line stroke="#000000" x1="395.12173" y1="70.28753" x2="159.02971" y2="51.210003"/>
<line stroke="#000000" x1="159.02971" y1="51.210003" x2="397.4254" y2="61.690083"/>
<line stroke="#000000" x1="397.4254" y1="61.690083" x2="157.09782" y2="50.50367"/>
<line stroke="#000000" x1="157.09782" y1="50.50367" x2="399.42764" y2="53.017483"/>
<line stroke="#000000" x1="399.42764" y1="53.017483" x2="155.33095" y2="50.720615"/>
<line stroke="#000000" x1="155.33095" y1="50.720615" x2="401.12598" y2="44.280285"/>
<line stroke="#000000" x1="401.12598" y1="44.280285" x2="153.55759" y2="50.875767"/>
<line stroke="#000000" x1="153.55759" y1="50.875767" x2="402.51837" y2="35.48914"/>
<line stroke="#000000" x1="402.51837" y1="35.48914" x2="151.77988" y2="50.968933"/>
<line stroke="#000000" x1="151.77988" y1="50.968933" x2="403.6031" y2="26.654758"/>
<line stroke="#000000" x1="403.6031" y1="26.654758" x2="180.68597" y2="62.915585"/>
<line stroke="#000000" x1="180.68597" y1="62.915585" x2="404.37885" y2="17.7879"/>
<line stroke="#000000" x1="404.37885" y1="17.7879" x2="178.06483" y2="63.034637"/>
<line stroke="#000000" x1="178.06483" y1="63.034637" x2="404.84467" y2="8.899372"/>
<line stroke="#000000" x1="404.84467" y1="8.899372" x2="175.84785" y2="63.975685"/>
<line stroke="#000000" x1="175.84785" y1="63.975685" x2="404.84467" y2="-8.899372"/>
<line stroke="#000000" x1="404.84467" y1="-8.899372" x2="375.15164" y2="119.71525"/>
<line stroke="#000000" x1="375.15164" y1="119.71525" x2="404.37885" y2="-17.7879"/>
<line stroke="#000000" x1="404.37885" y1="-17.7879" x2="370.8365" y2="127.5"/>
<line stroke="#000000" x1="370.8365" y1="127.5" x2="403.6031" y2="-26.654758"/>
<line stroke="#000000" x1="403.6031" y1="-26.654758" x2="366.25226" y2="135.12941"/>
<line stroke="#000000" x1="366.25226" y1="135.12941" x2="401.12598" y2="-44.280285"/>
<line stroke="#000000" x1="401.12598" y1="-44.280285" x2="361.40457" y2="142.5942"/>
<line stroke="#000000" x1="361.40457" y1="142.5942" x2="405.0" y2="0.0"/>
<line stroke="#000000" x1="405.0" y1="0.0" x2="150.0" y2="50.0"/>
<line stroke="#000000" x1="310.0" y1="-199.0" x2="385.29593" y2="-186.36395"/>
<line stroke="#000000" x1="385.29593" y1="-186.36395" x2="316.9799" y2="-199.87816"/>
<line stroke="#000000" x1="316.9799" y1="-199.87816" x2="358.6263" y2="-195.02943"/>
<line stroke="#000000" x1="358.6263" y1="-195.02943" x2="323.9513" y2="-199.51282"/>
<line stroke="#000000" x1="323.9513" y1="-199.51282" x2="392.1608" y2="-184.53618"/>
<line stroke="#000000" x1="392.1608" y1="-184.53618" x2="330.9057" y2="-198.90437"/>
<line stroke="#000000" x1="330.9057" y1="-198.90437" x2="379.43008" y2="-190.7576"/>
<line stroke="#000000" x1="379.43008" y1="-190.7576" x2="337.83463" y2="-198.05362"/>
<line stroke="#000000" x1="337.83463" y1="-198.05362" x2="372.11243" y2="-191.16235"/>
<line stroke="#000000" x1="372.11243" y1="-191.16235" x2="344.72964" y2="-196.96155"/>
<line stroke="#000000" x1="344.72964" y1="-196.96155" x2="365.4031" y2="-193.21361"/>
<line stroke="#000000" x1="365.4031" y1="-193.21361" x2="351.37442" y2="-194.65137"/>
<line stroke="#000000" x1="351.37442" y1="-194.65137" x2="429.71524" y2="-225.15164"/>
<line stroke="#000000" x1="429.71524" y1="-225.15164" x2="398.55096" y2="-181.5564"/>
<line stroke="#000000" x1="398.55096" y1="-181.5564" x2="437.5" y2="-220.83647"/>
<line stroke="#000000" x1="437.5" y1="-220.83647" x2="325.75693" y2="-2.7783709"/>
<line stroke="#000000" x1="325.75693" y1="-2.7783709" x2="445.12943" y2="-216.25226"/>
<line stroke="#000000" x1="445.12943" y1="-216.25226" x2="458.63705" y2="-10.393715"/>
<line stroke="#000000" x1="458.63705" y1="-10.393715" x2="452.59418" y2="-211.40459"/>
<line stroke="#000000" x1="452.59418" y1="-211.40459" x2="549.62164" y2="87.21513"/>
<line stroke="#000000" x1="549.62164" y1="87.21513" x2="459.88525" y2="-206.29933"/>
<line stroke="#000000" x1="459.88525" y1="-206.29933" x2="546.4319" y2="95.52468"/>
<line stroke="#000000" x1="546.4319" y1="95.52468" x2="466.99368" y2="-200.94275"/>
<line stroke="#000000" x1="466.99368" y1="-200.94275" x2="542.9541" y2="103.71784"/>
<line stroke="#000000" x1="542.9541" y1="103.71784" x2="473.91083" y2="-195.34134"/>
<line stroke="#000000" x1="473.91083" y1="-195.34134" x2="539.1925" y2="111.784645"/>
<line stroke="#000000" x1="539.1925" y1="111.784645" x2="480.6283" y2="-189.50194"/>
<line stroke="#000000" x1="480.6283" y1="-189.50194" x2="535.1516" y2="119.71525"/>
<line stroke="#000000" x1="535.1516" y1="119.71525" x2="487.13788" y2="-183.43166"/>
<line stroke="#000000" x1="487.13788" y1="-183.43166" x2="552.5194" y2="78.79933"/>
<line stroke="#000000" x1="552.5194" y1="78.79933" x2="342.32507" y2="51.730934"/>
<line stroke="#000000" x1="342.32507" y1="51.730934" x2="555.1217" y2="70.28753"/>
<line stroke="#000000" x1="555.1217" y1="70.28753" x2="337.22934" y2="51.21096"/>
<line stroke="#000000" x1="337.22934" y1="51.21096" x2="557.4254" y2="61.690083"/>
<line stroke="#000000" x1="557.4254" y1="61.690083" x2="334.98715" y2="51.231262"/>
<line stroke="#000000" x1="334.98715" y1="51.231262" x2="559.4276" y2="53.017483"/>
<line stroke="#000000" x1="559.4276" y1="53.017483" x2="332.77725" y2="51.158546"/>
<line stroke="#000000" x1="332.77725" y1="51.158546" x2="561.126" y2="44.280285"/>
<line stroke="#000000" x1="561.126" y1="44.280285" x2="330.60336" y2="50.995113"/>
<line stroke="#000000" x1="330.60336" y1="50.995113" x2="552.5194" y2="-78.79933"/>
<line stroke="#000000" x1="552.5194" y1="-78.79933" x2="328.8111" y2="51.683094"/>
<line stroke="#000000" x1="328.8111" y1="51.683094" x2="562.5184" y2="35.48914"/>
<line stroke="#000000" x1="562.5184" y1="35.48914" x2="326.68692" y2="51.35705"/>
<line stroke="#000000" x1="326.68692" y1="51.35705" x2="557.4254" y2="-61.690083"/>
<line stroke="#000000" x1="557.4254" y1="-61.690083" x2="324.88443" y2="51.90813"/>
<line stroke="#000000" x1="324.88443" y1="51.90813" x2="559.4276" y2="-53.017483"/>
<line stroke="#000000" x1="559.4276" y1="-53.017483" x2="323.06378" y2="52.39597"/>
<line stroke="#000000" x1="323.06378" y1="52.39597" x2="563.6031" y2="26.654758"/>
<line stroke="#000000" x1="563.6031" y1="26.654758" x2="321.01932" y2="51.841824"/>
<line stroke="#000000" x1="321.01932" y1="51.841824" x2="562.5184" y2="-35.48914"/>
<line stroke="#000000" x1="562.5184" y1="-35.48914" x2="319.20334" y2="52.194813"/>
<line stroke="#000000" x1="319.20334" y1="52.194813" x2="564.37885" y2="17.7879"/>
<line stroke="#000000" x1="564.37885" y1="17.7879" x2="317.37616" y2="52.484207"/>
<line stroke="#000000" x1="317.37616" y1="52.484207" x2="563.6031" y2="-26.654758"/>
<line stroke="#000000" x1="563.6031" y1="-26.654758" x2="315.4355" y2="51.715137"/>
<line stroke="#000000" x1="315.4355" y1="51.715137" x2="564.84467" y2="8.899372"/>
<line stroke="#000000" x1="564.84467" y1="8.899372" x2="313.69708" y2="52.870895"/>
<line stroke="#000000" x1="313.69708" y1="52.870895" x2="564.84467" y2="-8.899372"/>
<line stroke="#000000" x1="564.84467" y1="-8.899372" x2="311.84967" y2="52.967712"/>
<line stroke="#000000" x1="311.84967" y1="52.967712" x2="530.8365" y2="127.5"/>
<line stroke="#000000" x1="530.8365" y1="127.5" x2="493.43164" y2="-177.13788"/>
<line stroke="#000000" x1="493.43164" y1="-177.13788" x2="526.25226" y2="135.12941"/>
<line stroke="#000000" x1="526.25226" y1="135.12941" x2="499.50192" y2="-170.62831"/>
<line stroke="#000000" x1="499.50192" y1="-170.62831" x2="521.4046" y2="142.5942"/>
<line stroke="#000000" x1="521.4046" y1="142.5942" x2="505.34134" y2="-163.91084"/>
<line stroke="#000000" x1="505.34134" y1="-163.91084" x2="516.2993" y2="149.88524"/>
<line stroke="#000000" x1="516.2993" y1="149.88524" x2="510.94275" y2="-156.99368"/>
<line stroke="#000000" x1="510.94275" y1="-156.99368" x2="510.94275" y2="156.99368"/>
<line stroke="#000000" x1="510.94275" y1="156.99368" x2="516.2993" y2="-149.88524"/>
<line stroke="#000000" x1="516.2993" y1="-149.88524" x2="505.34134" y2="163.91084"/>
<line stroke="#000000" x1="505.34134" y1="163.91084" x2="521.4046" y2="-142.5942"/>
<line stroke="#000000" x1="521.4046" y1="-142.5942" x2="499.50192" y2="170.62831"/>
<line stroke="#000000" x1="499.50192" y1="170.62831" x2="526.25226" y2="-135.12941"/>
<line stroke="#000000" x1="526.25226" y1="-135.12941" x2="493.43164" y2="177.13788"/>
<line stroke="#000000" x1="493.43164" y1="177.13788" x2="530.8365" y2="-127.5"/>
<line stroke="#000000" x1="530.8365" y1="-127.5" x2="487.13788" y2="183.43166"/>
<line stroke="#000000" x1="487.13788" y1="183.43166" x2="535.1516" y2="-119.71525"/>
<line stroke="#000000" x1="535.1516" y1="-119.71525" x2="480.6283" y2="189.50194"/>
<line stroke="#000000" x1="480.6283" y1="189.50194" x2="539.1925" y2="-111.784645"/>
<line stroke="#000000" x1="539.1925" y1="-111.784645" x2="473.91083" y2="195.34134"/>
<line stroke="#000000" x1="473.91083" y1="195.34134" x2="542.9541" y2="-103.71784"/>
<line stroke="#000000" x1="542.9541" y1="-103.71784" x2="466.99368" y2="200.94275"/>
<line stroke="#000000" x1="466.99368" y1="200.94275" x2="546.4319" y2="-95.52468"/>
<line stroke="#000000" x1="546.4319" y1="-95.52468" x2="459.88525" y2="206.29933"/>
<line stroke="#000000" x1="459.88525" y1="206.29933" x2="549.62164" y2="-87.21513"/>
<line stroke="#000000" x1="549.62164" y1="-87.21513" x2="452.59418" y2="211.40459"/>
<line stroke="#000000" x1="452.59418" y1="211.40459" x2="555.1217" y2="-70.28753"/>
<line stroke="#000000" x1="555.1217" y1="-70.28753" x2="437.5" y2="220.83647"/>
<line stroke="#000000" x1="437.5" y1="220.83647" x2="565.0" y2="0.0"/>
<line stroke="#000000" x1="565.0" y1="0.0" x2="310.0" y2="53.0"/>
<line stroke="#000000" x1="390.0" y1="-29.0" x2="402.73663" y2="-31.524252"/>
<line stroke="#000000" x1="402.73663" y1="-31.524252" x2="391.0121" y2="-28.982334"/>
<line stroke="#000000" x1="391.0121" y1="-28.982334" x2="400.60263" y2="-29.130472"/>
<line stroke="#000000" x1="400.60263" y1="-29.130472" x2="391.9532" y2="-27.931793"/>
<line stroke="#000000" x1="391.9532" y1="-27.931793" x2="413.74536" y2="-14.837739"/>
<line stroke="#000000" x1="413.74536" y1="-14.837739" x2="392.9268" y2="-27.846613"/>
<line stroke="#000000" x1="392.9268" y1="-27.846613" x2="412.5" y2="-38.97114"/>
<line stroke="#000000" x1="412.5" y1="-38.97114" x2="393.89685" y2="-27.727507"/>
<line stroke="#000000" x1="393.89685" y1="-27.727507" x2="432.89526" y2="2.9995284"/>
<line stroke="#000000" x1="432.89526" y1="2.9995284" x2="394.86215" y2="-27.574617"/>
<line stroke="#000000" x1="394.86215" y1="-27.574617" x2="415.72287" y2="-38.135727"/>
<line stroke="#000000" x1="415.72287" y1="-38.135727" x2="396.7738" y2="-27.16828"/>
<line stroke="#000000" x1="396.7738" y1="-27.16828" x2="456.51404" y2="14.137995"/>
<line stroke="#000000" x1="456.51404" y1="14.137995" x2="396.02945" y2="-28.36628"/>
<line stroke="#000000" x1="396.02945" y1="-28.36628" x2="413.8396" y2="12.675733"/>
<line stroke="#000000" x1="413.8396" y1="12.675733" x2="397.71783" y2="-26.915327"/>
<line stroke="#000000" x1="397.71783" y1="-26.915327" x2="456.96692" y2="11.808076"/>
<line stroke="#000000" x1="456.96692" y1="11.808076" x2="419.7258" y2="26.765224"/>
<line stroke="#000000" x1="419.7258" y1="26.765224" x2="457.33823" y2="9.463771"/>
<line stroke="#000000" x1="457.33823" y1="9.463771" x2="413.01886" y2="22.229069"/>
<line stroke="#000000" x1="413.01886" y1="22.229069" x2="455.9801" y2="16.45069"/>
<line stroke="#000000" x1="455.9801" y1="16.45069" x2="422.32507" y2="-51.730934"/>
<line stroke="#000000" x1="422.32507" y1="-51.730934" x2="455.36578" y2="18.74334"/>
<line stroke="#000000" x1="455.36578" y1="18.74334" x2="420.51566" y2="-57.391594"/>
<line stroke="#000000" x1="420.51566" y1="-57.391594" x2="454.67184" y2="21.013155"/>
<line stroke="#000000" x1="454.67184" y1="21.013155" x2="418.9325" y2="-59.320408"/>
<line stroke="#000000" x1="418.9325" y1="-59.320408" x2="453.8991" y2="23.25737"/>
<line stroke="#000000" x1="453.8991" y1="23.25737" x2="417.25134" y2="-61.207546"/>
<line stroke="#000000" x1="417.25134" y1="-61.207546" x2="457.6275" y2="7.1079354"/>
<line stroke="#000000" x1="457.6275" y1="7.1079354" x2="416.76523" y2="29.725794"/>
<line stroke="#000000" x1="416.76523" y1="29.725794" x2="457.9586" y2="2.3731658"/>
<line stroke="#000000" x1="457.9586" y1="2.3731658" x2="398.65247" y2="26.629583"/>
<line stroke="#000000" x1="398.65247" y1="26.629583" x2="458.0" y2="0.0"/>
<line stroke="#000000" x1="458.0" y1="0.0" x2="392.02295" y2="28.929358"/>
<line stroke="#000000" x1="392.02295" y1="28.929358" x2="453.0485" y2="25.473248"/>
<line stroke="#000000" x1="453.0485" y1="25.473248" x2="437.50827" y2="-52.763283"/>
<line stroke="#000000" x1="437.50827" y1="-52.763283" x2="452.1211" y2="27.658092"/>
<line stroke="#000000" x1="452.1211" y1="27.658092" x2="436.2807" y2="-55.1552"/>
<line stroke="#000000" x1="436.2807" y1="-55.1552" x2="451.11798" y2="29.809238"/>
<line stroke="#000000" x1="451.11798" y1="29.809238" x2="446.6312" y2="-41.144966"/>
<line stroke="#000000" x1="446.6312" y1="-41.144966" x2="420.73532" y2="49.18679"/>
<line stroke="#000000" x1="420.73532" y1="49.18679" x2="456.51404" y2="-14.137995"/>
<line stroke="#000000" x1="456.51404" y1="-14.137995" x2="416.2904" y2="49.445065"/>
<line stroke="#000000" x1="416.2904" y1="49.445065" x2="455.9801" y2="-16.45069"/>
<line stroke="#000000" x1="455.9801" y1="-16.45069" x2="419.0" y2="50.229473"/>
<line stroke="#000000" x1="419.0" y1="50.229473" x2="455.36578" y2="-18.74334"/>
<line stroke="#000000" x1="455.36578" y1="-18.74334" x2="414.98715" y2="51.231262"/>
<line stroke="#000000" x1="414.98715" y1="51.231262" x2="453.97568" y2="-25.847855"/>
<line stroke="#000000" x1="453.97568" y1="-25.847855" x2="412.77725" y2="51.158546"/>
<line stroke="#000000" x1="412.77725" y1="51.158546" x2="454.83878" y2="-23.59939"/>
<line stroke="#000000" x1="454.83878" y1="-23.59939" x2="410.97797" y2="51.922295"/>
<line stroke="#000000" x1="410.97797" y1="51.922295" x2="453.94818" y2="-28.471565"/>
<line stroke="#000000" x1="453.94818" y1="-28.471565" x2="409.15314" y2="52.622787"/>
<line stroke="#000000" x1="409.15314" y1="52.622787" x2="453.8144" y2="-31.124352"/>
<line stroke="#000000" x1="453.8144" y1="-31.124352" x2="405.16006" y2="52.869392"/>
<line stroke="#000000" x1="405.16006" y1="52.869392" x2="455.6229" y2="-21.322172"/>
<line stroke="#000000" x1="455.6229" y1="-21.322172" x2="403.3057" y2="53.366264"/>
<line stroke="#000000" x1="403.3057" y1="53.366264" x2="456.96692" y2="-11.808076"/>
<line stroke="#000000" x1="456.96692" y1="-11.808076" x2="401.43515" y2="53.79812"/>
<line stroke="#000000" x1="401.43515" y1="53.79812" x2="457.33823" y2="-9.463771"/>
<line stroke="#000000" x1="457.33823" y1="-9.463771" x2="399.55066" y2="54.164425"/>
<line stroke="#000000" x1="399.55066" y1="54.164425" x2="457.6275" y2="-7.1079354"/>
<line stroke="#000000" x1="457.6275" y1="-7.1079354" x2="397.51535" y2="53.474476"/>
<line stroke="#000000" x1="397.51535" y1="53.474476" x2="457.83435" y2="-4.74344"/>
<line stroke="#000000" x1="457.83435" y1="-4.74344" x2="395.74905" y2="54.698704"/>
<line stroke="#000000" x1="395.74905" y1="54.698704" x2="457.9586" y2="-2.3731658"/>
<line stroke="#000000" x1="457.9586" y1="-2.3731658" x2="391.88458" y2="53.967106"/>
<line stroke="#000000" x1="391.88458" y1="53.967106" x2="449.75577" y2="34.5"/>
<line stroke="#000000" x1="449.75577" y1="34.5" x2="416.8845" y2="-82.74192"/>
<line stroke="#000000" x1="416.8845" y1="-82.74192" x2="448.51532" y2="36.56443"/>
<line stroke="#000000" x1="448.51532" y1="36.56443" x2="452.7975" y2="-80.3771"/>
<line stroke="#000000" x1="452.7975" y1="-80.3771" x2="446.6312" y2="41.144966"/>
<line stroke="#000000" x1="446.6312" y1="41.144966" x2="450.54187" y2="-83.32875"/>
<line stroke="#000000" x1="450.54187" y1="-83.32875" x2="448.86166" y2="39.702698"/>
<line stroke="#000000" x1="448.86166" y1="39.702698" x2="558.1073" y2="-174.08023"/>
<line stroke="#000000" x1="558.1073" y1="-174.08023" x2="443.6231" y2="44.995132"/>
<line stroke="#000000" x1="443.6231" y1="44.995132" x2="573.43164" y2="-177.13788"/>
<line stroke="#000000" x1="573.43164" y1="-177.13788" x2="447.52478" y2="44.943287"/>
<line stroke="#000000" x1="447.52478" y1="44.943287" x2="579.50195" y2="-170.62831"/>
<line stroke="#000000" x1="579.50195" y1="-170.62831" x2="431.73276" y2="57.44021"/>
<line stroke="#000000" x1="431.73276" y1="57.44021" x2="585.3413" y2="-163.91084"/>
<line stroke="#000000" x1="585.3413" y1="-163.91084" x2="431.38028" y2="61.34878"/>
<line stroke="#000000" x1="431.38028" y1="61.34878" x2="590.94275" y2="-156.99368"/>
<line stroke="#000000" x1="590.94275" y1="-156.99368" x2="443.4887" y2="55.389164"/>
<line stroke="#000000" x1="443.4887" y1="55.389164" x2="601.4046" y2="-142.5942"/>
<line stroke="#000000" x1="601.4046" y1="-142.5942" x2="441.423" y2="61.283554"/>
<line stroke="#000000" x1="441.423" y1="61.283554" x2="610.8365" y2="-127.5"/>
<line stroke="#000000" x1="610.8365" y1="-127.5" x2="439.25293" y2="63.04086"/>
<line stroke="#000000" x1="439.25293" y1="63.04086" x2="615.1516" y2="-119.71525"/>
<line stroke="#000000" x1="615.1516" y1="-119.71525" x2="390.0" y2="54.0"/>
<line stroke="#000000" x1="60.0" y1="377.0" x2="73.42063" y2="370.1031"/>
<line stroke="#000000" x1="73.42063" y1="370.1031" x2="60.453693" y2="377.0079"/>
<line stroke="#000000" x1="60.453693" y1="377.0079" x2="72.71806" y2="369.64685"/>
<line stroke="#000000" x1="72.71806" y1="369.64685" x2="60.906834" y2="377.03168"/>
<line stroke="#000000" x1="60.906834" y1="377.03168" x2="72.0" y2="369.2154"/>
<line stroke="#000000" x1="72.0" y1="369.2154" x2="61.35887" y2="377.07123"/>
<line stroke="#000000" x1="61.35887" y1="377.07123" x2="67.042076" y2="376.7558"/>
<line stroke="#000000" x1="67.042076" y1="376.7558" x2="61.80925" y2="377.12653"/>
<line stroke="#000000" x1="61.80925" y1="377.12653" x2="84.665726" y2="400.9819"/>
<line stroke="#000000" x1="84.665726" y1="400.9819" x2="62.257427" y2="377.1975"/>
<line stroke="#000000" x1="62.257427" y1="377.1975" x2="74.10685" y2="370.5836"/>
<line stroke="#000000" x1="74.10685" y1="370.5836" x2="62.910763" y2="376.30594"/>
<line stroke="#000000" x1="62.910763" y1="376.30594" x2="82.956635" y2="402.20627"/>
<line stroke="#000000" x1="82.956635" y1="402.20627" x2="64.13456" y2="375.5811"/>
<line stroke="#000000" x1="64.13456" y1="375.5811" x2="161.76305" y2="423.06482"/>
<line stroke="#000000" x1="161.76305" y1="423.06482" x2="64.635254" y2="375.73416"/>
<line stroke="#000000" x1="64.635254" y1="375.73416" x2="83.38268" y2="403.5"/>
<line stroke="#000000" x1="83.38268" y1="403.5" x2="65.1303" y2="375.9046"/>
<line stroke="#000000" x1="65.1303" y1="375.9046" x2="189.77032" y2="427.21103"/>
<line stroke="#000000" x1="189.77032" y1="427.21103" x2="63.386906" y2="376.41586"/>
<line stroke="#000000" x1="63.386906" y1="376.41586" x2="78.64084" y2="367.7847"/>
<line stroke="#000000" x1="78.64084" y1="367.7847" x2="65.6191" y2="376.09225"/>
<line stroke="#000000" x1="65.6191" y1="376.09225" x2="166.62614" y2="433.07977"/>
<line stroke="#000000" x1="166.62614" y1="433.07977" x2="66.10105" y2="376.2968"/>
<line stroke="#000000" x1="66.10105" y1="376.2968" x2="168.92949" y2="374.69095"/>
<line stroke="#000000" x1="168.92949" y1="374.69095" x2="66.57557" y2="376.5181"/>
<line stroke="#000000" x1="66.57557" y1="376.5181" x2="190.98993" y2="422.65945"/>
<line stroke="#000000" x1="190.98993" y1="422.65945" x2="95.210365" y2="456.22107"/>
<line stroke="#000000" x1="95.210365" y1="456.22107" x2="192.04993" y2="418.06808"/>
<line stroke="#000000" x1="192.04993" y1="418.06808" x2="92.87784" y2="457.40955"/>
<line stroke="#000000" x1="92.87784" y1="457.40955" x2="191.96423" y2="413.26886"/>
<line stroke="#000000" x1="191.96423" y1="413.26886" x2="90.50525" y2="458.5159"/>
<line stroke="#000000" x1="90.50525" y1="458.5159" x2="192.69592" y2="408.6492"/>
<line stroke="#000000" x1="192.69592" y1="408.6492" x2="87.72089" y2="458.6116"/>
<line stroke="#000000" x1="87.72089" y1="458.6116" x2="194.26045" y2="404.11133"/>
<line stroke="#000000" x1="194.26045" y1="404.11133" x2="82.55824" y2="459.42712"/>
<line stroke="#000000" x1="82.55824" y1="459.42712" x2="193.67358" y2="399.34738"/>
<line stroke="#000000" x1="193.67358" y1="399.34738" x2="80.12153" y2="460.1721"/>
<line stroke="#000000" x1="80.12153" y1="460.1721" x2="193.91837" y2="394.67654"/>
<line stroke="#000000" x1="193.91837" y1="394.67654" x2="77.6603" y2="460.83157"/>
<line stroke="#000000" x1="77.6603" y1="460.83157" x2="193.67358" y2="380.65262"/>
<line stroke="#000000" x1="193.67358" y1="380.65262" x2="70.02046" y2="461.2993"/>
<line stroke="#000000" x1="70.02046" y1="461.2993" x2="193.26593" y2="375.9932"/>
<line stroke="#000000" x1="193.26593" y1="375.9932" x2="75.17755" y2="461.4048"/>
<line stroke="#000000" x1="75.17755" y1="461.4048" x2="192.04993" y2="361.93192"/>
<line stroke="#000000" x1="192.04993" y1="361.93192" x2="67.52605" y2="461.6056"/>
<line stroke="#000000" x1="67.52605" y1="461.6056" x2="194.0" y2="390.0"/>
<line stroke="#000000" x1="194.0" y1="390.0" x2="62.512764" y2="461.95615"/>
<line stroke="#000000" x1="62.512764" y1="461.95615" x2="194.91776" y2="385.28857"/>
<line stroke="#000000" x1="194.91776" y1="385.28857" x2="65.092224" y2="462.82217"/>
<line stroke="#000000" x1="65.092224" y1="462.82217" x2="192.94905" y2="366.5575"/>
<line stroke="#000000" x1="192.94905" y1="366.5575" x2="72.676315" y2="461.89096"/>
<line stroke="#000000" x1="72.676315" y1="461.89096" x2="190.98993" y2="357.34055"/>
<line stroke="#000000" x1="190.98993" y1="357.34055" x2="85.309494" y2="459.53726"/>
<line stroke="#000000" x1="85.309494" y1="459.53726" x2="189.77032" y2="352.78897"/>
<line stroke="#000000" x1="189.77032" y1="352.78897" x2="99.5" y2="458.41602"/>
<line stroke="#000000" x1="99.5" y1="458.41602" x2="189.34369" y2="347.9737"/>
<line stroke="#000000" x1="189.34369" y1="347.9737" x2="186.8585" y2="436.17273"/>
<line stroke="#000000" x1="186.8585" y1="436.17273" x2="187.7982" y2="343.48526"/>
<line stroke="#000000" x1="187.7982" y1="343.48526" x2="182.236" y2="449.61847"/>
<line stroke="#000000" x1="182.236" y1="449.61847" x2="187.02419" y2="338.6789"/>
<line stroke="#000000" x1="187.02419" y1="338.6789" x2="112.99193" y2="474.8048"/>
<line stroke="#000000" x1="112.99193" y1="474.8048" x2="185.15573" y2="334.27707"/>
<line stroke="#000000" x1="185.15573" y1="334.27707" x2="191.44745" y2="472.13748"/>
<line stroke="#000000" x1="191.44745" y1="472.13748" x2="236.5144" y2="252.09183"/>
<line stroke="#000000" x1="236.5144" y1="252.09183" x2="188.50082" y2="476.6749"/>
<line stroke="#000000" x1="188.50082" y1="476.6749" x2="285.15164" y2="270.28476"/>
<line stroke="#000000" x1="285.15164" y1="270.28476" x2="185.39763" y2="481.10672"/>
<line stroke="#000000" x1="185.39763" y1="481.10672" x2="280.8365" y2="262.5"/>
<line stroke="#000000" x1="280.8365" y1="262.5" x2="151.6945" y2="516.20667"/>
<line stroke="#000000" x1="151.6945" y1="516.20667" x2="271.40457" y2="247.4058"/>
<line stroke="#000000" x1="271.40457" y1="247.4058" x2="182.14166" y2="485.42752"/>
<line stroke="#000000" x1="182.14166" y1="485.42752" x2="216.99368" y2="189.05725"/>
<line stroke="#000000" x1="216.99368" y1="189.05725" x2="178.7369" y2="489.63208"/>
<line stroke="#000000" x1="178.7369" y1="489.63208" x2="230.62831" y2="200.49806"/>
<line stroke="#000000" x1="230.62831" y1="200.49806" x2="175.93059" y2="494.38437"/>
<line stroke="#000000" x1="175.93059" y1="494.38437" x2="237.13788" y2="206.56834"/>
<line stroke="#000000" x1="237.13788" y1="206.56834" x2="169.06137" y2="502.93634"/>
<line stroke="#000000" x1="169.06137" y1="502.93634" x2="243.43166" y2="212.86212"/>
<line stroke="#000000" x1="243.43166" y1="212.86212" x2="243.43166" y2="567.1379"/>
<line stroke="#000000" x1="243.43166" y1="567.1379" x2="249.50194" y2="219.37169"/>
<line stroke="#000000" x1="249.50194" y1="219.37169" x2="230.62831" y2="579.50195"/>
<line stroke="#000000" x1="230.62831" y1="579.50195" x2="255.34134" y2="226.08916"/>
<line stroke="#000000" x1="255.34134" y1="226.08916" x2="223.91084" y2="585.3413"/>
<line stroke="#000000" x1="223.91084" y1="585.3413" x2="266.29935" y2="240.11476"/>
<line stroke="#000000" x1="266.29935" y1="240.11476" x2="216.99368" y2="590.94275"/>
<line stroke="#000000" x1="216.99368" y1="590.94275" x2="276.25226" y2="254.87059"/>
<line stroke="#000000" x1="276.25226" y1="254.87059" x2="202.5942" y2="601.4046"/>
<line stroke="#000000" x1="202.5942" y1="601.4046" x2="289.19247" y2="278.21536"/>
<line stroke="#000000" x1="289.19247" y1="278.21536" x2="60.0" y2="462.0"/>
<line stroke="#000000" x1="110.0" y1="135.0" x2="191.70724" y2="413.42917"/>
<line stroke="#000000" x1="191.70724" y1="413.42917" x2="147.62222" y2="286.63382"/>
<line stroke="#000000" x1="147.62222" y1="286.63382" x2="189.87387" y2="419.07172"/>
<line stroke="#000000" x1="189.87387" y1="419.07172" x2="151.20673" y2="288.00977"/>
<line stroke="#000000" x1="151.20673" y1="288.00977" x2="192.47514" y2="410.56335"/>
<line stroke="#000000" x1="192.47514" y1="410.56335" x2="189.73781" y2="422.21616"/>
<line stroke="#000000" x1="189.73781" y1="422.21616" x2="118.89937" y2="135.15533"/>
<line stroke="#000000" x1="118.89937" y1="135.15533" x2="190.8398" y2="416.26645"/>
<line stroke="#000000" x1="190.8398" y1="416.26645" x2="193.14255" y2="407.6725"/>
<line stroke="#000000" x1="193.14255" y1="407.6725" x2="188.56491" y2="424.97934"/>
<line stroke="#000000" x1="188.56491" y1="424.97934" x2="162.58081" y2="291.10986"/>
<line stroke="#000000" x1="162.58081" y1="291.10986" x2="199.04521" y2="459.56973"/>
<line stroke="#000000" x1="199.04521" y1="459.56973" x2="193.70866" y2="404.7601"/>
<line stroke="#000000" x1="193.70866" y1="404.7601" x2="143.37384" y2="287.2859"/>
<line stroke="#000000" x1="143.37384" y1="287.2859" x2="194.17279" y2="401.8297"/>
<line stroke="#000000" x1="194.17279" y1="401.8297" x2="187.2963" y2="427.69992"/>
<line stroke="#000000" x1="187.2963" y1="427.69992" x2="194.53436" y2="398.88492"/>
<line stroke="#000000" x1="194.53436" y1="398.88492" x2="140.04448" y2="285.22247"/>
<line stroke="#000000" x1="140.04448" y1="285.22247" x2="194.79294" y2="395.9293"/>
<line stroke="#000000" x1="194.79294" y1="395.9293" x2="186.81644" y2="430.84402"/>
<line stroke="#000000" x1="186.81644" y1="430.84402" x2="194.94823" y2="392.96646"/>
<line stroke="#000000" x1="194.94823" y1="392.96646" x2="136.36949" y2="284.23776"/>
<line stroke="#000000" x1="136.36949" y1="284.23776" x2="195.0" y2="390.0"/>
<line stroke="#000000" x1="195.0" y1="390.0" x2="196.56302" y2="462.635"/>
<line stroke="#000000" x1="196.56302" y1="462.635" x2="193.14255" y2="372.3275"/>
<line stroke="#000000" x1="193.14255" y1="372.3275" x2="185.34421" y2="433.5"/>
<line stroke="#000000" x1="185.34421" y1="433.5" x2="193.70866" y2="375.2399"/>
<line stroke="#000000" x1="193.70866" y1="375.2399" x2="132.45447" y2="284.36005"/>
<line stroke="#000000" x1="132.45447" y1="284.36005" x2="192.47514" y2="369.43665"/>
<line stroke="#000000" x1="192.47514" y1="369.43665" x2="184.62823" y2="436.6329"/>
<line stroke="#000000" x1="184.62823" y1="436.6329" x2="191.79086" y2="363.42453"/>
<line stroke="#000000" x1="191.79086" y1="363.42453" x2="193.97537" y2="465.61176"/>
<line stroke="#000000" x1="193.97537" y1="465.61176" x2="192.6685" y2="366.2952"/>
<line stroke="#000000" x1="192.6685" y1="366.2952" x2="128.92766" y2="282.65594"/>
<line stroke="#000000" x1="128.92766" y1="282.65594" x2="194.17279" y2="378.1703"/>
<line stroke="#000000" x1="194.17279" y1="378.1703" x2="125.16987" y2="282.0608"/>
<line stroke="#000000" x1="125.16987" y1="282.0608" x2="190.392" y2="354.20718"/>
<line stroke="#000000" x1="190.392" y1="354.20718" x2="191.2854" y2="468.4964"/>
<line stroke="#000000" x1="191.2854" y1="468.4964" x2="191.75327" y2="360.24426"/>
<line stroke="#000000" x1="191.75327" y1="360.24426" x2="139.80923" y2="328.88202"/>
<line stroke="#000000" x1="139.80923" y1="328.88202" x2="194.94823" y2="387.03354"/>
<line stroke="#000000" x1="194.94823" y1="387.03354" x2="121.3936" y2="281.5971"/>
<line stroke="#000000" x1="121.3936" y1="281.5971" x2="200.60991" y2="455.83194"/>
<line stroke="#000000" x1="200.60991" y1="455.83194" x2="117.742966" y2="279.2704"/>
<line stroke="#000000" x1="117.742966" y1="279.2704" x2="194.79294" y2="384.0707"/>
<line stroke="#000000" x1="194.79294" y1="384.0707" x2="134.62646" y2="421.52042"/>
<line stroke="#000000" x1="134.62646" y1="421.52042" x2="194.53436" y2="381.11508"/>
<line stroke="#000000" x1="194.53436" y1="381.11508" x2="140.09851" y2="457.60236"/>
<line stroke="#000000" x1="140.09851" y1="457.60236" x2="203.68124" y2="453.1888"/>
<line stroke="#000000" x1="203.68124" y1="453.1888" x2="137.34628" y2="457.68442"/>
<line stroke="#000000" x1="137.34628" y1="457.68442" x2="197.4118" y2="343.5223"/>
<line stroke="#000000" x1="197.4118" y1="343.5223" x2="134.96747" y2="458.59756"/>
<line stroke="#000000" x1="134.96747" y1="458.59756" x2="218.63345" y2="216.15015"/>
<line stroke="#000000" x1="218.63345" y1="216.15015" x2="188.4964" y2="471.2854"/>
<line stroke="#000000" x1="188.4964" y1="471.2854" x2="213.71785" y2="157.04591"/>
<line stroke="#000000" x1="213.71785" y1="157.04591" x2="185.61176" y2="473.97537"/>
<line stroke="#000000" x1="185.61176" y1="473.97537" x2="237.5" y2="169.16353"/>
<line stroke="#000000" x1="237.5" y1="169.16353" x2="132.24922" y2="458.47607"/>
<line stroke="#000000" x1="132.24922" y1="458.47607" x2="252.5942" y2="178.59541"/>
<line stroke="#000000" x1="252.5942" y1="178.59541" x2="182.635" y2="476.56302"/>
<line stroke="#000000" x1="182.635" y1="476.56302" x2="259.88525" y2="183.70067"/>
<line stroke="#000000" x1="259.88525" y1="183.70067" x2="129.84589" y2="459.21085"/>
<line stroke="#000000" x1="129.84589" y1="459.21085" x2="266.99368" y2="189.05725"/>
<line stroke="#000000" x1="266.99368" y1="189.05725" x2="127.41837" y2="459.8613"/>
<line stroke="#000000" x1="127.41837" y1="459.8613" x2="273.91083" y2="194.65866"/>
<line stroke="#000000" x1="273.91083" y1="194.65866" x2="124.96964" y2="460.42664"/>
<line stroke="#000000" x1="124.96964" y1="460.42664" x2="280.6283" y2="200.49806"/>
<line stroke="#000000" x1="280.6283" y1="200.49806" x2="176.41974" y2="481.4189"/>
<line stroke="#000000" x1="176.41974" y1="481.4189" x2="287.13788" y2="206.56834"/>
<line stroke="#000000" x1="287.13788" y1="206.56834" x2="122.32902" y2="459.92136"/>
<line stroke="#000000" x1="122.32902" y1="459.92136" x2="293.43164" y2="212.86212"/>
<line stroke="#000000" x1="293.43164" y1="212.86212" x2="173.1888" y2="483.68124"/>
<line stroke="#000000" x1="173.1888" y1="483.68124" x2="299.50192" y2="219.37169"/>
<line stroke="#000000" x1="299.50192" y1="219.37169" x2="119.88129" y2="460.30902"/>
<line stroke="#000000" x1="119.88129" y1="460.30902" x2="305.34134" y2="226.08916"/>
<line stroke="#000000" x1="305.34134" y1="226.08916" x2="152.08363" y2="476.28424"/>
<line stroke="#000000" x1="152.08363" y1="476.28424" x2="310.94275" y2="233.00632"/>
<line stroke="#000000" x1="310.94275" y1="233.00632" x2="170.4108" y2="486.6775"/>
<line stroke="#000000" x1="170.4108" y1="486.6775" x2="316.29935" y2="240.11476"/>
<line stroke="#000000" x1="316.29935" y1="240.11476" x2="117.421524" y2="460.61105"/>
<line stroke="#000000" x1="117.421524" y1="460.61105" x2="321.40457" y2="247.4058"/>
<line stroke="#000000" x1="321.40457" y1="247.4058" x2="167.0" y2="488.7269"/>
<line stroke="#000000" x1="167.0" y1="488.7269" x2="326.25226" y2="254.87059"/>
<line stroke="#000000" x1="326.25226" y1="254.87059" x2="162.58081" y2="488.89014"/>
<line stroke="#000000" x1="162.58081" y1="488.89014" x2="330.8365" y2="262.5"/>
<line stroke="#000000" x1="330.8365" y1="262.5" x2="114.95271" y2="460.82706"/>
<line stroke="#000000" x1="114.95271" y1="460.82706" x2="339.19247" y2="278.21536"/>
<line stroke="#000000" x1="339.19247" y1="278.21536" x2="112.47787" y2="460.95676"/>
<line stroke="#000000" x1="112.47787" y1="460.95676" x2="346.4319" y2="294.4753"/>
<line stroke="#000000" x1="346.4319" y1="294.4753" x2="110.0" y2="461.0"/>
<line stroke="#000000" x1="-310.0" y1="-46.0" x2="-284.01923" y2="95.0"/>
<line stroke="#000000" x1="-284.01923" y1="95.0" x2="-278.93945" y2="96.17095"/>
<line stroke="#000000" x1="-278.93945" y1="96.17095" x2="-287.01868" y2="90.71637"/>
<line stroke="#000000" x1="-287.01868" y1="90.71637" x2="-277.00763" y2="61.086784"/>
<line stroke="#000000" x1="-277.00763" y1="61.086784" x2="-288.4488" y2="90.595215"/>
<line stroke="#000000" x1="-288.4488" y1="90.595215" x2="-265.0" y2="32.057713"/>
<line stroke="#000000" x1="-265.0" y1="32.057713" x2="-289.85492" y2="89.139145"/>
<line stroke="#000000" x1="-289.85492" y1="89.139145" x2="-255.62726" y2="67.519356"/>
<line stroke="#000000" x1="-255.62726" y1="67.519356" x2="-289.8585" y2="90.54957"/>
<line stroke="#000000" x1="-289.8585" y1="90.54957" x2="-247.77086" y2="40.88753"/>
<line stroke="#000000" x1="-247.77086" y1="40.88753" x2="-301.10062" y2="-144.84467"/>
<line stroke="#000000" x1="-301.10062" y1="-144.84467" x2="-249.03716" y2="112.12887"/>
<line stroke="#000000" x1="-249.03716" y1="112.12887" x2="-292.2121" y2="-144.37883"/>
<line stroke="#000000" x1="-292.2121" y1="-144.37883" x2="-225.05322" y2="48.282547"/>
<line stroke="#000000" x1="-225.05322" y1="48.282547" x2="-283.34525" y2="-143.60309"/>
<line stroke="#000000" x1="-283.34525" y1="-143.60309" x2="-219.39769" y2="94.02437"/>
<line stroke="#000000" x1="-219.39769" y1="94.02437" x2="-274.51086" y2="-142.51836"/>
<line stroke="#000000" x1="-274.51086" y1="-142.51836" x2="-211.20709" y2="89.000916"/>
<line stroke="#000000" x1="-211.20709" y1="89.000916" x2="-278.99014" y2="98.71333"/>
<line stroke="#000000" x1="-278.99014" y1="98.71333" x2="-190.42522" y2="35.281384"/>
<line stroke="#000000" x1="-190.42522" y1="35.281384" x2="-283.0362" y2="96.84887"/>
<line stroke="#000000" x1="-283.0362" y1="96.84887" x2="-181.49918" y2="23.3251"/>
<line stroke="#000000" x1="-181.49918" y1="23.3251" x2="-220.73279" y2="132.25682"/>
<line stroke="#000000" x1="-220.73279" y1="132.25682" x2="-265.71973" y2="-141.12598"/>
<line stroke="#000000" x1="-265.71973" y1="-141.12598" x2="-187.20676" y2="92.74254"/>
<line stroke="#000000" x1="-187.20676" y1="92.74254" x2="-256.9825" y2="-139.42764"/>
<line stroke="#000000" x1="-256.9825" y1="-139.42764" x2="-154.75269" y2="71.292496"/>
<line stroke="#000000" x1="-154.75269" y1="71.292496" x2="-226.41216" y2="150.76852"/>
<line stroke="#000000" x1="-226.41216" y1="150.76852" x2="-146.41827" y2="56.849075"/>
<line stroke="#000000" x1="-146.41827" y1="56.849075" x2="-297.28723" y2="136.06503"/>
<line stroke="#000000" x1="-297.28723" y1="136.06503" x2="-123.63605" y2="34.704075"/>
<line stroke="#000000" x1="-123.63605" y1="34.704075" x2="-297.7979" y2="137.40636"/>
<line stroke="#000000" x1="-297.7979" y1="137.40636" x2="-125.45065" y2="122.904945"/>
<line stroke="#000000" x1="-125.45065" y1="122.904945" x2="-248.30992" y2="-137.42542"/>
<line stroke="#000000" x1="-248.30992" y1="-137.42542" x2="-89.16352" y2="237.5"/>
<line stroke="#000000" x1="-89.16352" y1="237.5" x2="-239.71248" y2="-135.12173"/>
<line stroke="#000000" x1="-239.71248" y1="-135.12173" x2="-93.747734" y2="245.12941"/>
<line stroke="#000000" x1="-93.747734" y1="245.12941" x2="-231.20067" y2="-132.51941"/>
<line stroke="#000000" x1="-231.20067" y1="-132.51941" x2="-98.59542" y2="252.5942"/>
<line stroke="#000000" x1="-98.59542" y1="252.5942" x2="-222.78487" y2="-129.62161"/>
<line stroke="#000000" x1="-222.78487" y1="-129.62161" x2="-103.70067" y2="259.88525"/>
<line stroke="#000000" x1="-103.70067" y1="259.88525" x2="-214.47531" y2="-126.431885"/>
<line stroke="#000000" x1="-214.47531" y1="-126.431885" x2="-84.848366" y2="229.71526"/>
<line stroke="#000000" x1="-84.848366" y1="229.71526" x2="-285.58765" y2="185.13347"/>
<line stroke="#000000" x1="-285.58765" y1="185.13347" x2="-77.045906" y2="213.71785"/>
<line stroke="#000000" x1="-77.045906" y1="213.71785" x2="-275.9108" y2="194.37373"/>
<line stroke="#000000" x1="-275.9108" y1="194.37373" x2="-108.13504" y2="52.116154"/>
<line stroke="#000000" x1="-108.13504" y1="52.116154" x2="-234.0" y2="241.63586"/>
<line stroke="#000000" x1="-234.0" y1="241.63586" x2="-91.205185" y2="87.00374"/>
<line stroke="#000000" x1="-91.205185" y1="87.00374" x2="-279.2182" y2="194.57234"/>
<line stroke="#000000" x1="-279.2182" y1="194.57234" x2="-73.568115" y2="205.52469"/>
<line stroke="#000000" x1="-73.568115" y1="205.52469" x2="-285.46826" y2="195.55229"/>
<line stroke="#000000" x1="-285.46826" y1="195.55229" x2="-70.37838" y2="197.21513"/>
<line stroke="#000000" x1="-70.37838" y1="197.21513" x2="-288.46896" y2="196.35632"/>
<line stroke="#000000" x1="-288.46896" y1="196.35632" x2="-67.48059" y2="188.79933"/>
<line stroke="#000000" x1="-67.48059" y1="188.79933" x2="-291.49585" y2="197.05513"/>
<line stroke="#000000" x1="-291.49585" y1="197.05513" x2="-64.878265" y2="180.28752"/>
<line stroke="#000000" x1="-64.878265" y1="180.28752" x2="-294.71896" y2="196.66309"/>
<line stroke="#000000" x1="-294.71896" y1="196.66309" x2="-60.57236" y2="163.01749"/>
<line stroke="#000000" x1="-60.57236" y1="163.01749" x2="-297.75278" y2="197.14359"/>
<line stroke="#000000" x1="-297.75278" y1="197.14359" x2="-58.874023" y2="154.28029"/>
<line stroke="#000000" x1="-58.874023" y1="154.28029" x2="-300.80148" y2="197.51793"/>
<line stroke="#000000" x1="-300.80148" y1="197.51793" x2="-57.481644" y2="145.48914"/>
<line stroke="#000000" x1="-57.481644" y1="145.48914" x2="-303.86142" y2="197.78563"/>
<line stroke="#000000" x1="-303.86142" y1="197.78563" x2="-109.05726" y2="266.99368"/>
<line stroke="#000000" x1="-109.05726" y1="266.99368" x2="-206.28215" y2="-122.954094"/>
<line stroke="#000000" x1="-206.28215" y1="-122.954094" x2="-114.65867" y2="273.91083"/>
<line stroke="#000000" x1="-114.65867" y1="273.91083" x2="-198.21536" y2="-119.19248"/>
<line stroke="#000000" x1="-198.21536" y1="-119.19248" x2="-120.49807" y2="280.6283"/>
<line stroke="#000000" x1="-120.49807" y1="280.6283" x2="-190.28474" y2="-115.151634"/>
<line stroke="#000000" x1="-190.28474" y1="-115.151634" x2="-126.56835" y2="287.13788"/>
<line stroke="#000000" x1="-126.56835" y1="287.13788" x2="-174.87059" y2="-106.252266"/>
<line stroke="#000000" x1="-174.87059" y1="-106.252266" x2="-132.86212" y2="293.43164"/>
<line stroke="#000000" x1="-132.86212" y1="293.43164" x2="-154.4454" y2="-75.38275"/>
<line stroke="#000000" x1="-154.4454" y1="-75.38275" x2="-139.37169" y2="299.50192"/>
<line stroke="#000000" x1="-139.37169" y1="299.50192" x2="-160.11476" y2="-96.29933"/>
<line stroke="#000000" x1="-160.11476" y1="-96.29933" x2="-146.08916" y2="305.34134"/>
<line stroke="#000000" x1="-146.08916" y1="305.34134" x2="-153.00632" y2="-90.94274"/>
<line stroke="#000000" x1="-153.00632" y1="-90.94274" x2="-153.00632" y2="310.94275"/>
<line stroke="#000000" x1="-153.00632" y1="310.94275" x2="-56.396915" y2="136.65475"/>
<line stroke="#000000" x1="-56.396915" y1="136.65475" x2="-160.11476" y2="316.29935"/>
<line stroke="#000000" x1="-160.11476" y1="316.29935" x2="-55.15534" y2="101.10063"/>
<line stroke="#000000" x1="-55.15534" y1="101.10063" x2="-167.4058" y2="321.40457"/>
<line stroke="#000000" x1="-167.4058" y1="321.40457" x2="-55.621166" y2="92.2121"/>
<line stroke="#000000" x1="-55.621166" y1="92.2121" x2="-174.87059" y2="326.25226"/>
<line stroke="#000000" x1="-174.87059" y1="326.25226" x2="-84.848366" y2="-9.715248"/>
<line stroke="#000000" x1="-84.848366" y1="-9.715248" x2="-190.28474" y2="335.15164"/>
<line stroke="#000000" x1="-190.28474" y1="335.15164" x2="-55.0" y2="110.0"/>
<line stroke="#000000" x1="-55.0" y1="110.0" x2="-306.92883" y2="197.9464"/>
<line stroke="#000000" x1="-306.92883" y1="197.9464" x2="-310.0" y2="197.0"/>
<line stroke="#000000" x1="-98.99495" y1="225.55844" x2="-80.18582" y2="228.66989"/>
<line stroke="#000000" x1="-80.18582" y1="228.66989" x2="-64.38953" y2="244.6355"/>
<line stroke="#000000" x1="-64.38953" y1="244.6355" x2="-87.38215" y2="225.81573"/>
<line stroke="#000000" x1="-87.38215" y1="225.81573" x2="-80.54158" y2="227.2002"/>
<line stroke="#000000" x1="-80.54158" y1="227.2002" x2="-62.12371" y2="263.75146"/>
<line stroke="#000000" x1="-62.12371" y1="263.75146" x2="-83.99495" y2="228.57768"/>
<line stroke="#000000" x1="-83.99495" y1="228.57768" x2="-68.78268" y2="225.3828"/>
<line stroke="#000000" x1="-68.78268" y1="225.3828" x2="-82.56745" y2="228.26895"/>
<line stroke="#000000" x1="-82.56745" y1="228.26895" x2="-46.37216" y2="273.71158"/>
<line stroke="#000000" x1="-46.37216" y1="273.71158" x2="-79.47159" y2="210.70825"/>
<line stroke="#000000" x1="-79.47159" y1="210.70825" x2="-36.94535" y2="306.62424"/>
<line stroke="#000000" x1="-36.94535" y1="306.62424" x2="-70.222336" y2="222.60321"/>
<line stroke="#000000" x1="-70.222336" y1="222.60321" x2="-38.800217" y2="308.75803"/>
<line stroke="#000000" x1="-38.800217" y1="308.75803" x2="-69.12464" y2="223.62683"/>
<line stroke="#000000" x1="-69.12464" y1="223.62683" x2="-40.728424" y2="310.82578"/>
<line stroke="#000000" x1="-40.728424" y1="310.82578" x2="-70.712296" y2="220.8525"/>
<line stroke="#000000" x1="-70.712296" y1="220.8525" x2="-42.727623" y2="312.82495"/>
<line stroke="#000000" x1="-42.727623" y1="312.82495" x2="-60.62604" y2="237.47551"/>
<line stroke="#000000" x1="-60.62604" y1="237.47551" x2="-46.929153" y2="316.60803"/>
<line stroke="#000000" x1="-46.929153" y1="316.60803" x2="-61.245598" y2="236.14685"/>
<line stroke="#000000" x1="-61.245598" y1="236.14685" x2="-49.12637" y2="318.3873"/>
<line stroke="#000000" x1="-49.12637" y1="318.3873" x2="-71.290184" y2="219.09796"/>
<line stroke="#000000" x1="-71.290184" y1="219.09796" x2="-35.166077" y2="304.42703"/>
<line stroke="#000000" x1="-35.166077" y1="304.42703" x2="-94.181755" y2="185.72652"/>
<line stroke="#000000" x1="-94.181755" y1="185.72652" x2="-33.464573" y2="302.16904"/>
<line stroke="#000000" x1="-33.464573" y1="302.16904" x2="-86.83958" y2="185.6219"/>
<line stroke="#000000" x1="-86.83958" y1="185.6219" x2="-37.800816" y2="279.28247"/>
<line stroke="#000000" x1="-37.800816" y1="279.28247" x2="-51.384342" y2="320.0888"/>
<line stroke="#000000" x1="-51.384342" y1="320.0888" x2="-49.540012" y2="238.48956"/>
<line stroke="#000000" x1="-49.540012" y1="238.48956" x2="-44.795372" y2="314.75317"/>
<line stroke="#000000" x1="-44.795372" y1="314.75317" x2="-69.88771" y2="199.81569"/>
<line stroke="#000000" x1="-69.88771" y1="199.81569" x2="-29.455006" y2="298.0118"/>
<line stroke="#000000" x1="-29.455006" y1="298.0118" x2="-84.44113" y2="186.0881"/>
<line stroke="#000000" x1="-84.44113" y1="186.0881" x2="-26.593246" y2="293.0551"/>
<line stroke="#000000" x1="-26.593246" y1="293.0551" x2="-79.975975" y2="188.23138"/>
<line stroke="#000000" x1="-79.975975" y1="188.23138" x2="-31.013868" y2="300.41226"/>
<line stroke="#000000" x1="-31.013868" y1="300.41226" x2="-75.39556" y2="189.71965"/>
<line stroke="#000000" x1="-75.39556" y1="189.71965" x2="-27.980865" y2="295.55844"/>
<line stroke="#000000" x1="-27.980865" y1="295.55844" x2="-77.36376" y2="187.98448"/>
<line stroke="#000000" x1="-77.36376" y1="187.98448" x2="-24.395044" y2="290.94324"/>
<line stroke="#000000" x1="-24.395044" y1="290.94324" x2="-90.0055" y2="169.02956"/>
<line stroke="#000000" x1="-90.0055" y1="169.02956" x2="-23.170677" y2="288.3176"/>
<line stroke="#000000" x1="-23.170677" y1="288.3176" x2="-53.700325" y2="321.71048"/>
<line stroke="#000000" x1="-53.700325" y1="321.71048" x2="-19.106201" y2="280.51587"/>
<line stroke="#000000" x1="-19.106201" y1="280.51587" x2="-78.18967" y2="171.113"/>
<line stroke="#000000" x1="-78.18967" y1="171.113" x2="-18.248966" y2="277.71198"/>
<line stroke="#000000" x1="-18.248966" y1="277.71198" x2="-56.071487" y2="323.25034"/>
<line stroke="#000000" x1="-56.071487" y1="323.25034" x2="-38.071564" y2="222.1649"/>
<line stroke="#000000" x1="-38.071564" y1="222.1649" x2="-60.967754" y2="326.0772"/>
<line stroke="#000000" x1="-60.967754" y1="326.0772" x2="-21.184954" y2="249.11743"/>
<line stroke="#000000" x1="-21.184954" y1="249.11743" x2="-63.486885" y2="327.36075"/>
<line stroke="#000000" x1="-63.486885" y1="327.36075" x2="-6.4230204" y2="270.88138"/>
<line stroke="#000000" x1="-6.4230204" y1="270.88138" x2="-83.40756" y2="143.64842"/>
<line stroke="#000000" x1="-83.40756" y1="143.64842" x2="-1.5318036" y2="264.80222"/>
<line stroke="#000000" x1="-1.5318036" y1="264.80222" x2="-66.04928" y2="328.55563"/>
<line stroke="#000000" x1="-66.04928" y1="328.55563" x2="-4.5153694" y2="244.62823"/>
<line stroke="#000000" x1="-4.5153694" y1="244.62823" x2="-73.655556" y2="332.54507"/>
<line stroke="#000000" x1="-73.655556" y1="332.54507" x2="3.9929297" y2="240.08444"/>
<line stroke="#000000" x1="3.9929297" y1="240.08444" x2="-76.392685" y2="333.3819"/>
<line stroke="#000000" x1="-76.392685" y1="333.3819" x2="12.936823" y2="250.6497"/>
<line stroke="#000000" x1="12.936823" y1="250.6497" x2="-84.58215" y2="336.2975"/>
<line stroke="#000000" x1="-84.58215" y1="336.2975" x2="-6.557707" y2="196.79724"/>
<line stroke="#000000" x1="-6.557707" y1="196.79724" x2="-58.49495" y2="324.7065"/>
<line stroke="#000000" x1="-58.49495" y1="324.7065" x2="6.719184" y2="165.85374"/>
<line stroke="#000000" x1="6.719184" y1="165.85374" x2="-90.319084" y2="337.10376"/>
<line stroke="#000000" x1="-90.319084" y1="337.10376" x2="11.005051" y2="254.55844"/>
<line stroke="#000000" x1="11.005051" y1="254.55844" x2="-35.431133" y2="124.23331"/>
<line stroke="#000000" x1="-35.431133" y1="124.23331" x2="23.2735" y2="280.5474"/>
<line stroke="#000000" x1="23.2735" y1="280.5474" x2="11.733629" y2="154.85799"/>
<line stroke="#000000" x1="11.733629" y1="154.85799" x2="-70.949295" y2="331.61325"/>
<line stroke="#000000" x1="-70.949295" y1="331.61325" x2="121.84153" y2="127.05844"/>
<line stroke="#000000" x1="121.84153" y1="127.05844" x2="-81.73828" y2="335.7447"/>
<line stroke="#000000" x1="-81.73828" y1="335.7447" x2="137.43694" y2="159.03375"/>
<line stroke="#000000" x1="137.43694" y1="159.03375" x2="-78.915436" y2="335.093"/>
<line stroke="#000000" x1="-78.915436" y1="335.093" x2="140.62666" y2="167.3433"/>
<line stroke="#000000" x1="140.62666" y1="167.3433" x2="-87.304405" y2="337.74097"/>
<line stroke="#000000" x1="-87.304405" y1="337.74097" x2="150.4327" y2="201.54095"/>
<line stroke="#000000" x1="150.4327" y1="201.54095" x2="-93.06565" y2="339.35138"/>
<line stroke="#000000" x1="-93.06565" y1="339.35138" x2="152.13103" y2="210.27815"/>
<line stroke="#000000" x1="152.13103" y1="210.27815" x2="-95.99359" y2="340.50604"/>
<line stroke="#000000" x1="-95.99359" y1="340.50604" x2="148.43047" y2="192.86836"/>
<line stroke="#000000" x1="148.43047" y1="192.86836" x2="-68.27721" y2="330.58752"/>
<line stroke="#000000" x1="-68.27721" y1="330.58752" x2="112.40963" y2="111.96425"/>
<line stroke="#000000" x1="112.40963" y1="111.96425" x2="155.84972" y2="263.45782"/>
<line stroke="#000000" x1="155.84972" y1="263.45782" x2="107.30438" y2="104.6732"/>
<line stroke="#000000" x1="107.30438" y1="104.6732" x2="153.5234" y2="290.04758"/>
<line stroke="#000000" x1="153.5234" y1="290.04758" x2="101.94779" y2="97.564766"/>
<line stroke="#000000" x1="101.94779" y1="97.564766" x2="155.38388" y2="272.34634"/>
<line stroke="#000000" x1="155.38388" y1="272.34634" x2="-95.99359" y2="168.61082"/>
<line stroke="#000000" x1="-95.99359" y1="168.61082" x2="-98.99495" y2="341.55844"/>
<line stroke="#000000" x1="-190.0" y1="87.0" x2="-176.02017" y2="89.27406"/>
<line stroke="#000000" x1="-176.02017" y1="89.27406" x2="-189.19731" y2="87.01401"/>
<line stroke="#000000" x1="-189.19731" y1="87.01401" x2="-176.75201" y2="88.7988"/>
<line stroke="#000000" x1="-176.75201" y1="88.7988" x2="-188.32585" y2="86.058464"/>
<line stroke="#000000" x1="-188.32585" y1="86.058464" x2="-178.0" y2="89.21539"/>
<line stroke="#000000" x1="-178.0" y1="89.21539" x2="-187.59584" y2="87.126"/>
<line stroke="#000000" x1="-187.59584" y1="87.126" x2="-178.73268" y2="88.80926"/>
<line stroke="#000000" x1="-178.73268" y1="88.80926" x2="-186.79901" y2="87.22383"/>
<line stroke="#000000" x1="-186.79901" y1="87.22383" x2="-179.4791" y2="88.42894"/>
<line stroke="#000000" x1="-179.4791" y1="88.42894" x2="-186.00609" y2="87.34942"/>
<line stroke="#000000" x1="-186.00609" y1="87.34942" x2="-180.23833" y2="88.074905"/>
<line stroke="#000000" x1="-180.23833" y1="88.074905" x2="-185.21803" y2="87.5026"/>
<line stroke="#000000" x1="-185.21803" y1="87.5026" x2="-181.00945" y2="87.74759"/>
<line stroke="#000000" x1="-181.00945" y1="87.74759" x2="-188.81413" y2="126.95859"/>
<line stroke="#000000" x1="-188.81413" y1="126.95859" x2="-184.43579" y2="87.6832"/>
<line stroke="#000000" x1="-184.43579" y1="87.6832" x2="-175.89316" y2="90.583595"/>
<line stroke="#000000" x1="-175.89316" y1="90.583595" x2="-183.3847" y2="86.92972"/>
<line stroke="#000000" x1="-183.3847" y1="86.92972" x2="-189.40671" y2="126.98965"/>
<line stroke="#000000" x1="-189.40671" y1="126.98965" x2="-182.58359" y2="87.174644"/>
<line stroke="#000000" x1="-182.58359" y1="87.174644" x2="-175.22412" y2="91.087746"/>
<line stroke="#000000" x1="-175.22412" y1="91.087746" x2="-181.79152" y2="87.44738"/>
<line stroke="#000000" x1="-181.79152" y1="87.44738" x2="-188.11848" y2="127.9014"/>
<line stroke="#000000" x1="-188.11848" y1="127.9014" x2="-173.93031" y2="90.84889"/>
<line stroke="#000000" x1="-173.93031" y1="90.84889" x2="-178.0" y2="130.7846"/>
<line stroke="#000000" x1="-178.0" y1="130.7846" x2="-173.27173" y2="91.42138"/>
<line stroke="#000000" x1="-173.27173" y1="91.42138" x2="-176.75201" y2="131.2012"/>
<line stroke="#000000" x1="-176.75201" y1="131.2012" x2="-171.93889" y2="91.297165"/>
<line stroke="#000000" x1="-171.93889" y1="91.297165" x2="-178.73268" y2="131.19073"/>
<line stroke="#000000" x1="-178.73268" y1="131.19073" x2="-171.29716" y2="91.93888"/>
<line stroke="#000000" x1="-171.29716" y1="91.93888" x2="-179.4791" y2="131.57106"/>
<line stroke="#000000" x1="-179.4791" y1="131.57106" x2="-170.08284" y2="93.28752"/>
<line stroke="#000000" x1="-170.08284" y1="93.28752" x2="-180.23833" y2="131.9251"/>
<line stroke="#000000" x1="-180.23833" y1="131.9251" x2="-169.93509" y2="91.93347"/>
<line stroke="#000000" x1="-169.93509" y1="91.93347" x2="-181.00945" y2="132.25241"/>
<line stroke="#000000" x1="-181.00945" y1="132.25241" x2="-167.9357" y2="92.76148"/>
<line stroke="#000000" x1="-167.9357" y1="92.76148" x2="-181.79152" y2="132.55263"/>
<line stroke="#000000" x1="-181.79152" y1="132.55263" x2="-167.34752" y2="93.542015"/>
<line stroke="#000000" x1="-167.34752" y1="93.542015" x2="-183.66034" y2="132.10902"/>
<line stroke="#000000" x1="-183.66034" y1="132.10902" x2="-166.25465" y2="95.16226"/>
<line stroke="#000000" x1="-166.25465" y1="95.16226" x2="-182.58359" y2="132.82536"/>
<line stroke="#000000" x1="-182.58359" y1="132.82536" x2="55.12173" y2="180.28752"/>
<line stroke="#000000" x1="55.12173" y1="180.28752" x2="-184.43579" y2="132.3168"/>
<line stroke="#000000" x1="-184.43579" y1="132.3168" x2="57.42541" y2="171.69008"/>
<line stroke="#000000" x1="57.42541" y1="171.69008" x2="-186.93819" y2="131.7859"/>
<line stroke="#000000" x1="-186.93819" y1="131.7859" x2="59.42764" y2="163.01749"/>
<line stroke="#000000" x1="59.42764" y1="163.01749" x2="-185.21803" y2="132.49739"/>
<line stroke="#000000" x1="-185.21803" y1="132.49739" x2="61.125977" y2="154.28029"/>
<line stroke="#000000" x1="61.125977" y1="154.28029" x2="-186.00609" y2="132.65057"/>
<line stroke="#000000" x1="-186.00609" y1="132.65057" x2="62.518356" y2="145.48914"/>
<line stroke="#000000" x1="62.518356" y1="145.48914" x2="-170.98744" y2="138.18727"/>
<line stroke="#000000" x1="-170.98744" y1="138.18727" x2="63.603085" y2="136.65475"/>
<line stroke="#000000" x1="63.603085" y1="136.65475" x2="52.519413" y2="188.79933"/>
<line stroke="#000000" x1="52.519413" y1="188.79933" x2="64.37883" y2="127.7879"/>
<line stroke="#000000" x1="64.37883" y1="127.7879" x2="49.62162" y2="197.21513"/>
<line stroke="#000000" x1="49.62162" y1="197.21513" x2="64.84466" y2="118.89937"/>
<line stroke="#000000" x1="64.84466" y1="118.89937" x2="46.431885" y2="205.52469"/>
<line stroke="#000000" x1="46.431885" y1="205.52469" x2="64.84466" y2="101.10063"/>
<line stroke="#000000" x1="64.84466" y1="101.10063" x2="42.95409" y2="213.71785"/>
<line stroke="#000000" x1="42.95409" y1="213.71785" x2="64.37883" y2="92.2121"/>
<line stroke="#000000" x1="64.37883" y1="92.2121" x2="39.192482" y2="221.78464"/>
<line stroke="#000000" x1="39.192482" y1="221.78464" x2="63.603085" y2="83.345245"/>
<line stroke="#000000" x1="63.603085" y1="83.345245" x2="-103.595566" y2="228.92549"/>
<line stroke="#000000" x1="-103.595566" y1="228.92549" x2="62.518356" y2="74.51086"/>
<line stroke="#000000" x1="62.518356" y1="74.51086" x2="35.151638" y2="229.71526"/>
<line stroke="#000000" x1="35.151638" y1="229.71526" x2="61.125977" y2="65.71971"/>
<line stroke="#000000" x1="61.125977" y1="65.71971" x2="30.836477" y2="237.5"/>
<line stroke="#000000" x1="30.836477" y1="237.5" x2="59.42764" y2="56.982517"/>
<line stroke="#000000" x1="59.42764" y1="56.982517" x2="26.252264" y2="245.12941"/>
<line stroke="#000000" x1="26.252264" y1="245.12941" x2="57.42541" y2="48.309917"/>
<line stroke="#000000" x1="57.42541" y1="48.309917" x2="21.404581" y2="252.5942"/>
<line stroke="#000000" x1="21.404581" y1="252.5942" x2="55.12173" y2="39.712475"/>
<line stroke="#000000" x1="55.12173" y1="39.712475" x2="16.299334" y2="259.88525"/>
<line stroke="#000000" x1="16.299334" y1="259.88525" x2="52.519413" y2="31.200666"/>
<line stroke="#000000" x1="52.519413" y1="31.200666" x2="10.942742" y2="266.99368"/>
<line stroke="#000000" x1="10.942742" y1="266.99368" x2="49.62162" y2="22.784863"/>
<line stroke="#000000" x1="49.62162" y1="22.784863" x2="5.341333" y2="273.91083"/>
<line stroke="#000000" x1="5.341333" y1="273.91083" x2="46.431885" y2="14.475319"/>
<line stroke="#000000" x1="46.431885" y1="14.475319" x2="-0.4980695" y2="280.6283"/>
<line stroke="#000000" x1="-0.4980695" y1="280.6283" x2="42.95409" y2="6.282156"/>
<line stroke="#000000" x1="42.95409" y1="6.282156" x2="-6.568351" y2="287.13788"/>
<line stroke="#000000" x1="-6.568351" y1="287.13788" x2="39.192482" y2="-1.7846425"/>
<line stroke="#000000" x1="39.192482" y1="-1.7846425" x2="-12.862116" y2="293.43164"/>
<line stroke="#000000" x1="-12.862116" y1="293.43164" x2="35.151638" y2="-9.715248"/>
<line stroke="#000000" x1="35.151638" y1="-9.715248" x2="-19.371695" y2="299.50192"/>
<line stroke="#000000" x1="-19.371695" y1="299.50192" x2="30.836477" y2="-17.5"/>
<line stroke="#000000" x1="30.836477" y1="-17.5" x2="-26.089159" y2="305.34134"/>
<line stroke="#000000" x1="-26.089159" y1="305.34134" x2="21.404581" y2="-32.59419"/>
<line stroke="#000000" x1="21.404581" y1="-32.59419" x2="-33.006325" y2="310.94275"/>
<line stroke="#000000" x1="-33.006325" y1="310.94275" x2="65.0" y2="110.0"/>
<line stroke="#000000" x1="65.0" y1="110.0" x2="-190.0" y2="127.0"/>
<line stroke="#000000" x1="150.26279" y1="-89.262794" x2="195.55742" y2="-107.41484"/>
<line stroke="#000000" x1="195.55742" y1="-107.41484" x2="181.04587" y2="-79.66333"/>
<line stroke="#000000" x1="181.04587" y1="-79.66333" x2="167.10364" y2="-119.49275"/>
<line stroke="#000000" x1="167.10364" y1="-119.49275" x2="181.75938" y2="-77.79897"/>
<line stroke="#000000" x1="181.75938" y1="-77.79897" x2="193.18625" y2="-108.95469"/>
<line stroke="#000000" x1="193.18625" y1="-108.95469" x2="182.38106" y2="-75.93375"/>
<line stroke="#000000" x1="182.38106" y1="-75.93375" x2="190.76279" y2="-110.41085"/>
<line stroke="#000000" x1="190.76279" y1="-110.41085" x2="183.6064" y2="-74.79111"/>
<line stroke="#000000" x1="183.6064" y1="-74.79111" x2="180.98053" y2="-116.29187"/>
<line stroke="#000000" x1="180.98053" y1="-116.29187" x2="184.7911" y2="-73.6064"/>
<line stroke="#000000" x1="184.7911" y1="-73.6064" x2="183.6152" y2="-115.17352"/>
<line stroke="#000000" x1="183.6152" y1="-115.17352" x2="186.6769" y2="-73.05019"/>
<line stroke="#000000" x1="186.6769" y1="-73.05019" x2="188.75946" y2="-112.6645"/>
<line stroke="#000000" x1="188.75946" y1="-112.6645" x2="187.03293" y2="-71.1166"/>
<line stroke="#000000" x1="187.03293" y1="-71.1166" x2="178.30844" y2="-117.31759"/>
<line stroke="#000000" x1="178.30844" y1="-117.31759" x2="193.60338" y2="-74.124176"/>
<line stroke="#000000" x1="193.60338" y1="-74.124176" x2="186.20923" y2="-113.963905"/>
<line stroke="#000000" x1="186.20923" y1="-113.963905" x2="189.90463" y2="-69.06427"/>
<line stroke="#000000" x1="189.90463" y1="-69.06427" x2="175.60219" y2="-118.24943"/>
<line stroke="#000000" x1="175.60219" y1="-118.24943" x2="204.97928" y2="-77.169525"/>
<line stroke="#000000" x1="204.97928" y1="-77.169525" x2="172.86505" y2="-119.08625"/>
<line stroke="#000000" x1="172.86505" y1="-119.08625" x2="222.1429" y2="-81.762794"/>
<line stroke="#000000" x1="222.1429" y1="-81.762794" x2="170.10039" y2="-119.82704"/>
<line stroke="#000000" x1="170.10039" y1="-119.82704" x2="223.54744" y2="-79.228935"/>
<line stroke="#000000" x1="223.54744" y1="-79.228935" x2="161.81416" y2="-122.45505"/>
<line stroke="#000000" x1="161.81416" y1="-122.45505" x2="225.76149" y2="-77.08597"/>
<line stroke="#000000" x1="225.76149" y1="-77.08597" x2="153.19435" y2="-124.211624"/>
<line stroke="#000000" x1="153.19435" y1="-124.211624" x2="227.00061" y2="-74.42867"/>
<line stroke="#000000" x1="227.00061" y1="-74.42867" x2="164.6756" y2="-122.00184"/>
<line stroke="#000000" x1="164.6756" y1="-122.00184" x2="230.9278" y2="-72.85357"/>
<line stroke="#000000" x1="230.9278" y1="-72.85357" x2="159.04318" y2="-123.802635"/>
<line stroke="#000000" x1="159.04318" y1="-123.802635" x2="232.95575" y2="-70.360565"/>
<line stroke="#000000" x1="232.95575" y1="-70.360565" x2="156.12234" y2="-124.058174"/>
<line stroke="#000000" x1="156.12234" y1="-124.058174" x2="220.65079" y2="-84.24609"/>
<line stroke="#000000" x1="220.65079" y1="-84.24609" x2="356.56213" y2="109.622444"/>
<line stroke="#000000" x1="356.56213" y1="109.622444" x2="198.46118" y2="-106.60219"/>
<line stroke="#000000" x1="198.46118" y1="-106.60219" x2="361.6674" y2="102.3314"/>
<line stroke="#000000" x1="361.6674" y1="102.3314" x2="171.51213" y2="-8.759367"/>
<line stroke="#000000" x1="171.51213" y1="-8.759367" x2="366.51505" y2="94.866615"/>
<line stroke="#000000" x1="366.51505" y1="94.866615" x2="170.92964" y2="-7.1889186"/>
<line stroke="#000000" x1="170.92964" y1="-7.1889186" x2="371.09927" y2="87.237206"/>
<line stroke="#000000" x1="371.09927" y1="87.237206" x2="169.51112" y2="-4.061943"/>
<line stroke="#000000" x1="169.51112" y1="-4.061943" x2="375.41443" y2="79.45245"/>
<line stroke="#000000" x1="375.41443" y1="79.45245" x2="168.67438" y2="-2.5134444"/>
<line stroke="#000000" x1="168.67438" y1="-2.5134444" x2="379.45526" y2="71.52185"/>
<line stroke="#000000" x1="379.45526" y1="71.52185" x2="167.86931" y2="3.3148468"/>
<line stroke="#000000" x1="167.86931" y1="3.3148468" x2="383.2169" y2="63.45505"/>
<line stroke="#000000" x1="383.2169" y1="63.45505" x2="351.20554" y2="116.73088"/>
<line stroke="#000000" x1="351.20554" y1="116.73088" x2="386.69467" y2="55.261887"/>
<line stroke="#000000" x1="386.69467" y1="55.261887" x2="345.60413" y2="123.64805"/>
<line stroke="#000000" x1="345.60413" y1="123.64805" x2="389.8844" y2="46.952343"/>
<line stroke="#000000" x1="389.8844" y1="46.952343" x2="339.76474" y2="130.36551"/>
<line stroke="#000000" x1="339.76474" y1="130.36551" x2="392.7822" y2="38.53654"/>
<line stroke="#000000" x1="392.7822" y1="38.53654" x2="333.69446" y2="136.87509"/>
<line stroke="#000000" x1="333.69446" y1="136.87509" x2="395.38452" y2="30.02473"/>
<line stroke="#000000" x1="395.38452" y1="30.02473" x2="154.10175" y2="69.6702"/>
<line stroke="#000000" x1="154.10175" y1="69.6702" x2="397.6882" y2="21.427288"/>
<line stroke="#000000" x1="397.6882" y1="21.427288" x2="327.40067" y2="143.16885"/>
<line stroke="#000000" x1="327.40067" y1="143.16885" x2="399.69043" y2="12.754686"/>
<line stroke="#000000" x1="399.69043" y1="12.754686" x2="237.76279" y2="111.29165"/>
<line stroke="#000000" x1="237.76279" y1="111.29165" x2="401.38876" y2="4.017491"/>
<line stroke="#000000" x1="401.38876" y1="4.017491" x2="219.40802" y2="115.03993"/>
<line stroke="#000000" x1="219.40802" y1="115.03993" x2="402.78116" y2="-4.7736535"/>
<line stroke="#000000" x1="402.78116" y1="-4.7736535" x2="320.8911" y2="149.23914"/>
<line stroke="#000000" x1="320.8911" y1="149.23914" x2="403.86588" y2="-13.608036"/>
<line stroke="#000000" x1="403.86588" y1="-13.608036" x2="314.17365" y2="155.07854"/>
<line stroke="#000000" x1="314.17365" y1="155.07854" x2="404.64163" y2="-22.474894"/>
<line stroke="#000000" x1="404.64163" y1="-22.474894" x2="307.25647" y2="160.67995"/>
<line stroke="#000000" x1="307.25647" y1="160.67995" x2="405.10745" y2="-31.363422"/>
<line stroke="#000000" x1="405.10745" y1="-31.363422" x2="300.14804" y2="166.03654"/>
<line stroke="#000000" x1="300.14804" y1="166.03654" x2="405.10745" y2="-49.162167"/>
<line stroke="#000000" x1="405.10745" y1="-49.162167" x2="237.47794" y2="199.35883"/>
<line stroke="#000000" x1="237.47794" y1="199.35883" x2="392.7822" y2="-119.062126"/>
<line stroke="#000000" x1="392.7822" y1="-119.062126" x2="229.06213" y2="202.25662"/>
<line stroke="#000000" x1="229.06213" y1="202.25662" x2="395.38452" y2="-110.55032"/>
<line stroke="#000000" x1="395.38452" y1="-110.55032" x2="220.55032" y2="204.85893"/>
<line stroke="#000000" x1="220.55032" y1="204.85893" x2="397.6882" y2="-101.95288"/>
<line stroke="#000000" x1="397.6882" y1="-101.95288" x2="211.95288" y2="207.16261"/>
<line stroke="#000000" x1="211.95288" y1="207.16261" x2="399.69043" y2="-93.28027"/>
<line stroke="#000000" x1="399.69043" y1="-93.28027" x2="203.28027" y2="209.16484"/>
<line stroke="#000000" x1="203.28027" y1="209.16484" x2="401.38876" y2="-84.54308"/>
<line stroke="#000000" x1="401.38876" y1="-84.54308" x2="194.54308" y2="210.86319"/>
<line stroke="#000000" x1="194.54308" y1="210.86319" x2="402.78116" y2="-75.75194"/>
<line stroke="#000000" x1="402.78116" y1="-75.75194" x2="185.75194" y2="212.25557"/>
<line stroke="#000000" x1="185.75194" y1="212.25557" x2="403.86588" y2="-66.91755"/>
<line stroke="#000000" x1="403.86588" y1="-66.91755" x2="176.91756" y2="213.34029"/>
<line stroke="#000000" x1="176.91756" y1="213.34029" x2="404.64163" y2="-58.050694"/>
<line stroke="#000000" x1="404.64163" y1="-58.050694" x2="168.05069" y2="214.11604"/>
<line stroke="#000000" x1="168.05069" y1="214.11604" x2="405.2628" y2="-40.262794"/>
<line stroke="#000000" x1="405.2628" y1="-40.262794" x2="150.26279" y2="54.737206"/>
</g>
</svg>
