<svg xmlns="http://www.w3.org/2000/svg" width="2000.0px" height="2000.0px" viewBox="-800.0 -800.0 2000.0 2000.0">
<g>
<line stroke="#000000" x1="300.0" y1="1285.0" x2="305.9293" y2="1284.793"/>
<line stroke="#000000" x1="305.9293" y1="1284.793" x2="308.98944" y2="1285.5289"/>
<line stroke="#000000" x1="308.98944" y1="1285.5289" x2="326.57547" y2="1281.7909"/>
<line stroke="#000000" x1="326.57547" y1="1281.7909" x2="329.75574" y2="1281.7533"/>
<line stroke="#000000" x1="329.75574" y1="1281.7533" x2="343.5" y2="1275.3442"/>
<line stroke="#000000" x1="343.5" y1="1275.3442" x2="346.6329" y2="1274.6282"/>
<line stroke="#000000" x1="346.6329" y1="1274.6282" x2="362.51926" y2="1264.7406"/>
<line stroke="#000000" x1="362.51926" y1="1264.7406" x2="364.74057" y2="1262.5193"/>
<line stroke="#000000" x1="364.74057" y1="1262.5193" x2="383.97537" y2="1275.6118"/>
<line stroke="#000000" x1="383.97537" y1="1275.6118" x2="390.6099" y2="1265.8319"/>
<line stroke="#000000" x1="390.6099" y1="1265.8319" x2="375.4424" y2="1250.8866"/>
<line stroke="#000000" x1="375.4424" y1="1250.8866" x2="397.86087" y2="1256.5"/>
<line stroke="#000000" x1="397.86087" y1="1256.5" x2="401.56372" y2="1249.5359"/>
<line stroke="#000000" x1="401.56372" y1="1249.5359" x2="404.1442" y2="1246.3679"/>
<line stroke="#000000" x1="404.1442" y1="1246.3679" x2="407.12497" y2="1238.9902"/>
<line stroke="#000000" x1="407.12497" y1="1238.9902" x2="411.50635" y2="1231.9739"/>
<line stroke="#000000" x1="411.50635" y1="1231.9739" x2="414.44327" y2="1224.3257"/>
<line stroke="#000000" x1="414.44327" y1="1224.3257" x2="551.126" y2="1244.2803"/>
<line stroke="#000000" x1="551.126" y1="1244.2803" x2="554.37885" y2="1217.7878"/>
<line stroke="#000000" x1="554.37885" y1="1217.7878" x2="555.0" y2="1200.0"/>
<line stroke="#000000" x1="555.0" y1="1200.0" x2="553.6031" y2="1173.3452"/>
<line stroke="#000000" x1="553.6031" y1="1173.3452" x2="549.4276" y2="1146.9825"/>
<line stroke="#000000" x1="549.4276" y1="1146.9825" x2="545.1217" y2="1129.7125"/>
<line stroke="#000000" x1="545.1217" y1="1129.7125" x2="536.4319" y2="1104.4753"/>
<line stroke="#000000" x1="536.4319" y1="1104.4753" x2="525.1516" y2="1080.2848"/>
<line stroke="#000000" x1="525.1516" y1="1080.2848" x2="511.40457" y2="1057.4058"/>
<line stroke="#000000" x1="511.40457" y1="1057.4058" x2="355.94876" y2="1156.2881"/>
<line stroke="#000000" x1="355.94876" y1="1156.2881" x2="349.63446" y2="1152.0686"/>
<line stroke="#000000" x1="349.63446" y1="1152.0686" x2="346.83914" y2="1147.9799"/>
<line stroke="#000000" x1="346.83914" y1="1147.9799" x2="343.0963" y2="1144.8392"/>
<line stroke="#000000" x1="343.0963" y1="1144.8392" x2="332.39352" y2="1139.0767"/>
<line stroke="#000000" x1="332.39352" y1="1139.0767" x2="330.68597" y2="1137.0845"/>
<line stroke="#000000" x1="330.68597" y1="1137.0845" x2="325.84787" y2="1136.0243"/>
<line stroke="#000000" x1="325.84787" y1="1136.0243" x2="316.3779" y2="1149.594"/>
<line stroke="#000000" x1="316.3779" y1="1149.594" x2="309.0297" y2="1148.79"/>
<line stroke="#000000" x1="309.0297" y1="1148.79" x2="301.77988" y2="1149.031"/>
<line stroke="#000000" x1="301.77988" y1="1149.031" x2="300.0" y2="1150.0"/>
<line stroke="#000000" x1="300.0" y1="1150.0" x2="626.9799" y2="1399.8782"/>
<line stroke="#000000" x1="626.9799" y1="1399.8782" x2="647.8346" y2="1398.0536"/>
<line stroke="#000000" x1="647.8346" y1="1398.0536" x2="661.37445" y2="1394.6514"/>
<line stroke="#000000" x1="661.37445" y1="1394.6514" x2="668.6263" y2="1395.0294"/>
<line stroke="#000000" x1="668.6263" y1="1395.0294" x2="682.1124" y2="1391.1624"/>
<line stroke="#000000" x1="682.1124" y1="1391.1624" x2="689.4301" y2="1390.7576"/>
<line stroke="#000000" x1="689.4301" y1="1390.7576" x2="708.55096" y2="1381.5564"/>
<line stroke="#000000" x1="708.55096" y1="1381.5564" x2="747.5" y2="1420.8364"/>
<line stroke="#000000" x1="747.5" y1="1420.8364" x2="762.5942" y2="1411.4045"/>
<line stroke="#000000" x1="762.5942" y1="1411.4045" x2="776.99365" y2="1400.9427"/>
<line stroke="#000000" x1="776.99365" y1="1400.9427" x2="797.1379" y2="1383.4316"/>
<line stroke="#000000" x1="797.1379" y1="1383.4316" x2="815.3413" y2="1363.9109"/>
<line stroke="#000000" x1="815.3413" y1="1363.9109" x2="831.4046" y2="1342.5942"/>
<line stroke="#000000" x1="831.4046" y1="1342.5942" x2="840.8365" y2="1327.5"/>
<line stroke="#000000" x1="840.8365" y1="1327.5" x2="852.9541" y2="1303.7179"/>
<line stroke="#000000" x1="852.9541" y1="1303.7179" x2="862.5194" y2="1278.7993"/>
<line stroke="#000000" x1="862.5194" y1="1278.7993" x2="869.4276" y2="1253.0175"/>
<line stroke="#000000" x1="869.4276" y1="1253.0175" x2="635.7569" y2="1202.7783"/>
<line stroke="#000000" x1="635.7569" y1="1202.7783" x2="873.6031" y2="1226.6548"/>
<line stroke="#000000" x1="873.6031" y1="1226.6548" x2="874.84467" y2="1208.8994"/>
<line stroke="#000000" x1="874.84467" y1="1208.8994" x2="874.84467" y2="1191.1006"/>
<line stroke="#000000" x1="874.84467" y1="1191.1006" x2="872.5184" y2="1164.5109"/>
<line stroke="#000000" x1="872.5184" y1="1164.5109" x2="867.4254" y2="1138.3099"/>
<line stroke="#000000" x1="867.4254" y1="1138.3099" x2="859.62164" y2="1112.7849"/>
<line stroke="#000000" x1="859.62164" y1="1112.7849" x2="852.9541" y2="1096.2821"/>
<line stroke="#000000" x1="852.9541" y1="1096.2821" x2="845.1516" y2="1080.2848"/>
<line stroke="#000000" x1="845.1516" y1="1080.2848" x2="831.4046" y2="1057.4058"/>
<line stroke="#000000" x1="831.4046" y1="1057.4058" x2="820.94275" y2="1043.0063"/>
<line stroke="#000000" x1="820.94275" y1="1043.0063" x2="809.50195" y2="1029.3717"/>
<line stroke="#000000" x1="809.50195" y1="1029.3717" x2="790.6283" y2="1010.49805"/>
<line stroke="#000000" x1="790.6283" y1="1010.49805" x2="776.99365" y2="999.05725"/>
<line stroke="#000000" x1="776.99365" y1="999.05725" x2="762.5942" y2="988.5954"/>
<line stroke="#000000" x1="762.5942" y1="988.5954" x2="652.3251" y2="1148.269"/>
<line stroke="#000000" x1="652.3251" y1="1148.269" x2="747.5" y2="979.1635"/>
<line stroke="#000000" x1="747.5" y1="979.1635" x2="644.9872" y2="1148.7688"/>
<line stroke="#000000" x1="644.9872" y1="1148.7688" x2="636.6869" y2="1148.643"/>
<line stroke="#000000" x1="636.6869" y1="1148.643" x2="633.0638" y2="1147.604"/>
<line stroke="#000000" x1="633.0638" y1="1147.604" x2="627.37616" y2="1147.5157"/>
<line stroke="#000000" x1="627.37616" y1="1147.5157" x2="625.4355" y2="1148.2849"/>
<line stroke="#000000" x1="625.4355" y1="1148.2849" x2="620.0" y2="1147.0"/>
<line stroke="#000000" x1="620.0" y1="1147.0" x2="781.0121" y2="1228.9823"/>
<line stroke="#000000" x1="781.0121" y1="1228.9823" x2="784.8621" y2="1227.5746"/>
<line stroke="#000000" x1="784.8621" y1="1227.5746" x2="786.0294" y2="1228.3663"/>
<line stroke="#000000" x1="786.0294" y1="1228.3663" x2="787.71783" y2="1226.9153"/>
<line stroke="#000000" x1="787.71783" y1="1226.9153" x2="806.88446" y2="1282.742"/>
<line stroke="#000000" x1="806.88446" y1="1282.742" x2="792.73663" y2="1231.5243"/>
<line stroke="#000000" x1="792.73663" y1="1231.5243" x2="808.9325" y2="1259.3204"/>
<line stroke="#000000" x1="808.9325" y1="1259.3204" x2="802.5" y2="1238.9712"/>
<line stroke="#000000" x1="802.5" y1="1238.9712" x2="812.3251" y2="1251.731"/>
<line stroke="#000000" x1="812.3251" y1="1251.731" x2="805.7229" y2="1238.1357"/>
<line stroke="#000000" x1="805.7229" y1="1238.1357" x2="840.5419" y2="1283.3287"/>
<line stroke="#000000" x1="840.5419" y1="1283.3287" x2="826.2807" y2="1255.1552"/>
<line stroke="#000000" x1="826.2807" y1="1255.1552" x2="827.5083" y2="1252.7633"/>
<line stroke="#000000" x1="827.5083" y1="1252.7633" x2="948.1073" y2="1374.0802"/>
<line stroke="#000000" x1="948.1073" y1="1374.0802" x2="969.50195" y2="1370.6283"/>
<line stroke="#000000" x1="969.50195" y1="1370.6283" x2="980.94275" y2="1356.9937"/>
<line stroke="#000000" x1="980.94275" y1="1356.9937" x2="836.63116" y2="1241.145"/>
<line stroke="#000000" x1="836.63116" y1="1241.145" x2="991.4046" y2="1342.5942"/>
<line stroke="#000000" x1="991.4046" y1="1342.5942" x2="803.74536" y2="1214.8378"/>
<line stroke="#000000" x1="803.74536" y1="1214.8378" x2="1005.1516" y2="1319.7152"/>
<line stroke="#000000" x1="1005.1516" y1="1319.7152" x2="843.9482" y2="1228.4716"/>
<line stroke="#000000" x1="843.9482" y1="1228.4716" x2="847.33826" y2="1209.4637"/>
<line stroke="#000000" x1="847.33826" y1="1209.4637" x2="847.95856" y2="1197.6268"/>
<line stroke="#000000" x1="847.95856" y1="1197.6268" x2="822.89526" y2="1197.0005"/>
<line stroke="#000000" x1="822.89526" y1="1197.0005" x2="847.33826" y2="1190.5363"/>
<line stroke="#000000" x1="847.33826" y1="1190.5363" x2="845.3658" y2="1181.2567"/>
<line stroke="#000000" x1="845.3658" y1="1181.2567" x2="841.118" y2="1170.1908"/>
<line stroke="#000000" x1="841.118" y1="1170.1908" x2="803.8396" y2="1187.3242"/>
<line stroke="#000000" x1="803.8396" y1="1187.3242" x2="838.5153" y2="1163.4355"/>
<line stroke="#000000" x1="838.5153" y1="1163.4355" x2="836.63116" y2="1158.855"/>
<line stroke="#000000" x1="836.63116" y1="1158.855" x2="837.5248" y2="1155.0568"/>
<line stroke="#000000" x1="837.5248" y1="1155.0568" x2="833.6231" y2="1155.0049"/>
<line stroke="#000000" x1="833.6231" y1="1155.0049" x2="803.01886" y2="1177.7709"/>
<line stroke="#000000" x1="803.01886" y1="1177.7709" x2="806.7652" y2="1170.2742"/>
<line stroke="#000000" x1="806.7652" y1="1170.2742" x2="831.42303" y2="1138.7164"/>
<line stroke="#000000" x1="831.42303" y1="1138.7164" x2="829.2529" y2="1136.9591"/>
<line stroke="#000000" x1="829.2529" y1="1136.9591" x2="821.38025" y2="1138.6512"/>
<line stroke="#000000" x1="821.38025" y1="1138.6512" x2="810.7353" y2="1150.8132"/>
<line stroke="#000000" x1="810.7353" y1="1150.8132" x2="806.2904" y2="1150.5549"/>
<line stroke="#000000" x1="806.2904" y1="1150.5549" x2="799.15314" y2="1147.3772"/>
<line stroke="#000000" x1="799.15314" y1="1147.3772" x2="788.65247" y2="1173.3704"/>
<line stroke="#000000" x1="788.65247" y1="1173.3704" x2="793.3057" y2="1146.6338"/>
<line stroke="#000000" x1="793.3057" y1="1146.6338" x2="789.55066" y2="1145.8356"/>
<line stroke="#000000" x1="789.55066" y1="1145.8356" x2="787.5153" y2="1146.5255"/>
<line stroke="#000000" x1="787.5153" y1="1146.5255" x2="785.7491" y2="1145.3013"/>
<line stroke="#000000" x1="785.7491" y1="1145.3013" x2="782.02295" y2="1171.0707"/>
<line stroke="#000000" x1="782.02295" y1="1171.0707" x2="780.0" y2="1146.0"/>
<line stroke="#000000" x1="780.0" y1="1146.0" x2="330.0" y2="1637.0"/>
<line stroke="#000000" x1="330.0" y1="1637.0" x2="327.74258" y2="1637.1975"/>
<line stroke="#000000" x1="327.74258" y1="1637.1975" x2="325.86545" y2="1635.581"/>
<line stroke="#000000" x1="325.86545" y1="1635.581" x2="322.95792" y2="1636.7559"/>
<line stroke="#000000" x1="322.95792" y1="1636.7559" x2="317.28195" y2="1629.6469"/>
<line stroke="#000000" x1="317.28195" y1="1629.6469" x2="315.89316" y2="1630.5836"/>
<line stroke="#000000" x1="315.89316" y1="1630.5836" x2="173.00632" y2="1449.0573"/>
<line stroke="#000000" x1="173.00632" y1="1449.0573" x2="152.86212" y2="1466.5684"/>
<line stroke="#000000" x1="152.86212" y1="1466.5684" x2="134.65866" y2="1486.0891"/>
<line stroke="#000000" x1="134.65866" y1="1486.0891" x2="153.4856" y2="1512.0918"/>
<line stroke="#000000" x1="153.4856" y1="1512.0918" x2="118.59542" y2="1507.4058"/>
<line stroke="#000000" x1="118.59542" y1="1507.4058" x2="109.16352" y2="1522.5"/>
<line stroke="#000000" x1="109.16352" y1="1522.5" x2="100.80752" y2="1538.2153"/>
<line stroke="#000000" x1="100.80752" y1="1538.2153" x2="202.97581" y2="1598.679"/>
<line stroke="#000000" x1="202.97581" y1="1598.679" x2="197.05095" y2="1626.5575"/>
<line stroke="#000000" x1="197.05095" y1="1626.5575" x2="221.07051" y2="1634.6909"/>
<line stroke="#000000" x1="221.07051" y1="1634.6909" x2="196.32642" y2="1640.6526"/>
<line stroke="#000000" x1="196.32642" y1="1640.6526" x2="195.73955" y2="1664.1113"/>
<line stroke="#000000" x1="195.73955" y1="1664.1113" x2="198.03577" y2="1673.2688"/>
<line stroke="#000000" x1="198.03577" y1="1673.2688" x2="200.22968" y2="1687.211"/>
<line stroke="#000000" x1="200.22968" y1="1687.211" x2="228.23695" y2="1683.0648"/>
<line stroke="#000000" x1="228.23695" y1="1683.0648" x2="203.1415" y2="1696.1727"/>
<line stroke="#000000" x1="203.1415" y1="1696.1727" x2="305.33426" y2="1660.9819"/>
<line stroke="#000000" x1="305.33426" y1="1660.9819" x2="207.764" y2="1709.6184"/>
<line stroke="#000000" x1="207.764" y1="1709.6184" x2="307.04337" y2="1662.2063"/>
<line stroke="#000000" x1="307.04337" y1="1662.2063" x2="198.55255" y2="1732.1375"/>
<line stroke="#000000" x1="198.55255" y1="1732.1375" x2="214.06941" y2="1754.3844"/>
<line stroke="#000000" x1="214.06941" y1="1754.3844" x2="146.56834" y2="1827.138"/>
<line stroke="#000000" x1="146.56834" y1="1827.138" x2="159.37169" y2="1839.502"/>
<line stroke="#000000" x1="159.37169" y1="1839.502" x2="173.00632" y2="1850.9427"/>
<line stroke="#000000" x1="173.00632" y1="1850.9427" x2="238.3055" y2="1776.2067"/>
<line stroke="#000000" x1="238.3055" y1="1776.2067" x2="187.4058" y2="1861.4045"/>
<line stroke="#000000" x1="187.4058" y1="1861.4045" x2="290.5" y2="1718.416"/>
<line stroke="#000000" x1="290.5" y1="1718.416" x2="297.12216" y2="1717.4095"/>
<line stroke="#000000" x1="297.12216" y1="1717.4095" x2="317.32367" y2="1721.891"/>
<line stroke="#000000" x1="317.32367" y1="1721.891" x2="322.47394" y2="1721.6056"/>
<line stroke="#000000" x1="322.47394" y1="1721.6056" x2="324.90778" y2="1722.8223"/>
<line stroke="#000000" x1="324.90778" y1="1722.8223" x2="330.0" y2="1722.0"/>
<line stroke="#000000" x1="330.0" y1="1722.0" x2="271.10062" y2="1445.1553"/>
<line stroke="#000000" x1="271.10062" y1="1445.1553" x2="268.60638" y2="1591.5972"/>
<line stroke="#000000" x1="268.60638" y1="1591.5972" x2="261.07236" y2="1592.656"/>
<line stroke="#000000" x1="261.07236" y1="1592.656" x2="257.54553" y2="1594.3601"/>
<line stroke="#000000" x1="257.54553" y1="1594.3601" x2="253.63051" y2="1594.2378"/>
<line stroke="#000000" x1="253.63051" y1="1594.2378" x2="246.62616" y2="1597.2859"/>
<line stroke="#000000" x1="246.62616" y1="1597.2859" x2="238.79327" y2="1598.0098"/>
<line stroke="#000000" x1="238.79327" y1="1598.0098" x2="176.28215" y2="1467.0459"/>
<line stroke="#000000" x1="176.28215" y1="1467.0459" x2="250.19077" y2="1638.8821"/>
<line stroke="#000000" x1="250.19077" y1="1638.8821" x2="152.5" y2="1479.1636"/>
<line stroke="#000000" x1="152.5" y1="1479.1636" x2="130.11476" y2="1493.7007"/>
<line stroke="#000000" x1="130.11476" y1="1493.7007" x2="116.08916" y2="1504.6587"/>
<line stroke="#000000" x1="116.08916" y1="1504.6587" x2="102.862114" y2="1516.5684"/>
<line stroke="#000000" x1="102.862114" y1="1516.5684" x2="90.49807" y2="1529.3717"/>
<line stroke="#000000" x1="90.49807" y1="1529.3717" x2="79.05726" y2="1543.0063"/>
<line stroke="#000000" x1="79.05726" y1="1543.0063" x2="68.59542" y2="1557.4058"/>
<line stroke="#000000" x1="68.59542" y1="1557.4058" x2="59.16352" y2="1572.5"/>
<line stroke="#000000" x1="59.16352" y1="1572.5" x2="192.5882" y2="1653.5223"/>
<line stroke="#000000" x1="192.5882" y1="1653.5223" x2="50.807518" y2="1588.2153"/>
<line stroke="#000000" x1="50.807518" y1="1588.2153" x2="199.608" y2="1664.2072"/>
<line stroke="#000000" x1="199.608" y1="1664.2072" x2="43.568115" y2="1604.4753"/>
<line stroke="#000000" x1="43.568115" y1="1604.4753" x2="198.20914" y2="1673.4246"/>
<line stroke="#000000" x1="198.20914" y1="1673.4246" x2="195.20706" y2="1694.0707"/>
<line stroke="#000000" x1="195.20706" y1="1694.0707" x2="195.46564" y2="1708.8849"/>
<line stroke="#000000" x1="195.46564" y1="1708.8849" x2="200.26219" y2="1732.2162"/>
<line stroke="#000000" x1="200.26219" y1="1732.2162" x2="205.37177" y2="1746.6328"/>
<line stroke="#000000" x1="205.37177" y1="1746.6328" x2="186.31876" y2="1763.1887"/>
<line stroke="#000000" x1="186.31876" y1="1763.1887" x2="196.02463" y2="1775.6118"/>
<line stroke="#000000" x1="196.02463" y1="1775.6118" x2="207.365" y2="1786.563"/>
<line stroke="#000000" x1="207.365" y1="1786.563" x2="255.37354" y2="1731.5205"/>
<line stroke="#000000" x1="255.37354" y1="1731.5205" x2="216.8112" y2="1793.6813"/>
<line stroke="#000000" x1="216.8112" y1="1793.6813" x2="219.5892" y2="1796.6775"/>
<line stroke="#000000" x1="219.5892" y1="1796.6775" x2="227.41919" y2="1798.8901"/>
<line stroke="#000000" x1="227.41919" y1="1798.8901" x2="249.90149" y2="1767.6023"/>
<line stroke="#000000" x1="249.90149" y1="1767.6023" x2="257.75076" y2="1768.4761"/>
<line stroke="#000000" x1="257.75076" y1="1768.4761" x2="265.03036" y2="1770.4266"/>
<line stroke="#000000" x1="265.03036" y1="1770.4266" x2="280.0" y2="1771.0"/>
<line stroke="#000000" x1="280.0" y1="1771.0" x2="8.899372" y2="1454.8447"/>
<line stroke="#000000" x1="8.899372" y1="1454.8447" x2="35.48914" y2="1452.5183"/>
<line stroke="#000000" x1="35.48914" y1="1452.5183" x2="61.690083" y2="1447.4254"/>
<line stroke="#000000" x1="61.690083" y1="1447.4254" x2="78.79933" y2="1442.5194"/>
<line stroke="#000000" x1="78.79933" y1="1442.5194" x2="95.52468" y2="1436.4319"/>
<line stroke="#000000" x1="95.52468" y1="1436.4319" x2="119.71525" y2="1425.1516"/>
<line stroke="#000000" x1="119.71525" y1="1425.1516" x2="45.0" y2="1277.9423"/>
<line stroke="#000000" x1="45.0" y1="1277.9423" x2="135.12941" y2="1416.2522"/>
<line stroke="#000000" x1="135.12941" y1="1416.2522" x2="32.992382" y2="1248.9132"/>
<line stroke="#000000" x1="32.992382" y1="1248.9132" x2="156.99368" y2="1400.9427"/>
<line stroke="#000000" x1="156.99368" y1="1400.9427" x2="62.229145" y2="1269.1124"/>
<line stroke="#000000" x1="62.229145" y1="1269.1124" x2="20.141514" y2="1219.4504"/>
<line stroke="#000000" x1="20.141514" y1="1219.4504" x2="22.981333" y2="1219.2836"/>
<line stroke="#000000" x1="22.981333" y1="1219.2836" x2="84.946785" y2="1261.7174"/>
<line stroke="#000000" x1="84.946785" y1="1261.7174" x2="128.50082" y2="1286.6749"/>
<line stroke="#000000" x1="128.50082" y1="1286.6749" x2="25.980762" y2="1215.0"/>
<line stroke="#000000" x1="25.980762" y1="1215.0" x2="225.15164" y2="1319.7152"/>
<line stroke="#000000" x1="225.15164" y1="1319.7152" x2="31.060545" y2="1213.8291"/>
<line stroke="#000000" x1="31.060545" y1="1213.8291" x2="186.36395" y2="1275.2959"/>
<line stroke="#000000" x1="186.36395" y1="1275.2959" x2="31.009857" y2="1211.2866"/>
<line stroke="#000000" x1="31.009857" y1="1211.2866" x2="201.86496" y2="1257.8838"/>
<line stroke="#000000" x1="201.86496" y1="1257.8838" x2="98.79291" y2="1220.999"/>
<line stroke="#000000" x1="98.79291" y1="1220.999" x2="90.60231" y2="1215.9756"/>
<line stroke="#000000" x1="90.60231" y1="1215.9756" x2="218.79482" y2="1222.9962"/>
<line stroke="#000000" x1="218.79482" y1="1222.9962" x2="254.37883" y2="1217.7878"/>
<line stroke="#000000" x1="254.37883" y1="1217.7878" x2="255.0" y2="1200.0"/>
<line stroke="#000000" x1="255.0" y1="1200.0" x2="60.96284" y2="1197.8711"/>
<line stroke="#000000" x1="60.96284" y1="1197.8711" x2="253.60309" y2="1173.3452"/>
<line stroke="#000000" x1="253.60309" y1="1173.3452" x2="249.42764" y2="1146.9825"/>
<line stroke="#000000" x1="249.42764" y1="1146.9825" x2="89.267204" y2="1177.7432"/>
<line stroke="#000000" x1="89.267204" y1="1177.7432" x2="242.51941" y2="1121.2007"/>
<line stroke="#000000" x1="242.51941" y1="1121.2007" x2="232.95409" y2="1096.2821"/>
<line stroke="#000000" x1="232.95409" y1="1096.2821" x2="83.587845" y2="1159.2314"/>
<line stroke="#000000" x1="83.587845" y1="1159.2314" x2="220.83647" y2="1072.5"/>
<line stroke="#000000" x1="220.83647" y1="1072.5" x2="206.29933" y2="1050.1147"/>
<line stroke="#000000" x1="206.29933" y1="1050.1147" x2="195.34134" y2="1036.0891"/>
<line stroke="#000000" x1="195.34134" y1="1036.0891" x2="183.43166" y2="1022.8621"/>
<line stroke="#000000" x1="183.43166" y1="1022.8621" x2="170.62831" y2="1010.49805"/>
<line stroke="#000000" x1="170.62831" y1="1010.49805" x2="156.99368" y2="999.05725"/>
<line stroke="#000000" x1="156.99368" y1="999.05725" x2="135.12941" y2="983.74774"/>
<line stroke="#000000" x1="135.12941" y1="983.74774" x2="76.0" y2="1068.3641"/>
<line stroke="#000000" x1="76.0" y1="1068.3641" x2="119.71525" y2="974.8484"/>
<line stroke="#000000" x1="119.71525" y1="974.8484" x2="12.202099" y2="1172.5936"/>
<line stroke="#000000" x1="12.202099" y1="1172.5936" x2="30.781813" y2="1115.4276"/>
<line stroke="#000000" x1="30.781813" y1="1115.4276" x2="18.50414" y2="1112.9448"/>
<line stroke="#000000" x1="18.50414" y1="1112.9448" x2="3.0711558" y2="1112.0536"/>
<line stroke="#000000" x1="3.0711558" y1="1112.0536" x2="0.0" y2="1113.0"/>
<line stroke="#000000" x1="0.0" y1="1113.0" x2="81.38917" y2="1405.9937"/>
<line stroke="#000000" x1="81.38917" y1="1405.9937" x2="64.273476" y2="1404.1818"/>
<line stroke="#000000" x1="64.273476" y1="1404.1818" x2="106.351585" y2="1393.4076"/>
<line stroke="#000000" x1="106.351585" y1="1393.4076" x2="63.911892" y2="1394.4412"/>
<line stroke="#000000" x1="63.911892" y1="1394.4412" x2="61.768616" y2="1389.976"/>
<line stroke="#000000" x1="61.768616" y1="1389.976" x2="62.015514" y2="1387.3638"/>
<line stroke="#000000" x1="62.015514" y1="1387.3638" x2="60.28035" y2="1385.3955"/>
<line stroke="#000000" x1="60.28035" y1="1385.3955" x2="24.184258" y2="1397.3821"/>
<line stroke="#000000" x1="24.184258" y1="1397.3821" x2="125.76669" y2="1345.4312"/>
<line stroke="#000000" x1="125.76669" y1="1345.4312" x2="21.422321" y2="1393.995"/>
<line stroke="#000000" x1="21.422321" y1="1393.995" x2="22.799799" y2="1390.5416"/>
<line stroke="#000000" x1="22.799799" y1="1390.5416" x2="21.330103" y2="1390.1858"/>
<line stroke="#000000" x1="21.330103" y1="1390.1858" x2="29.147514" y2="1380.7123"/>
<line stroke="#000000" x1="29.147514" y1="1380.7123" x2="24.61721" y2="1378.7827"/>
<line stroke="#000000" x1="24.61721" y1="1378.7827" x2="95.14202" y2="1298.2664"/>
<line stroke="#000000" x1="95.14202" y1="1298.2664" x2="152.43524" y2="1208.0522"/>
<line stroke="#000000" x1="152.43524" y1="1208.0522" x2="138.03575" y2="1197.5903"/>
<line stroke="#000000" x1="138.03575" y1="1197.5903" x2="53.20276" y2="1316.5577"/>
<line stroke="#000000" x1="53.20276" y1="1316.5577" x2="122.94156" y2="1188.1584"/>
<line stroke="#000000" x1="122.94156" y1="1188.1584" x2="13.853147" y2="1371.2456"/>
<line stroke="#000000" x1="13.853147" y1="1371.2456" x2="12.524498" y2="1370.626"/>
<line stroke="#000000" x1="12.524498" y1="1370.626" x2="82.65669" y2="1169.3733"/>
<line stroke="#000000" x1="82.65669" y1="1169.3733" x2="5.3645034" y2="1374.3895"/>
<line stroke="#000000" x1="5.3645034" y1="1374.3895" x2="48.45904" y2="1159.5673"/>
<line stroke="#000000" x1="48.45904" y1="1159.5673" x2="9.915562" y2="1306.0071"/>
<line stroke="#000000" x1="9.915562" y1="1306.0071" x2="0.8825637" y2="1331.1849"/>
<line stroke="#000000" x1="0.8825637" y1="1331.1849" x2="-4.558441" y2="1298.995"/>
<line stroke="#000000" x1="-4.558441" y1="1298.995" x2="-13.457813" y2="1154.1503"/>
<line stroke="#000000" x1="-13.457813" y1="1154.1503" x2="-22.346342" y2="1154.6161"/>
<line stroke="#000000" x1="-22.346342" y1="1154.6161" x2="-40.04758" y2="1156.4766"/>
<line stroke="#000000" x1="-40.04758" y1="1156.4766" x2="-30.547403" y2="1286.7266"/>
<line stroke="#000000" x1="-30.547403" y1="1286.7266" x2="-13.751473" y2="1372.1238"/>
<line stroke="#000000" x1="-13.751473" y1="1372.1238" x2="-30.51587" y2="1329.1062"/>
<line stroke="#000000" x1="-30.51587" y1="1329.1062" x2="-29.282476" y2="1347.8008"/>
<line stroke="#000000" x1="-29.282476" y1="1347.8008" x2="-40.943245" y2="1334.395"/>
<line stroke="#000000" x1="-40.943245" y1="1334.395" x2="-50.41226" y2="1341.0139"/>
<line stroke="#000000" x1="-50.41226" y1="1341.0139" x2="-60.825768" y2="1350.7284"/>
<line stroke="#000000" x1="-60.825768" y1="1350.7284" x2="-70.08882" y2="1361.3843"/>
<line stroke="#000000" x1="-70.08882" y1="1361.3843" x2="-78.555626" y2="1376.0493"/>
<line stroke="#000000" x1="-78.555626" y1="1376.0493" x2="-80.58752" y2="1378.2772"/>
<line stroke="#000000" x1="-80.58752" y1="1378.2772" x2="-87.74096" y2="1397.3044"/>
<line stroke="#000000" x1="-87.74096" y1="1397.3044" x2="-87.10376" y2="1400.3191"/>
<line stroke="#000000" x1="-87.10376" y1="1400.3191" x2="-91.55844" y2="1408.995"/>
<line stroke="#000000" x1="-91.55844" y1="1408.995" x2="0.8026884" y2="1222.986"/>
<line stroke="#000000" x1="0.8026884" y1="1222.986" x2="5.5642037" y2="1222.3168"/>
<line stroke="#000000" x1="5.5642037" y1="1222.3168" x2="6.6152964" y2="1223.0703"/>
<line stroke="#000000" x1="6.6152964" y1="1223.0703" x2="12.0" y2="1220.7847"/>
<line stroke="#000000" x1="12.0" y1="1220.7847" x2="13.247982" y2="1221.2012"/>
<line stroke="#000000" x1="13.247982" y1="1221.2012" x2="14.775875" y2="1218.9122"/>
<line stroke="#000000" x1="14.775875" y1="1218.9122" x2="20.06491" y2="1218.0665"/>
<line stroke="#000000" x1="20.06491" y1="1218.0665" x2="19.917156" y2="1216.7125"/>
<line stroke="#000000" x1="19.917156" y1="1216.7125" x2="22.652475" y2="1216.458"/>
<line stroke="#000000" x1="22.652475" y1="1216.458" x2="211.40459" y2="1342.5942"/>
<line stroke="#000000" x1="211.40459" y1="1342.5942" x2="23.745346" y2="1214.8378"/>
<line stroke="#000000" x1="23.745346" y1="1214.8378" x2="220.83647" y2="1327.5"/>
<line stroke="#000000" x1="220.83647" y1="1327.5" x2="229.19247" y2="1311.7847"/>
<line stroke="#000000" x1="229.19247" y1="1311.7847" x2="239.62161" y2="1287.2151"/>
<line stroke="#000000" x1="239.62161" y1="1287.2151" x2="245.12173" y2="1270.2875"/>
<line stroke="#000000" x1="245.12173" y1="1270.2875" x2="251.12598" y2="1244.2803"/>
<line stroke="#000000" x1="251.12598" y1="1244.2803" x2="253.60309" y2="1226.6548"/>
<line stroke="#000000" x1="253.60309" y1="1226.6548" x2="255.0" y2="1200.0"/>
<line stroke="#000000" x1="255.0" y1="1200.0" x2="254.37883" y2="1182.2122"/>
<line stroke="#000000" x1="254.37883" y1="1182.2122" x2="251.12598" y2="1155.7197"/>
<line stroke="#000000" x1="251.12598" y1="1155.7197" x2="247.42542" y2="1138.3099"/>
<line stroke="#000000" x1="247.42542" y1="1138.3099" x2="239.62161" y2="1112.7849"/>
<line stroke="#000000" x1="239.62161" y1="1112.7849" x2="229.19247" y2="1088.2153"/>
<line stroke="#000000" x1="229.19247" y1="1088.2153" x2="216.25226" y2="1064.8706"/>
<line stroke="#000000" x1="216.25226" y1="1064.8706" x2="206.29933" y2="1050.1147"/>
<line stroke="#000000" x1="206.29933" y1="1050.1147" x2="189.50194" y2="1029.3717"/>
<line stroke="#000000" x1="189.50194" y1="1029.3717" x2="177.13788" y2="1016.56836"/>
<line stroke="#000000" x1="177.13788" y1="1016.56836" x2="156.99368" y2="999.05725"/>
<line stroke="#000000" x1="156.99368" y1="999.05725" x2="13.247982" y2="1178.7988"/>
<line stroke="#000000" x1="13.247982" y1="1178.7988" x2="11.267318" y2="1178.8092"/>
<line stroke="#000000" x1="11.267318" y1="1178.8092" x2="7.416408" y2="1177.1747"/>
<line stroke="#000000" x1="7.416408" y1="1177.1747" x2="3.9939082" y2="1177.3494"/>
<line stroke="#000000" x1="3.9939082" y1="1177.3494" x2="1.8815123" y2="1182.0986"/>
<line stroke="#000000" x1="1.8815123" y1="1182.0986" x2="2.842171E-14" y2="1183.0"/>
<line stroke="#000000" x1="2.842171E-14" y1="1183.0" x2="79.02676" y2="1504.776"/>
<line stroke="#000000" x1="79.02676" y1="1504.776" x2="82.30537" y2="1509.6367"/>
<line stroke="#000000" x1="82.30537" y1="1509.6367" x2="86.68111" y2="1513.6141"/>
<line stroke="#000000" x1="86.68111" y1="1513.6141" x2="90.06806" y2="1514.4624"/>
<line stroke="#000000" x1="90.06806" y1="1514.4624" x2="93.30081" y2="1519.2487"/>
<line stroke="#000000" x1="93.30081" y1="1519.2487" x2="99.77856" y2="1524.8796"/>
<line stroke="#000000" x1="99.77856" y1="1524.8796" x2="106.80942" y2="1529.8027"/>
<line stroke="#000000" x1="106.80942" y1="1529.8027" x2="114.75473" y2="1533.0652"/>
<line stroke="#000000" x1="114.75473" y1="1533.0652" x2="116.91039" y2="1535.1736"/>
<line stroke="#000000" x1="116.91039" y1="1535.1736" x2="133.50381" y2="1506.3077"/>
<line stroke="#000000" x1="133.50381" y1="1506.3077" x2="138.65054" y2="1506.8369"/>
<line stroke="#000000" x1="138.65054" y1="1506.8369" x2="140.07512" y2="1508.192"/>
<line stroke="#000000" x1="140.07512" y1="1508.192" x2="141.92769" y2="1507.5336"/>
<line stroke="#000000" x1="141.92769" y1="1507.5336" x2="142.60828" y2="1514.7275"/>
<line stroke="#000000" x1="142.60828" y1="1514.7275" x2="145.1409" y2="1508.9944"/>
<line stroke="#000000" x1="145.1409" y1="1508.9944" x2="147.36613" y2="1543.2122"/>
<line stroke="#000000" x1="147.36613" y1="1543.2122" x2="159.04318" y2="1543.8026"/>
<line stroke="#000000" x1="159.04318" y1="1543.8026" x2="165.54384" y2="1546.9259"/>
<line stroke="#000000" x1="165.54384" y1="1546.9259" x2="203.28027" y2="1709.6904"/>
<line stroke="#000000" x1="203.28027" y1="1709.6904" x2="220.55032" y2="1705.3845"/>
<line stroke="#000000" x1="220.55032" y1="1705.3845" x2="237.47794" y2="1699.8844"/>
<line stroke="#000000" x1="237.47794" y1="1699.8844" x2="253.98064" y2="1693.2169"/>
<line stroke="#000000" x1="253.98064" y1="1693.2169" x2="277.7628" y2="1681.0992"/>
<line stroke="#000000" x1="277.7628" y1="1681.0992" x2="292.857" y2="1671.6674"/>
<line stroke="#000000" x1="292.857" y1="1671.6674" x2="307.25647" y2="1661.2056"/>
<line stroke="#000000" x1="307.25647" y1="1661.2056" x2="320.8911" y2="1649.7648"/>
<line stroke="#000000" x1="320.8911" y1="1649.7648" x2="339.76474" y2="1630.8911"/>
<line stroke="#000000" x1="339.76474" y1="1630.8911" x2="351.20554" y2="1617.2565"/>
<line stroke="#000000" x1="351.20554" y1="1617.2565" x2="361.6674" y2="1602.8569"/>
<line stroke="#000000" x1="361.6674" y1="1602.8569" x2="371.09927" y2="1587.7628"/>
<line stroke="#000000" x1="371.09927" y1="1587.7628" x2="383.2169" y2="1563.9807"/>
<line stroke="#000000" x1="383.2169" y1="1563.9807" x2="389.8844" y2="1547.4779"/>
<line stroke="#000000" x1="389.8844" y1="1547.4779" x2="395.38452" y2="1530.5503"/>
<line stroke="#000000" x1="395.38452" y1="1530.5503" x2="399.69043" y2="1513.2803"/>
<line stroke="#000000" x1="399.69043" y1="1513.2803" x2="403.86588" y2="1486.9175"/>
<line stroke="#000000" x1="403.86588" y1="1486.9175" x2="189.23904" y2="1461.6239"/>
<line stroke="#000000" x1="189.23904" y1="1461.6239" x2="192.16049" y2="1457.333"/>
<line stroke="#000000" x1="192.16049" y1="1457.333" x2="319.3315" y2="1442.4929"/>
<line stroke="#000000" x1="319.3315" y1="1442.4929" x2="401.38876" y2="1415.9825"/>
<line stroke="#000000" x1="401.38876" y1="1415.9825" x2="397.6882" y2="1398.5728"/>
<line stroke="#000000" x1="397.6882" y1="1398.5728" x2="392.7822" y2="1381.4635"/>
<line stroke="#000000" x1="392.7822" y1="1381.4635" x2="386.69467" y2="1364.7382"/>
<line stroke="#000000" x1="386.69467" y1="1364.7382" x2="379.45526" y2="1348.4781"/>
<line stroke="#000000" x1="379.45526" y1="1348.4781" x2="232.5352" y2="1412.7628"/>
</g>
</svg>
