<svg xmlns="http://www.w3.org/2000/svg" width="1195.0px" height="920.0px" viewBox="0.0 0.0 1195.0 920.0">
<g>
<line stroke="#000000" x1="170.0" y1="483.0" x2="60.0" y2="240.0"/>
<line stroke="#000000" x1="160.02771" y1="509.46808" x2="198.4679" y2="492.06686"/>
<line stroke="#000000" x1="33.531998" y1="230.02753" x2="71.9724" y2="212.62683"/>
<line stroke="#000000" x1="160.02771" y1="509.46808" x2="33.531998" y2="230.02753"/>
<line stroke="#000000" x1="198.4679" y1="492.06686" x2="71.9724" y2="212.62683"/>
<line stroke="#000000" x1="60.0" y1="240.0" x2="398.0" y2="120.0"/>
<line stroke="#000000" x1="34.461155" y1="227.844" x2="49.844006" y2="271.17212"/>
<line stroke="#000000" x1="410.15598" y1="94.46118" x2="425.53885" y2="137.7893"/>
<line stroke="#000000" x1="34.461155" y1="227.844" x2="410.15598" y2="94.46118"/>
<line stroke="#000000" x1="49.844006" y1="271.17212" x2="425.53885" y2="137.7893"/>
<line stroke="#000000" x1="398.0" y1="120.0" x2="450.0" y2="243.0"/>
<line stroke="#000000" x1="371.79065" y1="109.366455" x2="410.63354" y2="92.94525"/>
<line stroke="#000000" x1="439.36646" y1="269.20923" x2="478.20935" y2="252.78802"/>
<line stroke="#000000" x1="371.79065" y1="109.366455" x2="439.36646" y2="269.20923"/>
<line stroke="#000000" x1="410.63354" y1="92.94525" x2="478.20935" y2="252.78802"/>
<line stroke="#000000" x1="450.0" y1="243.0" x2="235.0" y2="325.0"/>
<line stroke="#000000" x1="461.55978" y1="217.18591" x2="477.81424" y2="259.80365"/>
<line stroke="#000000" x1="209.18587" y1="313.44012" x2="225.44014" y2="356.05804"/>
<line stroke="#000000" x1="461.55978" y1="217.18591" x2="209.18587" y2="313.44012"/>
<line stroke="#000000" x1="477.81424" y1="259.80365" x2="225.44014" y2="356.05804"/>
<line stroke="#000000" x1="235.0" y1="325.0" x2="281.0" y2="448.0"/>
<line stroke="#000000" x1="209.26146" y1="313.27307" x2="248.727" y2="298.51324"/>
<line stroke="#000000" x1="269.2729" y1="473.73853" x2="308.73865" y2="458.97922"/>
<line stroke="#000000" x1="209.26146" y1="313.27307" x2="269.2729" y2="473.73853"/>
<line stroke="#000000" x1="248.727" y1="298.51324" x2="308.73865" y2="458.97922"/>
<line stroke="#000000" x1="281.0" y1="448.0" x2="170.0" y2="483.0"/>
<line stroke="#000000" x1="294.05978" y1="422.91138" x2="308.0887" y2="467.4026"/>
<line stroke="#000000" x1="144.91136" y1="469.94016" x2="158.94014" y2="514.4315"/>
<line stroke="#000000" x1="294.05978" y1="422.91138" x2="144.91136" y2="469.94016"/>
<line stroke="#000000" x1="308.0887" y1="467.4026" x2="158.94014" y2="514.4315"/>
<line stroke="#000000" x1="1070.0" y1="105.0" x2="770.0" y2="318.0"/>
<line stroke="#000000" x1="1074.7294" y1="77.11383" x2="1099.8859" y2="112.546265"/>
<line stroke="#000000" x1="742.114" y1="313.2707" x2="767.2706" y2="348.70312"/>
<line stroke="#000000" x1="1074.7294" y1="77.11383" x2="742.114" y2="313.2707"/>
<line stroke="#000000" x1="1099.8859" y1="112.546265" x2="767.2706" y2="348.70312"/>
<line stroke="#000000" x1="770.0" y1="318.0" x2="1060.0" y2="404.0"/>
<line stroke="#000000" x1="745.1391" y1="331.48834" x2="758.51166" y2="286.39496"/>
<line stroke="#000000" x1="1073.4884" y1="428.8609" x2="1086.861" y2="383.76752"/>
<line stroke="#000000" x1="745.1391" y1="331.48834" x2="1073.4884" y2="428.8609"/>
<line stroke="#000000" x1="758.51166" y1="286.39496" x2="1086.861" y2="383.76752"/>
<line stroke="#000000" x1="1070.0" y1="105.0" x2="1060.0" y2="404.0"/>
<line stroke="#000000" x1="1050.6798" y1="84.34259" x2="1092.6573" y2="85.74664"/>
<line stroke="#000000" x1="1039.3427" y1="423.32025" x2="1081.3202" y2="424.7243"/>
<line stroke="#000000" x1="1050.6798" y1="84.34259" x2="1039.3427" y2="423.32025"/>
<line stroke="#000000" x1="1092.6573" y1="85.74664" x2="1081.3202" y2="424.7243"/>
<line stroke="#000000" x1="335.0" y1="575.0" x2="501.99997" y2="765.0"/>
<line stroke="#000000" x1="306.7743" y1="573.1816" x2="338.81842" y2="545.01636"/>
<line stroke="#000000" x1="500.1815" y1="793.2257" x2="532.22577" y2="765.0606"/>
<line stroke="#000000" x1="306.7743" y1="573.1816" x2="500.1815" y2="793.2257"/>
<line stroke="#000000" x1="338.81842" y1="545.01636" x2="532.22577" y2="765.0606"/>
<line stroke="#000000" x1="502.0" y1="765.0" x2="700.0" y2="695.0"/>
<line stroke="#000000" x1="476.47733" y1="752.81006" x2="491.8101" y2="796.17975"/>
<line stroke="#000000" x1="712.18994" y1="669.4773" x2="727.5226" y2="712.84717"/>
<line stroke="#000000" x1="476.47733" y1="752.81006" x2="712.18994" y2="669.4773"/>
<line stroke="#000000" x1="491.8101" y1="796.17975" x2="727.5226" y2="712.84717"/>
<line stroke="#000000" x1="700.0" y1="695.0" x2="725.0" y2="430.0"/>
<line stroke="#000000" x1="678.20996" y1="713.033" x2="720.0331" y2="716.9788"/>
<line stroke="#000000" x1="706.96686" y1="408.21014" x2="748.7901" y2="412.15533"/>
<line stroke="#000000" x1="678.20996" y1="713.033" x2="706.96686" y2="408.21014"/>
<line stroke="#000000" x1="720.0331" y1="716.9788" x2="748.7901" y2="412.15533"/>
<line stroke="#000000" x1="725.0" y1="430.0" x2="480.0" y2="395.0"/>
<line stroke="#000000" x1="741.9705" y1="452.6274" x2="749.6275" y2="399.0296"/>
<line stroke="#000000" x1="457.3726" y1="411.97055" x2="465.02945" y2="358.37262"/>
<line stroke="#000000" x1="741.9705" y1="452.6274" x2="457.3726" y2="411.97055"/>
<line stroke="#000000" x1="749.6275" y1="399.0296" x2="465.02945" y2="358.37262"/>
<line stroke="#000000" x1="480.0" y1="395.0" x2="335.0" y2="575.0"/>
<line stroke="#000000" x1="476.9714" y1="366.87848" x2="510.1218" y2="393.58246"/>
<line stroke="#000000" x1="306.87833" y1="578.02844" x2="340.02847" y2="604.7328"/>
<line stroke="#000000" x1="476.9714" y1="366.87848" x2="306.87833" y2="578.02844"/>
<line stroke="#000000" x1="510.1218" y1="393.58246" x2="340.02847" y2="604.7328"/>
</g>
</svg>
