<svg xmlns="http://www.w3.org/2000/svg" width="1195.0px" height="920.0px" viewBox="0.0 0.0 1195.0 920.0">
<g>
<line stroke="#000000" x1="165.0138" y1="423.76608" x2="46.766106" y2="684.98596"/>
<line stroke="#000000" x1="165.0138" y1="423.76608" x2="275.1364" y2="459.13086"/>
<line stroke="#000000" x1="165.0138" y1="423.76608" x2="320.8871" y2="345.90927"/>
<line stroke="#000000" x1="165.0138" y1="423.76608" x2="501.09082" y2="140.88704"/>
<line stroke="#000000" x1="165.0138" y1="423.76608" x2="468.6863" y2="516.5147"/>
<line stroke="#000000" x1="46.766106" y1="684.98596" x2="165.0138" y2="423.76608"/>
<line stroke="#000000" x1="46.766106" y1="684.98596" x2="404.078" y2="812.7694"/>
<line stroke="#000000" x1="46.766106" y1="684.98596" x2="100.0" y2="813.0"/>
<line stroke="#000000" x1="404.078" y1="812.7694" x2="46.766106" y2="684.98596"/>
<line stroke="#000000" x1="404.078" y1="812.7694" x2="1072.3644" y2="828.94293"/>
<line stroke="#000000" x1="404.078" y1="812.7694" x2="756.0568" y2="604.36444"/>
<line stroke="#000000" x1="404.078" y1="812.7694" x2="715.9834" y2="500.89493"/>
<line stroke="#000000" x1="404.078" y1="812.7694" x2="100.0" y2="813.0"/>
<line stroke="#000000" x1="444.68314" y1="663.8956" x2="275.1364" y2="459.13086"/>
<line stroke="#000000" x1="444.68314" y1="663.8956" x2="1072.3644" y2="828.94293"/>
<line stroke="#000000" x1="444.68314" y1="663.8956" x2="756.0568" y2="604.36444"/>
<line stroke="#000000" x1="444.68314" y1="663.8956" x2="1066.7443" y2="503.56952"/>
<line stroke="#000000" x1="444.68314" y1="663.8956" x2="320.8871" y2="345.90927"/>
<line stroke="#000000" x1="444.68314" y1="663.8956" x2="715.9834" y2="500.89493"/>
<line stroke="#000000" x1="444.68314" y1="663.8956" x2="468.6863" y2="516.5147"/>
<line stroke="#000000" x1="275.1364" y1="459.13086" x2="165.0138" y2="423.76608"/>
<line stroke="#000000" x1="275.1364" y1="459.13086" x2="444.68314" y2="663.8956"/>
<line stroke="#000000" x1="275.1364" y1="459.13086" x2="1072.3644" y2="828.94293"/>
<line stroke="#000000" x1="275.1364" y1="459.13086" x2="320.8871" y2="345.90927"/>
<line stroke="#000000" x1="275.1364" y1="459.13086" x2="468.6863" y2="516.5147"/>
<line stroke="#000000" x1="1072.3644" y1="828.94293" x2="404.078" y2="812.7694"/>
<line stroke="#000000" x1="1072.3644" y1="828.94293" x2="444.68314" y2="663.8956"/>
<line stroke="#000000" x1="1072.3644" y1="828.94293" x2="275.1364" y2="459.13086"/>
<line stroke="#000000" x1="1072.3644" y1="828.94293" x2="756.0568" y2="604.36444"/>
<line stroke="#000000" x1="1072.3644" y1="828.94293" x2="1066.7443" y2="503.56952"/>
<line stroke="#000000" x1="1072.3644" y1="828.94293" x2="100.0" y2="813.0"/>
<line stroke="#000000" x1="756.0568" y1="604.36444" x2="404.078" y2="812.7694"/>
<line stroke="#000000" x1="756.0568" y1="604.36444" x2="444.68314" y2="663.8956"/>
<line stroke="#000000" x1="756.0568" y1="604.36444" x2="1072.3644" y2="828.94293"/>
<line stroke="#000000" x1="756.0568" y1="604.36444" x2="1066.7443" y2="503.56952"/>
<line stroke="#000000" x1="756.0568" y1="604.36444" x2="706.095" y2="237.7613"/>
<line stroke="#000000" x1="756.0568" y1="604.36444" x2="715.9834" y2="500.89493"/>
<line stroke="#000000" x1="756.0568" y1="604.36444" x2="986.0" y2="166.0"/>
<line stroke="#000000" x1="1066.7443" y1="503.56952" x2="444.68314" y2="663.8956"/>
<line stroke="#000000" x1="1066.7443" y1="503.56952" x2="1072.3644" y2="828.94293"/>
<line stroke="#000000" x1="1066.7443" y1="503.56952" x2="756.0568" y2="604.36444"/>
<line stroke="#000000" x1="1066.7443" y1="503.56952" x2="706.095" y2="237.7613"/>
<line stroke="#000000" x1="1066.7443" y1="503.56952" x2="715.9834" y2="500.89493"/>
<line stroke="#000000" x1="1066.7443" y1="503.56952" x2="986.0" y2="166.0"/>
<line stroke="#000000" x1="320.8871" y1="345.90927" x2="165.0138" y2="423.76608"/>
<line stroke="#000000" x1="320.8871" y1="345.90927" x2="444.68314" y2="663.8956"/>
<line stroke="#000000" x1="320.8871" y1="345.90927" x2="275.1364" y2="459.13086"/>
<line stroke="#000000" x1="320.8871" y1="345.90927" x2="501.09082" y2="140.88704"/>
<line stroke="#000000" x1="320.8871" y1="345.90927" x2="468.6863" y2="516.5147"/>
<line stroke="#000000" x1="501.09082" y1="140.88704" x2="165.0138" y2="423.76608"/>
<line stroke="#000000" x1="501.09082" y1="140.88704" x2="320.8871" y2="345.90927"/>
<line stroke="#000000" x1="501.09082" y1="140.88704" x2="986.0" y2="166.0"/>
<line stroke="#000000" x1="706.095" y1="237.7613" x2="756.0568" y2="604.36444"/>
<line stroke="#000000" x1="706.095" y1="237.7613" x2="1066.7443" y2="503.56952"/>
<line stroke="#000000" x1="706.095" y1="237.7613" x2="986.0" y2="166.0"/>
<line stroke="#000000" x1="715.9834" y1="500.89493" x2="404.078" y2="812.7694"/>
<line stroke="#000000" x1="715.9834" y1="500.89493" x2="444.68314" y2="663.8956"/>
<line stroke="#000000" x1="715.9834" y1="500.89493" x2="756.0568" y2="604.36444"/>
<line stroke="#000000" x1="715.9834" y1="500.89493" x2="1066.7443" y2="503.56952"/>
<line stroke="#000000" x1="468.6863" y1="516.5147" x2="165.0138" y2="423.76608"/>
<line stroke="#000000" x1="468.6863" y1="516.5147" x2="444.68314" y2="663.8956"/>
<line stroke="#000000" x1="468.6863" y1="516.5147" x2="275.1364" y2="459.13086"/>
<line stroke="#000000" x1="468.6863" y1="516.5147" x2="320.8871" y2="345.90927"/>
<line stroke="#000000" x1="100.0" y1="813.0" x2="46.766106" y2="684.98596"/>
<line stroke="#000000" x1="100.0" y1="813.0" x2="404.078" y2="812.7694"/>
<line stroke="#000000" x1="100.0" y1="813.0" x2="1072.3644" y2="828.94293"/>
<line stroke="#000000" x1="986.0" y1="166.0" x2="756.0568" y2="604.36444"/>
<line stroke="#000000" x1="986.0" y1="166.0" x2="1066.7443" y2="503.56952"/>
<line stroke="#000000" x1="986.0" y1="166.0" x2="501.09082" y2="140.88704"/>
<line stroke="#000000" x1="986.0" y1="166.0" x2="706.095" y2="237.7613"/>
</g>
</svg>
