<svg xmlns="http://www.w3.org/2000/svg" width="1195.0px" height="920.0px" viewBox="0.0 0.0 1195.0 920.0">
<g>
<line stroke="#000000" x1="170.0" y1="437.0" x2="60.0" y2="680.0"/>
<line stroke="#000000" x1="60.0" y1="680.0" x2="398.0" y2="800.0"/>
<line stroke="#000000" x1="398.0" y1="800.0" x2="450.0" y2="677.0"/>
<line stroke="#000000" x1="450.0" y1="677.0" x2="235.0" y2="595.0"/>
<line stroke="#000000" x1="235.0" y1="595.0" x2="281.0" y2="472.0"/>
<line stroke="#000000" x1="281.0" y1="472.0" x2="170.0" y2="437.0"/>
<line stroke="#000000" x1="1070.0" y1="815.0" x2="770.0" y2="602.0"/>
<line stroke="#000000" x1="770.0" y1="602.0" x2="1060.0" y2="516.0"/>
<line stroke="#000000" x1="1070.0" y1="815.0" x2="1060.0" y2="516.0"/>
<line stroke="#000000" x1="335.0" y1="345.0" x2="502.0" y2="155.0"/>
<line stroke="#000000" x1="502.0" y1="155.0" x2="700.0" y2="225.0"/>
<line stroke="#000000" x1="700.0" y1="225.0" x2="725.0" y2="490.0"/>
<line stroke="#000000" x1="725.0" y1="490.0" x2="480.0" y2="525.0"/>
<line stroke="#000000" x1="480.0" y1="525.0" x2="335.0" y2="345.0"/>
<line stroke="#000000" x1="255.0" y1="655.5" x2="90.0" y2="1020.0"/>
<line stroke="#000000" x1="90.0" y1="1020.0" x2="597.0" y2="1200.0"/>
<line stroke="#000000" x1="597.0" y1="1200.0" x2="675.0" y2="1015.5"/>
<line stroke="#000000" x1="675.0" y1="1015.5" x2="352.5" y2="892.5"/>
<line stroke="#000000" x1="352.5" y1="892.5" x2="421.5" y2="708.0"/>
<line stroke="#000000" x1="421.5" y1="708.0" x2="255.0" y2="655.5"/>
<line stroke="#000000" x1="1605.0" y1="1222.5" x2="1155.0" y2="903.0"/>
<line stroke="#000000" x1="1155.0" y1="903.0" x2="1590.0" y2="774.0"/>
<line stroke="#000000" x1="1605.0" y1="1222.5" x2="1590.0" y2="774.0"/>
<line stroke="#000000" x1="502.5" y1="517.5" x2="753.0" y2="232.5"/>
<line stroke="#000000" x1="753.0" y1="232.5" x2="1050.0" y2="337.5"/>
<line stroke="#000000" x1="1050.0" y1="337.5" x2="1087.5" y2="735.0"/>
<line stroke="#000000" x1="1087.5" y1="735.0" x2="720.0" y2="787.5"/>
<line stroke="#000000" x1="720.0" y1="787.5" x2="502.5" y2="517.5"/>
</g>
</svg>
