<svg xmlns="http://www.w3.org/2000/svg" width="1195.0px" height="920.0px" viewBox="0.0 0.0 1195.0 920.0">
<g>
<line stroke="#000000" x1="165.0138" y1="423.76608" x2="184.23401" y2="432.46643"/>
<line stroke="#000000" x1="165.0138" y1="423.76608" x2="46.766106" y2="684.98596"/>
<line stroke="#000000" x1="165.0138" y1="423.76608" x2="54.922005" y2="664.41394"/>
<line stroke="#000000" x1="165.0138" y1="423.76608" x2="275.1364" y2="459.13086"/>
<line stroke="#000000" x1="165.0138" y1="423.76608" x2="294.8694" y2="466.51025"/>
<line stroke="#000000" x1="165.0138" y1="423.76608" x2="157.45564" y2="443.5299"/>
<line stroke="#000000" x1="165.0138" y1="423.76608" x2="320.8871" y2="345.90927"/>
<line stroke="#000000" x1="165.0138" y1="423.76608" x2="336.9093" y2="359.99176"/>
<line stroke="#000000" x1="165.0138" y1="423.76608" x2="501.09082" y2="140.88704"/>
<line stroke="#000000" x1="165.0138" y1="423.76608" x2="489.23868" y2="161.09497"/>
<line stroke="#000000" x1="165.0138" y1="423.76608" x2="468.6863" y2="516.5147"/>
<line stroke="#000000" x1="165.0138" y1="423.76608" x2="472.51468" y2="543.3138"/>
<line stroke="#000000" x1="165.0138" y1="423.76608" x2="337.5142" y2="330.1335"/>
<line stroke="#000000" x1="165.0138" y1="423.76608" x2="490.0" y2="100.0"/>
<line stroke="#000000" x1="184.23401" y1="432.46643" x2="165.0138" y2="423.76608"/>
<line stroke="#000000" x1="184.23401" y1="432.46643" x2="275.1364" y2="459.13086"/>
<line stroke="#000000" x1="184.23401" y1="432.46643" x2="294.8694" y2="466.51025"/>
<line stroke="#000000" x1="184.23401" y1="432.46643" x2="320.8871" y2="345.90927"/>
<line stroke="#000000" x1="184.23401" y1="432.46643" x2="336.9093" y2="359.99176"/>
<line stroke="#000000" x1="184.23401" y1="432.46643" x2="501.09082" y2="140.88704"/>
<line stroke="#000000" x1="184.23401" y1="432.46643" x2="489.23868" y2="161.09497"/>
<line stroke="#000000" x1="184.23401" y1="432.46643" x2="468.6863" y2="516.5147"/>
<line stroke="#000000" x1="184.23401" y1="432.46643" x2="472.51468" y2="543.3138"/>
<line stroke="#000000" x1="184.23401" y1="432.46643" x2="337.5142" y2="330.1335"/>
<line stroke="#000000" x1="184.23401" y1="432.46643" x2="490.0" y2="100.0"/>
<line stroke="#000000" x1="46.766106" y1="684.98596" x2="165.0138" y2="423.76608"/>
<line stroke="#000000" x1="46.766106" y1="684.98596" x2="65.98609" y2="693.6868"/>
<line stroke="#000000" x1="46.766106" y1="684.98596" x2="54.922005" y2="664.41394"/>
<line stroke="#000000" x1="46.766106" y1="684.98596" x2="404.078" y2="812.7694"/>
<line stroke="#000000" x1="46.766106" y1="684.98596" x2="384.89523" y2="805.317"/>
<line stroke="#000000" x1="46.766106" y1="684.98596" x2="157.45564" y2="443.5299"/>
<line stroke="#000000" x1="46.766106" y1="684.98596" x2="100.0" y2="813.0"/>
<line stroke="#000000" x1="65.98609" y1="693.6868" x2="46.766106" y2="684.98596"/>
<line stroke="#000000" x1="65.98609" y1="693.6868" x2="404.078" y2="812.7694"/>
<line stroke="#000000" x1="65.98609" y1="693.6868" x2="384.89523" y2="805.317"/>
<line stroke="#000000" x1="65.98609" y1="693.6868" x2="100.0" y2="813.0"/>
<line stroke="#000000" x1="54.922005" y1="664.41394" x2="165.0138" y2="423.76608"/>
<line stroke="#000000" x1="54.922005" y1="664.41394" x2="46.766106" y2="684.98596"/>
<line stroke="#000000" x1="54.922005" y1="664.41394" x2="157.45564" y2="443.5299"/>
<line stroke="#000000" x1="54.922005" y1="664.41394" x2="100.0" y2="813.0"/>
<line stroke="#000000" x1="404.078" y1="812.7694" x2="46.766106" y2="684.98596"/>
<line stroke="#000000" x1="404.078" y1="812.7694" x2="65.98609" y2="693.6868"/>
<line stroke="#000000" x1="404.078" y1="812.7694" x2="411.7694" y2="791.10535"/>
<line stroke="#000000" x1="404.078" y1="812.7694" x2="384.89523" y2="805.317"/>
<line stroke="#000000" x1="404.078" y1="812.7694" x2="464.10477" y2="672.1057"/>
<line stroke="#000000" x1="404.078" y1="812.7694" x2="1072.3644" y2="828.94293"/>
<line stroke="#000000" x1="404.078" y1="812.7694" x2="756.0568" y2="604.36444"/>
<line stroke="#000000" x1="404.078" y1="812.7694" x2="768.63556" y2="586.6487"/>
<line stroke="#000000" x1="404.078" y1="812.7694" x2="715.9834" y2="500.89493"/>
<line stroke="#000000" x1="404.078" y1="812.7694" x2="736.895" y2="498.92236"/>
<line stroke="#000000" x1="404.078" y1="812.7694" x2="100.0" y2="813.0"/>
<line stroke="#000000" x1="411.7694" y1="791.10535" x2="404.078" y2="812.7694"/>
<line stroke="#000000" x1="411.7694" y1="791.10535" x2="464.10477" y2="672.1057"/>
<line stroke="#000000" x1="411.7694" y1="791.10535" x2="1072.3644" y2="828.94293"/>
<line stroke="#000000" x1="411.7694" y1="791.10535" x2="756.0568" y2="604.36444"/>
<line stroke="#000000" x1="411.7694" y1="791.10535" x2="768.63556" y2="586.6487"/>
<line stroke="#000000" x1="411.7694" y1="791.10535" x2="715.9834" y2="500.89493"/>
<line stroke="#000000" x1="411.7694" y1="791.10535" x2="736.895" y2="498.92236"/>
<line stroke="#000000" x1="384.89523" y1="805.317" x2="46.766106" y2="684.98596"/>
<line stroke="#000000" x1="384.89523" y1="805.317" x2="65.98609" y2="693.6868"/>
<line stroke="#000000" x1="384.89523" y1="805.317" x2="404.078" y2="812.7694"/>
<line stroke="#000000" x1="384.89523" y1="805.317" x2="1072.3644" y2="828.94293"/>
<line stroke="#000000" x1="384.89523" y1="805.317" x2="100.0" y2="813.0"/>
<line stroke="#000000" x1="444.68314" y1="663.8956" x2="464.10477" y2="672.1057"/>
<line stroke="#000000" x1="444.68314" y1="663.8956" x2="275.1364" y2="459.13086"/>
<line stroke="#000000" x1="444.68314" y1="663.8956" x2="294.8694" y2="466.51025"/>
<line stroke="#000000" x1="444.68314" y1="663.8956" x2="1072.3644" y2="828.94293"/>
<line stroke="#000000" x1="444.68314" y1="663.8956" x2="756.0568" y2="604.36444"/>
<line stroke="#000000" x1="444.68314" y1="663.8956" x2="768.63556" y2="586.6487"/>
<line stroke="#000000" x1="444.68314" y1="663.8956" x2="1066.7443" y2="503.56952"/>
<line stroke="#000000" x1="444.68314" y1="663.8956" x2="320.8871" y2="345.90927"/>
<line stroke="#000000" x1="444.68314" y1="663.8956" x2="336.9093" y2="359.99176"/>
<line stroke="#000000" x1="444.68314" y1="663.8956" x2="715.9834" y2="500.89493"/>
<line stroke="#000000" x1="444.68314" y1="663.8956" x2="736.895" y2="498.92236"/>
<line stroke="#000000" x1="444.68314" y1="663.8956" x2="468.6863" y2="516.5147"/>
<line stroke="#000000" x1="444.68314" y1="663.8956" x2="472.51468" y2="543.3138"/>
<line stroke="#000000" x1="444.68314" y1="663.8956" x2="495.06064" y2="525.70844"/>
<line stroke="#000000" x1="464.10477" y1="672.1057" x2="404.078" y2="812.7694"/>
<line stroke="#000000" x1="464.10477" y1="672.1057" x2="411.7694" y2="791.10535"/>
<line stroke="#000000" x1="464.10477" y1="672.1057" x2="444.68314" y2="663.8956"/>
<line stroke="#000000" x1="464.10477" y1="672.1057" x2="275.1364" y2="459.13086"/>
<line stroke="#000000" x1="464.10477" y1="672.1057" x2="294.8694" y2="466.51025"/>
<line stroke="#000000" x1="464.10477" y1="672.1057" x2="1072.3644" y2="828.94293"/>
<line stroke="#000000" x1="464.10477" y1="672.1057" x2="756.0568" y2="604.36444"/>
<line stroke="#000000" x1="464.10477" y1="672.1057" x2="768.63556" y2="586.6487"/>
<line stroke="#000000" x1="464.10477" y1="672.1057" x2="1066.7443" y2="503.56952"/>
<line stroke="#000000" x1="464.10477" y1="672.1057" x2="320.8871" y2="345.90927"/>
<line stroke="#000000" x1="464.10477" y1="672.1057" x2="336.9093" y2="359.99176"/>
<line stroke="#000000" x1="464.10477" y1="672.1057" x2="715.9834" y2="500.89493"/>
<line stroke="#000000" x1="464.10477" y1="672.1057" x2="736.895" y2="498.92236"/>
<line stroke="#000000" x1="464.10477" y1="672.1057" x2="468.6863" y2="516.5147"/>
<line stroke="#000000" x1="464.10477" y1="672.1057" x2="472.51468" y2="543.3138"/>
<line stroke="#000000" x1="464.10477" y1="672.1057" x2="495.06064" y2="525.70844"/>
<line stroke="#000000" x1="222.09293" y1="600.77997" x2="230.22006" y2="579.471"/>
<line stroke="#000000" x1="222.09293" y1="600.77997" x2="241.8634" y2="608.24365"/>
<line stroke="#000000" x1="230.22006" y1="579.471" x2="222.09293" y2="600.77997"/>
<line stroke="#000000" x1="241.8634" y1="608.24365" x2="222.09293" y2="600.77997"/>
<line stroke="#000000" x1="275.1364" y1="459.13086" x2="165.0138" y2="423.76608"/>
<line stroke="#000000" x1="275.1364" y1="459.13086" x2="184.23401" y2="432.46643"/>
<line stroke="#000000" x1="275.1364" y1="459.13086" x2="444.68314" y2="663.8956"/>
<line stroke="#000000" x1="275.1364" y1="459.13086" x2="464.10477" y2="672.1057"/>
<line stroke="#000000" x1="275.1364" y1="459.13086" x2="294.8694" y2="466.51025"/>
<line stroke="#000000" x1="275.1364" y1="459.13086" x2="1072.3644" y2="828.94293"/>
<line stroke="#000000" x1="275.1364" y1="459.13086" x2="320.8871" y2="345.90927"/>
<line stroke="#000000" x1="275.1364" y1="459.13086" x2="336.9093" y2="359.99176"/>
<line stroke="#000000" x1="275.1364" y1="459.13086" x2="468.6863" y2="516.5147"/>
<line stroke="#000000" x1="275.1364" y1="459.13086" x2="472.51468" y2="543.3138"/>
<line stroke="#000000" x1="275.1364" y1="459.13086" x2="337.5142" y2="330.1335"/>
<line stroke="#000000" x1="294.8694" y1="466.51025" x2="165.0138" y2="423.76608"/>
<line stroke="#000000" x1="294.8694" y1="466.51025" x2="184.23401" y2="432.46643"/>
<line stroke="#000000" x1="294.8694" y1="466.51025" x2="444.68314" y2="663.8956"/>
<line stroke="#000000" x1="294.8694" y1="466.51025" x2="464.10477" y2="672.1057"/>
<line stroke="#000000" x1="294.8694" y1="466.51025" x2="275.1364" y2="459.13086"/>
<line stroke="#000000" x1="294.8694" y1="466.51025" x2="1072.3644" y2="828.94293"/>
<line stroke="#000000" x1="294.8694" y1="466.51025" x2="320.8871" y2="345.90927"/>
<line stroke="#000000" x1="294.8694" y1="466.51025" x2="336.9093" y2="359.99176"/>
<line stroke="#000000" x1="294.8694" y1="466.51025" x2="468.6863" y2="516.5147"/>
<line stroke="#000000" x1="294.8694" y1="466.51025" x2="472.51468" y2="543.3138"/>
<line stroke="#000000" x1="294.8694" y1="466.51025" x2="337.5142" y2="330.1335"/>
<line stroke="#000000" x1="157.45564" y1="443.5299" x2="165.0138" y2="423.76608"/>
<line stroke="#000000" x1="157.45564" y1="443.5299" x2="46.766106" y2="684.98596"/>
<line stroke="#000000" x1="157.45564" y1="443.5299" x2="54.922005" y2="664.41394"/>
<line stroke="#000000" x1="157.45564" y1="443.5299" x2="320.8871" y2="345.90927"/>
<line stroke="#000000" x1="157.45564" y1="443.5299" x2="501.09082" y2="140.88704"/>
<line stroke="#000000" x1="157.45564" y1="443.5299" x2="489.23868" y2="161.09497"/>
<line stroke="#000000" x1="157.45564" y1="443.5299" x2="337.5142" y2="330.1335"/>
<line stroke="#000000" x1="157.45564" y1="443.5299" x2="490.0" y2="100.0"/>
<line stroke="#000000" x1="1072.3644" y1="828.94293" x2="404.078" y2="812.7694"/>
<line stroke="#000000" x1="1072.3644" y1="828.94293" x2="411.7694" y2="791.10535"/>
<line stroke="#000000" x1="1072.3644" y1="828.94293" x2="384.89523" y2="805.317"/>
<line stroke="#000000" x1="1072.3644" y1="828.94293" x2="444.68314" y2="663.8956"/>
<line stroke="#000000" x1="1072.3644" y1="828.94293" x2="464.10477" y2="672.1057"/>
<line stroke="#000000" x1="1072.3644" y1="828.94293" x2="275.1364" y2="459.13086"/>
<line stroke="#000000" x1="1072.3644" y1="828.94293" x2="294.8694" y2="466.51025"/>
<line stroke="#000000" x1="1072.3644" y1="828.94293" x2="1084.9432" y2="811.2272"/>
<line stroke="#000000" x1="1072.3644" y1="828.94293" x2="756.0568" y2="604.36444"/>
<line stroke="#000000" x1="1072.3644" y1="828.94293" x2="1066.7443" y2="503.56952"/>
<line stroke="#000000" x1="1072.3644" y1="828.94293" x2="1073.4303" y2="526.1164"/>
<line stroke="#000000" x1="1072.3644" y1="828.94293" x2="472.51468" y2="543.3138"/>
<line stroke="#000000" x1="1072.3644" y1="828.94293" x2="495.06064" y2="525.70844"/>
<line stroke="#000000" x1="1072.3644" y1="828.94293" x2="100.0" y2="813.0"/>
<line stroke="#000000" x1="1084.9432" y1="811.2272" x2="1072.3644" y2="828.94293"/>
<line stroke="#000000" x1="1084.9432" y1="811.2272" x2="1066.7443" y2="503.56952"/>
<line stroke="#000000" x1="1084.9432" y1="811.2272" x2="1073.4303" y2="526.1164"/>
<line stroke="#000000" x1="756.0568" y1="604.36444" x2="404.078" y2="812.7694"/>
<line stroke="#000000" x1="756.0568" y1="604.36444" x2="411.7694" y2="791.10535"/>
<line stroke="#000000" x1="756.0568" y1="604.36444" x2="444.68314" y2="663.8956"/>
<line stroke="#000000" x1="756.0568" y1="604.36444" x2="464.10477" y2="672.1057"/>
<line stroke="#000000" x1="756.0568" y1="604.36444" x2="1072.3644" y2="828.94293"/>
<line stroke="#000000" x1="756.0568" y1="604.36444" x2="768.63556" y2="586.6487"/>
<line stroke="#000000" x1="756.0568" y1="604.36444" x2="1066.7443" y2="503.56952"/>
<line stroke="#000000" x1="756.0568" y1="604.36444" x2="706.095" y2="237.7613"/>
<line stroke="#000000" x1="756.0568" y1="604.36444" x2="713.76135" y2="216.0765"/>
<line stroke="#000000" x1="756.0568" y1="604.36444" x2="715.9834" y2="500.89493"/>
<line stroke="#000000" x1="756.0568" y1="604.36444" x2="736.895" y2="498.92236"/>
<line stroke="#000000" x1="756.0568" y1="604.36444" x2="733.4853" y2="478.68628"/>
<line stroke="#000000" x1="756.0568" y1="604.36444" x2="472.51468" y2="543.3138"/>
<line stroke="#000000" x1="756.0568" y1="604.36444" x2="495.06064" y2="525.70844"/>
<line stroke="#000000" x1="768.63556" y1="586.6487" x2="404.078" y2="812.7694"/>
<line stroke="#000000" x1="768.63556" y1="586.6487" x2="411.7694" y2="791.10535"/>
<line stroke="#000000" x1="768.63556" y1="586.6487" x2="444.68314" y2="663.8956"/>
<line stroke="#000000" x1="768.63556" y1="586.6487" x2="464.10477" y2="672.1057"/>
<line stroke="#000000" x1="768.63556" y1="586.6487" x2="756.0568" y2="604.36444"/>
<line stroke="#000000" x1="768.63556" y1="586.6487" x2="1066.7443" y2="503.56952"/>
<line stroke="#000000" x1="768.63556" y1="586.6487" x2="706.095" y2="237.7613"/>
<line stroke="#000000" x1="768.63556" y1="586.6487" x2="713.76135" y2="216.0765"/>
<line stroke="#000000" x1="768.63556" y1="586.6487" x2="715.9834" y2="500.89493"/>
<line stroke="#000000" x1="768.63556" y1="586.6487" x2="736.895" y2="498.92236"/>
<line stroke="#000000" x1="768.63556" y1="586.6487" x2="733.4853" y2="478.68628"/>
<line stroke="#000000" x1="768.63556" y1="586.6487" x2="472.51468" y2="543.3138"/>
<line stroke="#000000" x1="768.63556" y1="586.6487" x2="495.06064" y2="525.70844"/>
<line stroke="#000000" x1="1066.7443" y1="503.56952" x2="444.68314" y2="663.8956"/>
<line stroke="#000000" x1="1066.7443" y1="503.56952" x2="464.10477" y2="672.1057"/>
<line stroke="#000000" x1="1066.7443" y1="503.56952" x2="1072.3644" y2="828.94293"/>
<line stroke="#000000" x1="1066.7443" y1="503.56952" x2="1084.9432" y2="811.2272"/>
<line stroke="#000000" x1="1066.7443" y1="503.56952" x2="756.0568" y2="604.36444"/>
<line stroke="#000000" x1="1066.7443" y1="503.56952" x2="768.63556" y2="586.6487"/>
<line stroke="#000000" x1="1066.7443" y1="503.56952" x2="1073.4303" y2="526.1164"/>
<line stroke="#000000" x1="1066.7443" y1="503.56952" x2="706.095" y2="237.7613"/>
<line stroke="#000000" x1="1066.7443" y1="503.56952" x2="713.76135" y2="216.0765"/>
<line stroke="#000000" x1="1066.7443" y1="503.56952" x2="689.10504" y2="215.98364"/>
<line stroke="#000000" x1="1066.7443" y1="503.56952" x2="715.9834" y2="500.89493"/>
<line stroke="#000000" x1="1066.7443" y1="503.56952" x2="736.895" y2="498.92236"/>
<line stroke="#000000" x1="1066.7443" y1="503.56952" x2="733.4853" y2="478.68628"/>
<line stroke="#000000" x1="1066.7443" y1="503.56952" x2="472.51468" y2="543.3138"/>
<line stroke="#000000" x1="1066.7443" y1="503.56952" x2="495.06064" y2="525.70844"/>
<line stroke="#000000" x1="1073.4303" y1="526.1164" x2="1072.3644" y2="828.94293"/>
<line stroke="#000000" x1="1073.4303" y1="526.1164" x2="1084.9432" y2="811.2272"/>
<line stroke="#000000" x1="1073.4303" y1="526.1164" x2="1066.7443" y2="503.56952"/>
<line stroke="#000000" x1="1073.4303" y1="526.1164" x2="706.095" y2="237.7613"/>
<line stroke="#000000" x1="1073.4303" y1="526.1164" x2="713.76135" y2="216.0765"/>
<line stroke="#000000" x1="1073.4303" y1="526.1164" x2="689.10504" y2="215.98364"/>
<line stroke="#000000" x1="320.8871" y1="345.90927" x2="165.0138" y2="423.76608"/>
<line stroke="#000000" x1="320.8871" y1="345.90927" x2="184.23401" y2="432.46643"/>
<line stroke="#000000" x1="320.8871" y1="345.90927" x2="444.68314" y2="663.8956"/>
<line stroke="#000000" x1="320.8871" y1="345.90927" x2="464.10477" y2="672.1057"/>
<line stroke="#000000" x1="320.8871" y1="345.90927" x2="275.1364" y2="459.13086"/>
<line stroke="#000000" x1="320.8871" y1="345.90927" x2="294.8694" y2="466.51025"/>
<line stroke="#000000" x1="320.8871" y1="345.90927" x2="157.45564" y2="443.5299"/>
<line stroke="#000000" x1="320.8871" y1="345.90927" x2="336.9093" y2="359.99176"/>
<line stroke="#000000" x1="320.8871" y1="345.90927" x2="501.09082" y2="140.88704"/>
<line stroke="#000000" x1="320.8871" y1="345.90927" x2="489.23868" y2="161.09497"/>
<line stroke="#000000" x1="320.8871" y1="345.90927" x2="468.6863" y2="516.5147"/>
<line stroke="#000000" x1="320.8871" y1="345.90927" x2="472.51468" y2="543.3138"/>
<line stroke="#000000" x1="320.8871" y1="345.90927" x2="337.5142" y2="330.1335"/>
<line stroke="#000000" x1="320.8871" y1="345.90927" x2="490.0" y2="100.0"/>
<line stroke="#000000" x1="336.9093" y1="359.99176" x2="165.0138" y2="423.76608"/>
<line stroke="#000000" x1="336.9093" y1="359.99176" x2="184.23401" y2="432.46643"/>
<line stroke="#000000" x1="336.9093" y1="359.99176" x2="444.68314" y2="663.8956"/>
<line stroke="#000000" x1="336.9093" y1="359.99176" x2="464.10477" y2="672.1057"/>
<line stroke="#000000" x1="336.9093" y1="359.99176" x2="275.1364" y2="459.13086"/>
<line stroke="#000000" x1="336.9093" y1="359.99176" x2="294.8694" y2="466.51025"/>
<line stroke="#000000" x1="336.9093" y1="359.99176" x2="320.8871" y2="345.90927"/>
<line stroke="#000000" x1="336.9093" y1="359.99176" x2="468.6863" y2="516.5147"/>
<line stroke="#000000" x1="336.9093" y1="359.99176" x2="472.51468" y2="543.3138"/>
<line stroke="#000000" x1="501.09082" y1="140.88704" x2="165.0138" y2="423.76608"/>
<line stroke="#000000" x1="501.09082" y1="140.88704" x2="184.23401" y2="432.46643"/>
<line stroke="#000000" x1="501.09082" y1="140.88704" x2="157.45564" y2="443.5299"/>
<line stroke="#000000" x1="501.09082" y1="140.88704" x2="320.8871" y2="345.90927"/>
<line stroke="#000000" x1="501.09082" y1="140.88704" x2="517.1128" y2="154.96983"/>
<line stroke="#000000" x1="501.09082" y1="140.88704" x2="489.23868" y2="161.09497"/>
<line stroke="#000000" x1="501.09082" y1="140.88704" x2="713.76135" y2="216.0765"/>
<line stroke="#000000" x1="501.09082" y1="140.88704" x2="689.10504" y2="215.98364"/>
<line stroke="#000000" x1="501.09082" y1="140.88704" x2="337.5142" y2="330.1335"/>
<line stroke="#000000" x1="501.09082" y1="140.88704" x2="490.0" y2="100.0"/>
<line stroke="#000000" x1="517.1128" y1="154.96983" x2="501.09082" y2="140.88704"/>
<line stroke="#000000" x1="517.1128" y1="154.96983" x2="713.76135" y2="216.0765"/>
<line stroke="#000000" x1="517.1128" y1="154.96983" x2="689.10504" y2="215.98364"/>
<line stroke="#000000" x1="517.1128" y1="154.96983" x2="490.0" y2="100.0"/>
<line stroke="#000000" x1="489.23868" y1="161.09497" x2="165.0138" y2="423.76608"/>
<line stroke="#000000" x1="489.23868" y1="161.09497" x2="184.23401" y2="432.46643"/>
<line stroke="#000000" x1="489.23868" y1="161.09497" x2="157.45564" y2="443.5299"/>
<line stroke="#000000" x1="489.23868" y1="161.09497" x2="320.8871" y2="345.90927"/>
<line stroke="#000000" x1="489.23868" y1="161.09497" x2="501.09082" y2="140.88704"/>
<line stroke="#000000" x1="489.23868" y1="161.09497" x2="337.5142" y2="330.1335"/>
<line stroke="#000000" x1="489.23868" y1="161.09497" x2="490.0" y2="100.0"/>
<line stroke="#000000" x1="706.095" y1="237.7613" x2="756.0568" y2="604.36444"/>
<line stroke="#000000" x1="706.095" y1="237.7613" x2="768.63556" y2="586.6487"/>
<line stroke="#000000" x1="706.095" y1="237.7613" x2="1066.7443" y2="503.56952"/>
<line stroke="#000000" x1="706.095" y1="237.7613" x2="1073.4303" y2="526.1164"/>
<line stroke="#000000" x1="706.095" y1="237.7613" x2="713.76135" y2="216.0765"/>
<line stroke="#000000" x1="706.095" y1="237.7613" x2="736.895" y2="498.92236"/>
<line stroke="#000000" x1="706.095" y1="237.7613" x2="733.4853" y2="478.68628"/>
<line stroke="#000000" x1="713.76135" y1="216.0765" x2="756.0568" y2="604.36444"/>
<line stroke="#000000" x1="713.76135" y1="216.0765" x2="768.63556" y2="586.6487"/>
<line stroke="#000000" x1="713.76135" y1="216.0765" x2="1066.7443" y2="503.56952"/>
<line stroke="#000000" x1="713.76135" y1="216.0765" x2="1073.4303" y2="526.1164"/>
<line stroke="#000000" x1="713.76135" y1="216.0765" x2="501.09082" y2="140.88704"/>
<line stroke="#000000" x1="713.76135" y1="216.0765" x2="517.1128" y2="154.96983"/>
<line stroke="#000000" x1="713.76135" y1="216.0765" x2="706.095" y2="237.7613"/>
<line stroke="#000000" x1="713.76135" y1="216.0765" x2="689.10504" y2="215.98364"/>
<line stroke="#000000" x1="713.76135" y1="216.0765" x2="736.895" y2="498.92236"/>
<line stroke="#000000" x1="713.76135" y1="216.0765" x2="733.4853" y2="478.68628"/>
<line stroke="#000000" x1="713.76135" y1="216.0765" x2="490.0" y2="100.0"/>
<line stroke="#000000" x1="689.10504" y1="215.98364" x2="1066.7443" y2="503.56952"/>
<line stroke="#000000" x1="689.10504" y1="215.98364" x2="1073.4303" y2="526.1164"/>
<line stroke="#000000" x1="689.10504" y1="215.98364" x2="501.09082" y2="140.88704"/>
<line stroke="#000000" x1="689.10504" y1="215.98364" x2="517.1128" y2="154.96983"/>
<line stroke="#000000" x1="689.10504" y1="215.98364" x2="713.76135" y2="216.0765"/>
<line stroke="#000000" x1="689.10504" y1="215.98364" x2="490.0" y2="100.0"/>
<line stroke="#000000" x1="715.9834" y1="500.89493" x2="404.078" y2="812.7694"/>
<line stroke="#000000" x1="715.9834" y1="500.89493" x2="411.7694" y2="791.10535"/>
<line stroke="#000000" x1="715.9834" y1="500.89493" x2="444.68314" y2="663.8956"/>
<line stroke="#000000" x1="715.9834" y1="500.89493" x2="464.10477" y2="672.1057"/>
<line stroke="#000000" x1="715.9834" y1="500.89493" x2="756.0568" y2="604.36444"/>
<line stroke="#000000" x1="715.9834" y1="500.89493" x2="768.63556" y2="586.6487"/>
<line stroke="#000000" x1="715.9834" y1="500.89493" x2="1066.7443" y2="503.56952"/>
<line stroke="#000000" x1="715.9834" y1="500.89493" x2="736.895" y2="498.92236"/>
<line stroke="#000000" x1="715.9834" y1="500.89493" x2="472.51468" y2="543.3138"/>
<line stroke="#000000" x1="715.9834" y1="500.89493" x2="495.06064" y2="525.70844"/>
<line stroke="#000000" x1="736.895" y1="498.92236" x2="404.078" y2="812.7694"/>
<line stroke="#000000" x1="736.895" y1="498.92236" x2="411.7694" y2="791.10535"/>
<line stroke="#000000" x1="736.895" y1="498.92236" x2="444.68314" y2="663.8956"/>
<line stroke="#000000" x1="736.895" y1="498.92236" x2="464.10477" y2="672.1057"/>
<line stroke="#000000" x1="736.895" y1="498.92236" x2="756.0568" y2="604.36444"/>
<line stroke="#000000" x1="736.895" y1="498.92236" x2="768.63556" y2="586.6487"/>
<line stroke="#000000" x1="736.895" y1="498.92236" x2="1066.7443" y2="503.56952"/>
<line stroke="#000000" x1="736.895" y1="498.92236" x2="706.095" y2="237.7613"/>
<line stroke="#000000" x1="736.895" y1="498.92236" x2="713.76135" y2="216.0765"/>
<line stroke="#000000" x1="736.895" y1="498.92236" x2="715.9834" y2="500.89493"/>
<line stroke="#000000" x1="736.895" y1="498.92236" x2="733.4853" y2="478.68628"/>
<line stroke="#000000" x1="736.895" y1="498.92236" x2="472.51468" y2="543.3138"/>
<line stroke="#000000" x1="736.895" y1="498.92236" x2="495.06064" y2="525.70844"/>
<line stroke="#000000" x1="733.4853" y1="478.68628" x2="756.0568" y2="604.36444"/>
<line stroke="#000000" x1="733.4853" y1="478.68628" x2="768.63556" y2="586.6487"/>
<line stroke="#000000" x1="733.4853" y1="478.68628" x2="1066.7443" y2="503.56952"/>
<line stroke="#000000" x1="733.4853" y1="478.68628" x2="706.095" y2="237.7613"/>
<line stroke="#000000" x1="733.4853" y1="478.68628" x2="713.76135" y2="216.0765"/>
<line stroke="#000000" x1="733.4853" y1="478.68628" x2="736.895" y2="498.92236"/>
<line stroke="#000000" x1="468.6863" y1="516.5147" x2="165.0138" y2="423.76608"/>
<line stroke="#000000" x1="468.6863" y1="516.5147" x2="184.23401" y2="432.46643"/>
<line stroke="#000000" x1="468.6863" y1="516.5147" x2="444.68314" y2="663.8956"/>
<line stroke="#000000" x1="468.6863" y1="516.5147" x2="464.10477" y2="672.1057"/>
<line stroke="#000000" x1="468.6863" y1="516.5147" x2="275.1364" y2="459.13086"/>
<line stroke="#000000" x1="468.6863" y1="516.5147" x2="294.8694" y2="466.51025"/>
<line stroke="#000000" x1="468.6863" y1="516.5147" x2="320.8871" y2="345.90927"/>
<line stroke="#000000" x1="468.6863" y1="516.5147" x2="336.9093" y2="359.99176"/>
<line stroke="#000000" x1="468.6863" y1="516.5147" x2="472.51468" y2="543.3138"/>
<line stroke="#000000" x1="472.51468" y1="543.3138" x2="165.0138" y2="423.76608"/>
<line stroke="#000000" x1="472.51468" y1="543.3138" x2="184.23401" y2="432.46643"/>
<line stroke="#000000" x1="472.51468" y1="543.3138" x2="444.68314" y2="663.8956"/>
<line stroke="#000000" x1="472.51468" y1="543.3138" x2="464.10477" y2="672.1057"/>
<line stroke="#000000" x1="472.51468" y1="543.3138" x2="275.1364" y2="459.13086"/>
<line stroke="#000000" x1="472.51468" y1="543.3138" x2="294.8694" y2="466.51025"/>
<line stroke="#000000" x1="472.51468" y1="543.3138" x2="1072.3644" y2="828.94293"/>
<line stroke="#000000" x1="472.51468" y1="543.3138" x2="756.0568" y2="604.36444"/>
<line stroke="#000000" x1="472.51468" y1="543.3138" x2="768.63556" y2="586.6487"/>
<line stroke="#000000" x1="472.51468" y1="543.3138" x2="1066.7443" y2="503.56952"/>
<line stroke="#000000" x1="472.51468" y1="543.3138" x2="320.8871" y2="345.90927"/>
<line stroke="#000000" x1="472.51468" y1="543.3138" x2="336.9093" y2="359.99176"/>
<line stroke="#000000" x1="472.51468" y1="543.3138" x2="715.9834" y2="500.89493"/>
<line stroke="#000000" x1="472.51468" y1="543.3138" x2="736.895" y2="498.92236"/>
<line stroke="#000000" x1="472.51468" y1="543.3138" x2="468.6863" y2="516.5147"/>
<line stroke="#000000" x1="472.51468" y1="543.3138" x2="495.06064" y2="525.70844"/>
<line stroke="#000000" x1="495.06064" y1="525.70844" x2="444.68314" y2="663.8956"/>
<line stroke="#000000" x1="495.06064" y1="525.70844" x2="464.10477" y2="672.1057"/>
<line stroke="#000000" x1="495.06064" y1="525.70844" x2="1072.3644" y2="828.94293"/>
<line stroke="#000000" x1="495.06064" y1="525.70844" x2="756.0568" y2="604.36444"/>
<line stroke="#000000" x1="495.06064" y1="525.70844" x2="768.63556" y2="586.6487"/>
<line stroke="#000000" x1="495.06064" y1="525.70844" x2="1066.7443" y2="503.56952"/>
<line stroke="#000000" x1="495.06064" y1="525.70844" x2="715.9834" y2="500.89493"/>
<line stroke="#000000" x1="495.06064" y1="525.70844" x2="736.895" y2="498.92236"/>
<line stroke="#000000" x1="495.06064" y1="525.70844" x2="472.51468" y2="543.3138"/>
<line stroke="#000000" x1="337.5142" y1="330.1335" x2="165.0138" y2="423.76608"/>
<line stroke="#000000" x1="337.5142" y1="330.1335" x2="184.23401" y2="432.46643"/>
<line stroke="#000000" x1="337.5142" y1="330.1335" x2="275.1364" y2="459.13086"/>
<line stroke="#000000" x1="337.5142" y1="330.1335" x2="294.8694" y2="466.51025"/>
<line stroke="#000000" x1="337.5142" y1="330.1335" x2="157.45564" y2="443.5299"/>
<line stroke="#000000" x1="337.5142" y1="330.1335" x2="320.8871" y2="345.90927"/>
<line stroke="#000000" x1="337.5142" y1="330.1335" x2="501.09082" y2="140.88704"/>
<line stroke="#000000" x1="337.5142" y1="330.1335" x2="489.23868" y2="161.09497"/>
<line stroke="#000000" x1="337.5142" y1="330.1335" x2="490.0" y2="100.0"/>
<line stroke="#000000" x1="490.0" y1="100.0" x2="165.0138" y2="423.76608"/>
<line stroke="#000000" x1="490.0" y1="100.0" x2="184.23401" y2="432.46643"/>
<line stroke="#000000" x1="490.0" y1="100.0" x2="157.45564" y2="443.5299"/>
<line stroke="#000000" x1="490.0" y1="100.0" x2="320.8871" y2="345.90927"/>
<line stroke="#000000" x1="490.0" y1="100.0" x2="501.09082" y2="140.88704"/>
<line stroke="#000000" x1="490.0" y1="100.0" x2="517.1128" y2="154.96983"/>
<line stroke="#000000" x1="490.0" y1="100.0" x2="489.23868" y2="161.09497"/>
<line stroke="#000000" x1="490.0" y1="100.0" x2="713.76135" y2="216.0765"/>
<line stroke="#000000" x1="490.0" y1="100.0" x2="689.10504" y2="215.98364"/>
<line stroke="#000000" x1="490.0" y1="100.0" x2="337.5142" y2="330.1335"/>
<line stroke="#000000" x1="100.0" y1="813.0" x2="46.766106" y2="684.98596"/>
<line stroke="#000000" x1="100.0" y1="813.0" x2="65.98609" y2="693.6868"/>
<line stroke="#000000" x1="100.0" y1="813.0" x2="54.922005" y2="664.41394"/>
<line stroke="#000000" x1="100.0" y1="813.0" x2="404.078" y2="812.7694"/>
<line stroke="#000000" x1="100.0" y1="813.0" x2="384.89523" y2="805.317"/>
<line stroke="#000000" x1="100.0" y1="813.0" x2="1072.3644" y2="828.94293"/>
</g>
</svg>
