<svg xmlns="http://www.w3.org/2000/svg" width="1195.0px" height="920.0px" viewBox="0.0 0.0 1195.0 920.0">
<g>
<line stroke="#000000" x1="160.02771" y1="410.53192" x2="198.4679" y2="427.93314"/>
<line stroke="#000000" x1="160.02771" y1="410.53192" x2="33.531998" y2="689.9725"/>
<line stroke="#000000" x1="160.02771" y1="410.53192" x2="49.844006" y2="648.8279"/>
<line stroke="#000000" x1="160.02771" y1="410.53192" x2="269.2729" y2="446.26147"/>
<line stroke="#000000" x1="160.02771" y1="410.53192" x2="308.73865" y2="461.02078"/>
<line stroke="#000000" x1="160.02771" y1="410.53192" x2="144.91136" y2="450.05984"/>
<line stroke="#000000" x1="160.02771" y1="410.53192" x2="1074.7294" y2="842.88617"/>
<line stroke="#000000" x1="160.02771" y1="410.53192" x2="306.7743" y2="346.81842"/>
<line stroke="#000000" x1="160.02771" y1="410.53192" x2="338.81842" y2="374.98367"/>
<line stroke="#000000" x1="160.02771" y1="410.53192" x2="500.1815" y2="126.77427"/>
<line stroke="#000000" x1="160.02771" y1="410.53192" x2="476.47733" y2="167.18991"/>
<line stroke="#000000" x1="160.02771" y1="410.53192" x2="457.3726" y2="508.02945"/>
<line stroke="#000000" x1="160.02771" y1="410.53192" x2="465.02945" y2="561.6274"/>
<line stroke="#000000" x1="160.02771" y1="410.53192" x2="340.02847" y2="315.2672"/>
<line stroke="#000000" x1="198.4679" y1="427.93314" x2="160.02771" y2="410.53192"/>
<line stroke="#000000" x1="198.4679" y1="427.93314" x2="269.2729" y2="446.26147"/>
<line stroke="#000000" x1="198.4679" y1="427.93314" x2="308.73865" y2="461.02078"/>
<line stroke="#000000" x1="198.4679" y1="427.93314" x2="1074.7294" y2="842.88617"/>
<line stroke="#000000" x1="198.4679" y1="427.93314" x2="306.7743" y2="346.81842"/>
<line stroke="#000000" x1="198.4679" y1="427.93314" x2="338.81842" y2="374.98367"/>
<line stroke="#000000" x1="198.4679" y1="427.93314" x2="500.1815" y2="126.77427"/>
<line stroke="#000000" x1="198.4679" y1="427.93314" x2="476.47733" y2="167.18991"/>
<line stroke="#000000" x1="198.4679" y1="427.93314" x2="457.3726" y2="508.02945"/>
<line stroke="#000000" x1="198.4679" y1="427.93314" x2="465.02945" y2="561.6274"/>
<line stroke="#000000" x1="198.4679" y1="427.93314" x2="340.02847" y2="315.2672"/>
<line stroke="#000000" x1="33.531998" y1="689.9725" x2="160.02771" y2="410.53192"/>
<line stroke="#000000" x1="33.531998" y1="689.9725" x2="71.9724" y2="707.37317"/>
<line stroke="#000000" x1="33.531998" y1="689.9725" x2="49.844006" y2="648.8279"/>
<line stroke="#000000" x1="33.531998" y1="689.9725" x2="410.15598" y2="825.5388"/>
<line stroke="#000000" x1="33.531998" y1="689.9725" x2="371.79065" y2="810.63354"/>
<line stroke="#000000" x1="33.531998" y1="689.9725" x2="144.91136" y2="450.05984"/>
<line stroke="#000000" x1="33.531998" y1="689.9725" x2="100.0" y2="813.0"/>
<line stroke="#000000" x1="71.9724" y1="707.37317" x2="33.531998" y2="689.9725"/>
<line stroke="#000000" x1="71.9724" y1="707.37317" x2="410.15598" y2="825.5388"/>
<line stroke="#000000" x1="71.9724" y1="707.37317" x2="371.79065" y2="810.63354"/>
<line stroke="#000000" x1="71.9724" y1="707.37317" x2="100.0" y2="813.0"/>
<line stroke="#000000" x1="49.844006" y1="648.8279" x2="160.02771" y2="410.53192"/>
<line stroke="#000000" x1="49.844006" y1="648.8279" x2="33.531998" y2="689.9725"/>
<line stroke="#000000" x1="49.844006" y1="648.8279" x2="144.91136" y2="450.05984"/>
<line stroke="#000000" x1="49.844006" y1="648.8279" x2="100.0" y2="813.0"/>
<line stroke="#000000" x1="410.15598" y1="825.5388" x2="33.531998" y2="689.9725"/>
<line stroke="#000000" x1="410.15598" y1="825.5388" x2="71.9724" y2="707.37317"/>
<line stroke="#000000" x1="410.15598" y1="825.5388" x2="425.53885" y2="782.2107"/>
<line stroke="#000000" x1="410.15598" y1="825.5388" x2="371.79065" y2="810.63354"/>
<line stroke="#000000" x1="410.15598" y1="825.5388" x2="478.20935" y2="667.212"/>
<line stroke="#000000" x1="410.15598" y1="825.5388" x2="1074.7294" y2="842.88617"/>
<line stroke="#000000" x1="410.15598" y1="825.5388" x2="742.114" y2="606.7293"/>
<line stroke="#000000" x1="410.15598" y1="825.5388" x2="767.2706" y2="571.2969"/>
<line stroke="#000000" x1="410.15598" y1="825.5388" x2="706.96686" y2="511.78986"/>
<line stroke="#000000" x1="410.15598" y1="825.5388" x2="748.7901" y2="507.84467"/>
<line stroke="#000000" x1="410.15598" y1="825.5388" x2="510.1218" y2="526.41754"/>
<line stroke="#000000" x1="410.15598" y1="825.5388" x2="100.0" y2="813.0"/>
<line stroke="#000000" x1="425.53885" y1="782.2107" x2="410.15598" y2="825.5388"/>
<line stroke="#000000" x1="425.53885" y1="782.2107" x2="478.20935" y2="667.212"/>
<line stroke="#000000" x1="425.53885" y1="782.2107" x2="1074.7294" y2="842.88617"/>
<line stroke="#000000" x1="425.53885" y1="782.2107" x2="742.114" y2="606.7293"/>
<line stroke="#000000" x1="425.53885" y1="782.2107" x2="767.2706" y2="571.2969"/>
<line stroke="#000000" x1="425.53885" y1="782.2107" x2="706.96686" y2="511.78986"/>
<line stroke="#000000" x1="425.53885" y1="782.2107" x2="748.7901" y2="507.84467"/>
<line stroke="#000000" x1="425.53885" y1="782.2107" x2="510.1218" y2="526.41754"/>
<line stroke="#000000" x1="371.79065" y1="810.63354" x2="33.531998" y2="689.9725"/>
<line stroke="#000000" x1="371.79065" y1="810.63354" x2="71.9724" y2="707.37317"/>
<line stroke="#000000" x1="371.79065" y1="810.63354" x2="410.15598" y2="825.5388"/>
<line stroke="#000000" x1="371.79065" y1="810.63354" x2="1074.7294" y2="842.88617"/>
<line stroke="#000000" x1="371.79065" y1="810.63354" x2="100.0" y2="813.0"/>
<line stroke="#000000" x1="439.36646" y1="650.7908" x2="478.20935" y2="667.212"/>
<line stroke="#000000" x1="439.36646" y1="650.7908" x2="269.2729" y2="446.26147"/>
<line stroke="#000000" x1="439.36646" y1="650.7908" x2="308.73865" y2="461.02078"/>
<line stroke="#000000" x1="439.36646" y1="650.7908" x2="1074.7294" y2="842.88617"/>
<line stroke="#000000" x1="439.36646" y1="650.7908" x2="742.114" y2="606.7293"/>
<line stroke="#000000" x1="439.36646" y1="650.7908" x2="767.2706" y2="571.2969"/>
<line stroke="#000000" x1="439.36646" y1="650.7908" x2="1073.4884" y2="491.1391"/>
<line stroke="#000000" x1="439.36646" y1="650.7908" x2="306.7743" y2="346.81842"/>
<line stroke="#000000" x1="439.36646" y1="650.7908" x2="338.81842" y2="374.98367"/>
<line stroke="#000000" x1="439.36646" y1="650.7908" x2="706.96686" y2="511.78986"/>
<line stroke="#000000" x1="439.36646" y1="650.7908" x2="748.7901" y2="507.84467"/>
<line stroke="#000000" x1="439.36646" y1="650.7908" x2="457.3726" y2="508.02945"/>
<line stroke="#000000" x1="439.36646" y1="650.7908" x2="465.02945" y2="561.6274"/>
<line stroke="#000000" x1="439.36646" y1="650.7908" x2="510.1218" y2="526.41754"/>
<line stroke="#000000" x1="478.20935" y1="667.212" x2="410.15598" y2="825.5388"/>
<line stroke="#000000" x1="478.20935" y1="667.212" x2="425.53885" y2="782.2107"/>
<line stroke="#000000" x1="478.20935" y1="667.212" x2="439.36646" y2="650.7908"/>
<line stroke="#000000" x1="478.20935" y1="667.212" x2="269.2729" y2="446.26147"/>
<line stroke="#000000" x1="478.20935" y1="667.212" x2="308.73865" y2="461.02078"/>
<line stroke="#000000" x1="478.20935" y1="667.212" x2="1074.7294" y2="842.88617"/>
<line stroke="#000000" x1="478.20935" y1="667.212" x2="742.114" y2="606.7293"/>
<line stroke="#000000" x1="478.20935" y1="667.212" x2="767.2706" y2="571.2969"/>
<line stroke="#000000" x1="478.20935" y1="667.212" x2="1073.4884" y2="491.1391"/>
<line stroke="#000000" x1="478.20935" y1="667.212" x2="306.7743" y2="346.81842"/>
<line stroke="#000000" x1="478.20935" y1="667.212" x2="338.81842" y2="374.98367"/>
<line stroke="#000000" x1="478.20935" y1="667.212" x2="706.96686" y2="511.78986"/>
<line stroke="#000000" x1="478.20935" y1="667.212" x2="748.7901" y2="507.84467"/>
<line stroke="#000000" x1="478.20935" y1="667.212" x2="457.3726" y2="508.02945"/>
<line stroke="#000000" x1="478.20935" y1="667.212" x2="465.02945" y2="561.6274"/>
<line stroke="#000000" x1="478.20935" y1="667.212" x2="510.1218" y2="526.41754"/>
<line stroke="#000000" x1="209.18587" y1="606.5599" x2="225.44014" y2="563.94196"/>
<line stroke="#000000" x1="209.18587" y1="606.5599" x2="248.727" y2="621.48676"/>
<line stroke="#000000" x1="225.44014" y1="563.94196" x2="209.18587" y2="606.5599"/>
<line stroke="#000000" x1="248.727" y1="621.48676" x2="209.18587" y2="606.5599"/>
<line stroke="#000000" x1="269.2729" y1="446.26147" x2="160.02771" y2="410.53192"/>
<line stroke="#000000" x1="269.2729" y1="446.26147" x2="198.4679" y2="427.93314"/>
<line stroke="#000000" x1="269.2729" y1="446.26147" x2="439.36646" y2="650.7908"/>
<line stroke="#000000" x1="269.2729" y1="446.26147" x2="478.20935" y2="667.212"/>
<line stroke="#000000" x1="269.2729" y1="446.26147" x2="308.73865" y2="461.02078"/>
<line stroke="#000000" x1="269.2729" y1="446.26147" x2="1074.7294" y2="842.88617"/>
<line stroke="#000000" x1="269.2729" y1="446.26147" x2="306.7743" y2="346.81842"/>
<line stroke="#000000" x1="269.2729" y1="446.26147" x2="338.81842" y2="374.98367"/>
<line stroke="#000000" x1="269.2729" y1="446.26147" x2="457.3726" y2="508.02945"/>
<line stroke="#000000" x1="269.2729" y1="446.26147" x2="465.02945" y2="561.6274"/>
<line stroke="#000000" x1="269.2729" y1="446.26147" x2="340.02847" y2="315.2672"/>
<line stroke="#000000" x1="308.73865" y1="461.02078" x2="160.02771" y2="410.53192"/>
<line stroke="#000000" x1="308.73865" y1="461.02078" x2="198.4679" y2="427.93314"/>
<line stroke="#000000" x1="308.73865" y1="461.02078" x2="439.36646" y2="650.7908"/>
<line stroke="#000000" x1="308.73865" y1="461.02078" x2="478.20935" y2="667.212"/>
<line stroke="#000000" x1="308.73865" y1="461.02078" x2="269.2729" y2="446.26147"/>
<line stroke="#000000" x1="308.73865" y1="461.02078" x2="1074.7294" y2="842.88617"/>
<line stroke="#000000" x1="308.73865" y1="461.02078" x2="306.7743" y2="346.81842"/>
<line stroke="#000000" x1="308.73865" y1="461.02078" x2="338.81842" y2="374.98367"/>
<line stroke="#000000" x1="308.73865" y1="461.02078" x2="457.3726" y2="508.02945"/>
<line stroke="#000000" x1="308.73865" y1="461.02078" x2="465.02945" y2="561.6274"/>
<line stroke="#000000" x1="308.73865" y1="461.02078" x2="340.02847" y2="315.2672"/>
<line stroke="#000000" x1="144.91136" y1="450.05984" x2="160.02771" y2="410.53192"/>
<line stroke="#000000" x1="144.91136" y1="450.05984" x2="33.531998" y2="689.9725"/>
<line stroke="#000000" x1="144.91136" y1="450.05984" x2="49.844006" y2="648.8279"/>
<line stroke="#000000" x1="144.91136" y1="450.05984" x2="306.7743" y2="346.81842"/>
<line stroke="#000000" x1="144.91136" y1="450.05984" x2="500.1815" y2="126.77427"/>
<line stroke="#000000" x1="144.91136" y1="450.05984" x2="476.47733" y2="167.18991"/>
<line stroke="#000000" x1="144.91136" y1="450.05984" x2="340.02847" y2="315.2672"/>
<line stroke="#000000" x1="1074.7294" y1="842.88617" x2="160.02771" y2="410.53192"/>
<line stroke="#000000" x1="1074.7294" y1="842.88617" x2="198.4679" y2="427.93314"/>
<line stroke="#000000" x1="1074.7294" y1="842.88617" x2="410.15598" y2="825.5388"/>
<line stroke="#000000" x1="1074.7294" y1="842.88617" x2="425.53885" y2="782.2107"/>
<line stroke="#000000" x1="1074.7294" y1="842.88617" x2="371.79065" y2="810.63354"/>
<line stroke="#000000" x1="1074.7294" y1="842.88617" x2="439.36646" y2="650.7908"/>
<line stroke="#000000" x1="1074.7294" y1="842.88617" x2="478.20935" y2="667.212"/>
<line stroke="#000000" x1="1074.7294" y1="842.88617" x2="269.2729" y2="446.26147"/>
<line stroke="#000000" x1="1074.7294" y1="842.88617" x2="308.73865" y2="461.02078"/>
<line stroke="#000000" x1="1074.7294" y1="842.88617" x2="1099.8859" y2="807.45374"/>
<line stroke="#000000" x1="1074.7294" y1="842.88617" x2="742.114" y2="606.7293"/>
<line stroke="#000000" x1="1074.7294" y1="842.88617" x2="1073.4884" y2="491.1391"/>
<line stroke="#000000" x1="1074.7294" y1="842.88617" x2="1086.861" y2="536.2325"/>
<line stroke="#000000" x1="1074.7294" y1="842.88617" x2="465.02945" y2="561.6274"/>
<line stroke="#000000" x1="1074.7294" y1="842.88617" x2="510.1218" y2="526.41754"/>
<line stroke="#000000" x1="1074.7294" y1="842.88617" x2="100.0" y2="813.0"/>
<line stroke="#000000" x1="1099.8859" y1="807.45374" x2="1074.7294" y2="842.88617"/>
<line stroke="#000000" x1="1099.8859" y1="807.45374" x2="1073.4884" y2="491.1391"/>
<line stroke="#000000" x1="1099.8859" y1="807.45374" x2="1086.861" y2="536.2325"/>
<line stroke="#000000" x1="742.114" y1="606.7293" x2="410.15598" y2="825.5388"/>
<line stroke="#000000" x1="742.114" y1="606.7293" x2="425.53885" y2="782.2107"/>
<line stroke="#000000" x1="742.114" y1="606.7293" x2="439.36646" y2="650.7908"/>
<line stroke="#000000" x1="742.114" y1="606.7293" x2="478.20935" y2="667.212"/>
<line stroke="#000000" x1="742.114" y1="606.7293" x2="1074.7294" y2="842.88617"/>
<line stroke="#000000" x1="742.114" y1="606.7293" x2="767.2706" y2="571.2969"/>
<line stroke="#000000" x1="742.114" y1="606.7293" x2="1073.4884" y2="491.1391"/>
<line stroke="#000000" x1="742.114" y1="606.7293" x2="712.18994" y2="250.52267"/>
<line stroke="#000000" x1="742.114" y1="606.7293" x2="727.5226" y2="207.15285"/>
<line stroke="#000000" x1="742.114" y1="606.7293" x2="706.96686" y2="511.78986"/>
<line stroke="#000000" x1="742.114" y1="606.7293" x2="748.7901" y2="507.84467"/>
<line stroke="#000000" x1="742.114" y1="606.7293" x2="741.9705" y2="467.3726"/>
<line stroke="#000000" x1="742.114" y1="606.7293" x2="465.02945" y2="561.6274"/>
<line stroke="#000000" x1="742.114" y1="606.7293" x2="510.1218" y2="526.41754"/>
<line stroke="#000000" x1="742.114" y1="606.7293" x2="986.0" y2="166.0"/>
<line stroke="#000000" x1="767.2706" y1="571.2969" x2="410.15598" y2="825.5388"/>
<line stroke="#000000" x1="767.2706" y1="571.2969" x2="425.53885" y2="782.2107"/>
<line stroke="#000000" x1="767.2706" y1="571.2969" x2="439.36646" y2="650.7908"/>
<line stroke="#000000" x1="767.2706" y1="571.2969" x2="478.20935" y2="667.212"/>
<line stroke="#000000" x1="767.2706" y1="571.2969" x2="742.114" y2="606.7293"/>
<line stroke="#000000" x1="767.2706" y1="571.2969" x2="1073.4884" y2="491.1391"/>
<line stroke="#000000" x1="767.2706" y1="571.2969" x2="712.18994" y2="250.52267"/>
<line stroke="#000000" x1="767.2706" y1="571.2969" x2="727.5226" y2="207.15285"/>
<line stroke="#000000" x1="767.2706" y1="571.2969" x2="706.96686" y2="511.78986"/>
<line stroke="#000000" x1="767.2706" y1="571.2969" x2="748.7901" y2="507.84467"/>
<line stroke="#000000" x1="767.2706" y1="571.2969" x2="741.9705" y2="467.3726"/>
<line stroke="#000000" x1="767.2706" y1="571.2969" x2="465.02945" y2="561.6274"/>
<line stroke="#000000" x1="767.2706" y1="571.2969" x2="510.1218" y2="526.41754"/>
<line stroke="#000000" x1="767.2706" y1="571.2969" x2="986.0" y2="166.0"/>
<line stroke="#000000" x1="1073.4884" y1="491.1391" x2="439.36646" y2="650.7908"/>
<line stroke="#000000" x1="1073.4884" y1="491.1391" x2="478.20935" y2="667.212"/>
<line stroke="#000000" x1="1073.4884" y1="491.1391" x2="1074.7294" y2="842.88617"/>
<line stroke="#000000" x1="1073.4884" y1="491.1391" x2="1099.8859" y2="807.45374"/>
<line stroke="#000000" x1="1073.4884" y1="491.1391" x2="742.114" y2="606.7293"/>
<line stroke="#000000" x1="1073.4884" y1="491.1391" x2="767.2706" y2="571.2969"/>
<line stroke="#000000" x1="1073.4884" y1="491.1391" x2="1086.861" y2="536.2325"/>
<line stroke="#000000" x1="1073.4884" y1="491.1391" x2="712.18994" y2="250.52267"/>
<line stroke="#000000" x1="1073.4884" y1="491.1391" x2="727.5226" y2="207.15285"/>
<line stroke="#000000" x1="1073.4884" y1="491.1391" x2="678.20996" y2="206.96696"/>
<line stroke="#000000" x1="1073.4884" y1="491.1391" x2="706.96686" y2="511.78986"/>
<line stroke="#000000" x1="1073.4884" y1="491.1391" x2="748.7901" y2="507.84467"/>
<line stroke="#000000" x1="1073.4884" y1="491.1391" x2="741.9705" y2="467.3726"/>
<line stroke="#000000" x1="1073.4884" y1="491.1391" x2="465.02945" y2="561.6274"/>
<line stroke="#000000" x1="1073.4884" y1="491.1391" x2="510.1218" y2="526.41754"/>
<line stroke="#000000" x1="1073.4884" y1="491.1391" x2="986.0" y2="166.0"/>
<line stroke="#000000" x1="1086.861" y1="536.2325" x2="1074.7294" y2="842.88617"/>
<line stroke="#000000" x1="1086.861" y1="536.2325" x2="1099.8859" y2="807.45374"/>
<line stroke="#000000" x1="1086.861" y1="536.2325" x2="1073.4884" y2="491.1391"/>
<line stroke="#000000" x1="1086.861" y1="536.2325" x2="712.18994" y2="250.52267"/>
<line stroke="#000000" x1="1086.861" y1="536.2325" x2="727.5226" y2="207.15285"/>
<line stroke="#000000" x1="1086.861" y1="536.2325" x2="678.20996" y2="206.96696"/>
<line stroke="#000000" x1="1086.861" y1="536.2325" x2="986.0" y2="166.0"/>
<line stroke="#000000" x1="306.7743" y1="346.81842" x2="160.02771" y2="410.53192"/>
<line stroke="#000000" x1="306.7743" y1="346.81842" x2="198.4679" y2="427.93314"/>
<line stroke="#000000" x1="306.7743" y1="346.81842" x2="439.36646" y2="650.7908"/>
<line stroke="#000000" x1="306.7743" y1="346.81842" x2="478.20935" y2="667.212"/>
<line stroke="#000000" x1="306.7743" y1="346.81842" x2="269.2729" y2="446.26147"/>
<line stroke="#000000" x1="306.7743" y1="346.81842" x2="308.73865" y2="461.02078"/>
<line stroke="#000000" x1="306.7743" y1="346.81842" x2="144.91136" y2="450.05984"/>
<line stroke="#000000" x1="306.7743" y1="346.81842" x2="338.81842" y2="374.98367"/>
<line stroke="#000000" x1="306.7743" y1="346.81842" x2="500.1815" y2="126.77427"/>
<line stroke="#000000" x1="306.7743" y1="346.81842" x2="476.47733" y2="167.18991"/>
<line stroke="#000000" x1="306.7743" y1="346.81842" x2="457.3726" y2="508.02945"/>
<line stroke="#000000" x1="306.7743" y1="346.81842" x2="465.02945" y2="561.6274"/>
<line stroke="#000000" x1="306.7743" y1="346.81842" x2="340.02847" y2="315.2672"/>
<line stroke="#000000" x1="338.81842" y1="374.98367" x2="160.02771" y2="410.53192"/>
<line stroke="#000000" x1="338.81842" y1="374.98367" x2="198.4679" y2="427.93314"/>
<line stroke="#000000" x1="338.81842" y1="374.98367" x2="439.36646" y2="650.7908"/>
<line stroke="#000000" x1="338.81842" y1="374.98367" x2="478.20935" y2="667.212"/>
<line stroke="#000000" x1="338.81842" y1="374.98367" x2="269.2729" y2="446.26147"/>
<line stroke="#000000" x1="338.81842" y1="374.98367" x2="308.73865" y2="461.02078"/>
<line stroke="#000000" x1="338.81842" y1="374.98367" x2="306.7743" y2="346.81842"/>
<line stroke="#000000" x1="338.81842" y1="374.98367" x2="457.3726" y2="508.02945"/>
<line stroke="#000000" x1="338.81842" y1="374.98367" x2="465.02945" y2="561.6274"/>
<line stroke="#000000" x1="500.1815" y1="126.77427" x2="160.02771" y2="410.53192"/>
<line stroke="#000000" x1="500.1815" y1="126.77427" x2="198.4679" y2="427.93314"/>
<line stroke="#000000" x1="500.1815" y1="126.77427" x2="144.91136" y2="450.05984"/>
<line stroke="#000000" x1="500.1815" y1="126.77427" x2="306.7743" y2="346.81842"/>
<line stroke="#000000" x1="500.1815" y1="126.77427" x2="532.22577" y2="154.93939"/>
<line stroke="#000000" x1="500.1815" y1="126.77427" x2="476.47733" y2="167.18991"/>
<line stroke="#000000" x1="500.1815" y1="126.77427" x2="727.5226" y2="207.15285"/>
<line stroke="#000000" x1="500.1815" y1="126.77427" x2="678.20996" y2="206.96696"/>
<line stroke="#000000" x1="500.1815" y1="126.77427" x2="340.02847" y2="315.2672"/>
<line stroke="#000000" x1="500.1815" y1="126.77427" x2="986.0" y2="166.0"/>
<line stroke="#000000" x1="532.22577" y1="154.93939" x2="500.1815" y2="126.77427"/>
<line stroke="#000000" x1="532.22577" y1="154.93939" x2="727.5226" y2="207.15285"/>
<line stroke="#000000" x1="532.22577" y1="154.93939" x2="678.20996" y2="206.96696"/>
<line stroke="#000000" x1="532.22577" y1="154.93939" x2="986.0" y2="166.0"/>
<line stroke="#000000" x1="476.47733" y1="167.18991" x2="160.02771" y2="410.53192"/>
<line stroke="#000000" x1="476.47733" y1="167.18991" x2="198.4679" y2="427.93314"/>
<line stroke="#000000" x1="476.47733" y1="167.18991" x2="144.91136" y2="450.05984"/>
<line stroke="#000000" x1="476.47733" y1="167.18991" x2="306.7743" y2="346.81842"/>
<line stroke="#000000" x1="476.47733" y1="167.18991" x2="500.1815" y2="126.77427"/>
<line stroke="#000000" x1="476.47733" y1="167.18991" x2="340.02847" y2="315.2672"/>
<line stroke="#000000" x1="712.18994" y1="250.52267" x2="742.114" y2="606.7293"/>
<line stroke="#000000" x1="712.18994" y1="250.52267" x2="767.2706" y2="571.2969"/>
<line stroke="#000000" x1="712.18994" y1="250.52267" x2="1073.4884" y2="491.1391"/>
<line stroke="#000000" x1="712.18994" y1="250.52267" x2="1086.861" y2="536.2325"/>
<line stroke="#000000" x1="712.18994" y1="250.52267" x2="727.5226" y2="207.15285"/>
<line stroke="#000000" x1="712.18994" y1="250.52267" x2="748.7901" y2="507.84467"/>
<line stroke="#000000" x1="712.18994" y1="250.52267" x2="741.9705" y2="467.3726"/>
<line stroke="#000000" x1="712.18994" y1="250.52267" x2="986.0" y2="166.0"/>
<line stroke="#000000" x1="727.5226" y1="207.15285" x2="742.114" y2="606.7293"/>
<line stroke="#000000" x1="727.5226" y1="207.15285" x2="767.2706" y2="571.2969"/>
<line stroke="#000000" x1="727.5226" y1="207.15285" x2="1073.4884" y2="491.1391"/>
<line stroke="#000000" x1="727.5226" y1="207.15285" x2="1086.861" y2="536.2325"/>
<line stroke="#000000" x1="727.5226" y1="207.15285" x2="500.1815" y2="126.77427"/>
<line stroke="#000000" x1="727.5226" y1="207.15285" x2="532.22577" y2="154.93939"/>
<line stroke="#000000" x1="727.5226" y1="207.15285" x2="712.18994" y2="250.52267"/>
<line stroke="#000000" x1="727.5226" y1="207.15285" x2="678.20996" y2="206.96696"/>
<line stroke="#000000" x1="727.5226" y1="207.15285" x2="748.7901" y2="507.84467"/>
<line stroke="#000000" x1="727.5226" y1="207.15285" x2="741.9705" y2="467.3726"/>
<line stroke="#000000" x1="727.5226" y1="207.15285" x2="986.0" y2="166.0"/>
<line stroke="#000000" x1="678.20996" y1="206.96696" x2="1073.4884" y2="491.1391"/>
<line stroke="#000000" x1="678.20996" y1="206.96696" x2="1086.861" y2="536.2325"/>
<line stroke="#000000" x1="678.20996" y1="206.96696" x2="500.1815" y2="126.77427"/>
<line stroke="#000000" x1="678.20996" y1="206.96696" x2="532.22577" y2="154.93939"/>
<line stroke="#000000" x1="678.20996" y1="206.96696" x2="727.5226" y2="207.15285"/>
<line stroke="#000000" x1="678.20996" y1="206.96696" x2="986.0" y2="166.0"/>
<line stroke="#000000" x1="706.96686" y1="511.78986" x2="410.15598" y2="825.5388"/>
<line stroke="#000000" x1="706.96686" y1="511.78986" x2="425.53885" y2="782.2107"/>
<line stroke="#000000" x1="706.96686" y1="511.78986" x2="439.36646" y2="650.7908"/>
<line stroke="#000000" x1="706.96686" y1="511.78986" x2="478.20935" y2="667.212"/>
<line stroke="#000000" x1="706.96686" y1="511.78986" x2="742.114" y2="606.7293"/>
<line stroke="#000000" x1="706.96686" y1="511.78986" x2="767.2706" y2="571.2969"/>
<line stroke="#000000" x1="706.96686" y1="511.78986" x2="1073.4884" y2="491.1391"/>
<line stroke="#000000" x1="706.96686" y1="511.78986" x2="748.7901" y2="507.84467"/>
<line stroke="#000000" x1="706.96686" y1="511.78986" x2="465.02945" y2="561.6274"/>
<line stroke="#000000" x1="706.96686" y1="511.78986" x2="510.1218" y2="526.41754"/>
<line stroke="#000000" x1="748.7901" y1="507.84467" x2="410.15598" y2="825.5388"/>
<line stroke="#000000" x1="748.7901" y1="507.84467" x2="425.53885" y2="782.2107"/>
<line stroke="#000000" x1="748.7901" y1="507.84467" x2="439.36646" y2="650.7908"/>
<line stroke="#000000" x1="748.7901" y1="507.84467" x2="478.20935" y2="667.212"/>
<line stroke="#000000" x1="748.7901" y1="507.84467" x2="742.114" y2="606.7293"/>
<line stroke="#000000" x1="748.7901" y1="507.84467" x2="767.2706" y2="571.2969"/>
<line stroke="#000000" x1="748.7901" y1="507.84467" x2="1073.4884" y2="491.1391"/>
<line stroke="#000000" x1="748.7901" y1="507.84467" x2="712.18994" y2="250.52267"/>
<line stroke="#000000" x1="748.7901" y1="507.84467" x2="727.5226" y2="207.15285"/>
<line stroke="#000000" x1="748.7901" y1="507.84467" x2="706.96686" y2="511.78986"/>
<line stroke="#000000" x1="748.7901" y1="507.84467" x2="741.9705" y2="467.3726"/>
<line stroke="#000000" x1="748.7901" y1="507.84467" x2="465.02945" y2="561.6274"/>
<line stroke="#000000" x1="748.7901" y1="507.84467" x2="510.1218" y2="526.41754"/>
<line stroke="#000000" x1="748.7901" y1="507.84467" x2="986.0" y2="166.0"/>
<line stroke="#000000" x1="741.9705" y1="467.3726" x2="742.114" y2="606.7293"/>
<line stroke="#000000" x1="741.9705" y1="467.3726" x2="767.2706" y2="571.2969"/>
<line stroke="#000000" x1="741.9705" y1="467.3726" x2="1073.4884" y2="491.1391"/>
<line stroke="#000000" x1="741.9705" y1="467.3726" x2="712.18994" y2="250.52267"/>
<line stroke="#000000" x1="741.9705" y1="467.3726" x2="727.5226" y2="207.15285"/>
<line stroke="#000000" x1="741.9705" y1="467.3726" x2="748.7901" y2="507.84467"/>
<line stroke="#000000" x1="741.9705" y1="467.3726" x2="986.0" y2="166.0"/>
<line stroke="#000000" x1="457.3726" y1="508.02945" x2="160.02771" y2="410.53192"/>
<line stroke="#000000" x1="457.3726" y1="508.02945" x2="198.4679" y2="427.93314"/>
<line stroke="#000000" x1="457.3726" y1="508.02945" x2="439.36646" y2="650.7908"/>
<line stroke="#000000" x1="457.3726" y1="508.02945" x2="478.20935" y2="667.212"/>
<line stroke="#000000" x1="457.3726" y1="508.02945" x2="269.2729" y2="446.26147"/>
<line stroke="#000000" x1="457.3726" y1="508.02945" x2="308.73865" y2="461.02078"/>
<line stroke="#000000" x1="457.3726" y1="508.02945" x2="306.7743" y2="346.81842"/>
<line stroke="#000000" x1="457.3726" y1="508.02945" x2="338.81842" y2="374.98367"/>
<line stroke="#000000" x1="457.3726" y1="508.02945" x2="465.02945" y2="561.6274"/>
<line stroke="#000000" x1="465.02945" y1="561.6274" x2="160.02771" y2="410.53192"/>
<line stroke="#000000" x1="465.02945" y1="561.6274" x2="198.4679" y2="427.93314"/>
<line stroke="#000000" x1="465.02945" y1="561.6274" x2="439.36646" y2="650.7908"/>
<line stroke="#000000" x1="465.02945" y1="561.6274" x2="478.20935" y2="667.212"/>
<line stroke="#000000" x1="465.02945" y1="561.6274" x2="269.2729" y2="446.26147"/>
<line stroke="#000000" x1="465.02945" y1="561.6274" x2="308.73865" y2="461.02078"/>
<line stroke="#000000" x1="465.02945" y1="561.6274" x2="1074.7294" y2="842.88617"/>
<line stroke="#000000" x1="465.02945" y1="561.6274" x2="742.114" y2="606.7293"/>
<line stroke="#000000" x1="465.02945" y1="561.6274" x2="767.2706" y2="571.2969"/>
<line stroke="#000000" x1="465.02945" y1="561.6274" x2="1073.4884" y2="491.1391"/>
<line stroke="#000000" x1="465.02945" y1="561.6274" x2="306.7743" y2="346.81842"/>
<line stroke="#000000" x1="465.02945" y1="561.6274" x2="338.81842" y2="374.98367"/>
<line stroke="#000000" x1="465.02945" y1="561.6274" x2="706.96686" y2="511.78986"/>
<line stroke="#000000" x1="465.02945" y1="561.6274" x2="748.7901" y2="507.84467"/>
<line stroke="#000000" x1="465.02945" y1="561.6274" x2="457.3726" y2="508.02945"/>
<line stroke="#000000" x1="465.02945" y1="561.6274" x2="510.1218" y2="526.41754"/>
<line stroke="#000000" x1="510.1218" y1="526.41754" x2="410.15598" y2="825.5388"/>
<line stroke="#000000" x1="510.1218" y1="526.41754" x2="425.53885" y2="782.2107"/>
<line stroke="#000000" x1="510.1218" y1="526.41754" x2="439.36646" y2="650.7908"/>
<line stroke="#000000" x1="510.1218" y1="526.41754" x2="478.20935" y2="667.212"/>
<line stroke="#000000" x1="510.1218" y1="526.41754" x2="1074.7294" y2="842.88617"/>
<line stroke="#000000" x1="510.1218" y1="526.41754" x2="742.114" y2="606.7293"/>
<line stroke="#000000" x1="510.1218" y1="526.41754" x2="767.2706" y2="571.2969"/>
<line stroke="#000000" x1="510.1218" y1="526.41754" x2="1073.4884" y2="491.1391"/>
<line stroke="#000000" x1="510.1218" y1="526.41754" x2="706.96686" y2="511.78986"/>
<line stroke="#000000" x1="510.1218" y1="526.41754" x2="748.7901" y2="507.84467"/>
<line stroke="#000000" x1="510.1218" y1="526.41754" x2="465.02945" y2="561.6274"/>
<line stroke="#000000" x1="340.02847" y1="315.2672" x2="160.02771" y2="410.53192"/>
<line stroke="#000000" x1="340.02847" y1="315.2672" x2="198.4679" y2="427.93314"/>
<line stroke="#000000" x1="340.02847" y1="315.2672" x2="269.2729" y2="446.26147"/>
<line stroke="#000000" x1="340.02847" y1="315.2672" x2="308.73865" y2="461.02078"/>
<line stroke="#000000" x1="340.02847" y1="315.2672" x2="144.91136" y2="450.05984"/>
<line stroke="#000000" x1="340.02847" y1="315.2672" x2="306.7743" y2="346.81842"/>
<line stroke="#000000" x1="340.02847" y1="315.2672" x2="500.1815" y2="126.77427"/>
<line stroke="#000000" x1="340.02847" y1="315.2672" x2="476.47733" y2="167.18991"/>
<line stroke="#000000" x1="100.0" y1="813.0" x2="33.531998" y2="689.9725"/>
<line stroke="#000000" x1="100.0" y1="813.0" x2="71.9724" y2="707.37317"/>
<line stroke="#000000" x1="100.0" y1="813.0" x2="49.844006" y2="648.8279"/>
<line stroke="#000000" x1="100.0" y1="813.0" x2="410.15598" y2="825.5388"/>
<line stroke="#000000" x1="100.0" y1="813.0" x2="371.79065" y2="810.63354"/>
<line stroke="#000000" x1="100.0" y1="813.0" x2="1074.7294" y2="842.88617"/>
<line stroke="#000000" x1="986.0" y1="166.0" x2="742.114" y2="606.7293"/>
<line stroke="#000000" x1="986.0" y1="166.0" x2="767.2706" y2="571.2969"/>
<line stroke="#000000" x1="986.0" y1="166.0" x2="1073.4884" y2="491.1391"/>
<line stroke="#000000" x1="986.0" y1="166.0" x2="1086.861" y2="536.2325"/>
<line stroke="#000000" x1="986.0" y1="166.0" x2="500.1815" y2="126.77427"/>
<line stroke="#000000" x1="986.0" y1="166.0" x2="532.22577" y2="154.93939"/>
<line stroke="#000000" x1="986.0" y1="166.0" x2="712.18994" y2="250.52267"/>
<line stroke="#000000" x1="986.0" y1="166.0" x2="727.5226" y2="207.15285"/>
<line stroke="#000000" x1="986.0" y1="166.0" x2="678.20996" y2="206.96696"/>
<line stroke="#000000" x1="986.0" y1="166.0" x2="748.7901" y2="507.84467"/>
<line stroke="#000000" x1="986.0" y1="166.0" x2="741.9705" y2="467.3726"/>
</g>
</svg>
