<svg xmlns="http://www.w3.org/2000/svg" width="1195.0px" height="920.0px" viewBox="0.0 0.0 1195.0 920.0">
<g>
<line stroke="#000000" x1="165.0138" y1="496.23392" x2="184.23401" y2="487.53357"/>
<line stroke="#000000" x1="165.0138" y1="496.23392" x2="46.766106" y2="235.01404"/>
<line stroke="#000000" x1="165.0138" y1="496.23392" x2="54.922005" y2="255.58606"/>
<line stroke="#000000" x1="165.0138" y1="496.23392" x2="275.1364" y2="460.86914"/>
<line stroke="#000000" x1="165.0138" y1="496.23392" x2="294.8694" y2="453.48975"/>
<line stroke="#000000" x1="165.0138" y1="496.23392" x2="157.45564" y2="476.4701"/>
<line stroke="#000000" x1="165.0138" y1="496.23392" x2="320.8871" y2="574.0907"/>
<line stroke="#000000" x1="165.0138" y1="496.23392" x2="336.9093" y2="560.00824"/>
<line stroke="#000000" x1="165.0138" y1="496.23392" x2="501.09082" y2="779.113"/>
<line stroke="#000000" x1="165.0138" y1="496.23392" x2="489.23868" y2="758.905"/>
<line stroke="#000000" x1="165.0138" y1="496.23392" x2="468.6863" y2="403.4853"/>
<line stroke="#000000" x1="165.0138" y1="496.23392" x2="472.51468" y2="376.68622"/>
<line stroke="#000000" x1="165.0138" y1="496.23392" x2="337.5142" y2="589.86646"/>
<line stroke="#000000" x1="165.0138" y1="496.23392" x2="490.0" y2="820.0"/>
<line stroke="#000000" x1="184.23401" y1="487.53357" x2="165.0138" y2="496.23392"/>
<line stroke="#000000" x1="184.23401" y1="487.53357" x2="275.1364" y2="460.86914"/>
<line stroke="#000000" x1="184.23401" y1="487.53357" x2="294.8694" y2="453.48975"/>
<line stroke="#000000" x1="184.23401" y1="487.53357" x2="320.8871" y2="574.0907"/>
<line stroke="#000000" x1="184.23401" y1="487.53357" x2="336.9093" y2="560.00824"/>
<line stroke="#000000" x1="184.23401" y1="487.53357" x2="501.09082" y2="779.113"/>
<line stroke="#000000" x1="184.23401" y1="487.53357" x2="489.23868" y2="758.905"/>
<line stroke="#000000" x1="184.23401" y1="487.53357" x2="468.6863" y2="403.4853"/>
<line stroke="#000000" x1="184.23401" y1="487.53357" x2="472.51468" y2="376.68622"/>
<line stroke="#000000" x1="184.23401" y1="487.53357" x2="337.5142" y2="589.86646"/>
<line stroke="#000000" x1="184.23401" y1="487.53357" x2="490.0" y2="820.0"/>
<line stroke="#000000" x1="46.766106" y1="235.01404" x2="165.0138" y2="496.23392"/>
<line stroke="#000000" x1="46.766106" y1="235.01404" x2="65.98609" y2="226.31317"/>
<line stroke="#000000" x1="46.766106" y1="235.01404" x2="54.922005" y2="255.58606"/>
<line stroke="#000000" x1="46.766106" y1="235.01404" x2="404.078" y2="107.23059"/>
<line stroke="#000000" x1="46.766106" y1="235.01404" x2="384.89523" y2="114.68298"/>
<line stroke="#000000" x1="46.766106" y1="235.01404" x2="157.45564" y2="476.4701"/>
<line stroke="#000000" x1="46.766106" y1="235.01404" x2="100.0" y2="107.0"/>
<line stroke="#000000" x1="65.98609" y1="226.31317" x2="46.766106" y2="235.01404"/>
<line stroke="#000000" x1="65.98609" y1="226.31317" x2="404.078" y2="107.23059"/>
<line stroke="#000000" x1="65.98609" y1="226.31317" x2="384.89523" y2="114.68298"/>
<line stroke="#000000" x1="65.98609" y1="226.31317" x2="100.0" y2="107.0"/>
<line stroke="#000000" x1="54.922005" y1="255.58606" x2="165.0138" y2="496.23392"/>
<line stroke="#000000" x1="54.922005" y1="255.58606" x2="46.766106" y2="235.01404"/>
<line stroke="#000000" x1="54.922005" y1="255.58606" x2="157.45564" y2="476.4701"/>
<line stroke="#000000" x1="54.922005" y1="255.58606" x2="100.0" y2="107.0"/>
<line stroke="#000000" x1="404.078" y1="107.23059" x2="46.766106" y2="235.01404"/>
<line stroke="#000000" x1="404.078" y1="107.23059" x2="65.98609" y2="226.31317"/>
<line stroke="#000000" x1="404.078" y1="107.23059" x2="411.7694" y2="128.89465"/>
<line stroke="#000000" x1="404.078" y1="107.23059" x2="384.89523" y2="114.68298"/>
<line stroke="#000000" x1="404.078" y1="107.23059" x2="464.10477" y2="247.89429"/>
<line stroke="#000000" x1="404.078" y1="107.23059" x2="1072.3644" y2="91.05707"/>
<line stroke="#000000" x1="404.078" y1="107.23059" x2="756.0568" y2="315.63556"/>
<line stroke="#000000" x1="404.078" y1="107.23059" x2="768.63556" y2="333.35132"/>
<line stroke="#000000" x1="404.078" y1="107.23059" x2="715.9834" y2="419.10507"/>
<line stroke="#000000" x1="404.078" y1="107.23059" x2="736.895" y2="421.07764"/>
<line stroke="#000000" x1="404.078" y1="107.23059" x2="100.0" y2="107.0"/>
<line stroke="#000000" x1="411.7694" y1="128.89465" x2="404.078" y2="107.23059"/>
<line stroke="#000000" x1="411.7694" y1="128.89465" x2="464.10477" y2="247.89429"/>
<line stroke="#000000" x1="411.7694" y1="128.89465" x2="1072.3644" y2="91.05707"/>
<line stroke="#000000" x1="411.7694" y1="128.89465" x2="756.0568" y2="315.63556"/>
<line stroke="#000000" x1="411.7694" y1="128.89465" x2="768.63556" y2="333.35132"/>
<line stroke="#000000" x1="411.7694" y1="128.89465" x2="715.9834" y2="419.10507"/>
<line stroke="#000000" x1="411.7694" y1="128.89465" x2="736.895" y2="421.07764"/>
<line stroke="#000000" x1="384.89523" y1="114.68298" x2="46.766106" y2="235.01404"/>
<line stroke="#000000" x1="384.89523" y1="114.68298" x2="65.98609" y2="226.31317"/>
<line stroke="#000000" x1="384.89523" y1="114.68298" x2="404.078" y2="107.23059"/>
<line stroke="#000000" x1="384.89523" y1="114.68298" x2="1072.3644" y2="91.05707"/>
<line stroke="#000000" x1="384.89523" y1="114.68298" x2="100.0" y2="107.0"/>
<line stroke="#000000" x1="444.68314" y1="256.10437" x2="464.10477" y2="247.89429"/>
<line stroke="#000000" x1="444.68314" y1="256.10437" x2="275.1364" y2="460.86914"/>
<line stroke="#000000" x1="444.68314" y1="256.10437" x2="294.8694" y2="453.48975"/>
<line stroke="#000000" x1="444.68314" y1="256.10437" x2="1072.3644" y2="91.05707"/>
<line stroke="#000000" x1="444.68314" y1="256.10437" x2="756.0568" y2="315.63556"/>
<line stroke="#000000" x1="444.68314" y1="256.10437" x2="768.63556" y2="333.35132"/>
<line stroke="#000000" x1="444.68314" y1="256.10437" x2="1066.7443" y2="416.43048"/>
<line stroke="#000000" x1="444.68314" y1="256.10437" x2="320.8871" y2="574.0907"/>
<line stroke="#000000" x1="444.68314" y1="256.10437" x2="336.9093" y2="560.00824"/>
<line stroke="#000000" x1="444.68314" y1="256.10437" x2="715.9834" y2="419.10507"/>
<line stroke="#000000" x1="444.68314" y1="256.10437" x2="736.895" y2="421.07764"/>
<line stroke="#000000" x1="444.68314" y1="256.10437" x2="468.6863" y2="403.4853"/>
<line stroke="#000000" x1="444.68314" y1="256.10437" x2="472.51468" y2="376.68622"/>
<line stroke="#000000" x1="444.68314" y1="256.10437" x2="495.06064" y2="394.29156"/>
<line stroke="#000000" x1="464.10477" y1="247.89429" x2="404.078" y2="107.23059"/>
<line stroke="#000000" x1="464.10477" y1="247.89429" x2="411.7694" y2="128.89465"/>
<line stroke="#000000" x1="464.10477" y1="247.89429" x2="444.68314" y2="256.10437"/>
<line stroke="#000000" x1="464.10477" y1="247.89429" x2="275.1364" y2="460.86914"/>
<line stroke="#000000" x1="464.10477" y1="247.89429" x2="294.8694" y2="453.48975"/>
<line stroke="#000000" x1="464.10477" y1="247.89429" x2="1072.3644" y2="91.05707"/>
<line stroke="#000000" x1="464.10477" y1="247.89429" x2="756.0568" y2="315.63556"/>
<line stroke="#000000" x1="464.10477" y1="247.89429" x2="768.63556" y2="333.35132"/>
<line stroke="#000000" x1="464.10477" y1="247.89429" x2="1066.7443" y2="416.43048"/>
<line stroke="#000000" x1="464.10477" y1="247.89429" x2="320.8871" y2="574.0907"/>
<line stroke="#000000" x1="464.10477" y1="247.89429" x2="336.9093" y2="560.00824"/>
<line stroke="#000000" x1="464.10477" y1="247.89429" x2="715.9834" y2="419.10507"/>
<line stroke="#000000" x1="464.10477" y1="247.89429" x2="736.895" y2="421.07764"/>
<line stroke="#000000" x1="464.10477" y1="247.89429" x2="468.6863" y2="403.4853"/>
<line stroke="#000000" x1="464.10477" y1="247.89429" x2="472.51468" y2="376.68622"/>
<line stroke="#000000" x1="464.10477" y1="247.89429" x2="495.06064" y2="394.29156"/>
<line stroke="#000000" x1="222.09293" y1="319.22003" x2="230.22006" y2="340.529"/>
<line stroke="#000000" x1="222.09293" y1="319.22003" x2="241.8634" y2="311.75635"/>
<line stroke="#000000" x1="230.22006" y1="340.529" x2="222.09293" y2="319.22003"/>
<line stroke="#000000" x1="241.8634" y1="311.75635" x2="222.09293" y2="319.22003"/>
<line stroke="#000000" x1="275.1364" y1="460.86914" x2="165.0138" y2="496.23392"/>
<line stroke="#000000" x1="275.1364" y1="460.86914" x2="184.23401" y2="487.53357"/>
<line stroke="#000000" x1="275.1364" y1="460.86914" x2="444.68314" y2="256.10437"/>
<line stroke="#000000" x1="275.1364" y1="460.86914" x2="464.10477" y2="247.89429"/>
<line stroke="#000000" x1="275.1364" y1="460.86914" x2="294.8694" y2="453.48975"/>
<line stroke="#000000" x1="275.1364" y1="460.86914" x2="1072.3644" y2="91.05707"/>
<line stroke="#000000" x1="275.1364" y1="460.86914" x2="320.8871" y2="574.0907"/>
<line stroke="#000000" x1="275.1364" y1="460.86914" x2="336.9093" y2="560.00824"/>
<line stroke="#000000" x1="275.1364" y1="460.86914" x2="468.6863" y2="403.4853"/>
<line stroke="#000000" x1="275.1364" y1="460.86914" x2="472.51468" y2="376.68622"/>
<line stroke="#000000" x1="275.1364" y1="460.86914" x2="337.5142" y2="589.86646"/>
<line stroke="#000000" x1="294.8694" y1="453.48975" x2="165.0138" y2="496.23392"/>
<line stroke="#000000" x1="294.8694" y1="453.48975" x2="184.23401" y2="487.53357"/>
<line stroke="#000000" x1="294.8694" y1="453.48975" x2="444.68314" y2="256.10437"/>
<line stroke="#000000" x1="294.8694" y1="453.48975" x2="464.10477" y2="247.89429"/>
<line stroke="#000000" x1="294.8694" y1="453.48975" x2="275.1364" y2="460.86914"/>
<line stroke="#000000" x1="294.8694" y1="453.48975" x2="1072.3644" y2="91.05707"/>
<line stroke="#000000" x1="294.8694" y1="453.48975" x2="320.8871" y2="574.0907"/>
<line stroke="#000000" x1="294.8694" y1="453.48975" x2="336.9093" y2="560.00824"/>
<line stroke="#000000" x1="294.8694" y1="453.48975" x2="468.6863" y2="403.4853"/>
<line stroke="#000000" x1="294.8694" y1="453.48975" x2="472.51468" y2="376.68622"/>
<line stroke="#000000" x1="294.8694" y1="453.48975" x2="337.5142" y2="589.86646"/>
<line stroke="#000000" x1="157.45564" y1="476.4701" x2="165.0138" y2="496.23392"/>
<line stroke="#000000" x1="157.45564" y1="476.4701" x2="46.766106" y2="235.01404"/>
<line stroke="#000000" x1="157.45564" y1="476.4701" x2="54.922005" y2="255.58606"/>
<line stroke="#000000" x1="157.45564" y1="476.4701" x2="320.8871" y2="574.0907"/>
<line stroke="#000000" x1="157.45564" y1="476.4701" x2="501.09082" y2="779.113"/>
<line stroke="#000000" x1="157.45564" y1="476.4701" x2="489.23868" y2="758.905"/>
<line stroke="#000000" x1="157.45564" y1="476.4701" x2="337.5142" y2="589.86646"/>
<line stroke="#000000" x1="157.45564" y1="476.4701" x2="490.0" y2="820.0"/>
<line stroke="#000000" x1="1072.3644" y1="91.05707" x2="404.078" y2="107.23059"/>
<line stroke="#000000" x1="1072.3644" y1="91.05707" x2="411.7694" y2="128.89465"/>
<line stroke="#000000" x1="1072.3644" y1="91.05707" x2="384.89523" y2="114.68298"/>
<line stroke="#000000" x1="1072.3644" y1="91.05707" x2="444.68314" y2="256.10437"/>
<line stroke="#000000" x1="1072.3644" y1="91.05707" x2="464.10477" y2="247.89429"/>
<line stroke="#000000" x1="1072.3644" y1="91.05707" x2="275.1364" y2="460.86914"/>
<line stroke="#000000" x1="1072.3644" y1="91.05707" x2="294.8694" y2="453.48975"/>
<line stroke="#000000" x1="1072.3644" y1="91.05707" x2="1084.9432" y2="108.77283"/>
<line stroke="#000000" x1="1072.3644" y1="91.05707" x2="756.0568" y2="315.63556"/>
<line stroke="#000000" x1="1072.3644" y1="91.05707" x2="1066.7443" y2="416.43048"/>
<line stroke="#000000" x1="1072.3644" y1="91.05707" x2="1073.4303" y2="393.8836"/>
<line stroke="#000000" x1="1072.3644" y1="91.05707" x2="472.51468" y2="376.68622"/>
<line stroke="#000000" x1="1072.3644" y1="91.05707" x2="495.06064" y2="394.29156"/>
<line stroke="#000000" x1="1072.3644" y1="91.05707" x2="100.0" y2="107.0"/>
<line stroke="#000000" x1="1084.9432" y1="108.77283" x2="1072.3644" y2="91.05707"/>
<line stroke="#000000" x1="1084.9432" y1="108.77283" x2="1066.7443" y2="416.43048"/>
<line stroke="#000000" x1="1084.9432" y1="108.77283" x2="1073.4303" y2="393.8836"/>
<line stroke="#000000" x1="756.0568" y1="315.63556" x2="404.078" y2="107.23059"/>
<line stroke="#000000" x1="756.0568" y1="315.63556" x2="411.7694" y2="128.89465"/>
<line stroke="#000000" x1="756.0568" y1="315.63556" x2="444.68314" y2="256.10437"/>
<line stroke="#000000" x1="756.0568" y1="315.63556" x2="464.10477" y2="247.89429"/>
<line stroke="#000000" x1="756.0568" y1="315.63556" x2="1072.3644" y2="91.05707"/>
<line stroke="#000000" x1="756.0568" y1="315.63556" x2="768.63556" y2="333.35132"/>
<line stroke="#000000" x1="756.0568" y1="315.63556" x2="1066.7443" y2="416.43048"/>
<line stroke="#000000" x1="756.0568" y1="315.63556" x2="706.095" y2="682.2387"/>
<line stroke="#000000" x1="756.0568" y1="315.63556" x2="713.76135" y2="703.92346"/>
<line stroke="#000000" x1="756.0568" y1="315.63556" x2="715.9834" y2="419.10507"/>
<line stroke="#000000" x1="756.0568" y1="315.63556" x2="736.895" y2="421.07764"/>
<line stroke="#000000" x1="756.0568" y1="315.63556" x2="733.4853" y2="441.31372"/>
<line stroke="#000000" x1="756.0568" y1="315.63556" x2="472.51468" y2="376.68622"/>
<line stroke="#000000" x1="756.0568" y1="315.63556" x2="495.06064" y2="394.29156"/>
<line stroke="#000000" x1="768.63556" y1="333.35132" x2="404.078" y2="107.23059"/>
<line stroke="#000000" x1="768.63556" y1="333.35132" x2="411.7694" y2="128.89465"/>
<line stroke="#000000" x1="768.63556" y1="333.35132" x2="444.68314" y2="256.10437"/>
<line stroke="#000000" x1="768.63556" y1="333.35132" x2="464.10477" y2="247.89429"/>
<line stroke="#000000" x1="768.63556" y1="333.35132" x2="756.0568" y2="315.63556"/>
<line stroke="#000000" x1="768.63556" y1="333.35132" x2="1066.7443" y2="416.43048"/>
<line stroke="#000000" x1="768.63556" y1="333.35132" x2="706.095" y2="682.2387"/>
<line stroke="#000000" x1="768.63556" y1="333.35132" x2="713.76135" y2="703.92346"/>
<line stroke="#000000" x1="768.63556" y1="333.35132" x2="715.9834" y2="419.10507"/>
<line stroke="#000000" x1="768.63556" y1="333.35132" x2="736.895" y2="421.07764"/>
<line stroke="#000000" x1="768.63556" y1="333.35132" x2="733.4853" y2="441.31372"/>
<line stroke="#000000" x1="768.63556" y1="333.35132" x2="472.51468" y2="376.68622"/>
<line stroke="#000000" x1="768.63556" y1="333.35132" x2="495.06064" y2="394.29156"/>
<line stroke="#000000" x1="1066.7443" y1="416.43048" x2="444.68314" y2="256.10437"/>
<line stroke="#000000" x1="1066.7443" y1="416.43048" x2="464.10477" y2="247.89429"/>
<line stroke="#000000" x1="1066.7443" y1="416.43048" x2="1072.3644" y2="91.05707"/>
<line stroke="#000000" x1="1066.7443" y1="416.43048" x2="1084.9432" y2="108.77283"/>
<line stroke="#000000" x1="1066.7443" y1="416.43048" x2="756.0568" y2="315.63556"/>
<line stroke="#000000" x1="1066.7443" y1="416.43048" x2="768.63556" y2="333.35132"/>
<line stroke="#000000" x1="1066.7443" y1="416.43048" x2="1073.4303" y2="393.8836"/>
<line stroke="#000000" x1="1066.7443" y1="416.43048" x2="706.095" y2="682.2387"/>
<line stroke="#000000" x1="1066.7443" y1="416.43048" x2="713.76135" y2="703.92346"/>
<line stroke="#000000" x1="1066.7443" y1="416.43048" x2="689.10504" y2="704.01636"/>
<line stroke="#000000" x1="1066.7443" y1="416.43048" x2="715.9834" y2="419.10507"/>
<line stroke="#000000" x1="1066.7443" y1="416.43048" x2="736.895" y2="421.07764"/>
<line stroke="#000000" x1="1066.7443" y1="416.43048" x2="733.4853" y2="441.31372"/>
<line stroke="#000000" x1="1066.7443" y1="416.43048" x2="472.51468" y2="376.68622"/>
<line stroke="#000000" x1="1066.7443" y1="416.43048" x2="495.06064" y2="394.29156"/>
<line stroke="#000000" x1="1073.4303" y1="393.8836" x2="1072.3644" y2="91.05707"/>
<line stroke="#000000" x1="1073.4303" y1="393.8836" x2="1084.9432" y2="108.77283"/>
<line stroke="#000000" x1="1073.4303" y1="393.8836" x2="1066.7443" y2="416.43048"/>
<line stroke="#000000" x1="1073.4303" y1="393.8836" x2="706.095" y2="682.2387"/>
<line stroke="#000000" x1="1073.4303" y1="393.8836" x2="713.76135" y2="703.92346"/>
<line stroke="#000000" x1="1073.4303" y1="393.8836" x2="689.10504" y2="704.01636"/>
<line stroke="#000000" x1="320.8871" y1="574.0907" x2="165.0138" y2="496.23392"/>
<line stroke="#000000" x1="320.8871" y1="574.0907" x2="184.23401" y2="487.53357"/>
<line stroke="#000000" x1="320.8871" y1="574.0907" x2="444.68314" y2="256.10437"/>
<line stroke="#000000" x1="320.8871" y1="574.0907" x2="464.10477" y2="247.89429"/>
<line stroke="#000000" x1="320.8871" y1="574.0907" x2="275.1364" y2="460.86914"/>
<line stroke="#000000" x1="320.8871" y1="574.0907" x2="294.8694" y2="453.48975"/>
<line stroke="#000000" x1="320.8871" y1="574.0907" x2="157.45564" y2="476.4701"/>
<line stroke="#000000" x1="320.8871" y1="574.0907" x2="336.9093" y2="560.00824"/>
<line stroke="#000000" x1="320.8871" y1="574.0907" x2="501.09082" y2="779.113"/>
<line stroke="#000000" x1="320.8871" y1="574.0907" x2="489.23868" y2="758.905"/>
<line stroke="#000000" x1="320.8871" y1="574.0907" x2="468.6863" y2="403.4853"/>
<line stroke="#000000" x1="320.8871" y1="574.0907" x2="472.51468" y2="376.68622"/>
<line stroke="#000000" x1="320.8871" y1="574.0907" x2="337.5142" y2="589.86646"/>
<line stroke="#000000" x1="320.8871" y1="574.0907" x2="490.0" y2="820.0"/>
<line stroke="#000000" x1="336.9093" y1="560.00824" x2="165.0138" y2="496.23392"/>
<line stroke="#000000" x1="336.9093" y1="560.00824" x2="184.23401" y2="487.53357"/>
<line stroke="#000000" x1="336.9093" y1="560.00824" x2="444.68314" y2="256.10437"/>
<line stroke="#000000" x1="336.9093" y1="560.00824" x2="464.10477" y2="247.89429"/>
<line stroke="#000000" x1="336.9093" y1="560.00824" x2="275.1364" y2="460.86914"/>
<line stroke="#000000" x1="336.9093" y1="560.00824" x2="294.8694" y2="453.48975"/>
<line stroke="#000000" x1="336.9093" y1="560.00824" x2="320.8871" y2="574.0907"/>
<line stroke="#000000" x1="336.9093" y1="560.00824" x2="468.6863" y2="403.4853"/>
<line stroke="#000000" x1="336.9093" y1="560.00824" x2="472.51468" y2="376.68622"/>
<line stroke="#000000" x1="501.09082" y1="779.113" x2="165.0138" y2="496.23392"/>
<line stroke="#000000" x1="501.09082" y1="779.113" x2="184.23401" y2="487.53357"/>
<line stroke="#000000" x1="501.09082" y1="779.113" x2="157.45564" y2="476.4701"/>
<line stroke="#000000" x1="501.09082" y1="779.113" x2="320.8871" y2="574.0907"/>
<line stroke="#000000" x1="501.09082" y1="779.113" x2="517.1128" y2="765.03015"/>
<line stroke="#000000" x1="501.09082" y1="779.113" x2="489.23868" y2="758.905"/>
<line stroke="#000000" x1="501.09082" y1="779.113" x2="713.76135" y2="703.92346"/>
<line stroke="#000000" x1="501.09082" y1="779.113" x2="689.10504" y2="704.01636"/>
<line stroke="#000000" x1="501.09082" y1="779.113" x2="337.5142" y2="589.86646"/>
<line stroke="#000000" x1="501.09082" y1="779.113" x2="490.0" y2="820.0"/>
<line stroke="#000000" x1="517.1128" y1="765.03015" x2="501.09082" y2="779.113"/>
<line stroke="#000000" x1="517.1128" y1="765.03015" x2="713.76135" y2="703.92346"/>
<line stroke="#000000" x1="517.1128" y1="765.03015" x2="689.10504" y2="704.01636"/>
<line stroke="#000000" x1="517.1128" y1="765.03015" x2="490.0" y2="820.0"/>
<line stroke="#000000" x1="489.23868" y1="758.905" x2="165.0138" y2="496.23392"/>
<line stroke="#000000" x1="489.23868" y1="758.905" x2="184.23401" y2="487.53357"/>
<line stroke="#000000" x1="489.23868" y1="758.905" x2="157.45564" y2="476.4701"/>
<line stroke="#000000" x1="489.23868" y1="758.905" x2="320.8871" y2="574.0907"/>
<line stroke="#000000" x1="489.23868" y1="758.905" x2="501.09082" y2="779.113"/>
<line stroke="#000000" x1="489.23868" y1="758.905" x2="337.5142" y2="589.86646"/>
<line stroke="#000000" x1="489.23868" y1="758.905" x2="490.0" y2="820.0"/>
<line stroke="#000000" x1="706.095" y1="682.2387" x2="756.0568" y2="315.63556"/>
<line stroke="#000000" x1="706.095" y1="682.2387" x2="768.63556" y2="333.35132"/>
<line stroke="#000000" x1="706.095" y1="682.2387" x2="1066.7443" y2="416.43048"/>
<line stroke="#000000" x1="706.095" y1="682.2387" x2="1073.4303" y2="393.8836"/>
<line stroke="#000000" x1="706.095" y1="682.2387" x2="713.76135" y2="703.92346"/>
<line stroke="#000000" x1="706.095" y1="682.2387" x2="736.895" y2="421.07764"/>
<line stroke="#000000" x1="706.095" y1="682.2387" x2="733.4853" y2="441.31372"/>
<line stroke="#000000" x1="713.76135" y1="703.92346" x2="756.0568" y2="315.63556"/>
<line stroke="#000000" x1="713.76135" y1="703.92346" x2="768.63556" y2="333.35132"/>
<line stroke="#000000" x1="713.76135" y1="703.92346" x2="1066.7443" y2="416.43048"/>
<line stroke="#000000" x1="713.76135" y1="703.92346" x2="1073.4303" y2="393.8836"/>
<line stroke="#000000" x1="713.76135" y1="703.92346" x2="501.09082" y2="779.113"/>
<line stroke="#000000" x1="713.76135" y1="703.92346" x2="517.1128" y2="765.03015"/>
<line stroke="#000000" x1="713.76135" y1="703.92346" x2="706.095" y2="682.2387"/>
<line stroke="#000000" x1="713.76135" y1="703.92346" x2="689.10504" y2="704.01636"/>
<line stroke="#000000" x1="713.76135" y1="703.92346" x2="736.895" y2="421.07764"/>
<line stroke="#000000" x1="713.76135" y1="703.92346" x2="733.4853" y2="441.31372"/>
<line stroke="#000000" x1="713.76135" y1="703.92346" x2="490.0" y2="820.0"/>
<line stroke="#000000" x1="689.10504" y1="704.01636" x2="1066.7443" y2="416.43048"/>
<line stroke="#000000" x1="689.10504" y1="704.01636" x2="1073.4303" y2="393.8836"/>
<line stroke="#000000" x1="689.10504" y1="704.01636" x2="501.09082" y2="779.113"/>
<line stroke="#000000" x1="689.10504" y1="704.01636" x2="517.1128" y2="765.03015"/>
<line stroke="#000000" x1="689.10504" y1="704.01636" x2="713.76135" y2="703.92346"/>
<line stroke="#000000" x1="689.10504" y1="704.01636" x2="490.0" y2="820.0"/>
<line stroke="#000000" x1="715.9834" y1="419.10507" x2="404.078" y2="107.23059"/>
<line stroke="#000000" x1="715.9834" y1="419.10507" x2="411.7694" y2="128.89465"/>
<line stroke="#000000" x1="715.9834" y1="419.10507" x2="444.68314" y2="256.10437"/>
<line stroke="#000000" x1="715.9834" y1="419.10507" x2="464.10477" y2="247.89429"/>
<line stroke="#000000" x1="715.9834" y1="419.10507" x2="756.0568" y2="315.63556"/>
<line stroke="#000000" x1="715.9834" y1="419.10507" x2="768.63556" y2="333.35132"/>
<line stroke="#000000" x1="715.9834" y1="419.10507" x2="1066.7443" y2="416.43048"/>
<line stroke="#000000" x1="715.9834" y1="419.10507" x2="736.895" y2="421.07764"/>
<line stroke="#000000" x1="715.9834" y1="419.10507" x2="472.51468" y2="376.68622"/>
<line stroke="#000000" x1="715.9834" y1="419.10507" x2="495.06064" y2="394.29156"/>
<line stroke="#000000" x1="736.895" y1="421.07764" x2="404.078" y2="107.23059"/>
<line stroke="#000000" x1="736.895" y1="421.07764" x2="411.7694" y2="128.89465"/>
<line stroke="#000000" x1="736.895" y1="421.07764" x2="444.68314" y2="256.10437"/>
<line stroke="#000000" x1="736.895" y1="421.07764" x2="464.10477" y2="247.89429"/>
<line stroke="#000000" x1="736.895" y1="421.07764" x2="756.0568" y2="315.63556"/>
<line stroke="#000000" x1="736.895" y1="421.07764" x2="768.63556" y2="333.35132"/>
<line stroke="#000000" x1="736.895" y1="421.07764" x2="1066.7443" y2="416.43048"/>
<line stroke="#000000" x1="736.895" y1="421.07764" x2="706.095" y2="682.2387"/>
<line stroke="#000000" x1="736.895" y1="421.07764" x2="713.76135" y2="703.92346"/>
<line stroke="#000000" x1="736.895" y1="421.07764" x2="715.9834" y2="419.10507"/>
<line stroke="#000000" x1="736.895" y1="421.07764" x2="733.4853" y2="441.31372"/>
<line stroke="#000000" x1="736.895" y1="421.07764" x2="472.51468" y2="376.68622"/>
<line stroke="#000000" x1="736.895" y1="421.07764" x2="495.06064" y2="394.29156"/>
<line stroke="#000000" x1="733.4853" y1="441.31372" x2="756.0568" y2="315.63556"/>
<line stroke="#000000" x1="733.4853" y1="441.31372" x2="768.63556" y2="333.35132"/>
<line stroke="#000000" x1="733.4853" y1="441.31372" x2="1066.7443" y2="416.43048"/>
<line stroke="#000000" x1="733.4853" y1="441.31372" x2="706.095" y2="682.2387"/>
<line stroke="#000000" x1="733.4853" y1="441.31372" x2="713.76135" y2="703.92346"/>
<line stroke="#000000" x1="733.4853" y1="441.31372" x2="736.895" y2="421.07764"/>
<line stroke="#000000" x1="468.6863" y1="403.4853" x2="165.0138" y2="496.23392"/>
<line stroke="#000000" x1="468.6863" y1="403.4853" x2="184.23401" y2="487.53357"/>
<line stroke="#000000" x1="468.6863" y1="403.4853" x2="444.68314" y2="256.10437"/>
<line stroke="#000000" x1="468.6863" y1="403.4853" x2="464.10477" y2="247.89429"/>
<line stroke="#000000" x1="468.6863" y1="403.4853" x2="275.1364" y2="460.86914"/>
<line stroke="#000000" x1="468.6863" y1="403.4853" x2="294.8694" y2="453.48975"/>
<line stroke="#000000" x1="468.6863" y1="403.4853" x2="320.8871" y2="574.0907"/>
<line stroke="#000000" x1="468.6863" y1="403.4853" x2="336.9093" y2="560.00824"/>
<line stroke="#000000" x1="468.6863" y1="403.4853" x2="472.51468" y2="376.68622"/>
<line stroke="#000000" x1="472.51468" y1="376.68622" x2="165.0138" y2="496.23392"/>
<line stroke="#000000" x1="472.51468" y1="376.68622" x2="184.23401" y2="487.53357"/>
<line stroke="#000000" x1="472.51468" y1="376.68622" x2="444.68314" y2="256.10437"/>
<line stroke="#000000" x1="472.51468" y1="376.68622" x2="464.10477" y2="247.89429"/>
<line stroke="#000000" x1="472.51468" y1="376.68622" x2="275.1364" y2="460.86914"/>
<line stroke="#000000" x1="472.51468" y1="376.68622" x2="294.8694" y2="453.48975"/>
<line stroke="#000000" x1="472.51468" y1="376.68622" x2="1072.3644" y2="91.05707"/>
<line stroke="#000000" x1="472.51468" y1="376.68622" x2="756.0568" y2="315.63556"/>
<line stroke="#000000" x1="472.51468" y1="376.68622" x2="768.63556" y2="333.35132"/>
<line stroke="#000000" x1="472.51468" y1="376.68622" x2="1066.7443" y2="416.43048"/>
<line stroke="#000000" x1="472.51468" y1="376.68622" x2="320.8871" y2="574.0907"/>
<line stroke="#000000" x1="472.51468" y1="376.68622" x2="336.9093" y2="560.00824"/>
<line stroke="#000000" x1="472.51468" y1="376.68622" x2="715.9834" y2="419.10507"/>
<line stroke="#000000" x1="472.51468" y1="376.68622" x2="736.895" y2="421.07764"/>
<line stroke="#000000" x1="472.51468" y1="376.68622" x2="468.6863" y2="403.4853"/>
<line stroke="#000000" x1="472.51468" y1="376.68622" x2="495.06064" y2="394.29156"/>
<line stroke="#000000" x1="495.06064" y1="394.29156" x2="444.68314" y2="256.10437"/>
<line stroke="#000000" x1="495.06064" y1="394.29156" x2="464.10477" y2="247.89429"/>
<line stroke="#000000" x1="495.06064" y1="394.29156" x2="1072.3644" y2="91.05707"/>
<line stroke="#000000" x1="495.06064" y1="394.29156" x2="756.0568" y2="315.63556"/>
<line stroke="#000000" x1="495.06064" y1="394.29156" x2="768.63556" y2="333.35132"/>
<line stroke="#000000" x1="495.06064" y1="394.29156" x2="1066.7443" y2="416.43048"/>
<line stroke="#000000" x1="495.06064" y1="394.29156" x2="715.9834" y2="419.10507"/>
<line stroke="#000000" x1="495.06064" y1="394.29156" x2="736.895" y2="421.07764"/>
<line stroke="#000000" x1="495.06064" y1="394.29156" x2="472.51468" y2="376.68622"/>
<line stroke="#000000" x1="337.5142" y1="589.86646" x2="165.0138" y2="496.23392"/>
<line stroke="#000000" x1="337.5142" y1="589.86646" x2="184.23401" y2="487.53357"/>
<line stroke="#000000" x1="337.5142" y1="589.86646" x2="275.1364" y2="460.86914"/>
<line stroke="#000000" x1="337.5142" y1="589.86646" x2="294.8694" y2="453.48975"/>
<line stroke="#000000" x1="337.5142" y1="589.86646" x2="157.45564" y2="476.4701"/>
<line stroke="#000000" x1="337.5142" y1="589.86646" x2="320.8871" y2="574.0907"/>
<line stroke="#000000" x1="337.5142" y1="589.86646" x2="501.09082" y2="779.113"/>
<line stroke="#000000" x1="337.5142" y1="589.86646" x2="489.23868" y2="758.905"/>
<line stroke="#000000" x1="337.5142" y1="589.86646" x2="490.0" y2="820.0"/>
<line stroke="#000000" x1="490.0" y1="820.0" x2="165.0138" y2="496.23392"/>
<line stroke="#000000" x1="490.0" y1="820.0" x2="184.23401" y2="487.53357"/>
<line stroke="#000000" x1="490.0" y1="820.0" x2="157.45564" y2="476.4701"/>
<line stroke="#000000" x1="490.0" y1="820.0" x2="320.8871" y2="574.0907"/>
<line stroke="#000000" x1="490.0" y1="820.0" x2="501.09082" y2="779.113"/>
<line stroke="#000000" x1="490.0" y1="820.0" x2="517.1128" y2="765.03015"/>
<line stroke="#000000" x1="490.0" y1="820.0" x2="489.23868" y2="758.905"/>
<line stroke="#000000" x1="490.0" y1="820.0" x2="713.76135" y2="703.92346"/>
<line stroke="#000000" x1="490.0" y1="820.0" x2="689.10504" y2="704.01636"/>
<line stroke="#000000" x1="490.0" y1="820.0" x2="337.5142" y2="589.86646"/>
<line stroke="#000000" x1="100.0" y1="107.0" x2="46.766106" y2="235.01404"/>
<line stroke="#000000" x1="100.0" y1="107.0" x2="65.98609" y2="226.31317"/>
<line stroke="#000000" x1="100.0" y1="107.0" x2="54.922005" y2="255.58606"/>
<line stroke="#000000" x1="100.0" y1="107.0" x2="404.078" y2="107.23059"/>
<line stroke="#000000" x1="100.0" y1="107.0" x2="384.89523" y2="114.68298"/>
<line stroke="#000000" x1="100.0" y1="107.0" x2="1072.3644" y2="91.05707"/>
</g>
</svg>
