<svg xmlns="http://www.w3.org/2000/svg" width="1195.0px" height="920.0px" viewBox="0.0 0.0 1195.0 920.0">
<g>
<line stroke="#000000" x1="170.0" y1="483.0" x2="60.0" y2="240.0"/>
<line stroke="#000000" x1="60.0" y1="240.0" x2="398.0" y2="120.0"/>
<line stroke="#000000" x1="398.0" y1="120.0" x2="450.0" y2="243.0"/>
<line stroke="#000000" x1="450.0" y1="243.0" x2="235.0" y2="325.0"/>
<line stroke="#000000" x1="235.0" y1="325.0" x2="281.0" y2="448.0"/>
<line stroke="#000000" x1="281.0" y1="448.0" x2="170.0" y2="483.0"/>
<line stroke="#000000" x1="1070.0" y1="105.0" x2="770.0" y2="318.0"/>
<line stroke="#000000" x1="770.0" y1="318.0" x2="1060.0" y2="404.0"/>
<line stroke="#000000" x1="1070.0" y1="105.0" x2="1060.0" y2="404.0"/>
<line stroke="#000000" x1="335.0" y1="575.0" x2="502.0" y2="765.0"/>
<line stroke="#000000" x1="502.0" y1="765.0" x2="700.0" y2="695.0"/>
<line stroke="#000000" x1="700.0" y1="695.0" x2="725.0" y2="430.0"/>
<line stroke="#000000" x1="725.0" y1="430.0" x2="480.0" y2="395.0"/>
<line stroke="#000000" x1="480.0" y1="395.0" x2="335.0" y2="575.0"/>
<line stroke="#000000" x1="255.0" y1="264.5" x2="90.0" y2="-100.0"/>
<line stroke="#000000" x1="90.0" y1="-100.0" x2="597.0" y2="-280.0"/>
<line stroke="#000000" x1="597.0" y1="-280.0" x2="675.0" y2="-95.5"/>
<line stroke="#000000" x1="675.0" y1="-95.5" x2="352.5" y2="27.5"/>
<line stroke="#000000" x1="352.5" y1="27.5" x2="421.5" y2="212.0"/>
<line stroke="#000000" x1="421.5" y1="212.0" x2="255.0" y2="264.5"/>
<line stroke="#000000" x1="1605.0" y1="-302.5" x2="1155.0" y2="17.0"/>
<line stroke="#000000" x1="1155.0" y1="17.0" x2="1590.0" y2="146.0"/>
<line stroke="#000000" x1="1605.0" y1="-302.5" x2="1590.0" y2="146.0"/>
<line stroke="#000000" x1="502.5" y1="402.5" x2="753.0" y2="687.5"/>
<line stroke="#000000" x1="753.0" y1="687.5" x2="1050.0" y2="582.5"/>
<line stroke="#000000" x1="1050.0" y1="582.5" x2="1087.5" y2="185.0"/>
<line stroke="#000000" x1="1087.5" y1="185.0" x2="720.0" y2="132.5"/>
<line stroke="#000000" x1="720.0" y1="132.5" x2="502.5" y2="402.5"/>
</g>
</svg>
