<svg xmlns="http://www.w3.org/2000/svg" width="1195.0px" height="920.0px" viewBox="0.0 0.0 1195.0 920.0">
<g>
<line stroke="#000000" x1="165.0138" y1="496.23392" x2="46.766106" y2="235.01404"/>
<line stroke="#000000" x1="165.0138" y1="496.23392" x2="275.1364" y2="460.86914"/>
<line stroke="#000000" x1="165.0138" y1="496.23392" x2="320.8871" y2="574.0907"/>
<line stroke="#000000" x1="165.0138" y1="496.23392" x2="501.09082" y2="779.113"/>
<line stroke="#000000" x1="165.0138" y1="496.23392" x2="468.6863" y2="403.4853"/>
<line stroke="#000000" x1="165.0138" y1="496.23392" x2="490.0" y2="820.0"/>
<line stroke="#000000" x1="46.766106" y1="235.01404" x2="165.0138" y2="496.23392"/>
<line stroke="#000000" x1="46.766106" y1="235.01404" x2="404.078" y2="107.23059"/>
<line stroke="#000000" x1="46.766106" y1="235.01404" x2="100.0" y2="107.0"/>
<line stroke="#000000" x1="404.078" y1="107.23059" x2="46.766106" y2="235.01404"/>
<line stroke="#000000" x1="404.078" y1="107.23059" x2="1072.3644" y2="91.05707"/>
<line stroke="#000000" x1="404.078" y1="107.23059" x2="756.0568" y2="315.63556"/>
<line stroke="#000000" x1="404.078" y1="107.23059" x2="715.9834" y2="419.10507"/>
<line stroke="#000000" x1="404.078" y1="107.23059" x2="100.0" y2="107.0"/>
<line stroke="#000000" x1="444.68314" y1="256.10437" x2="275.1364" y2="460.86914"/>
<line stroke="#000000" x1="444.68314" y1="256.10437" x2="1072.3644" y2="91.05707"/>
<line stroke="#000000" x1="444.68314" y1="256.10437" x2="756.0568" y2="315.63556"/>
<line stroke="#000000" x1="444.68314" y1="256.10437" x2="1066.7443" y2="416.43048"/>
<line stroke="#000000" x1="444.68314" y1="256.10437" x2="320.8871" y2="574.0907"/>
<line stroke="#000000" x1="444.68314" y1="256.10437" x2="715.9834" y2="419.10507"/>
<line stroke="#000000" x1="444.68314" y1="256.10437" x2="468.6863" y2="403.4853"/>
<line stroke="#000000" x1="275.1364" y1="460.86914" x2="165.0138" y2="496.23392"/>
<line stroke="#000000" x1="275.1364" y1="460.86914" x2="444.68314" y2="256.10437"/>
<line stroke="#000000" x1="275.1364" y1="460.86914" x2="1072.3644" y2="91.05707"/>
<line stroke="#000000" x1="275.1364" y1="460.86914" x2="320.8871" y2="574.0907"/>
<line stroke="#000000" x1="275.1364" y1="460.86914" x2="468.6863" y2="403.4853"/>
<line stroke="#000000" x1="1072.3644" y1="91.05707" x2="404.078" y2="107.23059"/>
<line stroke="#000000" x1="1072.3644" y1="91.05707" x2="444.68314" y2="256.10437"/>
<line stroke="#000000" x1="1072.3644" y1="91.05707" x2="275.1364" y2="460.86914"/>
<line stroke="#000000" x1="1072.3644" y1="91.05707" x2="756.0568" y2="315.63556"/>
<line stroke="#000000" x1="1072.3644" y1="91.05707" x2="1066.7443" y2="416.43048"/>
<line stroke="#000000" x1="1072.3644" y1="91.05707" x2="100.0" y2="107.0"/>
<line stroke="#000000" x1="756.0568" y1="315.63556" x2="404.078" y2="107.23059"/>
<line stroke="#000000" x1="756.0568" y1="315.63556" x2="444.68314" y2="256.10437"/>
<line stroke="#000000" x1="756.0568" y1="315.63556" x2="1072.3644" y2="91.05707"/>
<line stroke="#000000" x1="756.0568" y1="315.63556" x2="1066.7443" y2="416.43048"/>
<line stroke="#000000" x1="756.0568" y1="315.63556" x2="706.095" y2="682.2387"/>
<line stroke="#000000" x1="756.0568" y1="315.63556" x2="715.9834" y2="419.10507"/>
<line stroke="#000000" x1="1066.7443" y1="416.43048" x2="444.68314" y2="256.10437"/>
<line stroke="#000000" x1="1066.7443" y1="416.43048" x2="1072.3644" y2="91.05707"/>
<line stroke="#000000" x1="1066.7443" y1="416.43048" x2="756.0568" y2="315.63556"/>
<line stroke="#000000" x1="1066.7443" y1="416.43048" x2="706.095" y2="682.2387"/>
<line stroke="#000000" x1="1066.7443" y1="416.43048" x2="715.9834" y2="419.10507"/>
<line stroke="#000000" x1="320.8871" y1="574.0907" x2="165.0138" y2="496.23392"/>
<line stroke="#000000" x1="320.8871" y1="574.0907" x2="444.68314" y2="256.10437"/>
<line stroke="#000000" x1="320.8871" y1="574.0907" x2="275.1364" y2="460.86914"/>
<line stroke="#000000" x1="320.8871" y1="574.0907" x2="501.09082" y2="779.113"/>
<line stroke="#000000" x1="320.8871" y1="574.0907" x2="468.6863" y2="403.4853"/>
<line stroke="#000000" x1="320.8871" y1="574.0907" x2="490.0" y2="820.0"/>
<line stroke="#000000" x1="501.09082" y1="779.113" x2="165.0138" y2="496.23392"/>
<line stroke="#000000" x1="501.09082" y1="779.113" x2="320.8871" y2="574.0907"/>
<line stroke="#000000" x1="501.09082" y1="779.113" x2="490.0" y2="820.0"/>
<line stroke="#000000" x1="706.095" y1="682.2387" x2="756.0568" y2="315.63556"/>
<line stroke="#000000" x1="706.095" y1="682.2387" x2="1066.7443" y2="416.43048"/>
<line stroke="#000000" x1="715.9834" y1="419.10507" x2="404.078" y2="107.23059"/>
<line stroke="#000000" x1="715.9834" y1="419.10507" x2="444.68314" y2="256.10437"/>
<line stroke="#000000" x1="715.9834" y1="419.10507" x2="756.0568" y2="315.63556"/>
<line stroke="#000000" x1="715.9834" y1="419.10507" x2="1066.7443" y2="416.43048"/>
<line stroke="#000000" x1="468.6863" y1="403.4853" x2="165.0138" y2="496.23392"/>
<line stroke="#000000" x1="468.6863" y1="403.4853" x2="444.68314" y2="256.10437"/>
<line stroke="#000000" x1="468.6863" y1="403.4853" x2="275.1364" y2="460.86914"/>
<line stroke="#000000" x1="468.6863" y1="403.4853" x2="320.8871" y2="574.0907"/>
<line stroke="#000000" x1="100.0" y1="107.0" x2="46.766106" y2="235.01404"/>
<line stroke="#000000" x1="100.0" y1="107.0" x2="404.078" y2="107.23059"/>
<line stroke="#000000" x1="100.0" y1="107.0" x2="1072.3644" y2="91.05707"/>
<line stroke="#000000" x1="490.0" y1="820.0" x2="165.0138" y2="496.23392"/>
<line stroke="#000000" x1="490.0" y1="820.0" x2="320.8871" y2="574.0907"/>
<line stroke="#000000" x1="490.0" y1="820.0" x2="501.09082" y2="779.113"/>
</g>
</svg>
