<svg xmlns="http://www.w3.org/2000/svg" width="1195.0px" height="920.0px" viewBox="0.0 0.0 1195.0 920.0">
<g>
<line stroke="#000000" x1="160.02771" y1="509.46808" x2="198.4679" y2="492.06686"/>
<line stroke="#000000" x1="160.02771" y1="509.46808" x2="33.531998" y2="230.02753"/>
<line stroke="#000000" x1="160.02771" y1="509.46808" x2="49.844006" y2="271.17212"/>
<line stroke="#000000" x1="160.02771" y1="509.46808" x2="269.2729" y2="473.73853"/>
<line stroke="#000000" x1="160.02771" y1="509.46808" x2="308.73865" y2="458.97922"/>
<line stroke="#000000" x1="160.02771" y1="509.46808" x2="144.91136" y2="469.94016"/>
<line stroke="#000000" x1="160.02771" y1="509.46808" x2="1074.7294" y2="77.11383"/>
<line stroke="#000000" x1="160.02771" y1="509.46808" x2="306.7743" y2="573.1816"/>
<line stroke="#000000" x1="160.02771" y1="509.46808" x2="338.81842" y2="545.01636"/>
<line stroke="#000000" x1="160.02771" y1="509.46808" x2="500.1815" y2="793.2257"/>
<line stroke="#000000" x1="160.02771" y1="509.46808" x2="476.47733" y2="752.81006"/>
<line stroke="#000000" x1="160.02771" y1="509.46808" x2="457.3726" y2="411.97055"/>
<line stroke="#000000" x1="160.02771" y1="509.46808" x2="465.02945" y2="358.37262"/>
<line stroke="#000000" x1="160.02771" y1="509.46808" x2="340.02847" y2="604.7328"/>
<line stroke="#000000" x1="198.4679" y1="492.06686" x2="160.02771" y2="509.46808"/>
<line stroke="#000000" x1="198.4679" y1="492.06686" x2="269.2729" y2="473.73853"/>
<line stroke="#000000" x1="198.4679" y1="492.06686" x2="308.73865" y2="458.97922"/>
<line stroke="#000000" x1="198.4679" y1="492.06686" x2="1074.7294" y2="77.11383"/>
<line stroke="#000000" x1="198.4679" y1="492.06686" x2="306.7743" y2="573.1816"/>
<line stroke="#000000" x1="198.4679" y1="492.06686" x2="338.81842" y2="545.01636"/>
<line stroke="#000000" x1="198.4679" y1="492.06686" x2="500.1815" y2="793.2257"/>
<line stroke="#000000" x1="198.4679" y1="492.06686" x2="476.47733" y2="752.81006"/>
<line stroke="#000000" x1="198.4679" y1="492.06686" x2="457.3726" y2="411.97055"/>
<line stroke="#000000" x1="198.4679" y1="492.06686" x2="465.02945" y2="358.37262"/>
<line stroke="#000000" x1="198.4679" y1="492.06686" x2="340.02847" y2="604.7328"/>
<line stroke="#000000" x1="33.531998" y1="230.02753" x2="160.02771" y2="509.46808"/>
<line stroke="#000000" x1="33.531998" y1="230.02753" x2="71.9724" y2="212.62683"/>
<line stroke="#000000" x1="33.531998" y1="230.02753" x2="49.844006" y2="271.17212"/>
<line stroke="#000000" x1="33.531998" y1="230.02753" x2="410.15598" y2="94.46118"/>
<line stroke="#000000" x1="33.531998" y1="230.02753" x2="371.79065" y2="109.366455"/>
<line stroke="#000000" x1="33.531998" y1="230.02753" x2="144.91136" y2="469.94016"/>
<line stroke="#000000" x1="33.531998" y1="230.02753" x2="100.0" y2="107.0"/>
<line stroke="#000000" x1="71.9724" y1="212.62683" x2="33.531998" y2="230.02753"/>
<line stroke="#000000" x1="71.9724" y1="212.62683" x2="410.15598" y2="94.46118"/>
<line stroke="#000000" x1="71.9724" y1="212.62683" x2="371.79065" y2="109.366455"/>
<line stroke="#000000" x1="71.9724" y1="212.62683" x2="100.0" y2="107.0"/>
<line stroke="#000000" x1="49.844006" y1="271.17212" x2="160.02771" y2="509.46808"/>
<line stroke="#000000" x1="49.844006" y1="271.17212" x2="33.531998" y2="230.02753"/>
<line stroke="#000000" x1="49.844006" y1="271.17212" x2="144.91136" y2="469.94016"/>
<line stroke="#000000" x1="49.844006" y1="271.17212" x2="100.0" y2="107.0"/>
<line stroke="#000000" x1="410.15598" y1="94.46118" x2="33.531998" y2="230.02753"/>
<line stroke="#000000" x1="410.15598" y1="94.46118" x2="71.9724" y2="212.62683"/>
<line stroke="#000000" x1="410.15598" y1="94.46118" x2="425.53885" y2="137.7893"/>
<line stroke="#000000" x1="410.15598" y1="94.46118" x2="371.79065" y2="109.366455"/>
<line stroke="#000000" x1="410.15598" y1="94.46118" x2="478.20935" y2="252.78802"/>
<line stroke="#000000" x1="410.15598" y1="94.46118" x2="1074.7294" y2="77.11383"/>
<line stroke="#000000" x1="410.15598" y1="94.46118" x2="742.114" y2="313.2707"/>
<line stroke="#000000" x1="410.15598" y1="94.46118" x2="767.2706" y2="348.70312"/>
<line stroke="#000000" x1="410.15598" y1="94.46118" x2="706.96686" y2="408.21014"/>
<line stroke="#000000" x1="410.15598" y1="94.46118" x2="748.7901" y2="412.15533"/>
<line stroke="#000000" x1="410.15598" y1="94.46118" x2="510.1218" y2="393.58246"/>
<line stroke="#000000" x1="410.15598" y1="94.46118" x2="100.0" y2="107.0"/>
<line stroke="#000000" x1="425.53885" y1="137.7893" x2="410.15598" y2="94.46118"/>
<line stroke="#000000" x1="425.53885" y1="137.7893" x2="478.20935" y2="252.78802"/>
<line stroke="#000000" x1="425.53885" y1="137.7893" x2="1074.7294" y2="77.11383"/>
<line stroke="#000000" x1="425.53885" y1="137.7893" x2="742.114" y2="313.2707"/>
<line stroke="#000000" x1="425.53885" y1="137.7893" x2="767.2706" y2="348.70312"/>
<line stroke="#000000" x1="425.53885" y1="137.7893" x2="706.96686" y2="408.21014"/>
<line stroke="#000000" x1="425.53885" y1="137.7893" x2="748.7901" y2="412.15533"/>
<line stroke="#000000" x1="425.53885" y1="137.7893" x2="510.1218" y2="393.58246"/>
<line stroke="#000000" x1="371.79065" y1="109.366455" x2="33.531998" y2="230.02753"/>
<line stroke="#000000" x1="371.79065" y1="109.366455" x2="71.9724" y2="212.62683"/>
<line stroke="#000000" x1="371.79065" y1="109.366455" x2="410.15598" y2="94.46118"/>
<line stroke="#000000" x1="371.79065" y1="109.366455" x2="1074.7294" y2="77.11383"/>
<line stroke="#000000" x1="371.79065" y1="109.366455" x2="100.0" y2="107.0"/>
<line stroke="#000000" x1="439.36646" y1="269.20923" x2="478.20935" y2="252.78802"/>
<line stroke="#000000" x1="439.36646" y1="269.20923" x2="269.2729" y2="473.73853"/>
<line stroke="#000000" x1="439.36646" y1="269.20923" x2="308.73865" y2="458.97922"/>
<line stroke="#000000" x1="439.36646" y1="269.20923" x2="1074.7294" y2="77.11383"/>
<line stroke="#000000" x1="439.36646" y1="269.20923" x2="742.114" y2="313.2707"/>
<line stroke="#000000" x1="439.36646" y1="269.20923" x2="767.2706" y2="348.70312"/>
<line stroke="#000000" x1="439.36646" y1="269.20923" x2="1073.4884" y2="428.8609"/>
<line stroke="#000000" x1="439.36646" y1="269.20923" x2="306.7743" y2="573.1816"/>
<line stroke="#000000" x1="439.36646" y1="269.20923" x2="338.81842" y2="545.01636"/>
<line stroke="#000000" x1="439.36646" y1="269.20923" x2="706.96686" y2="408.21014"/>
<line stroke="#000000" x1="439.36646" y1="269.20923" x2="748.7901" y2="412.15533"/>
<line stroke="#000000" x1="439.36646" y1="269.20923" x2="457.3726" y2="411.97055"/>
<line stroke="#000000" x1="439.36646" y1="269.20923" x2="465.02945" y2="358.37262"/>
<line stroke="#000000" x1="439.36646" y1="269.20923" x2="510.1218" y2="393.58246"/>
<line stroke="#000000" x1="478.20935" y1="252.78802" x2="410.15598" y2="94.46118"/>
<line stroke="#000000" x1="478.20935" y1="252.78802" x2="425.53885" y2="137.7893"/>
<line stroke="#000000" x1="478.20935" y1="252.78802" x2="439.36646" y2="269.20923"/>
<line stroke="#000000" x1="478.20935" y1="252.78802" x2="269.2729" y2="473.73853"/>
<line stroke="#000000" x1="478.20935" y1="252.78802" x2="308.73865" y2="458.97922"/>
<line stroke="#000000" x1="478.20935" y1="252.78802" x2="1074.7294" y2="77.11383"/>
<line stroke="#000000" x1="478.20935" y1="252.78802" x2="742.114" y2="313.2707"/>
<line stroke="#000000" x1="478.20935" y1="252.78802" x2="767.2706" y2="348.70312"/>
<line stroke="#000000" x1="478.20935" y1="252.78802" x2="1073.4884" y2="428.8609"/>
<line stroke="#000000" x1="478.20935" y1="252.78802" x2="306.7743" y2="573.1816"/>
<line stroke="#000000" x1="478.20935" y1="252.78802" x2="338.81842" y2="545.01636"/>
<line stroke="#000000" x1="478.20935" y1="252.78802" x2="706.96686" y2="408.21014"/>
<line stroke="#000000" x1="478.20935" y1="252.78802" x2="748.7901" y2="412.15533"/>
<line stroke="#000000" x1="478.20935" y1="252.78802" x2="457.3726" y2="411.97055"/>
<line stroke="#000000" x1="478.20935" y1="252.78802" x2="465.02945" y2="358.37262"/>
<line stroke="#000000" x1="478.20935" y1="252.78802" x2="510.1218" y2="393.58246"/>
<line stroke="#000000" x1="209.18587" y1="313.44012" x2="225.44014" y2="356.05804"/>
<line stroke="#000000" x1="209.18587" y1="313.44012" x2="248.727" y2="298.51324"/>
<line stroke="#000000" x1="225.44014" y1="356.05804" x2="209.18587" y2="313.44012"/>
<line stroke="#000000" x1="248.727" y1="298.51324" x2="209.18587" y2="313.44012"/>
<line stroke="#000000" x1="269.2729" y1="473.73853" x2="160.02771" y2="509.46808"/>
<line stroke="#000000" x1="269.2729" y1="473.73853" x2="198.4679" y2="492.06686"/>
<line stroke="#000000" x1="269.2729" y1="473.73853" x2="439.36646" y2="269.20923"/>
<line stroke="#000000" x1="269.2729" y1="473.73853" x2="478.20935" y2="252.78802"/>
<line stroke="#000000" x1="269.2729" y1="473.73853" x2="308.73865" y2="458.97922"/>
<line stroke="#000000" x1="269.2729" y1="473.73853" x2="1074.7294" y2="77.11383"/>
<line stroke="#000000" x1="269.2729" y1="473.73853" x2="306.7743" y2="573.1816"/>
<line stroke="#000000" x1="269.2729" y1="473.73853" x2="338.81842" y2="545.01636"/>
<line stroke="#000000" x1="269.2729" y1="473.73853" x2="457.3726" y2="411.97055"/>
<line stroke="#000000" x1="269.2729" y1="473.73853" x2="465.02945" y2="358.37262"/>
<line stroke="#000000" x1="269.2729" y1="473.73853" x2="340.02847" y2="604.7328"/>
<line stroke="#000000" x1="308.73865" y1="458.97922" x2="160.02771" y2="509.46808"/>
<line stroke="#000000" x1="308.73865" y1="458.97922" x2="198.4679" y2="492.06686"/>
<line stroke="#000000" x1="308.73865" y1="458.97922" x2="439.36646" y2="269.20923"/>
<line stroke="#000000" x1="308.73865" y1="458.97922" x2="478.20935" y2="252.78802"/>
<line stroke="#000000" x1="308.73865" y1="458.97922" x2="269.2729" y2="473.73853"/>
<line stroke="#000000" x1="308.73865" y1="458.97922" x2="1074.7294" y2="77.11383"/>
<line stroke="#000000" x1="308.73865" y1="458.97922" x2="306.7743" y2="573.1816"/>
<line stroke="#000000" x1="308.73865" y1="458.97922" x2="338.81842" y2="545.01636"/>
<line stroke="#000000" x1="308.73865" y1="458.97922" x2="457.3726" y2="411.97055"/>
<line stroke="#000000" x1="308.73865" y1="458.97922" x2="465.02945" y2="358.37262"/>
<line stroke="#000000" x1="308.73865" y1="458.97922" x2="340.02847" y2="604.7328"/>
<line stroke="#000000" x1="144.91136" y1="469.94016" x2="160.02771" y2="509.46808"/>
<line stroke="#000000" x1="144.91136" y1="469.94016" x2="33.531998" y2="230.02753"/>
<line stroke="#000000" x1="144.91136" y1="469.94016" x2="49.844006" y2="271.17212"/>
<line stroke="#000000" x1="144.91136" y1="469.94016" x2="306.7743" y2="573.1816"/>
<line stroke="#000000" x1="144.91136" y1="469.94016" x2="500.1815" y2="793.2257"/>
<line stroke="#000000" x1="144.91136" y1="469.94016" x2="476.47733" y2="752.81006"/>
<line stroke="#000000" x1="144.91136" y1="469.94016" x2="340.02847" y2="604.7328"/>
<line stroke="#000000" x1="1074.7294" y1="77.11383" x2="160.02771" y2="509.46808"/>
<line stroke="#000000" x1="1074.7294" y1="77.11383" x2="198.4679" y2="492.06686"/>
<line stroke="#000000" x1="1074.7294" y1="77.11383" x2="410.15598" y2="94.46118"/>
<line stroke="#000000" x1="1074.7294" y1="77.11383" x2="425.53885" y2="137.7893"/>
<line stroke="#000000" x1="1074.7294" y1="77.11383" x2="371.79065" y2="109.366455"/>
<line stroke="#000000" x1="1074.7294" y1="77.11383" x2="439.36646" y2="269.20923"/>
<line stroke="#000000" x1="1074.7294" y1="77.11383" x2="478.20935" y2="252.78802"/>
<line stroke="#000000" x1="1074.7294" y1="77.11383" x2="269.2729" y2="473.73853"/>
<line stroke="#000000" x1="1074.7294" y1="77.11383" x2="308.73865" y2="458.97922"/>
<line stroke="#000000" x1="1074.7294" y1="77.11383" x2="1099.8859" y2="112.546265"/>
<line stroke="#000000" x1="1074.7294" y1="77.11383" x2="742.114" y2="313.2707"/>
<line stroke="#000000" x1="1074.7294" y1="77.11383" x2="1073.4884" y2="428.8609"/>
<line stroke="#000000" x1="1074.7294" y1="77.11383" x2="1086.861" y2="383.76752"/>
<line stroke="#000000" x1="1074.7294" y1="77.11383" x2="465.02945" y2="358.37262"/>
<line stroke="#000000" x1="1074.7294" y1="77.11383" x2="510.1218" y2="393.58246"/>
<line stroke="#000000" x1="1074.7294" y1="77.11383" x2="100.0" y2="107.0"/>
<line stroke="#000000" x1="1099.8859" y1="112.546265" x2="1074.7294" y2="77.11383"/>
<line stroke="#000000" x1="1099.8859" y1="112.546265" x2="1073.4884" y2="428.8609"/>
<line stroke="#000000" x1="1099.8859" y1="112.546265" x2="1086.861" y2="383.76752"/>
<line stroke="#000000" x1="742.114" y1="313.2707" x2="410.15598" y2="94.46118"/>
<line stroke="#000000" x1="742.114" y1="313.2707" x2="425.53885" y2="137.7893"/>
<line stroke="#000000" x1="742.114" y1="313.2707" x2="439.36646" y2="269.20923"/>
<line stroke="#000000" x1="742.114" y1="313.2707" x2="478.20935" y2="252.78802"/>
<line stroke="#000000" x1="742.114" y1="313.2707" x2="1074.7294" y2="77.11383"/>
<line stroke="#000000" x1="742.114" y1="313.2707" x2="767.2706" y2="348.70312"/>
<line stroke="#000000" x1="742.114" y1="313.2707" x2="1073.4884" y2="428.8609"/>
<line stroke="#000000" x1="742.114" y1="313.2707" x2="712.18994" y2="669.4773"/>
<line stroke="#000000" x1="742.114" y1="313.2707" x2="727.5226" y2="712.84717"/>
<line stroke="#000000" x1="742.114" y1="313.2707" x2="706.96686" y2="408.21014"/>
<line stroke="#000000" x1="742.114" y1="313.2707" x2="748.7901" y2="412.15533"/>
<line stroke="#000000" x1="742.114" y1="313.2707" x2="741.9705" y2="452.6274"/>
<line stroke="#000000" x1="742.114" y1="313.2707" x2="465.02945" y2="358.37262"/>
<line stroke="#000000" x1="742.114" y1="313.2707" x2="510.1218" y2="393.58246"/>
<line stroke="#000000" x1="742.114" y1="313.2707" x2="986.0" y2="754.0"/>
<line stroke="#000000" x1="767.2706" y1="348.70312" x2="410.15598" y2="94.46118"/>
<line stroke="#000000" x1="767.2706" y1="348.70312" x2="425.53885" y2="137.7893"/>
<line stroke="#000000" x1="767.2706" y1="348.70312" x2="439.36646" y2="269.20923"/>
<line stroke="#000000" x1="767.2706" y1="348.70312" x2="478.20935" y2="252.78802"/>
<line stroke="#000000" x1="767.2706" y1="348.70312" x2="742.114" y2="313.2707"/>
<line stroke="#000000" x1="767.2706" y1="348.70312" x2="1073.4884" y2="428.8609"/>
<line stroke="#000000" x1="767.2706" y1="348.70312" x2="712.18994" y2="669.4773"/>
<line stroke="#000000" x1="767.2706" y1="348.70312" x2="727.5226" y2="712.84717"/>
<line stroke="#000000" x1="767.2706" y1="348.70312" x2="706.96686" y2="408.21014"/>
<line stroke="#000000" x1="767.2706" y1="348.70312" x2="748.7901" y2="412.15533"/>
<line stroke="#000000" x1="767.2706" y1="348.70312" x2="741.9705" y2="452.6274"/>
<line stroke="#000000" x1="767.2706" y1="348.70312" x2="465.02945" y2="358.37262"/>
<line stroke="#000000" x1="767.2706" y1="348.70312" x2="510.1218" y2="393.58246"/>
<line stroke="#000000" x1="767.2706" y1="348.70312" x2="986.0" y2="754.0"/>
<line stroke="#000000" x1="1073.4884" y1="428.8609" x2="439.36646" y2="269.20923"/>
<line stroke="#000000" x1="1073.4884" y1="428.8609" x2="478.20935" y2="252.78802"/>
<line stroke="#000000" x1="1073.4884" y1="428.8609" x2="1074.7294" y2="77.11383"/>
<line stroke="#000000" x1="1073.4884" y1="428.8609" x2="1099.8859" y2="112.546265"/>
<line stroke="#000000" x1="1073.4884" y1="428.8609" x2="742.114" y2="313.2707"/>
<line stroke="#000000" x1="1073.4884" y1="428.8609" x2="767.2706" y2="348.70312"/>
<line stroke="#000000" x1="1073.4884" y1="428.8609" x2="1086.861" y2="383.76752"/>
<line stroke="#000000" x1="1073.4884" y1="428.8609" x2="712.18994" y2="669.4773"/>
<line stroke="#000000" x1="1073.4884" y1="428.8609" x2="727.5226" y2="712.84717"/>
<line stroke="#000000" x1="1073.4884" y1="428.8609" x2="678.20996" y2="713.033"/>
<line stroke="#000000" x1="1073.4884" y1="428.8609" x2="706.96686" y2="408.21014"/>
<line stroke="#000000" x1="1073.4884" y1="428.8609" x2="748.7901" y2="412.15533"/>
<line stroke="#000000" x1="1073.4884" y1="428.8609" x2="741.9705" y2="452.6274"/>
<line stroke="#000000" x1="1073.4884" y1="428.8609" x2="465.02945" y2="358.37262"/>
<line stroke="#000000" x1="1073.4884" y1="428.8609" x2="510.1218" y2="393.58246"/>
<line stroke="#000000" x1="1073.4884" y1="428.8609" x2="986.0" y2="754.0"/>
<line stroke="#000000" x1="1086.861" y1="383.76752" x2="1074.7294" y2="77.11383"/>
<line stroke="#000000" x1="1086.861" y1="383.76752" x2="1099.8859" y2="112.546265"/>
<line stroke="#000000" x1="1086.861" y1="383.76752" x2="1073.4884" y2="428.8609"/>
<line stroke="#000000" x1="1086.861" y1="383.76752" x2="712.18994" y2="669.4773"/>
<line stroke="#000000" x1="1086.861" y1="383.76752" x2="727.5226" y2="712.84717"/>
<line stroke="#000000" x1="1086.861" y1="383.76752" x2="678.20996" y2="713.033"/>
<line stroke="#000000" x1="1086.861" y1="383.76752" x2="986.0" y2="754.0"/>
<line stroke="#000000" x1="306.7743" y1="573.1816" x2="160.02771" y2="509.46808"/>
<line stroke="#000000" x1="306.7743" y1="573.1816" x2="198.4679" y2="492.06686"/>
<line stroke="#000000" x1="306.7743" y1="573.1816" x2="439.36646" y2="269.20923"/>
<line stroke="#000000" x1="306.7743" y1="573.1816" x2="478.20935" y2="252.78802"/>
<line stroke="#000000" x1="306.7743" y1="573.1816" x2="269.2729" y2="473.73853"/>
<line stroke="#000000" x1="306.7743" y1="573.1816" x2="308.73865" y2="458.97922"/>
<line stroke="#000000" x1="306.7743" y1="573.1816" x2="144.91136" y2="469.94016"/>
<line stroke="#000000" x1="306.7743" y1="573.1816" x2="338.81842" y2="545.01636"/>
<line stroke="#000000" x1="306.7743" y1="573.1816" x2="500.1815" y2="793.2257"/>
<line stroke="#000000" x1="306.7743" y1="573.1816" x2="476.47733" y2="752.81006"/>
<line stroke="#000000" x1="306.7743" y1="573.1816" x2="457.3726" y2="411.97055"/>
<line stroke="#000000" x1="306.7743" y1="573.1816" x2="465.02945" y2="358.37262"/>
<line stroke="#000000" x1="306.7743" y1="573.1816" x2="340.02847" y2="604.7328"/>
<line stroke="#000000" x1="338.81842" y1="545.01636" x2="160.02771" y2="509.46808"/>
<line stroke="#000000" x1="338.81842" y1="545.01636" x2="198.4679" y2="492.06686"/>
<line stroke="#000000" x1="338.81842" y1="545.01636" x2="439.36646" y2="269.20923"/>
<line stroke="#000000" x1="338.81842" y1="545.01636" x2="478.20935" y2="252.78802"/>
<line stroke="#000000" x1="338.81842" y1="545.01636" x2="269.2729" y2="473.73853"/>
<line stroke="#000000" x1="338.81842" y1="545.01636" x2="308.73865" y2="458.97922"/>
<line stroke="#000000" x1="338.81842" y1="545.01636" x2="306.7743" y2="573.1816"/>
<line stroke="#000000" x1="338.81842" y1="545.01636" x2="457.3726" y2="411.97055"/>
<line stroke="#000000" x1="338.81842" y1="545.01636" x2="465.02945" y2="358.37262"/>
<line stroke="#000000" x1="500.1815" y1="793.2257" x2="160.02771" y2="509.46808"/>
<line stroke="#000000" x1="500.1815" y1="793.2257" x2="198.4679" y2="492.06686"/>
<line stroke="#000000" x1="500.1815" y1="793.2257" x2="144.91136" y2="469.94016"/>
<line stroke="#000000" x1="500.1815" y1="793.2257" x2="306.7743" y2="573.1816"/>
<line stroke="#000000" x1="500.1815" y1="793.2257" x2="532.22577" y2="765.0606"/>
<line stroke="#000000" x1="500.1815" y1="793.2257" x2="476.47733" y2="752.81006"/>
<line stroke="#000000" x1="500.1815" y1="793.2257" x2="727.5226" y2="712.84717"/>
<line stroke="#000000" x1="500.1815" y1="793.2257" x2="678.20996" y2="713.033"/>
<line stroke="#000000" x1="500.1815" y1="793.2257" x2="340.02847" y2="604.7328"/>
<line stroke="#000000" x1="500.1815" y1="793.2257" x2="986.0" y2="754.0"/>
<line stroke="#000000" x1="532.22577" y1="765.0606" x2="500.1815" y2="793.2257"/>
<line stroke="#000000" x1="532.22577" y1="765.0606" x2="727.5226" y2="712.84717"/>
<line stroke="#000000" x1="532.22577" y1="765.0606" x2="678.20996" y2="713.033"/>
<line stroke="#000000" x1="532.22577" y1="765.0606" x2="986.0" y2="754.0"/>
<line stroke="#000000" x1="476.47733" y1="752.81006" x2="160.02771" y2="509.46808"/>
<line stroke="#000000" x1="476.47733" y1="752.81006" x2="198.4679" y2="492.06686"/>
<line stroke="#000000" x1="476.47733" y1="752.81006" x2="144.91136" y2="469.94016"/>
<line stroke="#000000" x1="476.47733" y1="752.81006" x2="306.7743" y2="573.1816"/>
<line stroke="#000000" x1="476.47733" y1="752.81006" x2="500.1815" y2="793.2257"/>
<line stroke="#000000" x1="476.47733" y1="752.81006" x2="340.02847" y2="604.7328"/>
<line stroke="#000000" x1="712.18994" y1="669.4773" x2="742.114" y2="313.2707"/>
<line stroke="#000000" x1="712.18994" y1="669.4773" x2="767.2706" y2="348.70312"/>
<line stroke="#000000" x1="712.18994" y1="669.4773" x2="1073.4884" y2="428.8609"/>
<line stroke="#000000" x1="712.18994" y1="669.4773" x2="1086.861" y2="383.76752"/>
<line stroke="#000000" x1="712.18994" y1="669.4773" x2="727.5226" y2="712.84717"/>
<line stroke="#000000" x1="712.18994" y1="669.4773" x2="748.7901" y2="412.15533"/>
<line stroke="#000000" x1="712.18994" y1="669.4773" x2="741.9705" y2="452.6274"/>
<line stroke="#000000" x1="712.18994" y1="669.4773" x2="986.0" y2="754.0"/>
<line stroke="#000000" x1="727.5226" y1="712.84717" x2="742.114" y2="313.2707"/>
<line stroke="#000000" x1="727.5226" y1="712.84717" x2="767.2706" y2="348.70312"/>
<line stroke="#000000" x1="727.5226" y1="712.84717" x2="1073.4884" y2="428.8609"/>
<line stroke="#000000" x1="727.5226" y1="712.84717" x2="1086.861" y2="383.76752"/>
<line stroke="#000000" x1="727.5226" y1="712.84717" x2="500.1815" y2="793.2257"/>
<line stroke="#000000" x1="727.5226" y1="712.84717" x2="532.22577" y2="765.0606"/>
<line stroke="#000000" x1="727.5226" y1="712.84717" x2="712.18994" y2="669.4773"/>
<line stroke="#000000" x1="727.5226" y1="712.84717" x2="678.20996" y2="713.033"/>
<line stroke="#000000" x1="727.5226" y1="712.84717" x2="748.7901" y2="412.15533"/>
<line stroke="#000000" x1="727.5226" y1="712.84717" x2="741.9705" y2="452.6274"/>
<line stroke="#000000" x1="727.5226" y1="712.84717" x2="986.0" y2="754.0"/>
<line stroke="#000000" x1="678.20996" y1="713.033" x2="1073.4884" y2="428.8609"/>
<line stroke="#000000" x1="678.20996" y1="713.033" x2="1086.861" y2="383.76752"/>
<line stroke="#000000" x1="678.20996" y1="713.033" x2="500.1815" y2="793.2257"/>
<line stroke="#000000" x1="678.20996" y1="713.033" x2="532.22577" y2="765.0606"/>
<line stroke="#000000" x1="678.20996" y1="713.033" x2="727.5226" y2="712.84717"/>
<line stroke="#000000" x1="678.20996" y1="713.033" x2="986.0" y2="754.0"/>
<line stroke="#000000" x1="706.96686" y1="408.21014" x2="410.15598" y2="94.46118"/>
<line stroke="#000000" x1="706.96686" y1="408.21014" x2="425.53885" y2="137.7893"/>
<line stroke="#000000" x1="706.96686" y1="408.21014" x2="439.36646" y2="269.20923"/>
<line stroke="#000000" x1="706.96686" y1="408.21014" x2="478.20935" y2="252.78802"/>
<line stroke="#000000" x1="706.96686" y1="408.21014" x2="742.114" y2="313.2707"/>
<line stroke="#000000" x1="706.96686" y1="408.21014" x2="767.2706" y2="348.70312"/>
<line stroke="#000000" x1="706.96686" y1="408.21014" x2="1073.4884" y2="428.8609"/>
<line stroke="#000000" x1="706.96686" y1="408.21014" x2="748.7901" y2="412.15533"/>
<line stroke="#000000" x1="706.96686" y1="408.21014" x2="465.02945" y2="358.37262"/>
<line stroke="#000000" x1="706.96686" y1="408.21014" x2="510.1218" y2="393.58246"/>
<line stroke="#000000" x1="748.7901" y1="412.15533" x2="410.15598" y2="94.46118"/>
<line stroke="#000000" x1="748.7901" y1="412.15533" x2="425.53885" y2="137.7893"/>
<line stroke="#000000" x1="748.7901" y1="412.15533" x2="439.36646" y2="269.20923"/>
<line stroke="#000000" x1="748.7901" y1="412.15533" x2="478.20935" y2="252.78802"/>
<line stroke="#000000" x1="748.7901" y1="412.15533" x2="742.114" y2="313.2707"/>
<line stroke="#000000" x1="748.7901" y1="412.15533" x2="767.2706" y2="348.70312"/>
<line stroke="#000000" x1="748.7901" y1="412.15533" x2="1073.4884" y2="428.8609"/>
<line stroke="#000000" x1="748.7901" y1="412.15533" x2="712.18994" y2="669.4773"/>
<line stroke="#000000" x1="748.7901" y1="412.15533" x2="727.5226" y2="712.84717"/>
<line stroke="#000000" x1="748.7901" y1="412.15533" x2="706.96686" y2="408.21014"/>
<line stroke="#000000" x1="748.7901" y1="412.15533" x2="741.9705" y2="452.6274"/>
<line stroke="#000000" x1="748.7901" y1="412.15533" x2="465.02945" y2="358.37262"/>
<line stroke="#000000" x1="748.7901" y1="412.15533" x2="510.1218" y2="393.58246"/>
<line stroke="#000000" x1="748.7901" y1="412.15533" x2="986.0" y2="754.0"/>
<line stroke="#000000" x1="741.9705" y1="452.6274" x2="742.114" y2="313.2707"/>
<line stroke="#000000" x1="741.9705" y1="452.6274" x2="767.2706" y2="348.70312"/>
<line stroke="#000000" x1="741.9705" y1="452.6274" x2="1073.4884" y2="428.8609"/>
<line stroke="#000000" x1="741.9705" y1="452.6274" x2="712.18994" y2="669.4773"/>
<line stroke="#000000" x1="741.9705" y1="452.6274" x2="727.5226" y2="712.84717"/>
<line stroke="#000000" x1="741.9705" y1="452.6274" x2="748.7901" y2="412.15533"/>
<line stroke="#000000" x1="741.9705" y1="452.6274" x2="986.0" y2="754.0"/>
<line stroke="#000000" x1="457.3726" y1="411.97055" x2="160.02771" y2="509.46808"/>
<line stroke="#000000" x1="457.3726" y1="411.97055" x2="198.4679" y2="492.06686"/>
<line stroke="#000000" x1="457.3726" y1="411.97055" x2="439.36646" y2="269.20923"/>
<line stroke="#000000" x1="457.3726" y1="411.97055" x2="478.20935" y2="252.78802"/>
<line stroke="#000000" x1="457.3726" y1="411.97055" x2="269.2729" y2="473.73853"/>
<line stroke="#000000" x1="457.3726" y1="411.97055" x2="308.73865" y2="458.97922"/>
<line stroke="#000000" x1="457.3726" y1="411.97055" x2="306.7743" y2="573.1816"/>
<line stroke="#000000" x1="457.3726" y1="411.97055" x2="338.81842" y2="545.01636"/>
<line stroke="#000000" x1="457.3726" y1="411.97055" x2="465.02945" y2="358.37262"/>
<line stroke="#000000" x1="465.02945" y1="358.37262" x2="160.02771" y2="509.46808"/>
<line stroke="#000000" x1="465.02945" y1="358.37262" x2="198.4679" y2="492.06686"/>
<line stroke="#000000" x1="465.02945" y1="358.37262" x2="439.36646" y2="269.20923"/>
<line stroke="#000000" x1="465.02945" y1="358.37262" x2="478.20935" y2="252.78802"/>
<line stroke="#000000" x1="465.02945" y1="358.37262" x2="269.2729" y2="473.73853"/>
<line stroke="#000000" x1="465.02945" y1="358.37262" x2="308.73865" y2="458.97922"/>
<line stroke="#000000" x1="465.02945" y1="358.37262" x2="1074.7294" y2="77.11383"/>
<line stroke="#000000" x1="465.02945" y1="358.37262" x2="742.114" y2="313.2707"/>
<line stroke="#000000" x1="465.02945" y1="358.37262" x2="767.2706" y2="348.70312"/>
<line stroke="#000000" x1="465.02945" y1="358.37262" x2="1073.4884" y2="428.8609"/>
<line stroke="#000000" x1="465.02945" y1="358.37262" x2="306.7743" y2="573.1816"/>
<line stroke="#000000" x1="465.02945" y1="358.37262" x2="338.81842" y2="545.01636"/>
<line stroke="#000000" x1="465.02945" y1="358.37262" x2="706.96686" y2="408.21014"/>
<line stroke="#000000" x1="465.02945" y1="358.37262" x2="748.7901" y2="412.15533"/>
<line stroke="#000000" x1="465.02945" y1="358.37262" x2="457.3726" y2="411.97055"/>
<line stroke="#000000" x1="465.02945" y1="358.37262" x2="510.1218" y2="393.58246"/>
<line stroke="#000000" x1="510.1218" y1="393.58246" x2="410.15598" y2="94.46118"/>
<line stroke="#000000" x1="510.1218" y1="393.58246" x2="425.53885" y2="137.7893"/>
<line stroke="#000000" x1="510.1218" y1="393.58246" x2="439.36646" y2="269.20923"/>
<line stroke="#000000" x1="510.1218" y1="393.58246" x2="478.20935" y2="252.78802"/>
<line stroke="#000000" x1="510.1218" y1="393.58246" x2="1074.7294" y2="77.11383"/>
<line stroke="#000000" x1="510.1218" y1="393.58246" x2="742.114" y2="313.2707"/>
<line stroke="#000000" x1="510.1218" y1="393.58246" x2="767.2706" y2="348.70312"/>
<line stroke="#000000" x1="510.1218" y1="393.58246" x2="1073.4884" y2="428.8609"/>
<line stroke="#000000" x1="510.1218" y1="393.58246" x2="706.96686" y2="408.21014"/>
<line stroke="#000000" x1="510.1218" y1="393.58246" x2="748.7901" y2="412.15533"/>
<line stroke="#000000" x1="510.1218" y1="393.58246" x2="465.02945" y2="358.37262"/>
<line stroke="#000000" x1="340.02847" y1="604.7328" x2="160.02771" y2="509.46808"/>
<line stroke="#000000" x1="340.02847" y1="604.7328" x2="198.4679" y2="492.06686"/>
<line stroke="#000000" x1="340.02847" y1="604.7328" x2="269.2729" y2="473.73853"/>
<line stroke="#000000" x1="340.02847" y1="604.7328" x2="308.73865" y2="458.97922"/>
<line stroke="#000000" x1="340.02847" y1="604.7328" x2="144.91136" y2="469.94016"/>
<line stroke="#000000" x1="340.02847" y1="604.7328" x2="306.7743" y2="573.1816"/>
<line stroke="#000000" x1="340.02847" y1="604.7328" x2="500.1815" y2="793.2257"/>
<line stroke="#000000" x1="340.02847" y1="604.7328" x2="476.47733" y2="752.81006"/>
<line stroke="#000000" x1="100.0" y1="107.0" x2="33.531998" y2="230.02753"/>
<line stroke="#000000" x1="100.0" y1="107.0" x2="71.9724" y2="212.62683"/>
<line stroke="#000000" x1="100.0" y1="107.0" x2="49.844006" y2="271.17212"/>
<line stroke="#000000" x1="100.0" y1="107.0" x2="410.15598" y2="94.46118"/>
<line stroke="#000000" x1="100.0" y1="107.0" x2="371.79065" y2="109.366455"/>
<line stroke="#000000" x1="100.0" y1="107.0" x2="1074.7294" y2="77.11383"/>
<line stroke="#000000" x1="986.0" y1="754.0" x2="742.114" y2="313.2707"/>
<line stroke="#000000" x1="986.0" y1="754.0" x2="767.2706" y2="348.70312"/>
<line stroke="#000000" x1="986.0" y1="754.0" x2="1073.4884" y2="428.8609"/>
<line stroke="#000000" x1="986.0" y1="754.0" x2="1086.861" y2="383.76752"/>
<line stroke="#000000" x1="986.0" y1="754.0" x2="500.1815" y2="793.2257"/>
<line stroke="#000000" x1="986.0" y1="754.0" x2="532.22577" y2="765.0606"/>
<line stroke="#000000" x1="986.0" y1="754.0" x2="712.18994" y2="669.4773"/>
<line stroke="#000000" x1="986.0" y1="754.0" x2="727.5226" y2="712.84717"/>
<line stroke="#000000" x1="986.0" y1="754.0" x2="678.20996" y2="713.033"/>
<line stroke="#000000" x1="986.0" y1="754.0" x2="748.7901" y2="412.15533"/>
<line stroke="#000000" x1="986.0" y1="754.0" x2="741.9705" y2="452.6274"/>
</g>
</svg>
