<svg xmlns="http://www.w3.org/2000/svg" width="1195.0px" height="920.0px" viewBox="0.0 0.0 1195.0 920.0">
<g>
<line stroke="#000000" x1="170.0" y1="483.0" x2="60.0" y2="240.0"/>
<line stroke="#000000" x1="165.0138" y1="496.23392" x2="184.23401" y2="487.53357"/>
<line stroke="#000000" x1="46.766106" y1="235.01404" x2="65.98609" y2="226.31317"/>
<line stroke="#000000" x1="165.0138" y1="496.23392" x2="46.766106" y2="235.01404"/>
<line stroke="#000000" x1="184.23401" y1="487.53357" x2="65.98609" y2="226.31317"/>
<line stroke="#000000" x1="60.0" y1="240.0" x2="398.0" y2="120.0"/>
<line stroke="#000000" x1="47.230576" y1="233.922" x2="54.922005" y2="255.58606"/>
<line stroke="#000000" x1="404.078" y1="107.23059" x2="411.7694" y2="128.89465"/>
<line stroke="#000000" x1="47.230576" y1="233.922" x2="404.078" y2="107.23059"/>
<line stroke="#000000" x1="54.922005" y1="255.58606" x2="411.7694" y2="128.89465"/>
<line stroke="#000000" x1="398.0" y1="120.0" x2="450.0" y2="243.0"/>
<line stroke="#000000" x1="384.89523" y1="114.68298" x2="404.31686" y2="106.4729"/>
<line stroke="#000000" x1="444.68314" y1="256.10437" x2="464.10477" y2="247.89429"/>
<line stroke="#000000" x1="384.89523" y1="114.68298" x2="444.68314" y2="256.10437"/>
<line stroke="#000000" x1="404.31686" y1="106.4729" x2="464.10477" y2="247.89429"/>
<line stroke="#000000" x1="450.0" y1="243.0" x2="235.0" y2="325.0"/>
<line stroke="#000000" x1="455.77988" y1="230.09302" x2="463.90714" y2="251.4018"/>
<line stroke="#000000" x1="222.09293" y1="319.22003" x2="230.22006" y2="340.529"/>
<line stroke="#000000" x1="455.77988" y1="230.09302" x2="222.09293" y2="319.22003"/>
<line stroke="#000000" x1="463.90714" y1="251.4018" x2="230.22006" y2="340.529"/>
<line stroke="#000000" x1="235.0" y1="325.0" x2="281.0" y2="448.0"/>
<line stroke="#000000" x1="222.13083" y1="319.13684" x2="241.8634" y2="311.75635"/>
<line stroke="#000000" x1="275.1364" y1="460.86914" x2="294.8694" y2="453.48975"/>
<line stroke="#000000" x1="222.13083" y1="319.13684" x2="275.1364" y2="460.86914"/>
<line stroke="#000000" x1="241.8634" y1="311.75635" x2="294.8694" y2="453.48975"/>
<line stroke="#000000" x1="281.0" y1="448.0" x2="170.0" y2="483.0"/>
<line stroke="#000000" x1="287.52982" y1="435.4557" x2="294.5444" y2="457.70123"/>
<line stroke="#000000" x1="157.45564" y1="476.4701" x2="164.47011" y2="498.7157"/>
<line stroke="#000000" x1="287.52982" y1="435.4557" x2="157.45564" y2="476.4701"/>
<line stroke="#000000" x1="294.5444" y1="457.70123" x2="164.47011" y2="498.7157"/>
<line stroke="#000000" x1="1070.0" y1="105.0" x2="770.0" y2="318.0"/>
<line stroke="#000000" x1="1072.3644" y1="91.05707" x2="1084.9432" y2="108.77283"/>
<line stroke="#000000" x1="756.0568" y1="315.63556" x2="768.63556" y2="333.35132"/>
<line stroke="#000000" x1="1072.3644" y1="91.05707" x2="756.0568" y2="315.63556"/>
<line stroke="#000000" x1="1084.9432" y1="108.77283" x2="768.63556" y2="333.35132"/>
<line stroke="#000000" x1="770.0" y1="318.0" x2="1060.0" y2="404.0"/>
<line stroke="#000000" x1="757.5695" y1="324.74414" x2="764.2558" y2="302.1975"/>
<line stroke="#000000" x1="1066.7443" y1="416.43048" x2="1073.4303" y2="393.8836"/>
<line stroke="#000000" x1="757.5695" y1="324.74414" x2="1066.7443" y2="416.43048"/>
<line stroke="#000000" x1="764.2558" y1="302.1975" x2="1073.4303" y2="393.8836"/>
<line stroke="#000000" x1="1070.0" y1="105.0" x2="1060.0" y2="404.0"/>
<line stroke="#000000" x1="1060.3398" y1="94.671326" x2="1081.3286" y2="95.37335"/>
<line stroke="#000000" x1="1049.6714" y1="413.65982" x2="1070.6602" y2="414.3625"/>
<line stroke="#000000" x1="1060.3398" y1="94.671326" x2="1049.6714" y2="413.65982"/>
<line stroke="#000000" x1="1081.3286" y1="95.37335" x2="1070.6602" y2="414.3625"/>
<line stroke="#000000" x1="335.0" y1="575.0" x2="502.0" y2="765.0"/>
<line stroke="#000000" x1="320.8871" y1="574.0907" x2="336.9093" y2="560.00824"/>
<line stroke="#000000" x1="501.09082" y1="779.113" x2="517.1128" y2="765.03015"/>
<line stroke="#000000" x1="320.8871" y1="574.0907" x2="501.09082" y2="779.113"/>
<line stroke="#000000" x1="336.9093" y1="560.00824" x2="517.1128" y2="765.03015"/>
<line stroke="#000000" x1="502.0" y1="765.0" x2="700.0" y2="695.0"/>
<line stroke="#000000" x1="489.23868" y1="758.905" x2="496.90506" y2="780.5899"/>
<line stroke="#000000" x1="706.095" y1="682.2387" x2="713.76135" y2="703.92346"/>
<line stroke="#000000" x1="489.23868" y1="758.905" x2="706.095" y2="682.2387"/>
<line stroke="#000000" x1="496.90506" y1="780.5899" x2="713.76135" y2="703.92346"/>
<line stroke="#000000" x1="700.0" y1="695.0" x2="725.0" y2="430.0"/>
<line stroke="#000000" x1="689.10504" y1="704.01636" x2="710.01654" y2="705.9896"/>
<line stroke="#000000" x1="715.9834" y1="419.10507" x2="736.895" y2="421.07764"/>
<line stroke="#000000" x1="689.10504" y1="704.01636" x2="715.9834" y2="419.10507"/>
<line stroke="#000000" x1="710.01654" y1="705.9896" x2="736.895" y2="421.07764"/>
<line stroke="#000000" x1="725.0" y1="430.0" x2="480.0" y2="395.0"/>
<line stroke="#000000" x1="733.4853" y1="441.31372" x2="737.31366" y2="414.51456"/>
<line stroke="#000000" x1="468.6863" y1="403.4853" x2="472.51468" y2="376.68622"/>
<line stroke="#000000" x1="733.4853" y1="441.31372" x2="468.6863" y2="403.4853"/>
<line stroke="#000000" x1="737.31366" y1="414.51456" x2="472.51468" y2="376.68622"/>
<line stroke="#000000" x1="480.0" y1="395.0" x2="335.0" y2="575.0"/>
<line stroke="#000000" x1="478.48593" y1="380.93896" x2="495.06064" y2="394.29156"/>
<line stroke="#000000" x1="320.93924" y1="576.51416" x2="337.5142" y2="589.86646"/>
<line stroke="#000000" x1="478.48593" y1="380.93896" x2="320.93924" y2="576.51416"/>
<line stroke="#000000" x1="495.06064" y1="394.29156" x2="337.5142" y2="589.86646"/>
</g>
</svg>
