<svg xmlns="http://www.w3.org/2000/svg" width="1195.0px" height="920.0px" viewBox="0.0 0.0 1195.0 920.0">
<g>
<line stroke="#000000" x1="170.0" y1="437.0" x2="60.0" y2="680.0"/>
<line stroke="#000000" x1="160.02771" y1="410.53192" x2="198.4679" y2="427.93314"/>
<line stroke="#000000" x1="33.531998" y1="689.9725" x2="71.9724" y2="707.37317"/>
<line stroke="#000000" x1="160.02771" y1="410.53192" x2="33.531998" y2="689.9725"/>
<line stroke="#000000" x1="198.4679" y1="427.93314" x2="71.9724" y2="707.37317"/>
<line stroke="#000000" x1="60.0" y1="680.0" x2="398.0" y2="800.0"/>
<line stroke="#000000" x1="34.461155" y1="692.156" x2="49.844006" y2="648.8279"/>
<line stroke="#000000" x1="410.15598" y1="825.5388" x2="425.53885" y2="782.2107"/>
<line stroke="#000000" x1="34.461155" y1="692.156" x2="410.15598" y2="825.5388"/>
<line stroke="#000000" x1="49.844006" y1="648.8279" x2="425.53885" y2="782.2107"/>
<line stroke="#000000" x1="398.0" y1="800.0" x2="450.0" y2="677.0"/>
<line stroke="#000000" x1="371.79065" y1="810.63354" x2="410.63354" y2="827.05475"/>
<line stroke="#000000" x1="439.36646" y1="650.7908" x2="478.20935" y2="667.212"/>
<line stroke="#000000" x1="371.79065" y1="810.63354" x2="439.36646" y2="650.7908"/>
<line stroke="#000000" x1="410.63354" y1="827.05475" x2="478.20935" y2="667.212"/>
<line stroke="#000000" x1="450.0" y1="677.0" x2="235.0" y2="595.0"/>
<line stroke="#000000" x1="461.55978" y1="702.8141" x2="477.81424" y2="660.19635"/>
<line stroke="#000000" x1="209.18587" y1="606.5599" x2="225.44014" y2="563.94196"/>
<line stroke="#000000" x1="461.55978" y1="702.8141" x2="209.18587" y2="606.5599"/>
<line stroke="#000000" x1="477.81424" y1="660.19635" x2="225.44014" y2="563.94196"/>
<line stroke="#000000" x1="235.0" y1="595.0" x2="281.0" y2="472.0"/>
<line stroke="#000000" x1="209.26146" y1="606.7269" x2="248.727" y2="621.48676"/>
<line stroke="#000000" x1="269.2729" y1="446.26147" x2="308.73865" y2="461.02078"/>
<line stroke="#000000" x1="209.26146" y1="606.7269" x2="269.2729" y2="446.26147"/>
<line stroke="#000000" x1="248.727" y1="621.48676" x2="308.73865" y2="461.02078"/>
<line stroke="#000000" x1="281.0" y1="472.0" x2="170.0" y2="437.0"/>
<line stroke="#000000" x1="294.05978" y1="497.08862" x2="308.0887" y2="452.5974"/>
<line stroke="#000000" x1="144.91136" y1="450.05984" x2="158.94014" y2="405.56848"/>
<line stroke="#000000" x1="294.05978" y1="497.08862" x2="144.91136" y2="450.05984"/>
<line stroke="#000000" x1="308.0887" y1="452.5974" x2="158.94014" y2="405.56848"/>
<line stroke="#000000" x1="1070.0" y1="815.0" x2="770.0" y2="602.0"/>
<line stroke="#000000" x1="1074.7294" y1="842.88617" x2="1099.8859" y2="807.45374"/>
<line stroke="#000000" x1="742.114" y1="606.7293" x2="767.2706" y2="571.2969"/>
<line stroke="#000000" x1="1074.7294" y1="842.88617" x2="742.114" y2="606.7293"/>
<line stroke="#000000" x1="1099.8859" y1="807.45374" x2="767.2706" y2="571.2969"/>
<line stroke="#000000" x1="770.0" y1="602.0" x2="1060.0" y2="516.0"/>
<line stroke="#000000" x1="745.1391" y1="588.51166" x2="758.51166" y2="633.60504"/>
<line stroke="#000000" x1="1073.4884" y1="491.1391" x2="1086.861" y2="536.2325"/>
<line stroke="#000000" x1="745.1391" y1="588.51166" x2="1073.4884" y2="491.1391"/>
<line stroke="#000000" x1="758.51166" y1="633.60504" x2="1086.861" y2="536.2325"/>
<line stroke="#000000" x1="1070.0" y1="815.0" x2="1060.0" y2="516.0"/>
<line stroke="#000000" x1="1050.6798" y1="835.6574" x2="1092.6573" y2="834.25336"/>
<line stroke="#000000" x1="1039.3427" y1="496.67975" x2="1081.3202" y2="495.2757"/>
<line stroke="#000000" x1="1050.6798" y1="835.6574" x2="1039.3427" y2="496.67975"/>
<line stroke="#000000" x1="1092.6573" y1="834.25336" x2="1081.3202" y2="495.2757"/>
<line stroke="#000000" x1="335.0" y1="344.99997" x2="501.99997" y2="155.0"/>
<line stroke="#000000" x1="306.7743" y1="346.81842" x2="338.81842" y2="374.98367"/>
<line stroke="#000000" x1="500.1815" y1="126.77427" x2="532.22577" y2="154.93939"/>
<line stroke="#000000" x1="306.7743" y1="346.81842" x2="500.1815" y2="126.77427"/>
<line stroke="#000000" x1="338.81842" y1="374.98367" x2="532.22577" y2="154.93939"/>
<line stroke="#000000" x1="502.0" y1="155.0" x2="700.0" y2="225.0"/>
<line stroke="#000000" x1="476.47733" y1="167.18991" x2="491.8101" y2="123.82024"/>
<line stroke="#000000" x1="712.18994" y1="250.52267" x2="727.5226" y2="207.15285"/>
<line stroke="#000000" x1="476.47733" y1="167.18991" x2="712.18994" y2="250.52267"/>
<line stroke="#000000" x1="491.8101" y1="123.82024" x2="727.5226" y2="207.15285"/>
<line stroke="#000000" x1="700.0" y1="225.0" x2="725.0" y2="490.0"/>
<line stroke="#000000" x1="678.20996" y1="206.96696" x2="720.0331" y2="203.02116"/>
<line stroke="#000000" x1="706.96686" y1="511.78986" x2="748.7901" y2="507.84467"/>
<line stroke="#000000" x1="678.20996" y1="206.96696" x2="706.96686" y2="511.78986"/>
<line stroke="#000000" x1="720.0331" y1="203.02116" x2="748.7901" y2="507.84467"/>
<line stroke="#000000" x1="725.0" y1="490.0" x2="480.0" y2="525.0"/>
<line stroke="#000000" x1="741.9705" y1="467.3726" x2="749.6275" y2="520.9704"/>
<line stroke="#000000" x1="457.3726" y1="508.02945" x2="465.02945" y2="561.6274"/>
<line stroke="#000000" x1="741.9705" y1="467.3726" x2="457.3726" y2="508.02945"/>
<line stroke="#000000" x1="749.6275" y1="520.9704" x2="465.02945" y2="561.6274"/>
<line stroke="#000000" x1="480.0" y1="525.0" x2="335.0" y2="345.0"/>
<line stroke="#000000" x1="476.9714" y1="553.1215" x2="510.1218" y2="526.41754"/>
<line stroke="#000000" x1="306.87833" y1="341.97153" x2="340.02847" y2="315.2672"/>
<line stroke="#000000" x1="476.9714" y1="553.1215" x2="306.87833" y2="341.97153"/>
<line stroke="#000000" x1="510.1218" y1="526.41754" x2="340.02847" y2="315.2672"/>
</g>
</svg>
